M48
;Layer_Color=9474304
;FILE_FORMAT=2:5
INCH,LZ
;TYPE=PLATED
T1F00S00C0.01181
T2F00S00C0.01575
T3F00S00C0.03307
T4F00S00C0.03543
T5F00S00C0.12598
;TYPE=NON_PLATED
T6F00S00C0.01800
%
T01
X0035Y01172
X0045031Y01162
X00515Y01362
X00575
X00565Y01332
X0081Y01267
X0078985Y0124185
X0077076Y0122276
X00785Y01067
X0071Y01037
X0059Y00967
X00585Y00912
X0063Y00662
Y00622
X00615Y00387
X0064Y00342
X00679Y00363
X007Y00387
X0074138Y00408
X00725Y00327
X0088Y00506
X00992Y00568
X01023Y00564
X0102Y006
X00997Y00632
X01072Y00689
X0105Y00817
X0097Y00812
X009168Y007452
X0088Y00752
X00838Y00763
X00788Y00791
X00759Y00772
X00855Y00862
X0089
X00937Y01131
X00938Y01162
X00945Y01202
X0107108Y0123092
X01142Y01193
X01171Y01171
X01275Y00887
X01272Y0073
X0135Y00742
Y00772
X0147Y008535
X0151Y00677
X01257Y00642
X0125182Y0034682
X01288Y00343
X01323Y0034635
X01115Y00342
X0176532Y0076669
X0176Y00922
X01739Y01146
T02
X02175Y00039
X0203Y00042
Y00122
X01565Y00157
X0104Y00092
X00515Y00027
X0021Y00092
X0007Y00062
X00085Y00237
X001Y00452
Y00612
Y00752
Y00912
Y01072
X0011Y01372
X0018Y01452
X0031Y01422
X0039Y01427
X00505Y01477
X0057Y01292
X0055Y01162
X004Y01142
X0039Y01012
X0041Y00967
X004Y00852
Y00732
X00288Y00737
X00287Y00637
X0029Y00532
X0036Y00432
X00285Y00835
X0057Y00772
X0038Y01272
X0071Y01212
X007Y01412
X0082
X0091Y01477
Y01262
X0107Y01302
X0118Y01272
Y01342
X012Y01402
X0129Y01452
X01445Y01412
X0166Y01337
X0175Y01212
X0185
X0154Y01132
X01402Y01097
X0129Y01102
X01201Y01027
X0109Y01092
X0107Y01137
X0089Y01052
X0085Y00897
X0098Y00902
X0091Y00817
X0088Y00617
X0079
X0083Y00562
X00785Y00507
X0062Y00437
X0072Y00257
X00885Y00232
X0104Y00212
X0101Y00372
X01073Y00592
X01072Y0063
X01225Y00692
X01315Y00682
X01365Y00692
X0144Y00757
X0142Y00872
X01378Y00847
X0148Y00932
X0172Y00912
X01735Y00822
X0163Y00752
X0194Y00762
Y00652
X0196Y00492
X0192Y00352
X0178
X01781Y00474
X0178Y0052
X01793Y00576
X0151Y00542
X0152Y00432
X0146Y00392
X0148Y00302
X0156Y00232
X0123Y00282
X02Y00252
X0126Y01272
X0065Y00892
X0217Y01472
T03
X00225Y00537
Y00637
Y00737
Y00837
Y00937
Y01037
Y01137
Y01237
T04
X02125Y00107
Y00207
Y00307
Y00407
Y00507
Y00607
Y00707
Y00807
Y00907
Y01007
Y01107
Y01207
Y01307
Y01407
X0187Y00862
Y00762
T05
X0177Y00202
X01875Y01347
T06
X012552Y0020129
X014048
M30
