G04 Layer_Physical_Order=4*
G04 Layer_Color=16711680*
%FSLAX25Y25*%
%MOIN*%
G70*
G01*
G75*
%ADD42C,0.00800*%
%ADD43C,0.02500*%
%ADD44C,0.01500*%
%ADD45C,0.01000*%
%ADD65C,0.02500*%
G04:AMPARAMS|DCode=66|XSize=275.59mil|YSize=196.85mil|CornerRadius=49.21mil|HoleSize=0mil|Usage=FLASHONLY|Rotation=0.000|XOffset=0mil|YOffset=0mil|HoleType=Round|Shape=RoundedRectangle|*
%AMROUNDEDRECTD66*
21,1,0.27559,0.09843,0,0,0.0*
21,1,0.17716,0.19685,0,0,0.0*
1,1,0.09843,0.08858,-0.04921*
1,1,0.09843,-0.08858,-0.04921*
1,1,0.09843,-0.08858,0.04921*
1,1,0.09843,0.08858,0.04921*
%
%ADD66ROUNDEDRECTD66*%
%ADD67R,0.05906X0.05906*%
%ADD68C,0.05906*%
%ADD69C,0.04961*%
%ADD70R,0.04961X0.04961*%
%ADD71C,0.02000*%
%ADD72C,0.03000*%
%ADD73C,0.02362*%
G36*
X220777Y75168D02*
X220315Y74976D01*
X215908Y79383D01*
X216059Y79746D01*
X216184Y80700D01*
X216059Y81654D01*
X215691Y82542D01*
X215105Y83305D01*
X214342Y83891D01*
X213454Y84259D01*
X212500Y84384D01*
X211546Y84259D01*
X210658Y83891D01*
X209895Y83305D01*
X209309Y82542D01*
X208941Y81654D01*
X208816Y80700D01*
X208941Y79746D01*
X209309Y78858D01*
X209895Y78095D01*
X210658Y77509D01*
X211546Y77141D01*
X212500Y77016D01*
X213454Y77141D01*
X213817Y77292D01*
X218522Y72588D01*
Y64269D01*
X218022Y64118D01*
X217948Y64227D01*
X214794Y67382D01*
X214826Y67881D01*
X215105Y68095D01*
X215691Y68858D01*
X216059Y69746D01*
X216184Y70700D01*
X216059Y71654D01*
X215691Y72542D01*
X215105Y73305D01*
X214342Y73891D01*
X213454Y74259D01*
X212500Y74384D01*
X211546Y74259D01*
X210658Y73891D01*
X209895Y73305D01*
X209309Y72542D01*
X208941Y71654D01*
X208845Y70926D01*
X208328Y70737D01*
X205176Y73889D01*
Y91280D01*
X205638Y91472D01*
X207455Y89655D01*
X207934Y89334D01*
X208500Y89222D01*
X209159D01*
X209309Y88858D01*
X209895Y88095D01*
X210658Y87509D01*
X211546Y87141D01*
X212500Y87016D01*
X213454Y87141D01*
X214342Y87509D01*
X215105Y88095D01*
X215691Y88858D01*
X216059Y89746D01*
X216184Y90700D01*
X216059Y91654D01*
X215691Y92542D01*
X215105Y93305D01*
X214342Y93891D01*
X213454Y94259D01*
X212500Y94384D01*
X211546Y94259D01*
X210658Y93891D01*
X209895Y93305D01*
X209373Y92625D01*
X209033Y92535D01*
X208762Y92528D01*
X199531Y101760D01*
X199723Y102222D01*
X204488D01*
X207055Y99655D01*
X207534Y99334D01*
X208100Y99222D01*
X209159D01*
X209309Y98858D01*
X209895Y98095D01*
X210658Y97509D01*
X211546Y97141D01*
X212500Y97016D01*
X213454Y97141D01*
X214342Y97509D01*
X215105Y98095D01*
X215691Y98858D01*
X216059Y99746D01*
X216184Y100700D01*
X216059Y101654D01*
X215691Y102542D01*
X215105Y103305D01*
X214342Y103891D01*
X213454Y104259D01*
X213022Y104316D01*
X213005Y104822D01*
X213066Y104834D01*
X213545Y105155D01*
X213866Y105634D01*
X213978Y106200D01*
Y107359D01*
X214342Y107509D01*
X215105Y108095D01*
X215691Y108858D01*
X216059Y109746D01*
X216184Y110700D01*
X216059Y111654D01*
X215691Y112542D01*
X215105Y113305D01*
X214342Y113891D01*
X213454Y114259D01*
X212500Y114384D01*
X211546Y114259D01*
X210658Y113891D01*
X209895Y113305D01*
X209309Y112542D01*
X208941Y111654D01*
X208816Y110700D01*
X208941Y109746D01*
X209309Y108858D01*
X209831Y108178D01*
X209692Y107678D01*
X200222D01*
X200031Y108140D01*
X209946Y118055D01*
X210658Y117509D01*
X211546Y117141D01*
X212500Y117016D01*
X213454Y117141D01*
X214342Y117509D01*
X215105Y118095D01*
X215691Y118858D01*
X216059Y119746D01*
X216184Y120700D01*
X216059Y121654D01*
X215691Y122542D01*
X215105Y123305D01*
X214342Y123891D01*
X213454Y124259D01*
X212500Y124384D01*
X211546Y124259D01*
X210658Y123891D01*
X209895Y123305D01*
X209309Y122542D01*
X208941Y121654D01*
X208877Y121168D01*
X197888Y110178D01*
X157384D01*
X156267Y111295D01*
X155788Y111616D01*
X155711Y111801D01*
X156072Y112342D01*
X156243Y113200D01*
X156072Y114058D01*
X155586Y114786D01*
X154858Y115272D01*
X154000Y115443D01*
X153142Y115272D01*
X152414Y114786D01*
X151928Y114058D01*
X151887Y113855D01*
X151409Y113710D01*
X150924Y114195D01*
X150444Y114516D01*
X149878Y114628D01*
X122950D01*
X122384Y114516D01*
X121905Y114195D01*
X113455Y105745D01*
X113134Y105266D01*
X113022Y104700D01*
Y99312D01*
X96554Y82845D01*
X96337Y82801D01*
X95774Y82426D01*
X95399Y81863D01*
X95267Y81200D01*
X95399Y80537D01*
X95774Y79974D01*
X96143Y79728D01*
X95991Y79228D01*
X90550D01*
X89984Y79116D01*
X89505Y78795D01*
X87554Y76845D01*
X87337Y76801D01*
X86774Y76426D01*
X86399Y75863D01*
X86267Y75200D01*
X86399Y74537D01*
X86774Y73974D01*
X87003Y73822D01*
X86851Y73322D01*
X84965D01*
X84158Y74128D01*
X84323Y74671D01*
X84463Y74699D01*
X85026Y75074D01*
X85401Y75637D01*
X85533Y76300D01*
X85401Y76963D01*
X85026Y77526D01*
X84651Y77776D01*
X84593Y77863D01*
X84593Y77863D01*
X80463Y81993D01*
X80099Y82236D01*
X79670Y82322D01*
X79670Y82322D01*
X76930D01*
X76501Y82236D01*
X76137Y81993D01*
X76137Y81993D01*
X73007Y78863D01*
X72764Y78499D01*
X72678Y78070D01*
X72678Y78070D01*
Y76330D01*
X72678Y76330D01*
X72764Y75901D01*
X73007Y75537D01*
X79344Y69200D01*
X74207Y64063D01*
X73964Y63699D01*
X73878Y63270D01*
X73878Y63270D01*
Y48665D01*
X65035Y39822D01*
X62795D01*
X62726Y39926D01*
X62163Y40301D01*
X61500Y40433D01*
X60837Y40301D01*
X60274Y39926D01*
X59899Y39363D01*
X59767Y38700D01*
X59899Y38037D01*
X60042Y37822D01*
X59775Y37322D01*
X52586D01*
X28995Y60913D01*
X28631Y61156D01*
X28202Y61241D01*
X28202Y61241D01*
X25565D01*
X25344Y61690D01*
X25540Y61945D01*
X25891Y62792D01*
X25945Y63200D01*
X22500D01*
Y63700D01*
X22000D01*
Y67145D01*
X21591Y67091D01*
X20745Y66740D01*
X20490Y66544D01*
X20041Y66765D01*
Y70635D01*
X20490Y70856D01*
X20745Y70660D01*
X21591Y70309D01*
X22000Y70256D01*
Y73700D01*
Y77144D01*
X21591Y77091D01*
X20745Y76740D01*
X20490Y76544D01*
X20041Y76765D01*
Y80948D01*
X20541Y81194D01*
X20896Y80922D01*
X21670Y80602D01*
X22500Y80492D01*
X23330Y80602D01*
X24104Y80922D01*
X24768Y81432D01*
X25278Y82096D01*
X25598Y82870D01*
X25708Y83700D01*
X25598Y84530D01*
X25278Y85304D01*
X24768Y85968D01*
X24104Y86478D01*
X23330Y86799D01*
X22500Y86908D01*
X21670Y86799D01*
X20896Y86478D01*
X20541Y86206D01*
X20041Y86452D01*
Y90948D01*
X20541Y91194D01*
X20896Y90922D01*
X21670Y90601D01*
X22500Y90492D01*
X23330Y90601D01*
X24104Y90922D01*
X24768Y91432D01*
X25278Y92096D01*
X25478Y92578D01*
X27035D01*
X58207Y61407D01*
X58207Y61407D01*
X58571Y61164D01*
X59000Y61078D01*
X59000Y61078D01*
X61705D01*
X61774Y60974D01*
X62337Y60599D01*
X63000Y60467D01*
X63663Y60599D01*
X64226Y60974D01*
X64601Y61537D01*
X64733Y62200D01*
X64601Y62863D01*
X64226Y63426D01*
X63663Y63801D01*
X63000Y63933D01*
X62337Y63801D01*
X61774Y63426D01*
X61705Y63322D01*
X59465D01*
X28293Y94493D01*
X27929Y94736D01*
X27500Y94822D01*
X27500Y94822D01*
X25478D01*
X25278Y95304D01*
X24768Y95968D01*
X24104Y96478D01*
X23330Y96798D01*
X22500Y96908D01*
X21670Y96798D01*
X20896Y96478D01*
X20541Y96206D01*
X20041Y96452D01*
Y99655D01*
X21188Y100801D01*
X21670Y100601D01*
X22500Y100492D01*
X23330Y100601D01*
X24104Y100922D01*
X24768Y101432D01*
X25278Y102096D01*
X25598Y102870D01*
X25708Y103700D01*
X25598Y104530D01*
X25278Y105304D01*
X24768Y105968D01*
X24104Y106478D01*
X23330Y106799D01*
X22887Y106857D01*
X22707Y107385D01*
X23293Y107970D01*
X23293Y107970D01*
X23536Y108334D01*
X23622Y108763D01*
X23621Y108763D01*
Y110722D01*
X24104Y110922D01*
X24768Y111432D01*
X25278Y112096D01*
X25598Y112870D01*
X25708Y113700D01*
X25598Y114530D01*
X25278Y115304D01*
X24768Y115968D01*
X24104Y116478D01*
X23330Y116798D01*
X22500Y116908D01*
X21670Y116798D01*
X20896Y116478D01*
X20232Y115968D01*
X19722Y115304D01*
X19402Y114530D01*
X19292Y113700D01*
X19402Y112870D01*
X19722Y112096D01*
X20232Y111432D01*
X20896Y110922D01*
X21378Y110722D01*
Y109228D01*
X16627Y104476D01*
X16384Y104112D01*
X16298Y103683D01*
X16298Y103683D01*
Y61596D01*
X16298Y61596D01*
X16384Y61167D01*
X16627Y60803D01*
X19603Y57827D01*
X19603Y57827D01*
X19966Y57583D01*
X20396Y57498D01*
X20396Y57498D01*
X27116D01*
X28717Y55897D01*
X28553Y55354D01*
X28142Y55272D01*
X27414Y54786D01*
X26928Y54058D01*
X26757Y53200D01*
X26928Y52342D01*
X27414Y51614D01*
X28142Y51128D01*
X29000Y50957D01*
X29858Y51128D01*
X30586Y51614D01*
X31072Y52342D01*
X31154Y52753D01*
X31697Y52917D01*
X51207Y33407D01*
X51207Y33407D01*
X51571Y33164D01*
X52000Y33078D01*
X62705D01*
X62774Y32974D01*
X63337Y32599D01*
X64000Y32467D01*
X64663Y32599D01*
X65226Y32974D01*
X65440Y33295D01*
X66045Y33398D01*
X67535Y31907D01*
X67535Y31907D01*
X67899Y31664D01*
X68328Y31578D01*
X71205D01*
X71274Y31474D01*
X71837Y31099D01*
X72500Y30967D01*
X73163Y31099D01*
X73726Y31474D01*
X74257Y31430D01*
X74522Y31162D01*
Y26717D01*
X74348Y26656D01*
X74022Y26634D01*
X73586Y27286D01*
X72858Y27772D01*
X72000Y27943D01*
X71142Y27772D01*
X70414Y27286D01*
X69928Y26558D01*
X69757Y25700D01*
X69928Y24842D01*
X70414Y24114D01*
X71142Y23628D01*
X72000Y23457D01*
X72858Y23628D01*
X73586Y24114D01*
X74022Y24766D01*
X74348Y24744D01*
X74522Y24682D01*
Y17917D01*
X74634Y17351D01*
X74955Y16871D01*
X89269Y2557D01*
X89748Y2237D01*
X90314Y2124D01*
X179425D01*
X179991Y2237D01*
X180471Y2557D01*
X182135Y4222D01*
X193500D01*
X194066Y4334D01*
X194545Y4655D01*
X197545Y7655D01*
X197866Y8134D01*
X197978Y8700D01*
Y14588D01*
X207612Y24222D01*
X209775D01*
X209945Y23722D01*
X209681Y23519D01*
X209047Y22693D01*
X208649Y21732D01*
X208579Y21200D01*
X212500D01*
X216421D01*
X216351Y21732D01*
X215953Y22693D01*
X215319Y23519D01*
X215055Y23722D01*
X215225Y24222D01*
X217000D01*
X217566Y24334D01*
X218045Y24655D01*
X220315Y26924D01*
X220777Y26732D01*
Y423D01*
X1223D01*
Y150977D01*
X220777D01*
Y75168D01*
D02*
G37*
G36*
X138537Y111172D02*
X138128Y110558D01*
X137957Y109700D01*
X138051Y109228D01*
X137648Y108728D01*
X121273D01*
X121081Y109190D01*
X123562Y111672D01*
X138359D01*
X138537Y111172D01*
D02*
G37*
G36*
X174351Y92622D02*
X174267Y92200D01*
X174399Y91537D01*
X174774Y90974D01*
X175337Y90599D01*
X176000Y90467D01*
X176003Y90467D01*
X176635Y89835D01*
X177032Y89570D01*
X177500Y89477D01*
X183347D01*
Y88188D01*
X160794D01*
X160603Y88650D01*
X165074Y93122D01*
X174016D01*
X174351Y92622D01*
D02*
G37*
G36*
X197819Y89957D02*
Y57676D01*
X197931Y57111D01*
X198252Y56631D01*
X210544Y44339D01*
X210447Y43729D01*
X209895Y43305D01*
X209309Y42542D01*
X208941Y41654D01*
X208816Y40700D01*
X208941Y39746D01*
X209309Y38858D01*
X209756Y38276D01*
X209524Y37776D01*
X202986D01*
X202420Y37663D01*
X201941Y37343D01*
X192857Y28259D01*
X192537Y27780D01*
X192424Y27214D01*
Y11215D01*
X190838Y9628D01*
X188909D01*
X188784Y10128D01*
X189164Y10332D01*
X190066Y11072D01*
X190805Y11973D01*
X191355Y13002D01*
X191694Y14118D01*
X191808Y15279D01*
Y19700D01*
X177500D01*
Y9329D01*
X179159D01*
X179366Y8829D01*
X178216Y7678D01*
X91440D01*
X80253Y18866D01*
X79857Y19615D01*
X79718Y19786D01*
X79678Y19845D01*
Y34000D01*
X79566Y34566D01*
X79264Y35018D01*
X79296Y35169D01*
X79438Y35518D01*
X97419D01*
X99130Y33807D01*
X99130Y33807D01*
X99494Y33564D01*
X99923Y33478D01*
X109938D01*
X110274Y32974D01*
X110837Y32599D01*
X111500Y32467D01*
X112163Y32599D01*
X112726Y32974D01*
X113101Y33537D01*
X113233Y34200D01*
X113101Y34863D01*
X112726Y35426D01*
X112163Y35801D01*
X111500Y35933D01*
X110837Y35801D01*
X110717Y35722D01*
X103188D01*
X102953Y36162D01*
X103072Y36342D01*
X103243Y37200D01*
X103072Y38058D01*
X102586Y38786D01*
X101858Y39272D01*
X101000Y39443D01*
X100142Y39272D01*
X99414Y38786D01*
X98928Y38058D01*
X98894Y37889D01*
X98338Y37659D01*
X98313Y37675D01*
X97884Y37761D01*
X97884Y37761D01*
X78525D01*
X75807Y40479D01*
X75871Y40800D01*
X75739Y41463D01*
X75364Y42026D01*
X74801Y42401D01*
X74138Y42533D01*
X73475Y42401D01*
X72912Y42026D01*
X72537Y41463D01*
X72405Y40800D01*
X72500Y40322D01*
X72192Y39822D01*
X71295D01*
X71226Y39926D01*
X70663Y40301D01*
X70000Y40433D01*
X69880Y40409D01*
X69342Y40812D01*
X69330Y40944D01*
X75793Y47407D01*
X75793Y47407D01*
X76036Y47771D01*
X76122Y48200D01*
X76122Y48200D01*
Y62805D01*
X81395Y68078D01*
X102241D01*
X102448Y67578D01*
X99786Y64916D01*
X99700Y64933D01*
X99037Y64801D01*
X98474Y64426D01*
X98099Y63863D01*
X97967Y63200D01*
X98099Y62537D01*
X98474Y61974D01*
X99037Y61599D01*
X99700Y61467D01*
X100363Y61599D01*
X100926Y61974D01*
X101301Y62537D01*
X101409Y63079D01*
X104007Y65676D01*
X106000D01*
X106468Y65770D01*
X106865Y66035D01*
X108165Y67335D01*
X108165Y67335D01*
X108365Y67634D01*
X108426Y67674D01*
X108801Y68237D01*
X108933Y68900D01*
X108801Y69563D01*
X108426Y70126D01*
X107863Y70501D01*
X107723Y70529D01*
X107558Y71072D01*
X125277Y88791D01*
X125484Y88753D01*
X125788Y88595D01*
X125899Y88037D01*
X126274Y87474D01*
X126837Y87099D01*
X127500Y86967D01*
X127623Y86991D01*
X133878Y80735D01*
Y78495D01*
X133774Y78426D01*
X133399Y77863D01*
X133267Y77200D01*
X132896Y76837D01*
X129915D01*
X129486Y76751D01*
X129122Y76508D01*
X129122Y76508D01*
X127323Y74709D01*
X127200Y74733D01*
X126537Y74601D01*
X125974Y74226D01*
X125599Y73663D01*
X125467Y73000D01*
X125599Y72337D01*
X125974Y71774D01*
X126537Y71399D01*
X126844Y71337D01*
X127009Y70795D01*
X125213Y68999D01*
X124859Y69150D01*
X124737Y69230D01*
X124572Y70058D01*
X124086Y70786D01*
X123358Y71272D01*
X122500Y71443D01*
X121642Y71272D01*
X120914Y70786D01*
X120428Y70058D01*
X120257Y69200D01*
X120428Y68342D01*
X120914Y67614D01*
X121642Y67128D01*
X122500Y66957D01*
X123358Y67128D01*
X124086Y67614D01*
X124578Y67451D01*
Y65495D01*
X124474Y65426D01*
X124099Y64863D01*
X123967Y64200D01*
X124099Y63537D01*
X124474Y62974D01*
X125037Y62599D01*
X125700Y62467D01*
X126363Y62599D01*
X126926Y62974D01*
X127301Y63537D01*
X127433Y64200D01*
X127301Y64863D01*
X126926Y65426D01*
X126822Y65495D01*
Y67435D01*
X132465Y73078D01*
X133705Y73078D01*
X133774Y72974D01*
X134337Y72599D01*
X135000Y72467D01*
X135663Y72599D01*
X136226Y72974D01*
X136601Y73537D01*
X136733Y74200D01*
X136601Y74863D01*
X136226Y75426D01*
X136189Y75450D01*
Y75950D01*
X136226Y75974D01*
X136601Y76537D01*
X136733Y77200D01*
X136601Y77863D01*
X136226Y78426D01*
X136122Y78495D01*
Y81200D01*
X136036Y81629D01*
X135793Y81993D01*
X135793Y81993D01*
X129209Y88577D01*
X129233Y88700D01*
X129101Y89363D01*
X128762Y89872D01*
X128824Y90114D01*
X128958Y90372D01*
X141454D01*
X144821Y87005D01*
X145301Y86684D01*
X145395Y86458D01*
X145163Y86111D01*
X145012Y85350D01*
X145163Y84589D01*
X145594Y83944D01*
X146239Y83513D01*
X147000Y83362D01*
X159030D01*
X159791Y83513D01*
X160436Y83944D01*
X160704Y84212D01*
X171720D01*
X171864Y83712D01*
X171428Y83058D01*
X171257Y82200D01*
X171428Y81342D01*
X171914Y80614D01*
X172642Y80128D01*
X173500Y79957D01*
X174358Y80128D01*
X175086Y80614D01*
X175572Y81342D01*
X175743Y82200D01*
X175572Y83058D01*
X175136Y83712D01*
X175280Y84212D01*
X183347D01*
Y82618D01*
X181194D01*
X180726Y82525D01*
X180329Y82260D01*
X176457Y78387D01*
X175868Y78270D01*
X175306Y77894D01*
X174930Y77332D01*
X174813Y76743D01*
X166911Y68842D01*
X166500Y68923D01*
X152227D01*
X152226Y68926D01*
X151663Y69301D01*
X151000Y69433D01*
X150337Y69301D01*
X149774Y68926D01*
X149399Y68363D01*
X149271Y67724D01*
X134158D01*
X133743Y68200D01*
X133572Y69058D01*
X133086Y69786D01*
X132358Y70272D01*
X131500Y70443D01*
X130642Y70272D01*
X129914Y69786D01*
X129428Y69058D01*
X129257Y68200D01*
X129428Y67342D01*
X129914Y66614D01*
X130642Y66128D01*
X131500Y65957D01*
X131928Y66042D01*
X132335Y65635D01*
X132732Y65370D01*
X133200Y65276D01*
X149800D01*
X150268Y65370D01*
X150665Y65635D01*
X150997Y65967D01*
X151000Y65967D01*
X151663Y66099D01*
X152226Y66474D01*
X152227Y66477D01*
X165993D01*
X166135Y66335D01*
X166532Y66070D01*
X167000Y65977D01*
X167468Y66070D01*
X167865Y66335D01*
X176476Y74946D01*
X176532Y74935D01*
X177195Y75067D01*
X177757Y75443D01*
X178133Y76005D01*
X178265Y76669D01*
X178254Y76724D01*
X181701Y80171D01*
X184951D01*
X185051Y79671D01*
X185007Y79653D01*
X184181Y79019D01*
X183547Y78193D01*
X183149Y77232D01*
X183079Y76700D01*
X187000D01*
X190921D01*
X190851Y77232D01*
X190453Y78193D01*
X189819Y79019D01*
X188993Y79653D01*
X188949Y79671D01*
X189049Y80171D01*
X190500D01*
X190968Y80264D01*
X191365Y80529D01*
X192018Y81182D01*
X192283Y81579D01*
X192376Y82047D01*
Y89650D01*
X192283Y90118D01*
X192018Y90515D01*
X190968Y91565D01*
X190571Y91830D01*
X190103Y91923D01*
X178105D01*
X177733Y92200D01*
X177649Y92622D01*
X177984Y93122D01*
X194654D01*
X197819Y89957D01*
D02*
G37*
G36*
X218522Y37789D02*
Y29312D01*
X216388Y27178D01*
X215225D01*
X215055Y27678D01*
X215319Y27881D01*
X215953Y28707D01*
X216351Y29668D01*
X216421Y30200D01*
X212500D01*
X208579D01*
X208649Y29668D01*
X209047Y28707D01*
X209681Y27881D01*
X209945Y27678D01*
X209775Y27178D01*
X207000D01*
X206434Y27066D01*
X205955Y26745D01*
X195881Y16672D01*
X195381Y16879D01*
Y26602D01*
X203598Y34819D01*
X210808D01*
X210908Y34319D01*
X210507Y34153D01*
X209681Y33519D01*
X209047Y32693D01*
X208649Y31732D01*
X208579Y31200D01*
X212500D01*
X216421D01*
X216351Y31732D01*
X215953Y32693D01*
X215319Y33519D01*
X214493Y34153D01*
X214092Y34319D01*
X214192Y34819D01*
X214324D01*
X214889Y34931D01*
X215369Y35252D01*
X217948Y37831D01*
X218022Y37941D01*
X218522Y37789D01*
D02*
G37*
%LPC*%
G36*
X91000Y149943D02*
X90142Y149772D01*
X89414Y149286D01*
X88928Y148558D01*
X88757Y147700D01*
X88928Y146842D01*
X89414Y146114D01*
X90142Y145628D01*
X91000Y145457D01*
X91858Y145628D01*
X92586Y146114D01*
X93072Y146842D01*
X93243Y147700D01*
X93072Y148558D01*
X92586Y149286D01*
X91858Y149772D01*
X91000Y149943D01*
D02*
G37*
G36*
X50500D02*
X49642Y149772D01*
X48914Y149286D01*
X48428Y148558D01*
X48257Y147700D01*
X48428Y146842D01*
X48914Y146114D01*
X49642Y145628D01*
X50500Y145457D01*
X51358Y145628D01*
X52086Y146114D01*
X52572Y146842D01*
X52743Y147700D01*
X52572Y148558D01*
X52086Y149286D01*
X51358Y149772D01*
X50500Y149943D01*
D02*
G37*
G36*
X217000Y149443D02*
X216142Y149272D01*
X215414Y148786D01*
X214928Y148058D01*
X214757Y147200D01*
X214928Y146342D01*
X215414Y145614D01*
X216142Y145128D01*
X217000Y144957D01*
X217858Y145128D01*
X218586Y145614D01*
X219072Y146342D01*
X219243Y147200D01*
X219072Y148058D01*
X218586Y148786D01*
X217858Y149272D01*
X217000Y149443D01*
D02*
G37*
G36*
X39000Y144943D02*
X38142Y144772D01*
X37414Y144286D01*
X36928Y143558D01*
X36757Y142700D01*
X36928Y141842D01*
X37414Y141114D01*
X38142Y140628D01*
X39000Y140457D01*
X39858Y140628D01*
X40586Y141114D01*
X41072Y141842D01*
X41243Y142700D01*
X41072Y143558D01*
X40586Y144286D01*
X39858Y144772D01*
X39000Y144943D01*
D02*
G37*
G36*
X144500Y143443D02*
X143642Y143272D01*
X142914Y142786D01*
X142428Y142058D01*
X142257Y141200D01*
X142428Y140342D01*
X142914Y139614D01*
X143642Y139128D01*
X144500Y138957D01*
X145358Y139128D01*
X146086Y139614D01*
X146572Y140342D01*
X146743Y141200D01*
X146572Y142058D01*
X146086Y142786D01*
X145358Y143272D01*
X144500Y143443D01*
D02*
G37*
G36*
X57500Y137933D02*
X56837Y137801D01*
X56274Y137426D01*
X56205Y137322D01*
X52795D01*
X52726Y137426D01*
X52163Y137801D01*
X51500Y137933D01*
X50837Y137801D01*
X50274Y137426D01*
X49899Y136863D01*
X49767Y136200D01*
X49899Y135537D01*
X50274Y134974D01*
X50837Y134599D01*
X51500Y134467D01*
X52163Y134599D01*
X52726Y134974D01*
X52795Y135078D01*
X55351D01*
X55503Y134578D01*
X55274Y134426D01*
X54899Y133863D01*
X54767Y133200D01*
X54899Y132537D01*
X55274Y131974D01*
X55837Y131599D01*
X56500Y131467D01*
X57163Y131599D01*
X57726Y131974D01*
X57795Y132078D01*
X65687D01*
X75367Y122398D01*
X75342Y122276D01*
X75474Y121612D01*
X75850Y121050D01*
X76412Y120674D01*
X77076Y120542D01*
X77704Y120668D01*
X77734Y120645D01*
X77885Y120141D01*
X55607Y97863D01*
X55364Y97499D01*
X55278Y97070D01*
X55278Y97070D01*
Y86800D01*
X55278Y86800D01*
X55364Y86371D01*
X55607Y86007D01*
X59378Y82235D01*
Y78500D01*
X58878Y78349D01*
X58586Y78786D01*
X57858Y79272D01*
X57000Y79443D01*
X56142Y79272D01*
X55414Y78786D01*
X54928Y78058D01*
X54757Y77200D01*
X54928Y76342D01*
X55414Y75614D01*
X56142Y75128D01*
X57000Y74957D01*
X57858Y75128D01*
X58586Y75614D01*
X58878Y76051D01*
X59378Y75900D01*
Y68700D01*
X59378Y68700D01*
X59464Y68271D01*
X59707Y67907D01*
X61291Y66323D01*
X61267Y66200D01*
X61399Y65537D01*
X61774Y64974D01*
X62337Y64599D01*
X63000Y64467D01*
X63663Y64599D01*
X64226Y64974D01*
X64601Y65537D01*
X64733Y66200D01*
X64601Y66863D01*
X64226Y67426D01*
X63663Y67801D01*
X63000Y67933D01*
X62877Y67909D01*
X61622Y69165D01*
Y82700D01*
X61622Y82700D01*
X61536Y83129D01*
X61293Y83493D01*
X61293Y83493D01*
X57522Y87265D01*
Y89254D01*
X58022Y89562D01*
X58500Y89467D01*
X59163Y89599D01*
X59726Y89974D01*
X60101Y90537D01*
X60233Y91200D01*
X60209Y91323D01*
X70877Y101991D01*
X71000Y101967D01*
X71663Y102099D01*
X72226Y102474D01*
X72295Y102578D01*
X75535D01*
X78378Y99735D01*
Y90523D01*
X78378Y90523D01*
X78464Y90094D01*
X78707Y89730D01*
X83030Y85407D01*
X83030Y85407D01*
X83394Y85164D01*
X83823Y85078D01*
X83823Y85078D01*
X84205D01*
X84274Y84974D01*
X84837Y84599D01*
X85500Y84467D01*
X86163Y84599D01*
X86726Y84974D01*
X86967Y85336D01*
X87533D01*
X87774Y84974D01*
X88337Y84599D01*
X89000Y84467D01*
X89663Y84599D01*
X90226Y84974D01*
X90601Y85537D01*
X90733Y86200D01*
X90601Y86863D01*
X90226Y87426D01*
X89663Y87801D01*
X89000Y87933D01*
X88924Y88420D01*
Y102500D01*
X88830Y102968D01*
X88565Y103365D01*
X84365Y107565D01*
X83968Y107830D01*
X83500Y107923D01*
X79727D01*
X79726Y107926D01*
X79163Y108301D01*
X78500Y108433D01*
X77837Y108301D01*
X77274Y107926D01*
X76899Y107363D01*
X76851Y107123D01*
X70089D01*
X69621Y107030D01*
X69224Y106765D01*
X60646Y98187D01*
X60226Y97926D01*
X59820Y98197D01*
X59684Y98768D01*
X83293Y122377D01*
X83293Y122377D01*
X83536Y122741D01*
X83622Y123170D01*
Y125200D01*
X83622Y125200D01*
X83536Y125629D01*
X83293Y125993D01*
X82709Y126577D01*
X82733Y126700D01*
X82601Y127363D01*
X82226Y127926D01*
X81663Y128301D01*
X81000Y128433D01*
X80337Y128301D01*
X79774Y127926D01*
X79399Y127363D01*
X79267Y126700D01*
X79335Y126358D01*
X78988Y125922D01*
X78952Y125912D01*
X78322Y125786D01*
X78201Y125706D01*
X68414Y135493D01*
X68050Y135736D01*
X67621Y135822D01*
X67621Y135822D01*
X59594D01*
X59233Y136200D01*
X59101Y136863D01*
X58726Y137426D01*
X58163Y137801D01*
X57500Y137933D01*
D02*
G37*
G36*
X216153Y144353D02*
X208847D01*
Y137047D01*
X216153D01*
Y144353D01*
D02*
G37*
G36*
X11000Y139443D02*
X10142Y139272D01*
X9414Y138786D01*
X8928Y138058D01*
X8757Y137200D01*
X8928Y136342D01*
X9414Y135614D01*
X10142Y135128D01*
X11000Y134957D01*
X11858Y135128D01*
X12586Y135614D01*
X13072Y136342D01*
X13243Y137200D01*
X13072Y138058D01*
X12586Y138786D01*
X11858Y139272D01*
X11000Y139443D01*
D02*
G37*
G36*
X118000Y136443D02*
X117142Y136272D01*
X116414Y135786D01*
X115928Y135058D01*
X115757Y134200D01*
X115928Y133342D01*
X116414Y132614D01*
X117142Y132128D01*
X118000Y131957D01*
X118858Y132128D01*
X119586Y132614D01*
X120072Y133342D01*
X120243Y134200D01*
X120072Y135058D01*
X119586Y135786D01*
X118858Y136272D01*
X118000Y136443D01*
D02*
G37*
G36*
X212500Y134384D02*
X211546Y134259D01*
X210658Y133891D01*
X209895Y133305D01*
X209309Y132542D01*
X208941Y131654D01*
X208816Y130700D01*
X208941Y129746D01*
X209309Y128858D01*
X209895Y128095D01*
X210658Y127509D01*
X211546Y127141D01*
X212500Y127016D01*
X213454Y127141D01*
X214342Y127509D01*
X215105Y128095D01*
X215691Y128858D01*
X216059Y129746D01*
X216184Y130700D01*
X216059Y131654D01*
X215691Y132542D01*
X215105Y133305D01*
X214342Y133891D01*
X213454Y134259D01*
X212500Y134384D01*
D02*
G37*
G36*
X126000Y129443D02*
X125142Y129272D01*
X124414Y128786D01*
X123928Y128058D01*
X123757Y127200D01*
X123928Y126342D01*
X124414Y125614D01*
X125142Y125128D01*
X126000Y124957D01*
X126858Y125128D01*
X127586Y125614D01*
X128072Y126342D01*
X128243Y127200D01*
X128072Y128058D01*
X127586Y128786D01*
X126858Y129272D01*
X126000Y129443D01*
D02*
G37*
G36*
X118000D02*
X117142Y129272D01*
X116414Y128786D01*
X115928Y128058D01*
X115757Y127200D01*
X115928Y126342D01*
X116414Y125614D01*
X117142Y125128D01*
X118000Y124957D01*
X118858Y125128D01*
X119586Y125614D01*
X120072Y126342D01*
X120243Y127200D01*
X120072Y128058D01*
X119586Y128786D01*
X118858Y129272D01*
X118000Y129443D01*
D02*
G37*
G36*
X196358Y145291D02*
X178642D01*
X177174Y145098D01*
X175807Y144531D01*
X174633Y143630D01*
X173732Y142456D01*
X173165Y141089D01*
X172972Y139621D01*
Y129779D01*
X173165Y128311D01*
X173732Y126944D01*
X174633Y125770D01*
X175807Y124869D01*
X177174Y124302D01*
X178642Y124109D01*
X196358D01*
X197826Y124302D01*
X199193Y124869D01*
X200367Y125770D01*
X201268Y126944D01*
X201835Y128311D01*
X202028Y129779D01*
Y139621D01*
X201835Y141089D01*
X201268Y142456D01*
X200367Y143630D01*
X199193Y144531D01*
X197826Y145098D01*
X196358Y145291D01*
D02*
G37*
G36*
X107108Y124825D02*
X106445Y124693D01*
X105882Y124318D01*
X105881Y124316D01*
X97892D01*
X97424Y124222D01*
X97027Y123957D01*
X94920Y121850D01*
X94500Y121933D01*
X93837Y121801D01*
X93274Y121426D01*
X92899Y120863D01*
X92767Y120200D01*
X92899Y119537D01*
X93274Y118974D01*
X93730Y118670D01*
X93821Y118229D01*
X93815Y118093D01*
X93666Y117907D01*
X93137Y117801D01*
X92574Y117426D01*
X92199Y116863D01*
X92067Y116200D01*
X92199Y115537D01*
X92565Y114988D01*
X92636Y114863D01*
Y114433D01*
X92474Y114326D01*
X92099Y113763D01*
X91967Y113100D01*
X92099Y112437D01*
X92474Y111874D01*
X93037Y111499D01*
X93700Y111367D01*
X94363Y111499D01*
X94926Y111874D01*
X95301Y112437D01*
X95433Y113100D01*
X95409Y113223D01*
X98265Y116078D01*
X115738D01*
X115874Y115874D01*
X116437Y115499D01*
X117100Y115367D01*
X117763Y115499D01*
X118326Y115874D01*
X118701Y116437D01*
X118833Y117100D01*
X118701Y117763D01*
X118326Y118326D01*
X117763Y118701D01*
X117100Y118833D01*
X116437Y118701D01*
X116307Y118614D01*
X115857Y118915D01*
X115933Y119300D01*
X115801Y119963D01*
X115426Y120526D01*
X114863Y120901D01*
X114200Y121033D01*
X113537Y120901D01*
X112974Y120526D01*
X112905Y120422D01*
X97605D01*
X97414Y120884D01*
X98399Y121868D01*
X105881D01*
X105882Y121866D01*
X106445Y121491D01*
X107108Y121359D01*
X107771Y121491D01*
X108334Y121866D01*
X108709Y122429D01*
X108841Y123092D01*
X108709Y123755D01*
X108334Y124318D01*
X107771Y124693D01*
X107108Y124825D01*
D02*
G37*
G36*
X22500Y126908D02*
X21670Y126798D01*
X20896Y126478D01*
X20232Y125968D01*
X19722Y125304D01*
X19402Y124530D01*
X19292Y123700D01*
X19402Y122870D01*
X19722Y122096D01*
X20232Y121432D01*
X20896Y120922D01*
X21670Y120601D01*
X22500Y120492D01*
X23330Y120601D01*
X24104Y120922D01*
X24768Y121432D01*
X25278Y122096D01*
X25598Y122870D01*
X25708Y123700D01*
X25598Y124530D01*
X25278Y125304D01*
X24768Y125968D01*
X24104Y126478D01*
X23330Y126798D01*
X22500Y126908D01*
D02*
G37*
G36*
X185000Y123443D02*
X184142Y123272D01*
X183414Y122786D01*
X182928Y122058D01*
X182757Y121200D01*
X182928Y120342D01*
X183414Y119614D01*
X184142Y119128D01*
X185000Y118957D01*
X185858Y119128D01*
X186586Y119614D01*
X187072Y120342D01*
X187243Y121200D01*
X187072Y122058D01*
X186586Y122786D01*
X185858Y123272D01*
X185000Y123443D01*
D02*
G37*
G36*
X175000D02*
X174142Y123272D01*
X173414Y122786D01*
X172928Y122058D01*
X172757Y121200D01*
X172928Y120342D01*
X173414Y119614D01*
X174142Y119128D01*
X175000Y118957D01*
X175858Y119128D01*
X176586Y119614D01*
X177072Y120342D01*
X177243Y121200D01*
X177072Y122058D01*
X176586Y122786D01*
X175858Y123272D01*
X175000Y123443D01*
D02*
G37*
G36*
X35000Y118933D02*
X34337Y118801D01*
X33774Y118426D01*
X33399Y117863D01*
X33267Y117200D01*
X33399Y116537D01*
X33774Y115974D01*
X34337Y115599D01*
X35000Y115467D01*
X35663Y115599D01*
X36226Y115974D01*
X36227Y115977D01*
X37940D01*
X38207Y115477D01*
X37928Y115058D01*
X37757Y114200D01*
X37928Y113342D01*
X38414Y112614D01*
X39142Y112128D01*
X40000Y111957D01*
X40858Y112128D01*
X41586Y112614D01*
X42072Y113342D01*
X42243Y114200D01*
X42072Y115058D01*
X41793Y115477D01*
X42060Y115977D01*
X43343D01*
X43430Y115537D01*
X43806Y114974D01*
X44368Y114599D01*
X45031Y114467D01*
X45695Y114599D01*
X46257Y114974D01*
X46633Y115537D01*
X46765Y116200D01*
X46633Y116863D01*
X46257Y117426D01*
X45695Y117801D01*
X45031Y117933D01*
X45029Y117933D01*
X44897Y118065D01*
X44500Y118330D01*
X44032Y118423D01*
X36227D01*
X36226Y118426D01*
X35663Y118801D01*
X35000Y118933D01*
D02*
G37*
G36*
X109000Y111443D02*
X108142Y111272D01*
X107414Y110786D01*
X106928Y110058D01*
X106757Y109200D01*
X106928Y108342D01*
X107414Y107614D01*
X108142Y107128D01*
X109000Y106957D01*
X109858Y107128D01*
X110586Y107614D01*
X111072Y108342D01*
X111243Y109200D01*
X111072Y110058D01*
X110586Y110786D01*
X109858Y111272D01*
X109000Y111443D01*
D02*
G37*
G36*
X41000Y98943D02*
X40142Y98772D01*
X39414Y98286D01*
X38928Y97558D01*
X38757Y96700D01*
X38928Y95842D01*
X39414Y95114D01*
X40142Y94628D01*
X41000Y94457D01*
X41858Y94628D01*
X42586Y95114D01*
X43072Y95842D01*
X43243Y96700D01*
X43072Y97558D01*
X42586Y98286D01*
X41858Y98772D01*
X41000Y98943D01*
D02*
G37*
G36*
X65000Y91443D02*
X64142Y91272D01*
X63414Y90786D01*
X62928Y90058D01*
X62757Y89200D01*
X62928Y88342D01*
X63414Y87614D01*
X64142Y87128D01*
X65000Y86957D01*
X65858Y87128D01*
X66586Y87614D01*
X67072Y88342D01*
X67243Y89200D01*
X67072Y90058D01*
X66586Y90786D01*
X65858Y91272D01*
X65000Y91443D01*
D02*
G37*
G36*
X28500Y85743D02*
X27642Y85572D01*
X26914Y85086D01*
X26428Y84358D01*
X26257Y83500D01*
X26428Y82642D01*
X26914Y81914D01*
X27642Y81428D01*
X28500Y81257D01*
X29358Y81428D01*
X30086Y81914D01*
X30572Y82642D01*
X30743Y83500D01*
X30572Y84358D01*
X30086Y85086D01*
X29358Y85572D01*
X28500Y85743D01*
D02*
G37*
G36*
X23000Y77144D02*
Y74200D01*
X25945D01*
X25891Y74608D01*
X25540Y75455D01*
X24982Y76182D01*
X24255Y76740D01*
X23408Y77091D01*
X23000Y77144D01*
D02*
G37*
G36*
X25945Y73200D02*
X23000D01*
Y70256D01*
X23408Y70309D01*
X24255Y70660D01*
X24982Y71218D01*
X25540Y71945D01*
X25891Y72791D01*
X25945Y73200D01*
D02*
G37*
G36*
X23000Y67145D02*
Y64200D01*
X25945D01*
X25891Y64609D01*
X25540Y65455D01*
X24982Y66182D01*
X24255Y66740D01*
X23408Y67091D01*
X23000Y67145D01*
D02*
G37*
G36*
X25680Y56880D02*
X19320D01*
Y50520D01*
X25680D01*
Y56880D01*
D02*
G37*
G36*
X62000Y45943D02*
X61142Y45772D01*
X60414Y45286D01*
X59928Y44558D01*
X59757Y43700D01*
X59928Y42842D01*
X60414Y42114D01*
X61142Y41628D01*
X62000Y41457D01*
X62858Y41628D01*
X63586Y42114D01*
X64072Y42842D01*
X64243Y43700D01*
X64072Y44558D01*
X63586Y45286D01*
X62858Y45772D01*
X62000Y45943D01*
D02*
G37*
G36*
X216421Y20200D02*
X213000D01*
Y16779D01*
X213532Y16849D01*
X214493Y17247D01*
X215319Y17881D01*
X215953Y18707D01*
X216351Y19668D01*
X216421Y20200D01*
D02*
G37*
G36*
X212000D02*
X208579D01*
X208649Y19668D01*
X209047Y18707D01*
X209681Y17881D01*
X210507Y17247D01*
X211468Y16849D01*
X212000Y16779D01*
Y20200D01*
D02*
G37*
G36*
X213000Y14621D02*
Y11200D01*
X216421D01*
X216351Y11732D01*
X215953Y12693D01*
X215319Y13519D01*
X214493Y14153D01*
X213532Y14551D01*
X213000Y14621D01*
D02*
G37*
G36*
X212000D02*
X211468Y14551D01*
X210507Y14153D01*
X209681Y13519D01*
X209047Y12693D01*
X208649Y11732D01*
X208579Y11200D01*
X212000D01*
Y14621D01*
D02*
G37*
G36*
X21000Y11443D02*
X20142Y11272D01*
X19414Y10786D01*
X18928Y10058D01*
X18757Y9200D01*
X18928Y8342D01*
X19414Y7614D01*
X20142Y7128D01*
X21000Y6957D01*
X21858Y7128D01*
X22586Y7614D01*
X23072Y8342D01*
X23243Y9200D01*
X23072Y10058D01*
X22586Y10786D01*
X21858Y11272D01*
X21000Y11443D01*
D02*
G37*
G36*
X216421Y10200D02*
X213000D01*
Y6779D01*
X213532Y6849D01*
X214493Y7247D01*
X215319Y7881D01*
X215953Y8707D01*
X216351Y9668D01*
X216421Y10200D01*
D02*
G37*
G36*
X212000D02*
X208579D01*
X208649Y9668D01*
X209047Y8707D01*
X209681Y7881D01*
X210507Y7247D01*
X211468Y6849D01*
X212000Y6779D01*
Y10200D01*
D02*
G37*
G36*
X137800Y86943D02*
X136942Y86772D01*
X136214Y86286D01*
X135728Y85558D01*
X135557Y84700D01*
X135728Y83842D01*
X136214Y83114D01*
X136942Y82628D01*
X137800Y82457D01*
X138658Y82628D01*
X139386Y83114D01*
X139872Y83842D01*
X140043Y84700D01*
X139872Y85558D01*
X139386Y86286D01*
X138658Y86772D01*
X137800Y86943D01*
D02*
G37*
G36*
X163000Y77443D02*
X162142Y77272D01*
X161414Y76786D01*
X160928Y76058D01*
X160757Y75200D01*
X160928Y74342D01*
X161414Y73614D01*
X162142Y73128D01*
X163000Y72957D01*
X163858Y73128D01*
X164586Y73614D01*
X165072Y74342D01*
X165243Y75200D01*
X165072Y76058D01*
X164586Y76786D01*
X163858Y77272D01*
X163000Y77443D01*
D02*
G37*
G36*
X190921Y75700D02*
X187500D01*
Y72279D01*
X188032Y72349D01*
X188993Y72747D01*
X189819Y73381D01*
X190453Y74207D01*
X190851Y75168D01*
X190921Y75700D01*
D02*
G37*
G36*
X186500D02*
X183079D01*
X183149Y75168D01*
X183547Y74207D01*
X184181Y73381D01*
X185007Y72747D01*
X185968Y72349D01*
X186500Y72279D01*
Y75700D01*
D02*
G37*
G36*
X107200Y65243D02*
X106342Y65072D01*
X105614Y64586D01*
X105128Y63858D01*
X104957Y63000D01*
X105128Y62142D01*
X105614Y61414D01*
X106342Y60928D01*
X107200Y60757D01*
X108058Y60928D01*
X108786Y61414D01*
X109272Y62142D01*
X109443Y63000D01*
X109272Y63858D01*
X108786Y64586D01*
X108058Y65072D01*
X107200Y65243D01*
D02*
G37*
G36*
X102000Y61733D02*
X101337Y61601D01*
X100774Y61226D01*
X100399Y60663D01*
X100267Y60000D01*
X100399Y59337D01*
X100774Y58774D01*
X101337Y58399D01*
X101427Y57928D01*
X101037Y57638D01*
X100583Y57790D01*
X100426Y58026D01*
X99863Y58401D01*
X99200Y58533D01*
X98537Y58401D01*
X97974Y58026D01*
X97599Y57463D01*
X97467Y56800D01*
X97599Y56137D01*
X97974Y55574D01*
X98537Y55199D01*
X99185Y55070D01*
X99407Y54737D01*
X101437Y52707D01*
X101801Y52464D01*
X102230Y52378D01*
X102230Y52378D01*
X106607D01*
X123605Y35381D01*
X123581Y35346D01*
X123449Y34682D01*
X123581Y34019D01*
X123957Y33457D01*
X124519Y33081D01*
X125182Y32949D01*
X125846Y33081D01*
X126408Y33457D01*
X126652Y33822D01*
X127183Y33716D01*
X127199Y33637D01*
X127574Y33074D01*
X128137Y32699D01*
X128800Y32567D01*
X129463Y32699D01*
X130026Y33074D01*
X130360Y33575D01*
X130363Y33577D01*
X130656Y33643D01*
X130914Y33650D01*
X131074Y33410D01*
X131637Y33034D01*
X132300Y32902D01*
X132963Y33034D01*
X133526Y33410D01*
X133901Y33972D01*
X134033Y34635D01*
X133901Y35299D01*
X133526Y35861D01*
X132963Y36237D01*
X132300Y36369D01*
X131637Y36237D01*
X131601Y36213D01*
X110422Y57393D01*
X110058Y57636D01*
X109628Y57722D01*
X109628Y57722D01*
X105473D01*
X105318Y57876D01*
X105193Y58063D01*
X105193Y58063D01*
X103963Y59293D01*
X103776Y59418D01*
X103644Y59550D01*
X103733Y60000D01*
X103601Y60663D01*
X103226Y61226D01*
X102663Y61601D01*
X102000Y61733D01*
D02*
G37*
G36*
X151000Y56443D02*
X150142Y56272D01*
X149414Y55786D01*
X148928Y55058D01*
X148757Y54200D01*
X148928Y53342D01*
X149414Y52614D01*
X150142Y52128D01*
X151000Y51957D01*
X151858Y52128D01*
X152586Y52614D01*
X153072Y53342D01*
X153243Y54200D01*
X153072Y55058D01*
X152586Y55786D01*
X151858Y56272D01*
X151000Y56443D01*
D02*
G37*
G36*
X178000Y54243D02*
X177142Y54072D01*
X176414Y53586D01*
X175928Y52858D01*
X175757Y52000D01*
X175928Y51142D01*
X176414Y50414D01*
X177117Y49944D01*
X177153Y49807D01*
X177156Y49415D01*
X176514Y48986D01*
X176028Y48258D01*
X175857Y47400D01*
X176028Y46542D01*
X176514Y45814D01*
X177242Y45328D01*
X178100Y45157D01*
X178958Y45328D01*
X179686Y45814D01*
X180172Y46542D01*
X180343Y47400D01*
X180172Y48258D01*
X179686Y48986D01*
X178983Y49456D01*
X178947Y49593D01*
X178944Y49985D01*
X179586Y50414D01*
X180072Y51142D01*
X180243Y52000D01*
X180072Y52858D01*
X179586Y53586D01*
X178858Y54072D01*
X178000Y54243D01*
D02*
G37*
G36*
X148000Y32443D02*
X147142Y32272D01*
X146414Y31786D01*
X145928Y31058D01*
X145757Y30200D01*
X145928Y29342D01*
X146414Y28614D01*
X147142Y28128D01*
X148000Y27957D01*
X148858Y28128D01*
X149586Y28614D01*
X150072Y29342D01*
X150243Y30200D01*
X150072Y31058D01*
X149586Y31786D01*
X148858Y32272D01*
X148000Y32443D01*
D02*
G37*
G36*
X185858Y31071D02*
X177500D01*
Y20700D01*
X191808D01*
Y25121D01*
X191694Y26282D01*
X191355Y27398D01*
X190805Y28427D01*
X190066Y29329D01*
X189164Y30068D01*
X188135Y30618D01*
X187019Y30957D01*
X185858Y31071D01*
D02*
G37*
G36*
X176500D02*
X168142D01*
X166981Y30957D01*
X165865Y30618D01*
X164836Y30068D01*
X163935Y29329D01*
X163195Y28427D01*
X162645Y27398D01*
X162306Y26282D01*
X162192Y25121D01*
Y20700D01*
X176500D01*
Y31071D01*
D02*
G37*
G36*
X140480Y22117D02*
X139719Y21966D01*
X139074Y21535D01*
X138643Y20890D01*
X138492Y20129D01*
X138643Y19368D01*
X139074Y18723D01*
X139719Y18292D01*
X140480Y18141D01*
X141241Y18292D01*
X141886Y18723D01*
X142317Y19368D01*
X142469Y20129D01*
X142317Y20890D01*
X141886Y21535D01*
X141241Y21966D01*
X140480Y22117D01*
D02*
G37*
G36*
X125520D02*
X124759Y21966D01*
X124114Y21535D01*
X123683Y20890D01*
X123531Y20129D01*
X123683Y19368D01*
X124114Y18723D01*
X124759Y18292D01*
X125520Y18141D01*
X126280Y18292D01*
X126926Y18723D01*
X127357Y19368D01*
X127508Y20129D01*
X127357Y20890D01*
X126926Y21535D01*
X126280Y21966D01*
X125520Y22117D01*
D02*
G37*
G36*
X176500Y19700D02*
X162192D01*
Y15279D01*
X162306Y14118D01*
X162645Y13002D01*
X163195Y11973D01*
X163935Y11072D01*
X164836Y10332D01*
X165865Y9782D01*
X166981Y9443D01*
X168142Y9329D01*
X176500D01*
Y19700D01*
D02*
G37*
%LPD*%
D42*
X78136Y124185D02*
X78985D01*
X59000Y134700D02*
X67621D01*
X78136Y124185D01*
X56500Y133200D02*
X66151D01*
X77076Y122276D01*
X57500Y136200D02*
X59000Y134700D01*
X51500Y136200D02*
X57500D01*
X58500Y91200D02*
X71000Y103700D01*
X83823Y86200D02*
X85500D01*
X79500Y90523D02*
X83823Y86200D01*
X71000Y103700D02*
X76000D01*
X79500Y100200D01*
Y90523D02*
Y100200D01*
X75900Y77200D02*
X76800D01*
X78800Y77900D02*
Y79100D01*
X73800Y76330D02*
Y78070D01*
X76930Y81200D01*
X79670D01*
X83800Y77070D01*
Y76300D02*
Y77070D01*
X93800Y116200D02*
X96900Y119300D01*
X114200D01*
X117000Y117100D02*
X117100D01*
X116900Y117200D02*
X117000Y117100D01*
X97800Y117200D02*
X116900D01*
X93700Y113100D02*
X97800Y117200D01*
X124500Y94338D02*
Y94816D01*
X126334Y94050D02*
X126350D01*
X76800Y77200D02*
X83300Y70700D01*
X103191D01*
X78800Y77900D02*
X84500Y72200D01*
X102570D01*
X73800Y76330D02*
X80930Y69200D01*
X125182Y34682D02*
Y35389D01*
X102300Y56400D02*
Y56613D01*
X103813Y55100D01*
X131593Y34635D02*
X132300D01*
X108300Y55100D02*
X128900Y34500D01*
X103813Y55100D02*
X108300D01*
X107043Y53528D02*
X125182Y35389D01*
X106928Y53528D02*
X107043D01*
X106900Y53500D02*
X106928Y53528D01*
X75000Y63270D02*
X80930Y69200D01*
X75000Y48200D02*
Y63270D01*
X17420Y103683D02*
X22500Y108763D01*
Y113700D01*
X18920Y100120D02*
X22500Y103700D01*
X17420Y61596D02*
Y103683D01*
X18920Y62217D02*
Y100120D01*
X21017Y60120D02*
X28202D01*
X20396Y58620D02*
X27580D01*
X18920Y62217D02*
X21017Y60120D01*
X17420Y61596D02*
X20396Y58620D01*
X22500Y93700D02*
X27500D01*
X59000Y62200D01*
X63000D01*
X80930Y69200D02*
X104100D01*
X103191Y70700D02*
X106200Y73709D01*
X102570Y72200D02*
X104700Y74330D01*
X65500Y38700D02*
X75000Y48200D01*
X61500Y38700D02*
X65500D01*
X27580Y58620D02*
X52000Y34200D01*
X28202Y60120D02*
X52121Y36200D01*
X52000Y34200D02*
X64000D01*
X68328Y32700D02*
X72500D01*
X56400Y86800D02*
Y97070D01*
X82500Y123170D01*
Y125200D01*
X81000Y126700D02*
X82500Y125200D01*
X60500Y68700D02*
X63000Y66200D01*
X60500Y68700D02*
Y82700D01*
X56400Y86800D02*
X60500Y82700D01*
X73500Y38700D02*
X78200Y34000D01*
X78061Y36639D02*
X97884D01*
X99923Y34600D01*
X111100D01*
X111500Y34200D01*
X125700Y64200D02*
Y67900D01*
X132030Y74200D02*
X135000Y74200D01*
X132015Y74215D02*
X132030Y74200D01*
X125700Y67900D02*
X132015Y74215D01*
X133515Y75715D02*
X135000Y77200D01*
X127200Y73000D02*
X129915Y75715D01*
X133515D01*
X104700Y74330D02*
Y74538D01*
X106200Y73709D02*
Y73916D01*
X104700Y74538D02*
X124500Y94338D01*
X106200Y73916D02*
X126334Y94050D01*
X104100Y69200D02*
X126750Y91850D01*
X127500Y88700D02*
X135000Y81200D01*
Y77200D02*
Y81200D01*
X124500Y94816D02*
X125934Y96250D01*
X128050D01*
X101900Y59708D02*
X103108Y58500D01*
X103170D01*
X104400Y57270D01*
Y57208D02*
Y57270D01*
Y57208D02*
X105008Y56600D01*
X101900Y59708D02*
X102000Y59808D01*
Y60000D01*
X99200Y56672D02*
Y56800D01*
Y56672D02*
X100200Y55672D01*
X102230Y53500D02*
X106900D01*
X100200Y55530D02*
Y55672D01*
Y55530D02*
X102230Y53500D01*
X105008Y56600D02*
X109628D01*
X131593Y34635D01*
X128800Y34400D02*
X128900Y34500D01*
X128800Y34300D02*
Y34400D01*
X74138Y40562D02*
X78061Y36639D01*
X74138Y40562D02*
Y40800D01*
X74600Y33525D02*
Y33570D01*
Y33525D02*
X75500Y32625D01*
X52121Y36200D02*
X63030D01*
X63130Y36300D01*
X64870D01*
X66100Y35070D01*
X67900Y36300D02*
X69825D01*
X70000Y38700D02*
X73500D01*
X69825Y36300D02*
X70425Y35700D01*
X66100Y34928D02*
Y35070D01*
Y34928D02*
X68328Y32700D01*
X70425Y35700D02*
X72470D01*
X74600Y33570D01*
D43*
X159880Y86200D02*
X187000D01*
X159030Y85350D02*
X159880Y86200D01*
X147000Y85350D02*
X159030D01*
D44*
X105000Y81700D02*
X124500Y101200D01*
X97550Y77750D02*
X117150Y97350D01*
X97000Y81200D02*
X114500Y98700D01*
X117150Y97350D02*
Y103922D01*
X114500Y98700D02*
Y104700D01*
X152778Y110250D02*
X155222D01*
X208100Y100700D02*
X212500D01*
X210500Y120700D02*
X212500D01*
X91680Y74520D02*
X92361Y75200D01*
X88000D02*
X90550Y77750D01*
X203697Y73276D02*
X212500Y64474D01*
Y60700D02*
Y64474D01*
X201497Y65476D02*
X212500Y54474D01*
Y50700D02*
Y54474D01*
X146778Y90250D02*
X157001D01*
X142978Y94050D02*
X146778Y90250D01*
X199297Y57676D02*
X212500Y44474D01*
Y40700D02*
Y44474D01*
X142067Y91850D02*
X145867Y88050D01*
X157912D01*
X126350Y94050D02*
X142978D01*
X126750Y91850D02*
X142067D01*
X92361Y75200D02*
X102000D01*
X208500Y90700D02*
X212500D01*
X197089Y99000D02*
X203697Y92392D01*
Y73276D02*
Y92392D01*
X196177Y96800D02*
X201497Y91480D01*
X195266Y94600D02*
X199297Y90569D01*
X201497Y65476D02*
Y91480D01*
X199297Y57676D02*
Y90569D01*
X197950Y101250D02*
X208500Y90700D01*
X174935Y94600D02*
X174985Y94650D01*
X177015D01*
X177065Y94600D01*
X195266D01*
X174024Y96800D02*
X174074Y96850D01*
X177926D01*
X177976Y96800D01*
X196177D01*
X173113Y99000D02*
X173163Y99050D01*
X178837D01*
X178887Y99000D01*
X197089D01*
X172201Y101200D02*
X172251Y101250D01*
X197950D01*
X205100Y103700D02*
X208100Y100700D01*
X212500Y106200D02*
Y110700D01*
X155222Y110250D02*
X156772Y108700D01*
X198500D01*
X210500Y120700D01*
X156161Y106200D02*
X212500D01*
X157912Y88050D02*
X164462Y94600D01*
X174935D01*
X157001Y90250D02*
X163551Y96800D01*
X174024D01*
X158000Y98700D02*
X160500Y101200D01*
X172201D01*
X155111Y107250D02*
X156161Y106200D01*
X124500Y101200D02*
X156500D01*
X159000Y103700D01*
X205100D01*
X102000Y75200D02*
X125500Y98700D01*
X158000D01*
X117150Y103922D02*
X120478Y107250D01*
X90550Y77750D02*
X97550D01*
X202986Y36297D02*
X214324D01*
X90828Y6200D02*
X178828D01*
X180778Y8150D01*
X79050Y17978D02*
X90828Y6200D01*
X90314Y3603D02*
X179425D01*
X216903Y38876D02*
Y63182D01*
X214324Y36297D02*
X216903Y38876D01*
X210942Y69142D02*
X212500Y70700D01*
X207000Y25700D02*
X217000D01*
X220000Y28700D01*
Y73200D01*
X212500Y80700D02*
X220000Y73200D01*
X210942Y69142D02*
X216903Y63182D01*
X193903Y27214D02*
X202986Y36297D01*
X179425Y3603D02*
X181523Y5700D01*
X180778Y8150D02*
X191450D01*
X193903Y10603D01*
Y27214D01*
X181523Y5700D02*
X193500D01*
X196500Y8700D01*
Y15200D01*
X207000Y25700D01*
X78550Y18924D02*
X79050Y17978D01*
X76000Y17917D02*
X90314Y3603D01*
X78200Y19274D02*
Y34000D01*
Y19274D02*
X78550Y18924D01*
X76000Y17917D02*
Y32125D01*
X75500Y32625D02*
X76000Y32125D01*
X149878Y113150D02*
X152778Y110250D01*
X114500Y104700D02*
X122950Y113150D01*
X149878D01*
X120478Y107250D02*
X138478D01*
X138978Y106750D01*
X141422D01*
X141922Y107250D01*
X155111D01*
X128050Y96250D02*
X159889D01*
X162639Y99000D01*
X173113D01*
D45*
X191153Y82047D02*
Y89650D01*
X190500Y81394D02*
X191153Y82047D01*
X181194Y81394D02*
X190500D01*
X176000Y92200D02*
X177500Y90700D01*
X190103D01*
X191153Y89650D01*
X97892Y123092D02*
X107108D01*
X95000Y120200D02*
X97892Y123092D01*
X94500Y120200D02*
X95000D01*
X78500Y106700D02*
X83500D01*
X87700Y102500D01*
X77700Y105900D02*
X78500Y106700D01*
X70089Y105900D02*
X77700D01*
X60889Y96700D02*
X70089Y105900D01*
X87700Y87500D02*
X89000Y86200D01*
X87700Y87500D02*
Y102500D01*
X59000Y96700D02*
X60889D01*
X103500Y66900D02*
X106000D01*
X107300Y68200D01*
X167000Y67200D02*
X181194Y81394D01*
X166500Y67700D02*
X167000Y67200D01*
X151000Y67700D02*
X166500D01*
X131500Y68200D02*
X133200Y66500D01*
X149800D01*
X151000Y67700D01*
X107200Y68300D02*
X107300Y68200D01*
X107200Y68300D02*
Y68900D01*
X99800Y63200D02*
X103500Y66900D01*
X99700Y63200D02*
X99800D01*
X35000Y117200D02*
X44032D01*
X45031Y116200D01*
D65*
X140480Y20129D02*
D03*
X125520D02*
D03*
D66*
X187500Y134700D02*
D03*
X177000Y20200D02*
D03*
D67*
X212500Y140700D02*
D03*
X187000Y86200D02*
D03*
D68*
X212500Y130700D02*
D03*
Y120700D02*
D03*
Y110700D02*
D03*
Y100700D02*
D03*
Y90700D02*
D03*
Y80700D02*
D03*
Y70700D02*
D03*
Y60700D02*
D03*
Y50700D02*
D03*
Y40700D02*
D03*
Y30700D02*
D03*
Y20700D02*
D03*
Y10700D02*
D03*
X187000Y76200D02*
D03*
D69*
X22500Y123700D02*
D03*
Y113700D02*
D03*
Y103700D02*
D03*
Y93700D02*
D03*
Y83700D02*
D03*
Y73700D02*
D03*
Y63700D02*
D03*
D70*
Y53700D02*
D03*
D71*
X105000Y81700D02*
D03*
X88000Y75200D02*
D03*
X91680Y74520D02*
D03*
X147000Y85350D02*
D03*
X135000Y74200D02*
D03*
Y77200D02*
D03*
X176000Y92200D02*
D03*
X176532Y76669D02*
D03*
X107108Y123092D02*
D03*
X94500Y120200D02*
D03*
X89000Y86200D02*
D03*
X85500D02*
D03*
X71000Y103700D02*
D03*
X78500Y106700D02*
D03*
X77076Y122276D02*
D03*
X78985Y124185D02*
D03*
X57500Y136200D02*
D03*
X56500Y133200D02*
D03*
X51500Y136200D02*
D03*
X58500Y91200D02*
D03*
X59000Y96700D02*
D03*
X78800Y79100D02*
D03*
X75900Y77200D02*
D03*
X83800Y76300D02*
D03*
X114200Y119300D02*
D03*
X93800Y116200D02*
D03*
X117100Y117100D02*
D03*
X93700Y113100D02*
D03*
X125182Y34682D02*
D03*
X102300Y56400D02*
D03*
X132300Y34635D02*
D03*
X63000Y62200D02*
D03*
X64000Y34200D02*
D03*
X45031Y116200D02*
D03*
X35000Y117200D02*
D03*
X97000Y81200D02*
D03*
X61500Y38700D02*
D03*
X72500Y32700D02*
D03*
X151000Y67700D02*
D03*
X63000Y66200D02*
D03*
X81000Y126700D02*
D03*
X111500Y34200D02*
D03*
X125700Y64200D02*
D03*
X127200Y73000D02*
D03*
X127500Y88700D02*
D03*
X107200Y68900D02*
D03*
X99700Y63200D02*
D03*
X102000Y60000D02*
D03*
X99200Y56800D02*
D03*
X128800Y34300D02*
D03*
X74138Y40800D02*
D03*
X67900Y36300D02*
D03*
X70000Y38700D02*
D03*
D72*
X101000Y37200D02*
D03*
X21000Y9200D02*
D03*
X29000Y53200D02*
D03*
X50500Y147700D02*
D03*
X57000Y77200D02*
D03*
X118000Y134200D02*
D03*
Y127200D02*
D03*
X109000Y109200D02*
D03*
X65000Y89200D02*
D03*
X163000Y75200D02*
D03*
X148000Y93200D02*
D03*
X185000Y121200D02*
D03*
X175000D02*
D03*
X148000Y30200D02*
D03*
X126000Y127200D02*
D03*
X131500Y68200D02*
D03*
X151000Y54200D02*
D03*
X11000Y137200D02*
D03*
X154000Y113200D02*
D03*
X173500Y82200D02*
D03*
X91000Y147700D02*
D03*
X85000Y89700D02*
D03*
X39000Y142700D02*
D03*
X41000Y96700D02*
D03*
X62000Y43700D02*
D03*
X120100Y102700D02*
D03*
X107300Y59200D02*
D03*
X40000Y114200D02*
D03*
X82000Y141200D02*
D03*
X57000Y129200D02*
D03*
X71000Y121200D02*
D03*
X40000Y85200D02*
D03*
X55000Y116200D02*
D03*
X39000Y101200D02*
D03*
X28800Y73700D02*
D03*
X28700Y63700D02*
D03*
X123000Y28200D02*
D03*
X194000Y65200D02*
D03*
Y76200D02*
D03*
X142000Y87200D02*
D03*
X172000Y91200D02*
D03*
X129000Y110200D02*
D03*
X120000Y140200D02*
D03*
X129000Y145200D02*
D03*
X166000Y133700D02*
D03*
X179300Y57600D02*
D03*
X107000Y130200D02*
D03*
X91000Y126200D02*
D03*
X70000Y141200D02*
D03*
X89000Y105200D02*
D03*
X31000Y142200D02*
D03*
X38000Y127200D02*
D03*
X98000Y90200D02*
D03*
X91000Y81700D02*
D03*
X10000Y107200D02*
D03*
X104000Y9200D02*
D03*
Y21200D02*
D03*
X200000Y25200D02*
D03*
X203000Y12200D02*
D03*
X88500Y23200D02*
D03*
X7000Y6200D02*
D03*
X18000Y145200D02*
D03*
X203000Y4200D02*
D03*
X156500Y15700D02*
D03*
X217500Y3900D02*
D03*
X40000Y73200D02*
D03*
X10000Y91200D02*
D03*
X8500Y23700D02*
D03*
X51500Y2700D02*
D03*
X10000Y75200D02*
D03*
X156000Y23200D02*
D03*
X192000Y35200D02*
D03*
X178000D02*
D03*
X196000Y49200D02*
D03*
X217000Y147200D02*
D03*
X10000Y61200D02*
D03*
X146000Y39200D02*
D03*
X152000Y43200D02*
D03*
X10000Y45200D02*
D03*
X36000Y43200D02*
D03*
X72000Y25700D02*
D03*
X144500Y141200D02*
D03*
X136500Y69200D02*
D03*
X144000Y75700D02*
D03*
X122500Y69200D02*
D03*
X137800Y84700D02*
D03*
X107000Y113700D02*
D03*
X83000Y56200D02*
D03*
X79000Y61700D02*
D03*
X88000D02*
D03*
X78500Y50700D02*
D03*
X140200Y109700D02*
D03*
X107200Y63000D02*
D03*
X28500Y83500D02*
D03*
X178000Y52000D02*
D03*
X178100Y47400D02*
D03*
D73*
X173900Y114600D02*
D03*
X88000Y50600D02*
D03*
M02*
