G04 Layer_Color=32768*
%FSLAX25Y25*%
%MOIN*%
G70*
G01*
G75*
%ADD131C,0.00197*%
D131*
X49984Y45200D02*
G03*
X49984Y45200I-984J0D01*
G01*
X49484Y68200D02*
G03*
X49484Y68200I-984J0D01*
G01*
X91297Y89700D02*
G03*
X91297Y89700I-797J0D01*
G01*
X109297Y101700D02*
G03*
X109297Y101700I-797J0D01*
G01*
X89797Y141200D02*
G03*
X89797Y141200I-797J0D01*
G01*
X40797Y108700D02*
G03*
X40797Y108700I-797J0D01*
G01*
X57297Y147700D02*
G03*
X57297Y147700I-797J0D01*
G01*
X48984Y85200D02*
G03*
X48984Y85200I-984J0D01*
G01*
X62797Y72200D02*
G03*
X62797Y72200I-797J0D01*
G01*
X72697Y75500D02*
G03*
X72697Y75500I-797J0D01*
G01*
X94797Y35200D02*
G03*
X94797Y35200I-797J0D01*
G01*
X104197Y65100D02*
G03*
X104197Y65100I-797J0D01*
G01*
X158984Y69200D02*
G03*
X158984Y69200I-984J0D01*
G01*
X43797Y35200D02*
G03*
X43797Y35200I-797J0D01*
G01*
X165484Y52700D02*
G03*
X165484Y52700I-984J0D01*
G01*
X67984Y73200D02*
G03*
X67984Y73200I-984J0D01*
G01*
X64297Y49200D02*
G03*
X64297Y49200I-797J0D01*
G01*
X88984Y33200D02*
G03*
X88984Y33200I-984J0D01*
G01*
X126984Y137200D02*
G03*
X126984Y137200I-984J0D01*
G01*
X68205Y23800D02*
G03*
X68205Y23800I-805J0D01*
G01*
X183105Y116900D02*
G03*
X183105Y116900I-805J0D01*
G01*
X162984Y82200D02*
G03*
X162984Y82200I-984J0D01*
G01*
X136984Y120200D02*
G03*
X136984Y120200I-984J0D01*
G01*
X183984Y109200D02*
G03*
X183984Y109200I-984J0D01*
G01*
X72984Y86200D02*
G03*
X72984Y86200I-984J0D01*
G01*
X51484Y96700D02*
G03*
X51484Y96700I-984J0D01*
G01*
X82797Y35200D02*
G03*
X82797Y35200I-797J0D01*
G01*
X152984Y104200D02*
G03*
X152984Y104200I-984J0D01*
G01*
X85797Y80700D02*
G03*
X85797Y80700I-797J0D01*
G01*
X164484Y104200D02*
G03*
X164484Y104200I-984J0D01*
G01*
X121484Y80700D02*
G03*
X121484Y80700I-984J0D01*
G01*
X129984D02*
G03*
X129984Y80700I-984J0D01*
G01*
X149484Y59700D02*
G03*
X149484Y59700I-984J0D01*
G01*
X174484Y71200D02*
G03*
X174484Y71200I-984J0D01*
G01*
X121484Y95400D02*
G03*
X121484Y95400I-984J0D01*
G01*
X165484Y47700D02*
G03*
X165484Y47700I-984J0D01*
G01*
X174484Y64200D02*
G03*
X174484Y64200I-984J0D01*
G01*
X165484Y57700D02*
G03*
X165484Y57700I-984J0D01*
G01*
X78984Y86200D02*
G03*
X78984Y86200I-984J0D01*
G01*
X49797Y91200D02*
G03*
X49797Y91200I-797J0D01*
G01*
X59984Y23200D02*
G03*
X59984Y23200I-984J0D01*
G01*
X151984Y140200D02*
G03*
X151984Y140200I-984J0D01*
G01*
X158984D02*
G03*
X158984Y140200I-984J0D01*
G01*
X152984Y127200D02*
G03*
X152984Y127200I-984J0D01*
G01*
X34484Y110200D02*
G03*
X34484Y110200I-984J0D01*
G01*
X51984Y125200D02*
G03*
X51984Y125200I-984J0D01*
G01*
X37797Y137700D02*
G03*
X37797Y137700I-797J0D01*
G01*
X11484Y127200D02*
G03*
X11484Y127200I-984J0D01*
G01*
X38984Y126700D02*
G03*
X38984Y126700I-984J0D01*
G01*
X23484Y53700D02*
G03*
X23484Y53700I-984J0D01*
G01*
X49000Y43822D02*
Y46578D01*
X47622Y45200D02*
X50378D01*
X43252Y47995D02*
X54748D01*
X43252Y42405D02*
Y47995D01*
Y42405D02*
X54748D01*
Y47995D01*
X48500Y66822D02*
Y69578D01*
X47122Y68200D02*
X49878D01*
X42752Y65405D02*
X54248D01*
Y70995D01*
X42752D02*
X54248D01*
X42752Y65405D02*
Y70995D01*
X90500Y88637D02*
Y90763D01*
X89437Y89700D02*
X91563D01*
X87075Y91826D02*
X93925D01*
X87075Y87574D02*
Y91826D01*
Y87574D02*
X93925D01*
Y91826D01*
X107437Y101700D02*
X109563D01*
X108500Y100637D02*
Y102763D01*
X110626Y98275D02*
Y105125D01*
X106374D02*
X110626D01*
X106374Y98275D02*
Y105125D01*
Y98275D02*
X110626D01*
X89000Y140137D02*
Y142263D01*
X87937Y141200D02*
X90063D01*
X85575Y139074D02*
X92425D01*
Y143326D01*
X85575D02*
X92425D01*
X85575Y139074D02*
Y143326D01*
X38937Y108700D02*
X41063D01*
X40000Y107637D02*
Y109763D01*
X42126Y105275D02*
Y112125D01*
X37874D02*
X42126D01*
X37874Y105275D02*
Y112125D01*
Y105275D02*
X42126D01*
X56500Y146637D02*
Y148763D01*
X55437Y147700D02*
X57563D01*
X53075Y149826D02*
X59925D01*
X53075Y145574D02*
Y149826D01*
Y145574D02*
X59925D01*
Y149826D01*
X48000Y83822D02*
Y86578D01*
X46622Y85200D02*
X49378D01*
X42252Y82405D02*
X53748D01*
Y87995D01*
X42252D02*
X53748D01*
X42252Y82405D02*
Y87995D01*
X60937Y72200D02*
X63063D01*
X62000Y71137D02*
Y73263D01*
X64126Y68775D02*
Y75625D01*
X59874D02*
X64126D01*
X59874Y68775D02*
Y75625D01*
Y68775D02*
X64126D01*
X70837Y75500D02*
X72963D01*
X71900Y74437D02*
Y76563D01*
X69774Y72075D02*
Y78925D01*
Y72075D02*
X74026D01*
Y78925D01*
X69774D02*
X74026D01*
X92937Y35200D02*
X95063D01*
X94000Y34137D02*
Y36263D01*
X96126Y31775D02*
Y38625D01*
X91874D02*
X96126D01*
X91874Y31775D02*
Y38625D01*
Y31775D02*
X96126D01*
X102337Y65100D02*
X104463D01*
X103400Y64037D02*
Y66163D01*
X105526Y61675D02*
Y68525D01*
X101274D02*
X105526D01*
X101274Y61675D02*
Y68525D01*
Y61675D02*
X105526D01*
X156622Y69200D02*
X159378D01*
X158000Y67822D02*
Y70578D01*
X155205Y63452D02*
Y74948D01*
Y63452D02*
X160795D01*
Y74948D01*
X155205D02*
X160795D01*
X43000Y34137D02*
Y36263D01*
X41937Y35200D02*
X44063D01*
X39575Y33074D02*
X46425D01*
Y37326D01*
X39575D02*
X46425D01*
X39575Y33074D02*
Y37326D01*
X164500Y51322D02*
Y54078D01*
X163122Y52700D02*
X165878D01*
X158752Y49905D02*
X170248D01*
Y55495D01*
X158752D02*
X170248D01*
X158752Y49905D02*
Y55495D01*
X65622Y73200D02*
X68378D01*
X67000Y71822D02*
Y74578D01*
X64205Y67452D02*
Y78948D01*
Y67452D02*
X69795D01*
Y78948D01*
X64205D02*
X69795D01*
X62437Y49200D02*
X64563D01*
X63500Y48137D02*
Y50263D01*
X61374Y45775D02*
Y52625D01*
Y45775D02*
X65626D01*
Y52625D01*
X61374D02*
X65626D01*
X86622Y33200D02*
X89378D01*
X88000Y31822D02*
Y34578D01*
X90795Y27452D02*
Y38948D01*
X85205D02*
X90795D01*
X85205Y27452D02*
Y38948D01*
Y27452D02*
X90795D01*
X124622Y137200D02*
X127378D01*
X126000Y135822D02*
Y138578D01*
X123205Y131452D02*
Y142948D01*
Y131452D02*
X128795D01*
Y142948D01*
X123205D02*
X128795D01*
X66327Y23800D02*
X68473D01*
X67400Y22727D02*
Y24873D01*
X65254Y20414D02*
Y27186D01*
Y20414D02*
X69546D01*
Y27186D01*
X65254D02*
X69546D01*
X182300Y115827D02*
Y117973D01*
X181227Y116900D02*
X183373D01*
X178914Y119046D02*
X185686D01*
X178914Y114754D02*
Y119046D01*
Y114754D02*
X185686D01*
Y119046D01*
X162000Y80822D02*
Y83578D01*
X160622Y82200D02*
X163378D01*
X154283Y76846D02*
X169717D01*
Y87554D01*
X154283D02*
X169717D01*
X154283Y76846D02*
Y87554D01*
X134622Y120200D02*
X137378D01*
X136000Y118822D02*
Y121578D01*
X141354Y112484D02*
Y127917D01*
X130646D02*
X141354D01*
X130646Y112484D02*
Y127917D01*
Y112484D02*
X141354D01*
X183000Y107822D02*
Y110578D01*
X181622Y109200D02*
X184378D01*
X177252Y106405D02*
X188748D01*
Y111995D01*
X177252D02*
X188748D01*
X177252Y106405D02*
Y111995D01*
X70622Y86200D02*
X73378D01*
X72000Y84822D02*
Y87578D01*
X74795Y80452D02*
Y91948D01*
X69205D02*
X74795D01*
X69205Y80452D02*
Y91948D01*
Y80452D02*
X74795D01*
X50500Y95322D02*
Y98078D01*
X49122Y96700D02*
X51878D01*
X44752Y99495D02*
X56248D01*
X44752Y93905D02*
Y99495D01*
Y93905D02*
X56248D01*
Y99495D01*
X80937Y35200D02*
X83063D01*
X82000Y34137D02*
Y36263D01*
X84126Y31775D02*
Y38625D01*
X79874D02*
X84126D01*
X79874Y31775D02*
Y38625D01*
Y31775D02*
X84126D01*
X152000Y102822D02*
Y105578D01*
X150622Y104200D02*
X153378D01*
X146252Y101405D02*
X157748D01*
Y106995D01*
X146252D02*
X157748D01*
X146252Y101405D02*
Y106995D01*
X83937Y80700D02*
X86063D01*
X85000Y79637D02*
Y81763D01*
X82874Y77275D02*
Y84125D01*
Y77275D02*
X87126D01*
Y84125D01*
X82874D02*
X87126D01*
X163500Y102822D02*
Y105578D01*
X162122Y104200D02*
X164878D01*
X157752Y101405D02*
X169248D01*
Y106995D01*
X157752D02*
X169248D01*
X157752Y101405D02*
Y106995D01*
X119122Y80700D02*
X121878D01*
X120500Y79322D02*
Y82078D01*
X123295Y74952D02*
Y86448D01*
X117705D02*
X123295D01*
X117705Y74952D02*
Y86448D01*
Y74952D02*
X123295D01*
X127622Y80700D02*
X130378D01*
X129000Y79322D02*
Y82078D01*
X131795Y74952D02*
Y86448D01*
X126205D02*
X131795D01*
X126205Y74952D02*
Y86448D01*
Y74952D02*
X131795D01*
X148500Y58322D02*
Y61078D01*
X147122Y59700D02*
X149878D01*
X142752Y62495D02*
X154248D01*
X142752Y56905D02*
Y62495D01*
Y56905D02*
X154248D01*
Y62495D01*
X173500Y69822D02*
Y72578D01*
X172122Y71200D02*
X174878D01*
X167752Y73995D02*
X179248D01*
X167752Y68405D02*
Y73995D01*
Y68405D02*
X179248D01*
Y73995D01*
X119122Y95400D02*
X121878D01*
X120500Y94022D02*
Y96778D01*
X117705Y89652D02*
Y101148D01*
Y89652D02*
X123295D01*
Y101148D01*
X117705D02*
X123295D01*
X164500Y46322D02*
Y49078D01*
X163122Y47700D02*
X165878D01*
X158752Y50495D02*
X170248D01*
X158752Y44905D02*
Y50495D01*
Y44905D02*
X170248D01*
Y50495D01*
X173500Y62822D02*
Y65578D01*
X172122Y64200D02*
X174878D01*
X167752Y61405D02*
X179248D01*
Y66995D01*
X167752D02*
X179248D01*
X167752Y61405D02*
Y66995D01*
X164500Y56322D02*
Y59078D01*
X163122Y57700D02*
X165878D01*
X158752Y54905D02*
X170248D01*
Y60495D01*
X158752D02*
X170248D01*
X158752Y54905D02*
Y60495D01*
X76622Y86200D02*
X79378D01*
X78000Y84822D02*
Y87578D01*
X80795Y80452D02*
Y91948D01*
X75205D02*
X80795D01*
X75205Y80452D02*
Y91948D01*
Y80452D02*
X80795D01*
X49000Y90137D02*
Y92263D01*
X47937Y91200D02*
X50063D01*
X45575Y93326D02*
X52425D01*
X45575Y89074D02*
Y93326D01*
Y89074D02*
X52425D01*
Y93326D01*
X57622Y23200D02*
X60378D01*
X59000Y21822D02*
Y24578D01*
X56205Y17452D02*
Y28948D01*
Y17452D02*
X61795D01*
Y28948D01*
X56205D02*
X61795D01*
X149622Y140200D02*
X152378D01*
X151000Y138822D02*
Y141578D01*
X153795Y134452D02*
Y145948D01*
X148205D02*
X153795D01*
X148205Y134452D02*
Y145948D01*
Y134452D02*
X153795D01*
X156622Y140200D02*
X159378D01*
X158000Y138822D02*
Y141578D01*
X155205Y134452D02*
Y145948D01*
Y134452D02*
X160795D01*
Y145948D01*
X155205D02*
X160795D01*
X144992Y134208D02*
X159008D01*
Y132633D02*
Y134208D01*
Y132633D02*
X160268D01*
Y121767D02*
Y132633D01*
X159008Y121767D02*
X160268D01*
X159008Y120192D02*
Y121767D01*
X144992Y120192D02*
X159008D01*
X144992D02*
Y121767D01*
X143732D02*
X144992D01*
X143732D02*
Y132633D01*
X144992D01*
Y134208D01*
X152000Y125822D02*
Y128578D01*
X150622Y127200D02*
X153378D01*
X32122Y110200D02*
X34878D01*
X33500Y108822D02*
Y111578D01*
X36295Y104452D02*
Y115948D01*
X30705D02*
X36295D01*
X30705Y104452D02*
Y115948D01*
Y104452D02*
X36295D01*
X49622Y125200D02*
X52378D01*
X51000Y123822D02*
Y126578D01*
X53795Y119452D02*
Y130948D01*
X48205D02*
X53795D01*
X48205Y119452D02*
Y130948D01*
Y119452D02*
X53795D01*
X40425Y135574D02*
Y139826D01*
X33575Y135574D02*
X40425D01*
X33575D02*
Y139826D01*
X40425D01*
X35937Y137700D02*
X38063D01*
X37000Y136637D02*
Y138763D01*
X9122Y127200D02*
X11878D01*
X10500Y125822D02*
Y128578D01*
X13295Y121452D02*
Y132948D01*
X7705D02*
X13295D01*
X7705Y121452D02*
Y132948D01*
Y121452D02*
X13295D01*
X38000Y125322D02*
Y128078D01*
X36622Y126700D02*
X39378D01*
X42488Y133590D02*
Y135007D01*
X33512D02*
X42488D01*
X33512Y133590D02*
Y135007D01*
X31110Y133590D02*
X33512D01*
X31110Y131188D02*
Y133590D01*
X29693Y131188D02*
X31110D01*
X29693Y122212D02*
Y131188D01*
Y122212D02*
X31110D01*
Y119810D02*
Y122212D01*
Y119810D02*
X33512D01*
Y118393D02*
Y119810D01*
Y118393D02*
X42488D01*
Y119810D01*
X44890D01*
Y122212D01*
X46307D01*
Y131188D01*
X44890D02*
X46307D01*
X44890D02*
Y133590D01*
X42488D02*
X44890D01*
X21122Y53700D02*
X23878D01*
X22500Y52322D02*
Y55078D01*
X28484Y47716D02*
Y129684D01*
X16516D02*
X28484D01*
X16516Y47716D02*
Y129684D01*
Y47716D02*
X28484D01*
M02*
