G04 Layer_Physical_Order=3*
G04 Layer_Color=128*
%FSLAX25Y25*%
%MOIN*%
G70*
G01*
G75*
%ADD45C,0.01000*%
%ADD46C,0.04000*%
%ADD74C,0.05800*%
%ADD75C,0.16598*%
G04:AMPARAMS|DCode=76|XSize=185.984mil|YSize=185.984mil|CornerRadius=0mil|HoleSize=0mil|Usage=FLASHONLY|Rotation=0.000|XOffset=0mil|YOffset=0mil|HoleType=Round|Shape=Relief|Width=10mil|Gap=10mil|Entries=4|*
%AMTHD76*
7,0,0,0.18598,0.16598,0.01000,45*
%
%ADD76THD76*%
%ADD77C,0.07543*%
%ADD79C,0.07307*%
G04:AMPARAMS|DCode=80|XSize=93.071mil|YSize=93.071mil|CornerRadius=0mil|HoleSize=0mil|Usage=FLASHONLY|Rotation=0.000|XOffset=0mil|YOffset=0mil|HoleType=Round|Shape=Relief|Width=10mil|Gap=10mil|Entries=4|*
%AMTHD80*
7,0,0,0.09307,0.07307,0.01000,45*
%
%ADD80THD80*%
%ADD81C,0.05181*%
%ADD82C,0.05575*%
G04:AMPARAMS|DCode=83|XSize=75.748mil|YSize=75.748mil|CornerRadius=0mil|HoleSize=0mil|Usage=FLASHONLY|Rotation=0.000|XOffset=0mil|YOffset=0mil|HoleType=Round|Shape=Relief|Width=10mil|Gap=10mil|Entries=4|*
%AMTHD83*
7,0,0,0.07575,0.05575,0.01000,45*
%
%ADD83THD83*%
D45*
X141000Y44200D02*
X145000Y48200D01*
X141000Y28200D02*
Y44200D01*
Y28200D02*
X144000Y25200D01*
X151000D01*
X165000Y39200D01*
Y71200D01*
X128000Y84955D02*
Y96465D01*
X131000Y108220D02*
X136900Y114120D01*
Y114200D02*
X144510D01*
X80000Y93200D02*
X88000D01*
X58000Y71200D02*
X80000Y93200D01*
X58000Y46200D02*
Y71200D01*
X66000Y47200D02*
Y58200D01*
Y65200D01*
X72000Y71200D01*
X96000D01*
X133000Y60200D02*
X145000Y48200D01*
X150000D01*
X155000Y53200D01*
Y58200D01*
X140000Y73200D02*
X155000Y58200D01*
X108000Y73200D02*
X140000D01*
X105000Y76200D02*
X108000Y73200D01*
X105000Y76200D02*
Y86200D01*
X98000Y93200D02*
X105000Y86200D01*
X87000Y93200D02*
X98000D01*
X141000Y87710D02*
X141760Y86950D01*
X141000Y87710D02*
Y92200D01*
X141760Y86950D02*
X144250D01*
X150750Y82450D02*
X154000Y79200D01*
X148750Y82450D02*
X150750D01*
X165000Y71200D02*
X167000Y73200D01*
X156000D02*
X158750D01*
X160750Y71200D01*
X167000Y80638D02*
Y84450D01*
Y73200D02*
Y75012D01*
Y92950D02*
Y106200D01*
Y75012D02*
Y80638D01*
X144250Y86950D02*
X148750Y82450D01*
X154000Y75200D02*
Y79200D01*
Y75200D02*
X156000Y73200D01*
X160750Y71200D02*
X165000D01*
X167000Y84450D02*
Y92950D01*
Y106200D02*
X175000Y114200D01*
X185000D01*
X203000Y132200D01*
Y144700D01*
X152000Y118200D02*
X156000D01*
X164000D01*
X170000Y124200D01*
Y135200D01*
Y137200D01*
X172000Y139200D01*
Y144700D01*
X66000Y43200D02*
Y47200D01*
X63500Y40700D02*
X66000Y43200D01*
X58000Y43220D02*
Y47200D01*
Y43220D02*
X60520Y40700D01*
X63500D01*
X96000Y71200D02*
X101000Y66200D01*
X114000D01*
X120000Y60200D01*
X133000D01*
X172000Y144700D02*
X203000D01*
X165000Y39700D02*
X173500D01*
X180500Y46700D01*
Y99200D01*
X210500Y129200D01*
Y152200D01*
X83000Y144700D02*
X172000D01*
X79000Y148700D02*
X83000Y144700D01*
X79000Y148700D02*
Y152700D01*
X128000Y96465D02*
X131000Y99465D01*
Y108220D01*
X128000Y84955D02*
X129500Y83455D01*
Y80200D02*
Y83455D01*
Y80200D02*
X131000Y78700D01*
Y73200D02*
Y78700D01*
X136900Y114120D02*
Y114200D01*
X144510D02*
X146000Y112710D01*
X151490Y118200D01*
X146000Y106200D02*
Y112710D01*
X141000Y101200D02*
X146000Y106200D01*
X141000Y92200D02*
Y101200D01*
D46*
X0Y-800D02*
Y152200D01*
X222000D01*
Y-800D02*
Y152200D01*
X0Y-800D02*
X222000D01*
D74*
X140480Y20129D02*
D03*
X125520D02*
D03*
D75*
X177000Y20200D02*
D03*
D76*
X187500Y134700D02*
D03*
D77*
X212500Y140700D02*
D03*
Y130700D02*
D03*
Y120700D02*
D03*
Y110700D02*
D03*
Y100700D02*
D03*
Y90700D02*
D03*
Y80700D02*
D03*
Y70700D02*
D03*
Y60700D02*
D03*
Y50700D02*
D03*
Y40700D02*
D03*
Y30700D02*
D03*
Y20700D02*
D03*
Y10700D02*
D03*
X187000Y76200D02*
D03*
Y86200D02*
D03*
D79*
X22500Y123700D02*
D03*
Y113700D02*
D03*
Y103700D02*
D03*
Y93700D02*
D03*
Y73700D02*
D03*
Y63700D02*
D03*
D80*
Y83700D02*
D03*
Y53700D02*
D03*
D81*
X105000Y81700D02*
D03*
X88000Y75200D02*
D03*
X91680Y74520D02*
D03*
X147000Y85350D02*
D03*
X135000Y74200D02*
D03*
Y77200D02*
D03*
X176000Y92200D02*
D03*
X176532Y76669D02*
D03*
X107108Y123092D02*
D03*
X94500Y120200D02*
D03*
X89000Y86200D02*
D03*
X85500D02*
D03*
X71000Y103700D02*
D03*
X78500Y106700D02*
D03*
X77076Y122276D02*
D03*
X78985Y124185D02*
D03*
X57500Y136200D02*
D03*
X56500Y133200D02*
D03*
X51500Y136200D02*
D03*
X58500Y91200D02*
D03*
X59000Y96700D02*
D03*
X78800Y79100D02*
D03*
X75900Y77200D02*
D03*
X83800Y76300D02*
D03*
X114200Y119300D02*
D03*
X93800Y116200D02*
D03*
X117100Y117100D02*
D03*
X93700Y113100D02*
D03*
X125182Y34682D02*
D03*
X102300Y56400D02*
D03*
X132300Y34635D02*
D03*
X63000Y62200D02*
D03*
X64000Y34200D02*
D03*
X45031Y116200D02*
D03*
X35000Y117200D02*
D03*
X97000Y81200D02*
D03*
X61500Y38700D02*
D03*
X72500Y32700D02*
D03*
X151000Y67700D02*
D03*
X63000Y66200D02*
D03*
X81000Y126700D02*
D03*
X111500Y34200D02*
D03*
X125700Y64200D02*
D03*
X127200Y73000D02*
D03*
X127500Y88700D02*
D03*
X173900Y114600D02*
D03*
X107200Y68900D02*
D03*
X99700Y63200D02*
D03*
X102000Y60000D02*
D03*
X99200Y56800D02*
D03*
X128800Y34300D02*
D03*
X74138Y40800D02*
D03*
X67900Y36300D02*
D03*
X70000Y38700D02*
D03*
X88000Y50600D02*
D03*
D82*
X107300Y59200D02*
D03*
X82000Y141200D02*
D03*
X57000Y129200D02*
D03*
X71000Y121200D02*
D03*
X40000Y85200D02*
D03*
X55000Y116200D02*
D03*
X39000Y101200D02*
D03*
X28800Y73700D02*
D03*
X28700Y63700D02*
D03*
X123000Y28200D02*
D03*
X194000Y65200D02*
D03*
Y76200D02*
D03*
X142000Y87200D02*
D03*
X172000Y91200D02*
D03*
X129000Y110200D02*
D03*
X120000Y140200D02*
D03*
X129000Y145200D02*
D03*
X166000Y133700D02*
D03*
X179300Y57600D02*
D03*
X107000Y130200D02*
D03*
X91000Y126200D02*
D03*
X70000Y141200D02*
D03*
X89000Y105200D02*
D03*
X31000Y142200D02*
D03*
X38000Y127200D02*
D03*
X98000Y90200D02*
D03*
X91000Y81700D02*
D03*
X10000Y107200D02*
D03*
X104000Y9200D02*
D03*
Y21200D02*
D03*
X200000Y25200D02*
D03*
X203000Y12200D02*
D03*
X88500Y23200D02*
D03*
X7000Y6200D02*
D03*
X18000Y145200D02*
D03*
X203000Y4200D02*
D03*
X156500Y15700D02*
D03*
X217500Y3900D02*
D03*
X40000Y73200D02*
D03*
X10000Y91200D02*
D03*
X8500Y23700D02*
D03*
X51500Y2700D02*
D03*
X10000Y75200D02*
D03*
X156000Y23200D02*
D03*
X192000Y35200D02*
D03*
X178000D02*
D03*
X196000Y49200D02*
D03*
X10000Y61200D02*
D03*
X146000Y39200D02*
D03*
X152000Y43200D02*
D03*
X10000Y45200D02*
D03*
X36000Y43200D02*
D03*
X136500Y69200D02*
D03*
X144000Y75700D02*
D03*
X107000Y113700D02*
D03*
X83000Y56200D02*
D03*
X79000Y61700D02*
D03*
X88000D02*
D03*
X78500Y50700D02*
D03*
X178100Y47400D02*
D03*
D83*
X101000Y37200D02*
D03*
X21000Y9200D02*
D03*
X29000Y53200D02*
D03*
X50500Y147700D02*
D03*
X57000Y77200D02*
D03*
X118000Y134200D02*
D03*
Y127200D02*
D03*
X109000Y109200D02*
D03*
X65000Y89200D02*
D03*
X163000Y75200D02*
D03*
X148000Y93200D02*
D03*
X185000Y121200D02*
D03*
X175000D02*
D03*
X148000Y30200D02*
D03*
X126000Y127200D02*
D03*
X131500Y68200D02*
D03*
X151000Y54200D02*
D03*
X11000Y137200D02*
D03*
X154000Y113200D02*
D03*
X173500Y82200D02*
D03*
X91000Y147700D02*
D03*
X85000Y89700D02*
D03*
X39000Y142700D02*
D03*
X41000Y96700D02*
D03*
X62000Y43700D02*
D03*
X120100Y102700D02*
D03*
X40000Y114200D02*
D03*
X217000Y147200D02*
D03*
X72000Y25700D02*
D03*
X144500Y141200D02*
D03*
X122500Y69200D02*
D03*
X137800Y84700D02*
D03*
X140200Y109700D02*
D03*
X107200Y63000D02*
D03*
X28500Y83500D02*
D03*
X178000Y52000D02*
D03*
M02*
