G04 Layer_Color=128*
%FSLAX25Y25*%
%MOIN*%
G70*
G01*
G75*
%ADD10C,0.00200*%
D10*
X139580Y20129D02*
X141380D01*
X140480Y19229D02*
Y21029D01*
X124620Y20129D02*
X126420D01*
X125520Y19229D02*
Y21029D01*
X181201Y134700D02*
X193799D01*
X187500Y128401D02*
Y140999D01*
X170701Y20200D02*
X183299D01*
X177000Y13901D02*
Y26499D01*
X210728Y140700D02*
X214272D01*
X212500Y138928D02*
Y142472D01*
X210728Y130700D02*
X214272D01*
X212500Y128928D02*
Y132472D01*
X210728Y120700D02*
X214272D01*
X212500Y118928D02*
Y122472D01*
X210728Y110700D02*
X214272D01*
X212500Y108928D02*
Y112472D01*
X210728Y100700D02*
X214272D01*
X212500Y98928D02*
Y102472D01*
X210728Y90700D02*
X214272D01*
X212500Y88928D02*
Y92472D01*
X210728Y80700D02*
X214272D01*
X212500Y78928D02*
Y82472D01*
X210728Y70700D02*
X214272D01*
X212500Y68928D02*
Y72472D01*
X210728Y60700D02*
X214272D01*
X212500Y58928D02*
Y62472D01*
X210728Y50700D02*
X214272D01*
X212500Y48928D02*
Y52472D01*
X210728Y40700D02*
X214272D01*
X212500Y38928D02*
Y42472D01*
X210728Y30700D02*
X214272D01*
X212500Y28928D02*
Y32472D01*
X210728Y20700D02*
X214272D01*
X212500Y18928D02*
Y22472D01*
X210728Y10700D02*
X214272D01*
X212500Y8928D02*
Y12472D01*
X185228Y76200D02*
X188772D01*
X187000Y74428D02*
Y77972D01*
X185228Y86200D02*
X188772D01*
X187000Y84428D02*
Y87972D01*
X20846Y123700D02*
X24153D01*
X22500Y122046D02*
Y125354D01*
X20846Y113700D02*
X24153D01*
X22500Y112047D02*
Y115354D01*
X20846Y103700D02*
X24153D01*
X22500Y102047D02*
Y105353D01*
X20846Y93700D02*
X24153D01*
X22500Y92046D02*
Y95354D01*
X20846Y83700D02*
X24153D01*
X22500Y82047D02*
Y85353D01*
X20846Y73700D02*
X24153D01*
X22500Y72047D02*
Y75353D01*
X20846Y63700D02*
X24153D01*
X22500Y62046D02*
Y65354D01*
X20846Y53700D02*
X24153D01*
X22500Y52047D02*
Y55353D01*
X104409Y81700D02*
X105591D01*
X105000Y81109D02*
Y82291D01*
X100213Y37200D02*
X101787D01*
X101000Y36413D02*
Y37987D01*
X20213Y9200D02*
X21787D01*
X21000Y8413D02*
Y9987D01*
X28213Y53200D02*
X29787D01*
X29000Y52413D02*
Y53987D01*
X49713Y147700D02*
X51287D01*
X50500Y146913D02*
Y148487D01*
X56213Y77200D02*
X57787D01*
X57000Y76413D02*
Y77987D01*
X117213Y134200D02*
X118787D01*
X118000Y133413D02*
Y134987D01*
X117213Y127200D02*
X118787D01*
X118000Y126413D02*
Y127987D01*
X108213Y109200D02*
X109787D01*
X109000Y108413D02*
Y109987D01*
X64213Y89200D02*
X65787D01*
X65000Y88413D02*
Y89987D01*
X162213Y75200D02*
X163787D01*
X163000Y74413D02*
Y75987D01*
X147213Y93200D02*
X148787D01*
X148000Y92413D02*
Y93987D01*
X184213Y121200D02*
X185787D01*
X185000Y120413D02*
Y121987D01*
X174213Y121200D02*
X175787D01*
X175000Y120413D02*
Y121987D01*
X147213Y30200D02*
X148787D01*
X148000Y29413D02*
Y30987D01*
X125213Y127200D02*
X126787D01*
X126000Y126413D02*
Y127987D01*
X130713Y68200D02*
X132287D01*
X131500Y67413D02*
Y68987D01*
X150213Y54200D02*
X151787D01*
X151000Y53413D02*
Y54987D01*
X10213Y137200D02*
X11787D01*
X11000Y136413D02*
Y137987D01*
X153213Y113200D02*
X154787D01*
X154000Y112413D02*
Y113987D01*
X87410Y75200D02*
X88591D01*
X88000Y74610D02*
Y75791D01*
X91090Y74520D02*
X92271D01*
X91680Y73929D02*
Y75110D01*
X172713Y82200D02*
X174287D01*
X173500Y81413D02*
Y82987D01*
X90213Y147700D02*
X91787D01*
X91000Y146913D02*
Y148487D01*
X146409Y85350D02*
X147591D01*
X147000Y84759D02*
Y85940D01*
X134409Y74200D02*
X135591D01*
X135000Y73610D02*
Y74791D01*
X134409Y77200D02*
X135591D01*
X135000Y76609D02*
Y77790D01*
X175409Y92200D02*
X176591D01*
X176000Y91610D02*
Y92791D01*
X175941Y76669D02*
X177122D01*
X176532Y76078D02*
Y77259D01*
X106518Y123092D02*
X107699D01*
X107108Y122501D02*
Y123682D01*
X93910Y120200D02*
X95091D01*
X94500Y119609D02*
Y120791D01*
X88410Y86200D02*
X89591D01*
X89000Y85610D02*
Y86791D01*
X84909Y86200D02*
X86090D01*
X85500Y85610D02*
Y86791D01*
X70410Y103700D02*
X71591D01*
X71000Y103109D02*
Y104291D01*
X84213Y89700D02*
X85787D01*
X85000Y88913D02*
Y90487D01*
X77909Y106700D02*
X79090D01*
X78500Y106109D02*
Y107291D01*
X76485Y122276D02*
X77666D01*
X77076Y121685D02*
Y122866D01*
X78394Y124185D02*
X79576D01*
X78985Y123594D02*
Y124776D01*
X38213Y142700D02*
X39787D01*
X39000Y141913D02*
Y143487D01*
X56910Y136200D02*
X58091D01*
X57500Y135609D02*
Y136791D01*
X55910Y133200D02*
X57091D01*
X56500Y132609D02*
Y133791D01*
X50909Y136200D02*
X52091D01*
X51500Y135609D02*
Y136791D01*
X40213Y96700D02*
X41787D01*
X41000Y95913D02*
Y97487D01*
X57910Y91200D02*
X59091D01*
X58500Y90610D02*
Y91790D01*
X58410Y96700D02*
X59591D01*
X59000Y96109D02*
Y97290D01*
X61213Y43700D02*
X62787D01*
X62000Y42913D02*
Y44487D01*
X78210Y79100D02*
X79391D01*
X78800Y78509D02*
Y79690D01*
X75309Y77200D02*
X76490D01*
X75900Y76609D02*
Y77790D01*
X83210Y76300D02*
X84390D01*
X83800Y75709D02*
Y76890D01*
X119313Y102700D02*
X120887D01*
X120100Y101913D02*
Y103487D01*
X113609Y119300D02*
X114791D01*
X114200Y118709D02*
Y119891D01*
X93209Y116200D02*
X94390D01*
X93800Y115609D02*
Y116791D01*
X116509Y117100D02*
X117691D01*
X117100Y116509D02*
Y117691D01*
X93110Y113100D02*
X94291D01*
X93700Y112509D02*
Y113691D01*
X106513Y59200D02*
X108087D01*
X107300Y58413D02*
Y59987D01*
X124592Y34682D02*
X125773D01*
X125182Y34092D02*
Y35273D01*
X101709Y56400D02*
X102891D01*
X102300Y55809D02*
Y56990D01*
X131709Y34635D02*
X132891D01*
X132300Y34045D02*
Y35226D01*
X62410Y62200D02*
X63591D01*
X63000Y61610D02*
Y62791D01*
X63410Y34200D02*
X64591D01*
X64000Y33609D02*
Y34791D01*
X44441Y116200D02*
X45622D01*
X45031Y115609D02*
Y116791D01*
X34409Y117200D02*
X35591D01*
X35000Y116609D02*
Y117791D01*
X39213Y114200D02*
X40787D01*
X40000Y113413D02*
Y114987D01*
X81213Y141200D02*
X82787D01*
X82000Y140413D02*
Y141987D01*
X56213Y129200D02*
X57787D01*
X57000Y128413D02*
Y129987D01*
X70213Y121200D02*
X71787D01*
X71000Y120413D02*
Y121987D01*
X39213Y85200D02*
X40787D01*
X40000Y84413D02*
Y85987D01*
X54213Y116200D02*
X55787D01*
X55000Y115413D02*
Y116987D01*
X38213Y101200D02*
X39787D01*
X39000Y100413D02*
Y101987D01*
X28013Y73700D02*
X29587D01*
X28800Y72913D02*
Y74487D01*
X27913Y63700D02*
X29487D01*
X28700Y62913D02*
Y64487D01*
X122213Y28200D02*
X123787D01*
X123000Y27413D02*
Y28987D01*
X193213Y65200D02*
X194787D01*
X194000Y64413D02*
Y65987D01*
X193213Y76200D02*
X194787D01*
X194000Y75413D02*
Y76987D01*
X141213Y87200D02*
X142787D01*
X142000Y86413D02*
Y87987D01*
X171213Y91200D02*
X172787D01*
X172000Y90413D02*
Y91987D01*
X128213Y110200D02*
X129787D01*
X129000Y109413D02*
Y110987D01*
X119213Y140200D02*
X120787D01*
X120000Y139413D02*
Y140987D01*
X128213Y145200D02*
X129787D01*
X129000Y144413D02*
Y145987D01*
X165213Y133700D02*
X166787D01*
X166000Y132913D02*
Y134487D01*
X178513Y57600D02*
X180087D01*
X179300Y56813D02*
Y58387D01*
X106213Y130200D02*
X107787D01*
X107000Y129413D02*
Y130987D01*
X90213Y126200D02*
X91787D01*
X91000Y125413D02*
Y126987D01*
X69213Y141200D02*
X70787D01*
X70000Y140413D02*
Y141987D01*
X88213Y105200D02*
X89787D01*
X89000Y104413D02*
Y105987D01*
X30213Y142200D02*
X31787D01*
X31000Y141413D02*
Y142987D01*
X37213Y127200D02*
X38787D01*
X38000Y126413D02*
Y127987D01*
X97213Y90200D02*
X98787D01*
X98000Y89413D02*
Y90987D01*
X90213Y81700D02*
X91787D01*
X91000Y80913D02*
Y82487D01*
X9213Y107200D02*
X10787D01*
X10000Y106413D02*
Y107987D01*
X103213Y9200D02*
X104787D01*
X104000Y8413D02*
Y9987D01*
X103213Y21200D02*
X104787D01*
X104000Y20413D02*
Y21987D01*
X199213Y25200D02*
X200787D01*
X200000Y24413D02*
Y25987D01*
X202213Y12200D02*
X203787D01*
X203000Y11413D02*
Y12987D01*
X87713Y23200D02*
X89287D01*
X88500Y22413D02*
Y23987D01*
X6213Y6200D02*
X7787D01*
X7000Y5413D02*
Y6987D01*
X17213Y145200D02*
X18787D01*
X18000Y144413D02*
Y145987D01*
X202213Y4200D02*
X203787D01*
X203000Y3413D02*
Y4987D01*
X155713Y15700D02*
X157287D01*
X156500Y14913D02*
Y16487D01*
X216713Y3900D02*
X218287D01*
X217500Y3113D02*
Y4687D01*
X39213Y73200D02*
X40787D01*
X40000Y72413D02*
Y73987D01*
X9213Y91200D02*
X10787D01*
X10000Y90413D02*
Y91987D01*
X7713Y23700D02*
X9287D01*
X8500Y22913D02*
Y24487D01*
X50713Y2700D02*
X52287D01*
X51500Y1913D02*
Y3487D01*
X9213Y75200D02*
X10787D01*
X10000Y74413D02*
Y75987D01*
X155213Y23200D02*
X156787D01*
X156000Y22413D02*
Y23987D01*
X191213Y35200D02*
X192787D01*
X192000Y34413D02*
Y35987D01*
X177213Y35200D02*
X178787D01*
X178000Y34413D02*
Y35987D01*
X195213Y49200D02*
X196787D01*
X196000Y48413D02*
Y49987D01*
X216213Y147200D02*
X217787D01*
X217000Y146413D02*
Y147987D01*
X9213Y61200D02*
X10787D01*
X10000Y60413D02*
Y61987D01*
X145213Y39200D02*
X146787D01*
X146000Y38413D02*
Y39987D01*
X151213Y43200D02*
X152787D01*
X152000Y42413D02*
Y43987D01*
X9213Y45200D02*
X10787D01*
X10000Y44413D02*
Y45987D01*
X35213Y43200D02*
X36787D01*
X36000Y42413D02*
Y43987D01*
X96409Y81200D02*
X97591D01*
X97000Y80610D02*
Y81791D01*
X60909Y38700D02*
X62090D01*
X61500Y38109D02*
Y39291D01*
X71909Y32700D02*
X73090D01*
X72500Y32109D02*
Y33291D01*
X71213Y25700D02*
X72787D01*
X72000Y24913D02*
Y26487D01*
X143713Y141200D02*
X145287D01*
X144500Y140413D02*
Y141987D01*
X135713Y69200D02*
X137287D01*
X136500Y68413D02*
Y69987D01*
X150409Y67700D02*
X151591D01*
X151000Y67110D02*
Y68291D01*
X143213Y75700D02*
X144787D01*
X144000Y74913D02*
Y76487D01*
X62410Y66200D02*
X63591D01*
X63000Y65610D02*
Y66790D01*
X80409Y126700D02*
X81590D01*
X81000Y126109D02*
Y127291D01*
X110909Y34200D02*
X112091D01*
X111500Y33609D02*
Y34791D01*
X121713Y69200D02*
X123287D01*
X122500Y68413D02*
Y69987D01*
X125109Y64200D02*
X126291D01*
X125700Y63609D02*
Y64790D01*
X126609Y73000D02*
X127791D01*
X127200Y72409D02*
Y73590D01*
X137013Y84700D02*
X138587D01*
X137800Y83913D02*
Y85487D01*
X126909Y88700D02*
X128091D01*
X127500Y88109D02*
Y89290D01*
X106213Y113700D02*
X107787D01*
X107000Y112913D02*
Y114487D01*
X82213Y56200D02*
X83787D01*
X83000Y55413D02*
Y56987D01*
X78213Y61700D02*
X79787D01*
X79000Y60913D02*
Y62487D01*
X87213Y61700D02*
X88787D01*
X88000Y60913D02*
Y62487D01*
X77713Y50700D02*
X79287D01*
X78500Y49913D02*
Y51487D01*
X139413Y109700D02*
X140987D01*
X140200Y108913D02*
Y110487D01*
X173309Y114600D02*
X174491D01*
X173900Y114009D02*
Y115191D01*
X106609Y68900D02*
X107791D01*
X107200Y68309D02*
Y69490D01*
X106413Y63000D02*
X107987D01*
X107200Y62213D02*
Y63787D01*
X99110Y63200D02*
X100291D01*
X99700Y62609D02*
Y63791D01*
X101409Y60000D02*
X102591D01*
X102000Y59409D02*
Y60590D01*
X98610Y56800D02*
X99791D01*
X99200Y56209D02*
Y57390D01*
X128209Y34300D02*
X129391D01*
X128800Y33709D02*
Y34891D01*
X73547Y40800D02*
X74729D01*
X74138Y40209D02*
Y41390D01*
X67309Y36300D02*
X68490D01*
X67900Y35709D02*
Y36891D01*
X69410Y38700D02*
X70591D01*
X70000Y38109D02*
Y39291D01*
X87410Y50600D02*
X88591D01*
X88000Y50009D02*
Y51191D01*
X27713Y83500D02*
X29287D01*
X28500Y82713D02*
Y84287D01*
X177213Y52000D02*
X178787D01*
X178000Y51213D02*
Y52787D01*
X177313Y47400D02*
X178887D01*
X178100Y46613D02*
Y48187D01*
M02*
