G04 Layer_Color=32896*
%FSLAX25Y25*%
%MOIN*%
G70*
G01*
G75*
%ADD130C,0.00098*%
D130*
X23760Y123700D02*
G03*
X23760Y123700I-1260J0D01*
G01*
Y113700D02*
G03*
X23760Y113700I-1260J0D01*
G01*
Y103700D02*
G03*
X23760Y103700I-1260J0D01*
G01*
Y93700D02*
G03*
X23760Y93700I-1260J0D01*
G01*
Y83700D02*
G03*
X23760Y83700I-1260J0D01*
G01*
Y73700D02*
G03*
X23760Y73700I-1260J0D01*
G01*
Y63700D02*
G03*
X23760Y63700I-1260J0D01*
G01*
Y53700D02*
G03*
X23760Y53700I-1260J0D01*
G01*
X45850Y46775D02*
X52150D01*
X45850Y43625D02*
Y46775D01*
Y43625D02*
X52150D01*
Y46775D01*
X45850D02*
X47228D01*
X45850Y43625D02*
Y46775D01*
Y43625D02*
X47228D01*
Y46775D01*
X50772Y43625D02*
X52150D01*
Y46775D01*
X50772D02*
X52150D01*
X50772Y43625D02*
Y46775D01*
X45350Y66625D02*
X51650D01*
Y69775D01*
X45350D02*
X51650D01*
X45350Y66625D02*
Y69775D01*
X50272Y66625D02*
X51650D01*
Y69775D01*
X50272D02*
X51650D01*
X50272Y66625D02*
Y69775D01*
X45350D02*
X46728D01*
X45350Y66625D02*
Y69775D01*
Y66625D02*
X46728D01*
Y69775D01*
X88532Y90684D02*
X92469D01*
X88532Y88716D02*
Y90684D01*
Y88716D02*
X92469D01*
Y90684D01*
X88532D02*
X89319D01*
X88532Y88716D02*
Y90684D01*
Y88716D02*
X89319D01*
Y90684D01*
X91681Y88716D02*
X92469D01*
Y90684D01*
X91681D02*
X92469D01*
X91681Y88716D02*
Y90684D01*
X109484Y99731D02*
Y103668D01*
X107516D02*
X109484D01*
X107516Y99731D02*
Y103668D01*
Y99731D02*
X109484D01*
Y102881D02*
Y103668D01*
X107516D02*
X109484D01*
X107516Y102881D02*
Y103668D01*
Y102881D02*
X109484D01*
X107516Y99731D02*
Y100519D01*
Y99731D02*
X109484D01*
Y100519D01*
X107516D02*
X109484D01*
X87032Y140216D02*
X90969D01*
Y142184D01*
X87032D02*
X90969D01*
X87032Y140216D02*
Y142184D01*
X90181Y140216D02*
X90969D01*
Y142184D01*
X90181D02*
X90969D01*
X90181Y140216D02*
Y142184D01*
X87032D02*
X87819D01*
X87032Y140216D02*
Y142184D01*
Y140216D02*
X87819D01*
Y142184D01*
X40984Y106731D02*
Y110669D01*
X39016D02*
X40984D01*
X39016Y106731D02*
Y110669D01*
Y106731D02*
X40984D01*
Y109881D02*
Y110669D01*
X39016D02*
X40984D01*
X39016Y109881D02*
Y110669D01*
Y109881D02*
X40984D01*
X39016Y106731D02*
Y107519D01*
Y106731D02*
X40984D01*
Y107519D01*
X39016D02*
X40984D01*
X54532Y148684D02*
X58469D01*
X54532Y146716D02*
Y148684D01*
Y146716D02*
X58469D01*
Y148684D01*
X54532D02*
X55319D01*
X54532Y146716D02*
Y148684D01*
Y146716D02*
X55319D01*
Y148684D01*
X57681Y146716D02*
X58469D01*
Y148684D01*
X57681D02*
X58469D01*
X57681Y146716D02*
Y148684D01*
X44850Y83625D02*
X51150D01*
Y86775D01*
X44850D02*
X51150D01*
X44850Y83625D02*
Y86775D01*
X49772Y83625D02*
X51150D01*
Y86775D01*
X49772D02*
X51150D01*
X49772Y83625D02*
Y86775D01*
X44850D02*
X46228D01*
X44850Y83625D02*
Y86775D01*
Y83625D02*
X46228D01*
Y86775D01*
X62984Y70231D02*
Y74168D01*
X61016D02*
X62984D01*
X61016Y70231D02*
Y74168D01*
Y70231D02*
X62984D01*
Y73381D02*
Y74168D01*
X61016D02*
X62984D01*
X61016Y73381D02*
Y74168D01*
Y73381D02*
X62984D01*
X61016Y70231D02*
Y71019D01*
Y70231D02*
X62984D01*
Y71019D01*
X61016D02*
X62984D01*
X70916Y73532D02*
Y77469D01*
Y73532D02*
X72884D01*
Y77469D01*
X70916D02*
X72884D01*
X70916Y73532D02*
Y74319D01*
Y73532D02*
X72884D01*
Y74319D01*
X70916D02*
X72884D01*
Y76681D02*
Y77469D01*
X70916D02*
X72884D01*
X70916Y76681D02*
Y77469D01*
Y76681D02*
X72884D01*
X94984Y33231D02*
Y37168D01*
X93016D02*
X94984D01*
X93016Y33231D02*
Y37168D01*
Y33231D02*
X94984D01*
Y36381D02*
Y37168D01*
X93016D02*
X94984D01*
X93016Y36381D02*
Y37168D01*
Y36381D02*
X94984D01*
X93016Y33231D02*
Y34019D01*
Y33231D02*
X94984D01*
Y34019D01*
X93016D02*
X94984D01*
X104384Y63131D02*
Y67068D01*
X102416D02*
X104384D01*
X102416Y63131D02*
Y67068D01*
Y63131D02*
X104384D01*
Y66281D02*
Y67068D01*
X102416D02*
X104384D01*
X102416Y66281D02*
Y67068D01*
Y66281D02*
X104384D01*
X102416Y63131D02*
Y63919D01*
Y63131D02*
X104384D01*
Y63919D01*
X102416D02*
X104384D01*
X156425Y66050D02*
Y72350D01*
Y66050D02*
X159575D01*
Y72350D01*
X156425D02*
X159575D01*
X156425Y66050D02*
Y67428D01*
Y66050D02*
X159575D01*
Y67428D01*
X156425D02*
X159575D01*
Y70972D02*
Y72350D01*
X156425D02*
X159575D01*
X156425Y70972D02*
Y72350D01*
Y70972D02*
X159575D01*
X41032Y34216D02*
X44969D01*
Y36184D01*
X41032D02*
X44969D01*
X41032Y34216D02*
Y36184D01*
X44181Y34216D02*
X44969D01*
Y36184D01*
X44181D02*
X44969D01*
X44181Y34216D02*
Y36184D01*
X41032D02*
X41819D01*
X41032Y34216D02*
Y36184D01*
Y34216D02*
X41819D01*
Y36184D01*
X161350Y51125D02*
X167650D01*
Y54275D01*
X161350D02*
X167650D01*
X161350Y51125D02*
Y54275D01*
X166272Y51125D02*
X167650D01*
Y54275D01*
X166272D02*
X167650D01*
X166272Y51125D02*
Y54275D01*
X161350D02*
X162728D01*
X161350Y51125D02*
Y54275D01*
Y51125D02*
X162728D01*
Y54275D01*
X65425Y70050D02*
Y76350D01*
Y70050D02*
X68575D01*
Y76350D01*
X65425D02*
X68575D01*
X65425Y70050D02*
Y71428D01*
Y70050D02*
X68575D01*
Y71428D01*
X65425D02*
X68575D01*
Y74972D02*
Y76350D01*
X65425D02*
X68575D01*
X65425Y74972D02*
Y76350D01*
Y74972D02*
X68575D01*
X62516Y47232D02*
Y51169D01*
Y47232D02*
X64484D01*
Y51169D01*
X62516D02*
X64484D01*
X62516Y47232D02*
Y48019D01*
Y47232D02*
X64484D01*
Y48019D01*
X62516D02*
X64484D01*
Y50381D02*
Y51169D01*
X62516D02*
X64484D01*
X62516Y50381D02*
Y51169D01*
Y50381D02*
X64484D01*
X89575Y30050D02*
Y36350D01*
X86425D02*
X89575D01*
X86425Y30050D02*
Y36350D01*
Y30050D02*
X89575D01*
Y34972D02*
Y36350D01*
X86425D02*
X89575D01*
X86425Y34972D02*
Y36350D01*
Y34972D02*
X89575D01*
X86425Y30050D02*
Y31428D01*
Y30050D02*
X89575D01*
Y31428D01*
X86425D02*
X89575D01*
X124425Y134050D02*
Y140350D01*
Y134050D02*
X127575D01*
Y140350D01*
X124425D02*
X127575D01*
X124425Y134050D02*
Y135428D01*
Y134050D02*
X127575D01*
Y135428D01*
X124425D02*
X127575D01*
Y138972D02*
Y140350D01*
X124425D02*
X127575D01*
X124425Y138972D02*
Y140350D01*
Y138972D02*
X127575D01*
X66416Y21832D02*
Y25769D01*
Y21832D02*
X68384D01*
Y25769D01*
X66416D02*
X68384D01*
X66416Y21832D02*
Y22619D01*
Y21832D02*
X68384D01*
Y22619D01*
X66416D02*
X68384D01*
Y24981D02*
Y25769D01*
X66416D02*
X68384D01*
X66416Y24981D02*
Y25769D01*
Y24981D02*
X68384D01*
X180332Y117884D02*
X184268D01*
X180332Y115916D02*
Y117884D01*
Y115916D02*
X184268D01*
Y117884D01*
X180332D02*
X181119D01*
X180332Y115916D02*
Y117884D01*
Y115916D02*
X181119D01*
Y117884D01*
X183481Y115916D02*
X184268D01*
Y117884D01*
X183481D02*
X184268D01*
X183481Y115916D02*
Y117884D01*
X157079Y78263D02*
X166921D01*
Y86137D01*
X157079D02*
X166921D01*
X157079Y78263D02*
Y86137D01*
X164480Y78263D02*
X166921D01*
Y86137D01*
X164480D02*
X166921D01*
X164480Y78263D02*
Y86137D01*
X157079D02*
X159520D01*
X157079Y78263D02*
Y86137D01*
Y78263D02*
X159520D01*
Y86137D01*
X139937Y115279D02*
Y125121D01*
X132063D02*
X139937D01*
X132063Y115279D02*
Y125121D01*
Y115279D02*
X139937D01*
Y122680D02*
Y125121D01*
X132063D02*
X139937D01*
X132063Y122680D02*
Y125121D01*
Y122680D02*
X139937D01*
X132063Y115279D02*
Y117720D01*
Y115279D02*
X139937D01*
Y117720D01*
X132063D02*
X139937D01*
X179850Y107625D02*
X186150D01*
Y110775D01*
X179850D02*
X186150D01*
X179850Y107625D02*
Y110775D01*
X184772Y107625D02*
X186150D01*
Y110775D01*
X184772D02*
X186150D01*
X184772Y107625D02*
Y110775D01*
X179850D02*
X181228D01*
X179850Y107625D02*
Y110775D01*
Y107625D02*
X181228D01*
Y110775D01*
X73575Y83050D02*
Y89350D01*
X70425D02*
X73575D01*
X70425Y83050D02*
Y89350D01*
Y83050D02*
X73575D01*
Y87972D02*
Y89350D01*
X70425D02*
X73575D01*
X70425Y87972D02*
Y89350D01*
Y87972D02*
X73575D01*
X70425Y83050D02*
Y84428D01*
Y83050D02*
X73575D01*
Y84428D01*
X70425D02*
X73575D01*
X47350Y98275D02*
X53650D01*
X47350Y95125D02*
Y98275D01*
Y95125D02*
X53650D01*
Y98275D01*
X47350D02*
X48728D01*
X47350Y95125D02*
Y98275D01*
Y95125D02*
X48728D01*
Y98275D01*
X52272Y95125D02*
X53650D01*
Y98275D01*
X52272D02*
X53650D01*
X52272Y95125D02*
Y98275D01*
X82984Y33231D02*
Y37168D01*
X81016D02*
X82984D01*
X81016Y33231D02*
Y37168D01*
Y33231D02*
X82984D01*
Y36381D02*
Y37168D01*
X81016D02*
X82984D01*
X81016Y36381D02*
Y37168D01*
Y36381D02*
X82984D01*
X81016Y33231D02*
Y34019D01*
Y33231D02*
X82984D01*
Y34019D01*
X81016D02*
X82984D01*
X148850Y102625D02*
X155150D01*
Y105775D01*
X148850D02*
X155150D01*
X148850Y102625D02*
Y105775D01*
X153772Y102625D02*
X155150D01*
Y105775D01*
X153772D02*
X155150D01*
X153772Y102625D02*
Y105775D01*
X148850D02*
X150228D01*
X148850Y102625D02*
Y105775D01*
Y102625D02*
X150228D01*
Y105775D01*
X84016Y78732D02*
Y82669D01*
Y78732D02*
X85984D01*
Y82669D01*
X84016D02*
X85984D01*
X84016Y78732D02*
Y79519D01*
Y78732D02*
X85984D01*
Y79519D01*
X84016D02*
X85984D01*
Y81881D02*
Y82669D01*
X84016D02*
X85984D01*
X84016Y81881D02*
Y82669D01*
Y81881D02*
X85984D01*
X160350Y102625D02*
X166650D01*
Y105775D01*
X160350D02*
X166650D01*
X160350Y102625D02*
Y105775D01*
X165272Y102625D02*
X166650D01*
Y105775D01*
X165272D02*
X166650D01*
X165272Y102625D02*
Y105775D01*
X160350D02*
X161728D01*
X160350Y102625D02*
Y105775D01*
Y102625D02*
X161728D01*
Y105775D01*
X122075Y77550D02*
Y83850D01*
X118925D02*
X122075D01*
X118925Y77550D02*
Y83850D01*
Y77550D02*
X122075D01*
Y82472D02*
Y83850D01*
X118925D02*
X122075D01*
X118925Y82472D02*
Y83850D01*
Y82472D02*
X122075D01*
X118925Y77550D02*
Y78928D01*
Y77550D02*
X122075D01*
Y78928D01*
X118925D02*
X122075D01*
X130575Y77550D02*
Y83850D01*
X127425D02*
X130575D01*
X127425Y77550D02*
Y83850D01*
Y77550D02*
X130575D01*
Y82472D02*
Y83850D01*
X127425D02*
X130575D01*
X127425Y82472D02*
Y83850D01*
Y82472D02*
X130575D01*
X127425Y77550D02*
Y78928D01*
Y77550D02*
X130575D01*
Y78928D01*
X127425D02*
X130575D01*
X145350Y61275D02*
X151650D01*
X145350Y58125D02*
Y61275D01*
Y58125D02*
X151650D01*
Y61275D01*
X145350D02*
X146728D01*
X145350Y58125D02*
Y61275D01*
Y58125D02*
X146728D01*
Y61275D01*
X150272Y58125D02*
X151650D01*
Y61275D01*
X150272D02*
X151650D01*
X150272Y58125D02*
Y61275D01*
X170350Y72775D02*
X176650D01*
X170350Y69625D02*
Y72775D01*
Y69625D02*
X176650D01*
Y72775D01*
X170350D02*
X171728D01*
X170350Y69625D02*
Y72775D01*
Y69625D02*
X171728D01*
Y72775D01*
X175272Y69625D02*
X176650D01*
Y72775D01*
X175272D02*
X176650D01*
X175272Y69625D02*
Y72775D01*
X118925Y92250D02*
Y98550D01*
Y92250D02*
X122075D01*
Y98550D01*
X118925D02*
X122075D01*
X118925Y92250D02*
Y93628D01*
Y92250D02*
X122075D01*
Y93628D01*
X118925D02*
X122075D01*
Y97172D02*
Y98550D01*
X118925D02*
X122075D01*
X118925Y97172D02*
Y98550D01*
Y97172D02*
X122075D01*
X161350Y49275D02*
X167650D01*
X161350Y46125D02*
Y49275D01*
Y46125D02*
X167650D01*
Y49275D01*
X161350D02*
X162728D01*
X161350Y46125D02*
Y49275D01*
Y46125D02*
X162728D01*
Y49275D01*
X166272Y46125D02*
X167650D01*
Y49275D01*
X166272D02*
X167650D01*
X166272Y46125D02*
Y49275D01*
X170350Y62625D02*
X176650D01*
Y65775D01*
X170350D02*
X176650D01*
X170350Y62625D02*
Y65775D01*
X175272Y62625D02*
X176650D01*
Y65775D01*
X175272D02*
X176650D01*
X175272Y62625D02*
Y65775D01*
X170350D02*
X171728D01*
X170350Y62625D02*
Y65775D01*
Y62625D02*
X171728D01*
Y65775D01*
X161350Y56125D02*
X167650D01*
Y59275D01*
X161350D02*
X167650D01*
X161350Y56125D02*
Y59275D01*
X166272Y56125D02*
X167650D01*
Y59275D01*
X166272D02*
X167650D01*
X166272Y56125D02*
Y59275D01*
X161350D02*
X162728D01*
X161350Y56125D02*
Y59275D01*
Y56125D02*
X162728D01*
Y59275D01*
X79575Y83050D02*
Y89350D01*
X76425D02*
X79575D01*
X76425Y83050D02*
Y89350D01*
Y83050D02*
X79575D01*
Y87972D02*
Y89350D01*
X76425D02*
X79575D01*
X76425Y87972D02*
Y89350D01*
Y87972D02*
X79575D01*
X76425Y83050D02*
Y84428D01*
Y83050D02*
X79575D01*
Y84428D01*
X76425D02*
X79575D01*
X47032Y92184D02*
X50968D01*
X47032Y90216D02*
Y92184D01*
Y90216D02*
X50968D01*
Y92184D01*
X47032D02*
X47819D01*
X47032Y90216D02*
Y92184D01*
Y90216D02*
X47819D01*
Y92184D01*
X50181Y90216D02*
X50968D01*
Y92184D01*
X50181D02*
X50968D01*
X50181Y90216D02*
Y92184D01*
X57425Y20050D02*
Y26350D01*
Y20050D02*
X60575D01*
Y26350D01*
X57425D02*
X60575D01*
X57425Y20050D02*
Y21428D01*
Y20050D02*
X60575D01*
Y21428D01*
X57425D02*
X60575D01*
Y24972D02*
Y26350D01*
X57425D02*
X60575D01*
X57425Y24972D02*
Y26350D01*
Y24972D02*
X60575D01*
X152575Y137050D02*
Y143350D01*
X149425D02*
X152575D01*
X149425Y137050D02*
Y143350D01*
Y137050D02*
X152575D01*
Y141972D02*
Y143350D01*
X149425D02*
X152575D01*
X149425Y141972D02*
Y143350D01*
Y141972D02*
X152575D01*
X149425Y137050D02*
Y138428D01*
Y137050D02*
X152575D01*
Y138428D01*
X149425D02*
X152575D01*
X156425Y137050D02*
Y143350D01*
Y137050D02*
X159575D01*
Y143350D01*
X156425D02*
X159575D01*
X156425Y137050D02*
Y138428D01*
Y137050D02*
X159575D01*
Y138428D01*
X156425D02*
X159575D01*
Y141972D02*
Y143350D01*
X156425D02*
X159575D01*
X156425Y141972D02*
Y143350D01*
Y141972D02*
X159575D01*
X146095Y121294D02*
Y133106D01*
Y121294D02*
X157905D01*
Y133106D01*
X146095D02*
X157905D01*
X149244Y130546D02*
X150425Y131728D01*
X153575D01*
X154756Y123854D02*
Y130546D01*
X150425Y122672D02*
X153575D01*
X149244Y123854D02*
Y130546D01*
X156331Y130665D02*
X157905D01*
Y131609D01*
X156331D02*
X157905D01*
X156331Y130665D02*
Y131609D01*
Y128696D02*
X157905D01*
Y129641D01*
X156331D02*
X157905D01*
X156331Y128696D02*
Y129641D01*
Y126728D02*
X157905D01*
Y127672D01*
X156331D02*
X157905D01*
X156331Y126728D02*
Y127672D01*
Y124759D02*
X157905D01*
Y125704D01*
X156331D02*
X157905D01*
X156331Y124759D02*
Y125704D01*
Y122791D02*
X157905D01*
Y123735D01*
X156331D02*
X157905D01*
X156331Y122791D02*
Y123735D01*
X146095D02*
X147669D01*
X146095Y122791D02*
Y123735D01*
Y122791D02*
X147669D01*
Y123735D01*
X146095Y125704D02*
X147669D01*
X146095Y124759D02*
Y125704D01*
Y124759D02*
X147669D01*
Y125704D01*
X146095Y127672D02*
X147669D01*
X146095Y126728D02*
Y127672D01*
Y126728D02*
X147669D01*
Y127672D01*
X146095Y129641D02*
X147669D01*
X146095Y128696D02*
Y129641D01*
Y128696D02*
X147669D01*
Y129641D01*
X146095Y131609D02*
X147669D01*
X146095Y130665D02*
Y131609D01*
Y130665D02*
X147669D01*
Y131609D01*
X35075Y107050D02*
Y113350D01*
X31925D02*
X35075D01*
X31925Y107050D02*
Y113350D01*
Y107050D02*
X35075D01*
Y111972D02*
Y113350D01*
X31925D02*
X35075D01*
X31925Y111972D02*
Y113350D01*
Y111972D02*
X35075D01*
X31925Y107050D02*
Y108428D01*
Y107050D02*
X35075D01*
Y108428D01*
X31925D02*
X35075D01*
X52575Y122050D02*
Y128350D01*
X49425D02*
X52575D01*
X49425Y122050D02*
Y128350D01*
Y122050D02*
X52575D01*
Y126972D02*
Y128350D01*
X49425D02*
X52575D01*
X49425Y126972D02*
Y128350D01*
Y126972D02*
X52575D01*
X49425Y122050D02*
Y123428D01*
Y122050D02*
X52575D01*
Y123428D01*
X49425D02*
X52575D01*
X38181Y136716D02*
Y138684D01*
X38969D01*
Y136716D02*
Y138684D01*
X38181Y136716D02*
X38969D01*
X35819D02*
Y138684D01*
X35032Y136716D02*
X35819D01*
X35032D02*
Y138684D01*
X35819D01*
X38969Y136716D02*
Y138684D01*
X35032Y136716D02*
X38969D01*
X35032D02*
Y138684D01*
X38969D01*
X12075Y124050D02*
Y130350D01*
X8925D02*
X12075D01*
X8925Y124050D02*
Y130350D01*
Y124050D02*
X12075D01*
Y128972D02*
Y130350D01*
X8925D02*
X12075D01*
X8925Y128972D02*
Y130350D01*
Y128972D02*
X12075D01*
X8925Y124050D02*
Y125428D01*
Y124050D02*
X12075D01*
Y125428D01*
X8925D02*
X12075D01*
X40461Y130145D02*
X41445D01*
X40461D02*
Y132606D01*
X41445D01*
Y130145D02*
Y132606D01*
X38492Y130145D02*
X39476D01*
X38492D02*
Y132606D01*
X39476D01*
Y130145D02*
Y132606D01*
X36524Y130145D02*
X37508D01*
X36524D02*
Y132606D01*
X37508D01*
Y130145D02*
Y132606D01*
X34555Y130145D02*
X35539D01*
X34555D02*
Y132606D01*
X35539D01*
Y130145D02*
Y132606D01*
X34555Y129161D02*
Y130145D01*
X32094Y129161D02*
X34555D01*
X32094D02*
Y130145D01*
X34555D01*
Y127192D02*
Y128176D01*
X32094Y127192D02*
X34555D01*
X32094D02*
Y128176D01*
X34555D01*
Y125224D02*
Y126208D01*
X32094Y125224D02*
X34555D01*
X32094D02*
Y126208D01*
X34555D01*
Y123255D02*
Y124239D01*
X32094Y123255D02*
X34555D01*
X32094D02*
Y124239D01*
X34555D01*
Y123255D02*
X35539D01*
Y120794D02*
Y123255D01*
X34555Y120794D02*
X35539D01*
X34555D02*
Y123255D01*
X36524D02*
X37508D01*
Y120794D02*
Y123255D01*
X36524Y120794D02*
X37508D01*
X36524D02*
Y123255D01*
X38492D02*
X39476D01*
Y120794D02*
Y123255D01*
X38492Y120794D02*
X39476D01*
X38492D02*
Y123255D01*
X40461D02*
X41445D01*
Y120794D02*
Y123255D01*
X40461Y120794D02*
X41445D01*
X40461D02*
Y123255D01*
X41445D02*
Y124239D01*
X43905D01*
Y123255D02*
Y124239D01*
X41445Y123255D02*
X43905D01*
X41445Y125224D02*
Y126208D01*
X43905D01*
Y125224D02*
Y126208D01*
X41445Y125224D02*
X43905D01*
X41445Y127192D02*
Y128176D01*
X43905D01*
Y127192D02*
Y128176D01*
X41445Y127192D02*
X43905D01*
X41445Y129161D02*
Y130145D01*
X43905D01*
Y129161D02*
Y130145D01*
X41445Y129161D02*
X43905D01*
Y120794D02*
Y132606D01*
X32094Y120794D02*
X43905D01*
X32094D02*
Y132606D01*
X43905D01*
X27500Y48700D02*
Y128700D01*
X17500D02*
X27500D01*
X17500Y48700D02*
Y128700D01*
Y48700D02*
X27500D01*
M02*
