G04 Layer_Color=65535*
%FSLAX25Y25*%
%MOIN*%
G70*
G01*
G75*
%ADD42C,0.00800*%
%ADD45C,0.01000*%
%ADD48C,0.00700*%
%ADD85C,0.00984*%
%ADD86C,0.00500*%
%ADD87C,0.00472*%
%ADD88C,0.00787*%
%ADD89C,0.00600*%
D42*
X66200Y19700D02*
X68900D01*
X178200Y115600D02*
Y118300D01*
D45*
X69458Y69684D02*
G03*
X69458Y69684I-139J0D01*
G01*
X39897Y64342D02*
G03*
X39897Y64342I-220J0D01*
G01*
X42637Y113062D02*
G03*
X42637Y113062I-278J0D01*
G01*
X139200Y80917D02*
G03*
X139200Y80917I-220J0D01*
G01*
X61244Y136869D02*
G03*
X61244Y136869I-406J0D01*
G01*
X47776Y145932D02*
G03*
X47776Y145932I-98J0D01*
G01*
X31095Y21779D02*
Y31621D01*
X42906Y21779D02*
Y31621D01*
X31095Y21779D02*
X42906D01*
X31095Y31621D02*
X42906D01*
X58294Y3979D02*
Y13821D01*
X70105Y3979D02*
Y13821D01*
X58294Y3979D02*
X70105D01*
X58294Y13821D02*
X70105D01*
X40957Y50070D02*
Y63653D01*
Y50070D02*
X57098D01*
Y63653D01*
X40957D02*
X57098D01*
X43539Y101645D02*
Y112373D01*
Y101645D02*
X56827D01*
Y112373D01*
X43539D02*
X56827D01*
X150398Y69105D02*
Y71271D01*
X148429Y82196D02*
X150398D01*
Y80129D02*
Y82196D01*
X148429Y69105D02*
X150398D01*
X137701Y69204D02*
X139669D01*
X137602Y69302D02*
Y71271D01*
Y80129D02*
Y82196D01*
X139669D01*
X31095Y4279D02*
Y14121D01*
X42906Y4279D02*
Y14121D01*
X31095Y4279D02*
X42906D01*
X31095Y14121D02*
X42906D01*
X48760Y145243D02*
X56240D01*
X48760Y138157D02*
X56240D01*
X48760D02*
Y145243D01*
X56240Y138157D02*
Y145243D01*
D48*
X137100Y37999D02*
Y35917D01*
X137516Y35500D01*
X138350D01*
X138766Y35917D01*
Y37999D01*
X141265Y37583D02*
X140849Y37999D01*
X140016D01*
X139599Y37583D01*
Y37166D01*
X140016Y36750D01*
X140849D01*
X141265Y36333D01*
Y35917D01*
X140849Y35500D01*
X140016D01*
X139599Y35917D01*
X142098Y37999D02*
Y35500D01*
X143348D01*
X143764Y35917D01*
Y36333D01*
X143348Y36750D01*
X142098D01*
X143348D01*
X143764Y37166D01*
Y37583D01*
X143348Y37999D01*
X142098D01*
X48666Y40283D02*
X48250Y40699D01*
X47416D01*
X47000Y40283D01*
Y38616D01*
X47416Y38200D01*
X48250D01*
X48666Y38616D01*
X49499Y38200D02*
X50332D01*
X49916D01*
Y40699D01*
X49499Y40283D01*
X46666Y74283D02*
X46250Y74699D01*
X45417D01*
X45000Y74283D01*
Y72616D01*
X45417Y72200D01*
X46250D01*
X46666Y72616D01*
X49165Y72200D02*
X47499D01*
X49165Y73866D01*
Y74283D01*
X48749Y74699D01*
X47916D01*
X47499Y74283D01*
X161266Y133283D02*
X160850Y133699D01*
X160017D01*
X159600Y133283D01*
Y131616D01*
X160017Y131200D01*
X160850D01*
X161266Y131616D01*
X162099Y133283D02*
X162516Y133699D01*
X163349D01*
X163765Y133283D01*
Y132866D01*
X163349Y132450D01*
X162932D01*
X163349D01*
X163765Y132033D01*
Y131616D01*
X163349Y131200D01*
X162516D01*
X162099Y131616D01*
X126466Y148983D02*
X126050Y149399D01*
X125216D01*
X124800Y148983D01*
Y147317D01*
X125216Y146900D01*
X126050D01*
X126466Y147317D01*
X128549Y146900D02*
Y149399D01*
X127299Y148150D01*
X128965D01*
X90666Y86283D02*
X90250Y86699D01*
X89416D01*
X89000Y86283D01*
Y84617D01*
X89416Y84200D01*
X90250D01*
X90666Y84617D01*
X93165Y86699D02*
X91499D01*
Y85450D01*
X92332Y85866D01*
X92749D01*
X93165Y85450D01*
Y84617D01*
X92749Y84200D01*
X91916D01*
X91499Y84617D01*
X107666Y96283D02*
X107250Y96699D01*
X106416D01*
X106000Y96283D01*
Y94617D01*
X106416Y94200D01*
X107250D01*
X107666Y94617D01*
X110165Y96699D02*
X109332Y96283D01*
X108499Y95450D01*
Y94617D01*
X108916Y94200D01*
X109749D01*
X110165Y94617D01*
Y95033D01*
X109749Y95450D01*
X108499D01*
X95666Y142283D02*
X95250Y142699D01*
X94416D01*
X94000Y142283D01*
Y140617D01*
X94416Y140200D01*
X95250D01*
X95666Y140617D01*
X96499Y142699D02*
X98165D01*
Y142283D01*
X96499Y140617D01*
Y140200D01*
X39666Y104283D02*
X39250Y104699D01*
X38416D01*
X38000Y104283D01*
Y102617D01*
X38416Y102200D01*
X39250D01*
X39666Y102617D01*
X40499Y104283D02*
X40916Y104699D01*
X41749D01*
X42165Y104283D01*
Y103866D01*
X41749Y103450D01*
X42165Y103033D01*
Y102617D01*
X41749Y102200D01*
X40916D01*
X40499Y102617D01*
Y103033D01*
X40916Y103450D01*
X40499Y103866D01*
Y104283D01*
X40916Y103450D02*
X41749D01*
X62666Y148283D02*
X62250Y148699D01*
X61417D01*
X61000Y148283D01*
Y146616D01*
X61417Y146200D01*
X62250D01*
X62666Y146616D01*
X63499D02*
X63916Y146200D01*
X64749D01*
X65165Y146616D01*
Y148283D01*
X64749Y148699D01*
X63916D01*
X63499Y148283D01*
Y147866D01*
X63916Y147450D01*
X65165D01*
X127666Y87283D02*
X127250Y87699D01*
X126417D01*
X126000Y87283D01*
Y85616D01*
X126417Y85200D01*
X127250D01*
X127666Y85616D01*
X128499Y85200D02*
X129332D01*
X128916D01*
Y87699D01*
X128499Y87283D01*
X130582D02*
X130998Y87699D01*
X131831D01*
X132248Y87283D01*
Y85616D01*
X131831Y85200D01*
X130998D01*
X130582Y85616D01*
Y87283D01*
X37666Y85283D02*
X37250Y85699D01*
X36417D01*
X36000Y85283D01*
Y83617D01*
X36417Y83200D01*
X37250D01*
X37666Y83617D01*
X38499Y83200D02*
X39332D01*
X38916D01*
Y85699D01*
X38499Y85283D01*
X40582Y83200D02*
X41415D01*
X40998D01*
Y85699D01*
X40582Y85283D01*
X53666Y73283D02*
X53250Y73699D01*
X52416D01*
X52000Y73283D01*
Y71617D01*
X52416Y71200D01*
X53250D01*
X53666Y71617D01*
X54499Y71200D02*
X55332D01*
X54916D01*
Y73699D01*
X54499Y73283D01*
X58248Y71200D02*
X56582D01*
X58248Y72866D01*
Y73283D01*
X57831Y73699D01*
X56998D01*
X56582Y73283D01*
X75666Y76283D02*
X75250Y76699D01*
X74417D01*
X74000Y76283D01*
Y74616D01*
X74417Y74200D01*
X75250D01*
X75666Y74616D01*
X76499Y74200D02*
X77332D01*
X76916D01*
Y76699D01*
X76499Y76283D01*
X78582D02*
X78998Y76699D01*
X79831D01*
X80248Y76283D01*
Y75866D01*
X79831Y75450D01*
X79415D01*
X79831D01*
X80248Y75033D01*
Y74616D01*
X79831Y74200D01*
X78998D01*
X78582Y74616D01*
X99666Y34283D02*
X99250Y34699D01*
X98417D01*
X98000Y34283D01*
Y32616D01*
X98417Y32200D01*
X99250D01*
X99666Y32616D01*
X100499Y32200D02*
X101332D01*
X100916D01*
Y34699D01*
X100499Y34283D01*
X103831Y32200D02*
Y34699D01*
X102582Y33450D01*
X104248D01*
X101666Y71283D02*
X101250Y71699D01*
X100417D01*
X100000Y71283D01*
Y69617D01*
X100417Y69200D01*
X101250D01*
X101666Y69617D01*
X102499Y69200D02*
X103332D01*
X102916D01*
Y71699D01*
X102499Y71283D01*
X106248Y71699D02*
X104582D01*
Y70450D01*
X105415Y70866D01*
X105831D01*
X106248Y70450D01*
Y69617D01*
X105831Y69200D01*
X104998D01*
X104582Y69617D01*
X120266Y110483D02*
X119850Y110899D01*
X119017D01*
X118600Y110483D01*
Y108817D01*
X119017Y108400D01*
X119850D01*
X120266Y108817D01*
X122765Y108400D02*
X121099D01*
X122765Y110066D01*
Y110483D01*
X122349Y110899D01*
X121516D01*
X121099Y110483D01*
X124848Y108400D02*
Y110899D01*
X123598Y109650D01*
X125265D01*
X156766Y63183D02*
X156350Y63599D01*
X155517D01*
X155100Y63183D01*
Y61516D01*
X155517Y61100D01*
X156350D01*
X156766Y61516D01*
X159265Y61100D02*
X157599D01*
X159265Y62766D01*
Y63183D01*
X158849Y63599D01*
X158016D01*
X157599Y63183D01*
X161765Y63599D02*
X160098D01*
Y62350D01*
X160931Y62766D01*
X161348D01*
X161765Y62350D01*
Y61516D01*
X161348Y61100D01*
X160515D01*
X160098Y61516D01*
X32666Y36283D02*
X32250Y36699D01*
X31416D01*
X31000Y36283D01*
Y34617D01*
X31416Y34200D01*
X32250D01*
X32666Y34617D01*
X35165Y34200D02*
X33499D01*
X35165Y35866D01*
Y36283D01*
X34749Y36699D01*
X33916D01*
X33499Y36283D01*
X37664Y36699D02*
X36831Y36283D01*
X35998Y35450D01*
Y34617D01*
X36415Y34200D01*
X37248D01*
X37664Y34617D01*
Y35033D01*
X37248Y35450D01*
X35998D01*
X129666Y42283D02*
X129250Y42699D01*
X128417D01*
X128000Y42283D01*
Y40617D01*
X128417Y40200D01*
X129250D01*
X129666Y40617D01*
X132165Y40200D02*
X130499D01*
X132165Y41866D01*
Y42283D01*
X131749Y42699D01*
X130916D01*
X130499Y42283D01*
X132998Y42699D02*
X134664D01*
Y42283D01*
X132998Y40617D01*
Y40200D01*
X171466Y53083D02*
X171050Y53499D01*
X170217D01*
X169800Y53083D01*
Y51416D01*
X170217Y51000D01*
X171050D01*
X171466Y51416D01*
X173965Y51000D02*
X172299D01*
X173965Y52666D01*
Y53083D01*
X173549Y53499D01*
X172716D01*
X172299Y53083D01*
X174798D02*
X175215Y53499D01*
X176048D01*
X176464Y53083D01*
Y52666D01*
X176048Y52250D01*
X176464Y51833D01*
Y51416D01*
X176048Y51000D01*
X175215D01*
X174798Y51416D01*
Y51833D01*
X175215Y52250D01*
X174798Y52666D01*
Y53083D01*
X175215Y52250D02*
X176048D01*
X184666Y47783D02*
X184250Y48199D01*
X183416D01*
X183000Y47783D01*
Y46117D01*
X183416Y45700D01*
X184250D01*
X184666Y46117D01*
X187165Y45700D02*
X185499D01*
X187165Y47366D01*
Y47783D01*
X186749Y48199D01*
X185916D01*
X185499Y47783D01*
X187998Y46117D02*
X188415Y45700D01*
X189248D01*
X189664Y46117D01*
Y47783D01*
X189248Y48199D01*
X188415D01*
X187998Y47783D01*
Y47366D01*
X188415Y46950D01*
X189664D01*
X61666Y80283D02*
X61250Y80699D01*
X60417D01*
X60000Y80283D01*
Y78616D01*
X60417Y78200D01*
X61250D01*
X61666Y78616D01*
X62499Y80283D02*
X62916Y80699D01*
X63749D01*
X64165Y80283D01*
Y79866D01*
X63749Y79450D01*
X63332D01*
X63749D01*
X64165Y79033D01*
Y78616D01*
X63749Y78200D01*
X62916D01*
X62499Y78616D01*
X64998Y80283D02*
X65415Y80699D01*
X66248D01*
X66664Y80283D01*
Y78616D01*
X66248Y78200D01*
X65415D01*
X64998Y78616D01*
Y80283D01*
X61666Y55283D02*
X61250Y55699D01*
X60417D01*
X60000Y55283D01*
Y53616D01*
X60417Y53200D01*
X61250D01*
X61666Y53616D01*
X62499Y55283D02*
X62916Y55699D01*
X63749D01*
X64165Y55283D01*
Y54866D01*
X63749Y54450D01*
X63332D01*
X63749D01*
X64165Y54033D01*
Y53616D01*
X63749Y53200D01*
X62916D01*
X62499Y53616D01*
X64998Y53200D02*
X65831D01*
X65415D01*
Y55699D01*
X64998Y55283D01*
X86666Y26283D02*
X86250Y26699D01*
X85417D01*
X85000Y26283D01*
Y24617D01*
X85417Y24200D01*
X86250D01*
X86666Y24617D01*
X87499Y26283D02*
X87916Y26699D01*
X88749D01*
X89165Y26283D01*
Y25866D01*
X88749Y25450D01*
X88332D01*
X88749D01*
X89165Y25033D01*
Y24617D01*
X88749Y24200D01*
X87916D01*
X87499Y24617D01*
X91248Y24200D02*
Y26699D01*
X89998Y25450D01*
X91664D01*
X116666Y137383D02*
X116250Y137799D01*
X115417D01*
X115000Y137383D01*
Y135716D01*
X115417Y135300D01*
X116250D01*
X116666Y135716D01*
X117499Y137383D02*
X117916Y137799D01*
X118749D01*
X119165Y137383D01*
Y136966D01*
X118749Y136550D01*
X118332D01*
X118749D01*
X119165Y136133D01*
Y135716D01*
X118749Y135300D01*
X117916D01*
X117499Y135716D01*
X121665Y137799D02*
X119998D01*
Y136550D01*
X120831Y136966D01*
X121248D01*
X121665Y136550D01*
Y135716D01*
X121248Y135300D01*
X120415D01*
X119998Y135716D01*
X70400Y21299D02*
Y18800D01*
X71650D01*
X72066Y19217D01*
Y20883D01*
X71650Y21299D01*
X70400D01*
X72899Y20883D02*
X73316Y21299D01*
X74149D01*
X74565Y20883D01*
Y20466D01*
X74149Y20050D01*
X73732D01*
X74149D01*
X74565Y19633D01*
Y19217D01*
X74149Y18800D01*
X73316D01*
X72899Y19217D01*
X187300Y117399D02*
Y114900D01*
X188550D01*
X188966Y115316D01*
Y116983D01*
X188550Y117399D01*
X187300D01*
X191049Y114900D02*
Y117399D01*
X189799Y116150D01*
X191465D01*
X185500Y148899D02*
Y146400D01*
Y147650D01*
X187166D01*
Y148899D01*
Y146400D01*
X187999D02*
X188832D01*
X188416D01*
Y148899D01*
X187999Y148483D01*
X182900Y35999D02*
Y33500D01*
Y34750D01*
X184566D01*
Y35999D01*
Y33500D01*
X187065D02*
X185399D01*
X187065Y35166D01*
Y35583D01*
X186649Y35999D01*
X185816D01*
X185399Y35583D01*
X203600Y149499D02*
Y147833D01*
X204433Y147000D01*
X205266Y147833D01*
Y149499D01*
X207765Y149083D02*
X207349Y149499D01*
X206516D01*
X206099Y149083D01*
Y147416D01*
X206516Y147000D01*
X207349D01*
X207765Y147416D01*
X210264Y149083D02*
X209848Y149499D01*
X209015D01*
X208598Y149083D01*
Y147416D01*
X209015Y147000D01*
X209848D01*
X210264Y147416D01*
X211098Y149083D02*
X211514Y149499D01*
X212347D01*
X212764Y149083D01*
Y148666D01*
X212347Y148250D01*
X211931D01*
X212347D01*
X212764Y147833D01*
Y147416D01*
X212347Y147000D01*
X211514D01*
X211098Y147416D01*
X176000Y83199D02*
Y80700D01*
X177666D01*
X178499D02*
X179332D01*
X178916D01*
Y83199D01*
X178499Y82783D01*
X124000Y121699D02*
Y119200D01*
X125666D01*
X128165D02*
X126499D01*
X128165Y120866D01*
Y121283D01*
X127749Y121699D01*
X126916D01*
X126499Y121283D01*
X182700Y95699D02*
Y94033D01*
X183533Y93200D01*
X184366Y94033D01*
Y95699D01*
X185199D02*
Y93200D01*
X186449D01*
X186865Y93616D01*
Y94033D01*
X186449Y94450D01*
X185199D01*
X186449D01*
X186865Y94866D01*
Y95283D01*
X186449Y95699D01*
X185199D01*
X187698Y93200D02*
Y94866D01*
X188531Y95699D01*
X189365Y94866D01*
Y93200D01*
Y94450D01*
X187698D01*
X190198Y95699D02*
X191864D01*
X191031D01*
Y93200D01*
X190000Y107200D02*
Y109699D01*
X191250D01*
X191666Y109283D01*
Y108450D01*
X191250Y108033D01*
X190000D01*
X190833D02*
X191666Y107200D01*
X192499D02*
X193332D01*
X192916D01*
Y109699D01*
X192499Y109283D01*
X68000Y91200D02*
Y93699D01*
X69250D01*
X69666Y93283D01*
Y92450D01*
X69250Y92033D01*
X68000D01*
X68833D02*
X69666Y91200D01*
X72165D02*
X70499D01*
X72165Y92866D01*
Y93283D01*
X71749Y93699D01*
X70916D01*
X70499Y93283D01*
X32600Y95200D02*
Y97699D01*
X33850D01*
X34266Y97283D01*
Y96450D01*
X33850Y96033D01*
X32600D01*
X33433D02*
X34266Y95200D01*
X35099Y97283D02*
X35516Y97699D01*
X36349D01*
X36765Y97283D01*
Y96866D01*
X36349Y96450D01*
X35932D01*
X36349D01*
X36765Y96033D01*
Y95617D01*
X36349Y95200D01*
X35516D01*
X35099Y95617D01*
X79000Y28200D02*
Y30699D01*
X80250D01*
X80666Y30283D01*
Y29450D01*
X80250Y29033D01*
X79000D01*
X79833D02*
X80666Y28200D01*
X83165Y30699D02*
X82332Y30283D01*
X81499Y29450D01*
Y28616D01*
X81916Y28200D01*
X82749D01*
X83165Y28616D01*
Y29033D01*
X82749Y29450D01*
X81499D01*
X149808Y106722D02*
Y109221D01*
X151057D01*
X151474Y108805D01*
Y107972D01*
X151057Y107555D01*
X149808D01*
X150641D02*
X151474Y106722D01*
X152307Y109221D02*
X153973D01*
Y108805D01*
X152307Y107139D01*
Y106722D01*
X83000Y72900D02*
Y75399D01*
X84250D01*
X84666Y74983D01*
Y74150D01*
X84250Y73733D01*
X83000D01*
X83833D02*
X84666Y72900D01*
X85499Y74983D02*
X85916Y75399D01*
X86749D01*
X87165Y74983D01*
Y74566D01*
X86749Y74150D01*
X87165Y73733D01*
Y73317D01*
X86749Y72900D01*
X85916D01*
X85499Y73317D01*
Y73733D01*
X85916Y74150D01*
X85499Y74566D01*
Y74983D01*
X85916Y74150D02*
X86749D01*
X174000Y95200D02*
Y97699D01*
X175250D01*
X175666Y97283D01*
Y96450D01*
X175250Y96033D01*
X174000D01*
X174833D02*
X175666Y95200D01*
X176499Y95617D02*
X176916Y95200D01*
X177749D01*
X178165Y95617D01*
Y97283D01*
X177749Y97699D01*
X176916D01*
X176499Y97283D01*
Y96866D01*
X176916Y96450D01*
X178165D01*
X170000Y103200D02*
Y105699D01*
X171250D01*
X171666Y105283D01*
Y104450D01*
X171250Y104033D01*
X170000D01*
X170833D02*
X171666Y103200D01*
X172499D02*
X173332D01*
X172916D01*
Y105699D01*
X172499Y105283D01*
X174582D02*
X174998Y105699D01*
X175831D01*
X176248Y105283D01*
Y103616D01*
X175831Y103200D01*
X174998D01*
X174582Y103616D01*
Y105283D01*
X117400Y72700D02*
Y75199D01*
X118650D01*
X119066Y74783D01*
Y73950D01*
X118650Y73533D01*
X117400D01*
X118233D02*
X119066Y72700D01*
X119899D02*
X120732D01*
X120316D01*
Y75199D01*
X119899Y74783D01*
X121982Y72700D02*
X122815D01*
X122398D01*
Y75199D01*
X121982Y74783D01*
X127500Y71400D02*
Y73899D01*
X128750D01*
X129166Y73483D01*
Y72650D01*
X128750Y72233D01*
X127500D01*
X128333D02*
X129166Y71400D01*
X129999D02*
X130832D01*
X130416D01*
Y73899D01*
X129999Y73483D01*
X133748Y71400D02*
X132082D01*
X133748Y73066D01*
Y73483D01*
X133331Y73899D01*
X132498D01*
X132082Y73483D01*
X140900Y53800D02*
Y56299D01*
X142150D01*
X142566Y55883D01*
Y55050D01*
X142150Y54633D01*
X140900D01*
X141733D02*
X142566Y53800D01*
X143399D02*
X144232D01*
X143816D01*
Y56299D01*
X143399Y55883D01*
X145482D02*
X145898Y56299D01*
X146731D01*
X147148Y55883D01*
Y55466D01*
X146731Y55050D01*
X146315D01*
X146731D01*
X147148Y54633D01*
Y54216D01*
X146731Y53800D01*
X145898D01*
X145482Y54216D01*
X161800Y69400D02*
Y71899D01*
X163050D01*
X163466Y71483D01*
Y70650D01*
X163050Y70233D01*
X161800D01*
X162633D02*
X163466Y69400D01*
X164299D02*
X165132D01*
X164716D01*
Y71899D01*
X164299Y71483D01*
X167631Y69400D02*
Y71899D01*
X166382Y70650D01*
X168048D01*
X116600Y103700D02*
Y106199D01*
X117850D01*
X118266Y105783D01*
Y104950D01*
X117850Y104533D01*
X116600D01*
X117433D02*
X118266Y103700D01*
X119099D02*
X119932D01*
X119516D01*
Y106199D01*
X119099Y105783D01*
X122848Y106199D02*
X121182D01*
Y104950D01*
X122015Y105366D01*
X122431D01*
X122848Y104950D01*
Y104116D01*
X122431Y103700D01*
X121598D01*
X121182Y104116D01*
X170100Y46600D02*
Y49099D01*
X171350D01*
X171766Y48683D01*
Y47850D01*
X171350Y47433D01*
X170100D01*
X170933D02*
X171766Y46600D01*
X172599D02*
X173432D01*
X173016D01*
Y49099D01*
X172599Y48683D01*
X176348Y49099D02*
X175515Y48683D01*
X174682Y47850D01*
Y47017D01*
X175098Y46600D01*
X175931D01*
X176348Y47017D01*
Y47433D01*
X175931Y47850D01*
X174682D01*
X161600Y63000D02*
Y65499D01*
X162850D01*
X163266Y65083D01*
Y64250D01*
X162850Y63833D01*
X161600D01*
X162433D02*
X163266Y63000D01*
X164099D02*
X164932D01*
X164516D01*
Y65499D01*
X164099Y65083D01*
X166182Y65499D02*
X167848D01*
Y65083D01*
X166182Y63416D01*
Y63000D01*
X170800Y56600D02*
Y59099D01*
X172050D01*
X172466Y58683D01*
Y57850D01*
X172050Y57433D01*
X170800D01*
X171633D02*
X172466Y56600D01*
X173299D02*
X174132D01*
X173716D01*
Y59099D01*
X173299Y58683D01*
X175382D02*
X175798Y59099D01*
X176631D01*
X177048Y58683D01*
Y58266D01*
X176631Y57850D01*
X177048Y57433D01*
Y57016D01*
X176631Y56600D01*
X175798D01*
X175382Y57016D01*
Y57433D01*
X175798Y57850D01*
X175382Y58266D01*
Y58683D01*
X175798Y57850D02*
X176631D01*
X75000Y91200D02*
Y93699D01*
X76250D01*
X76666Y93283D01*
Y92450D01*
X76250Y92033D01*
X75000D01*
X75833D02*
X76666Y91200D01*
X77499D02*
X78332D01*
X77916D01*
Y93699D01*
X77499Y93283D01*
X79582Y91616D02*
X79998Y91200D01*
X80831D01*
X81248Y91616D01*
Y93283D01*
X80831Y93699D01*
X79998D01*
X79582Y93283D01*
Y92866D01*
X79998Y92450D01*
X81248D01*
X36000Y89200D02*
Y91699D01*
X37250D01*
X37666Y91283D01*
Y90450D01*
X37250Y90033D01*
X36000D01*
X36833D02*
X37666Y89200D01*
X40165D02*
X38499D01*
X40165Y90866D01*
Y91283D01*
X39749Y91699D01*
X38916D01*
X38499Y91283D01*
X40998D02*
X41415Y91699D01*
X42248D01*
X42665Y91283D01*
Y89617D01*
X42248Y89200D01*
X41415D01*
X40998Y89617D01*
Y91283D01*
X56800Y31700D02*
Y34199D01*
X58050D01*
X58466Y33783D01*
Y32950D01*
X58050Y32533D01*
X56800D01*
X57633D02*
X58466Y31700D01*
X60965D02*
X59299D01*
X60965Y33366D01*
Y33783D01*
X60549Y34199D01*
X59716D01*
X59299Y33783D01*
X61798Y31700D02*
X62631D01*
X62215D01*
Y34199D01*
X61798Y33783D01*
X146000Y147200D02*
Y149699D01*
X147250D01*
X147666Y149283D01*
Y148450D01*
X147250Y148033D01*
X146000D01*
X146833D02*
X147666Y147200D01*
X150165D02*
X148499D01*
X150165Y148866D01*
Y149283D01*
X149749Y149699D01*
X148916D01*
X148499Y149283D01*
X152248Y147200D02*
Y149699D01*
X150998Y148450D01*
X152664D01*
X158000Y147200D02*
Y149699D01*
X159250D01*
X159666Y149283D01*
Y148450D01*
X159250Y148033D01*
X158000D01*
X158833D02*
X159666Y147200D01*
X162165D02*
X160499D01*
X162165Y148866D01*
Y149283D01*
X161749Y149699D01*
X160916D01*
X160499Y149283D01*
X164664Y149699D02*
X162998D01*
Y148450D01*
X163831Y148866D01*
X164248D01*
X164664Y148450D01*
Y147617D01*
X164248Y147200D01*
X163415D01*
X162998Y147617D01*
X32000Y17200D02*
Y19699D01*
X33250D01*
X33666Y19283D01*
Y18450D01*
X33250Y18033D01*
X32000D01*
X32833D02*
X33666Y17200D01*
X36165Y19699D02*
X34499D01*
Y17200D01*
X36165D01*
X34499Y18450D02*
X35332D01*
X38664Y19283D02*
X38248Y19699D01*
X37415D01*
X36998Y19283D01*
Y18866D01*
X37415Y18450D01*
X38248D01*
X38664Y18033D01*
Y17616D01*
X38248Y17200D01*
X37415D01*
X36998Y17616D01*
X41164Y19699D02*
X39498D01*
Y17200D01*
X41164D01*
X39498Y18450D02*
X40331D01*
X41997Y19699D02*
X43663D01*
X42830D01*
Y17200D01*
X62950Y2999D02*
X62116D01*
X61700Y2583D01*
Y917D01*
X62116Y500D01*
X62950D01*
X63366Y917D01*
Y2583D01*
X62950Y2999D01*
X64199Y500D02*
Y2999D01*
X65865Y500D01*
Y2999D01*
X63000Y64699D02*
Y62616D01*
X63416Y62200D01*
X64250D01*
X64666Y62616D01*
Y64699D01*
X65499Y64283D02*
X65916Y64699D01*
X66749D01*
X67165Y64283D01*
Y63866D01*
X66749Y63450D01*
X66332D01*
X66749D01*
X67165Y63033D01*
Y62616D01*
X66749Y62200D01*
X65916D01*
X65499Y62616D01*
X152000Y119699D02*
Y117616D01*
X152417Y117200D01*
X153250D01*
X153666Y117616D01*
Y119699D01*
X155749Y117200D02*
Y119699D01*
X154499Y118450D01*
X156165D01*
X35000Y65699D02*
Y65283D01*
X35833Y64450D01*
X36666Y65283D01*
Y65699D01*
X35833Y64450D02*
Y63200D01*
X39165D02*
X37499D01*
X39165Y64866D01*
Y65283D01*
X38749Y65699D01*
X37916D01*
X37499Y65283D01*
X39000Y110699D02*
Y110283D01*
X39833Y109450D01*
X40666Y110283D01*
Y110699D01*
X39833Y109450D02*
Y108200D01*
X41499D02*
X42332D01*
X41916D01*
Y110699D01*
X41499Y110283D01*
X136000Y87699D02*
Y85616D01*
X136416Y85200D01*
X137250D01*
X137666Y85616D01*
Y87699D01*
X140165Y85200D02*
X138499D01*
X140165Y86866D01*
Y87283D01*
X139749Y87699D01*
X138916D01*
X138499Y87283D01*
X60600Y143099D02*
Y141016D01*
X61016Y140600D01*
X61850D01*
X62266Y141016D01*
Y143099D01*
X63099Y140600D02*
X63932D01*
X63516D01*
Y143099D01*
X63099Y142683D01*
X31900Y3099D02*
Y600D01*
X33150D01*
X33566Y1017D01*
Y1433D01*
X33150Y1850D01*
X31900D01*
X33150D01*
X33566Y2266D01*
Y2683D01*
X33150Y3099D01*
X31900D01*
X35649D02*
X34816D01*
X34399Y2683D01*
Y1017D01*
X34816Y600D01*
X35649D01*
X36065Y1017D01*
Y2683D01*
X35649Y3099D01*
X38148D02*
X37315D01*
X36898Y2683D01*
Y1017D01*
X37315Y600D01*
X38148D01*
X38565Y1017D01*
Y2683D01*
X38148Y3099D01*
X39398D02*
X41064D01*
X40231D01*
Y600D01*
X41897D02*
X42730D01*
X42313D01*
Y3099D01*
X41897Y2683D01*
X43000Y149699D02*
Y147617D01*
X43417Y147200D01*
X44250D01*
X44666Y147617D01*
Y149699D01*
X47165D02*
X46332Y149283D01*
X45499Y148450D01*
Y147617D01*
X45916Y147200D01*
X46749D01*
X47165Y147617D01*
Y148033D01*
X46749Y148450D01*
X45499D01*
X29666Y104283D02*
X29250Y104699D01*
X28416D01*
X28000Y104283D01*
Y102617D01*
X28416Y102200D01*
X29250D01*
X29666Y102617D01*
X30499Y104283D02*
X30916Y104699D01*
X31749D01*
X32165Y104283D01*
Y103866D01*
X31749Y103450D01*
X31332D01*
X31749D01*
X32165Y103033D01*
Y102617D01*
X31749Y102200D01*
X30916D01*
X30499Y102617D01*
X34664Y104699D02*
X33831Y104283D01*
X32998Y103450D01*
Y102617D01*
X33415Y102200D01*
X34248D01*
X34664Y102617D01*
Y103033D01*
X34248Y103450D01*
X32998D01*
X48489Y133342D02*
X48072Y133758D01*
X47239D01*
X46822Y133342D01*
Y131676D01*
X47239Y131259D01*
X48072D01*
X48489Y131676D01*
X49321Y133342D02*
X49738Y133758D01*
X50571D01*
X50988Y133342D01*
Y132925D01*
X50571Y132509D01*
X50155D01*
X50571D01*
X50988Y132092D01*
Y131676D01*
X50571Y131259D01*
X49738D01*
X49321Y131676D01*
X51821Y133758D02*
X53487D01*
Y133342D01*
X51821Y131676D01*
Y131259D01*
X26266Y138583D02*
X25850Y138999D01*
X25016D01*
X24600Y138583D01*
Y136916D01*
X25016Y136500D01*
X25850D01*
X26266Y136916D01*
X27099Y138583D02*
X27516Y138999D01*
X28349D01*
X28765Y138583D01*
Y138166D01*
X28349Y137750D01*
X27932D01*
X28349D01*
X28765Y137333D01*
Y136916D01*
X28349Y136500D01*
X27516D01*
X27099Y136916D01*
X29598Y138583D02*
X30015Y138999D01*
X30848D01*
X31264Y138583D01*
Y138166D01*
X30848Y137750D01*
X31264Y137333D01*
Y136916D01*
X30848Y136500D01*
X30015D01*
X29598Y136916D01*
Y137333D01*
X30015Y137750D01*
X29598Y138166D01*
Y138583D01*
X30015Y137750D02*
X30848D01*
X6000Y117200D02*
Y119699D01*
X7250D01*
X7666Y119283D01*
Y118450D01*
X7250Y118033D01*
X6000D01*
X6833D02*
X7666Y117200D01*
X10165D02*
X8499D01*
X10165Y118866D01*
Y119283D01*
X9749Y119699D01*
X8916D01*
X8499Y119283D01*
X12664Y119699D02*
X11831Y119283D01*
X10998Y118450D01*
Y117616D01*
X11415Y117200D01*
X12248D01*
X12664Y117616D01*
Y118033D01*
X12248Y118450D01*
X10998D01*
X26200Y133699D02*
Y131616D01*
X26616Y131200D01*
X27450D01*
X27866Y131616D01*
Y133699D01*
X28699D02*
X30365D01*
Y133283D01*
X28699Y131616D01*
Y131200D01*
D85*
X140992Y28192D02*
G03*
X140992Y28192I-492J0D01*
G01*
D86*
X117500Y16200D02*
Y24885D01*
Y3200D02*
Y7200D01*
X148500Y3200D02*
Y7200D01*
X117646Y24885D02*
X125500D01*
X140500D02*
X148354D01*
X117646Y3200D02*
X148354D01*
X148500Y16200D02*
Y24885D01*
Y3200D02*
X150980Y720D01*
X115020D02*
X117500Y3200D01*
D87*
X45850Y47700D02*
X52150D01*
X45850Y42700D02*
X52150D01*
X45350Y65700D02*
X51650D01*
X45350Y70700D02*
X51650D01*
X88532Y91590D02*
X92469D01*
X88532Y87810D02*
X92469D01*
X110390Y99731D02*
Y103668D01*
X106610Y99731D02*
Y103668D01*
X87032Y139310D02*
X90969D01*
X87032Y143090D02*
X90969D01*
X41890Y106731D02*
Y110669D01*
X38110Y106731D02*
Y110669D01*
X54532Y149590D02*
X58469D01*
X54532Y145810D02*
X58469D01*
X44850Y82700D02*
X51150D01*
X44850Y87700D02*
X51150D01*
X63890Y70231D02*
Y74168D01*
X60110Y70231D02*
Y74168D01*
X70010Y73532D02*
Y77469D01*
X73790Y73532D02*
Y77469D01*
X95890Y33231D02*
Y37168D01*
X92110Y33231D02*
Y37168D01*
X105290Y63131D02*
Y67068D01*
X101510Y63131D02*
Y67068D01*
X155500Y66050D02*
Y72350D01*
X160500Y66050D02*
Y72350D01*
X41032Y33310D02*
X44969D01*
X41032Y37090D02*
X44969D01*
X161350Y50200D02*
X167650D01*
X161350Y55200D02*
X167650D01*
X64500Y70050D02*
Y76350D01*
X69500Y70050D02*
Y76350D01*
X61610Y47232D02*
Y51169D01*
X65390Y47232D02*
Y51169D01*
X90500Y30050D02*
Y36350D01*
X85500Y30050D02*
Y36350D01*
X123500Y134050D02*
Y140350D01*
X128500Y134050D02*
Y140350D01*
X65491Y21832D02*
Y25769D01*
X69310Y21832D02*
Y25769D01*
X180332Y118809D02*
X184268D01*
X180332Y114991D02*
X184268D01*
X157079Y77121D02*
X166921D01*
X157079Y87279D02*
X166921D01*
X141079Y115279D02*
Y125121D01*
X130921Y115279D02*
Y125121D01*
X179850Y106700D02*
X186150D01*
X179850Y111700D02*
X186150D01*
X74500Y83050D02*
Y89350D01*
X69500Y83050D02*
Y89350D01*
X47350Y99200D02*
X53650D01*
X47350Y94200D02*
X53650D01*
X83890Y33231D02*
Y37168D01*
X80110Y33231D02*
Y37168D01*
X148850Y101700D02*
X155150D01*
X148850Y106700D02*
X155150D01*
X83110Y78732D02*
Y82669D01*
X86890Y78732D02*
Y82669D01*
X160350Y101700D02*
X166650D01*
X160350Y106700D02*
X166650D01*
X123000Y77550D02*
Y83850D01*
X118000Y77550D02*
Y83850D01*
X131500Y77550D02*
Y83850D01*
X126500Y77550D02*
Y83850D01*
X145350Y62200D02*
X151650D01*
X145350Y57200D02*
X151650D01*
X170350Y73700D02*
X176650D01*
X170350Y68700D02*
X176650D01*
X118000Y92250D02*
Y98550D01*
X123000Y92250D02*
Y98550D01*
X161350Y50200D02*
X167650D01*
X161350Y45200D02*
X167650D01*
X170350Y61700D02*
X176650D01*
X170350Y66700D02*
X176650D01*
X161350Y55200D02*
X167650D01*
X161350Y60200D02*
X167650D01*
X80500Y83050D02*
Y89350D01*
X75500Y83050D02*
Y89350D01*
X47032Y93090D02*
X50968D01*
X47032Y89310D02*
X50968D01*
X56500Y20050D02*
Y26350D01*
X61500Y20050D02*
Y26350D01*
X153500Y137050D02*
Y143350D01*
X148500Y137050D02*
Y143350D01*
X155500Y137050D02*
Y143350D01*
X160500Y137050D02*
Y143350D01*
X158024Y132358D02*
Y133224D01*
X145976D02*
X158024D01*
X145976Y132358D02*
Y133224D01*
X158024Y121176D02*
Y122043D01*
X145976Y121176D02*
X158024D01*
X145976D02*
Y122043D01*
X36000Y107050D02*
Y113350D01*
X31000Y107050D02*
Y113350D01*
X53500Y122050D02*
Y128350D01*
X48500Y122050D02*
Y128350D01*
X35032Y135810D02*
X38969D01*
X35032Y139590D02*
X38969D01*
X13000Y124050D02*
Y130350D01*
X8000Y124050D02*
Y130350D01*
X42213Y132606D02*
X43905D01*
Y130913D02*
Y132606D01*
X32094D02*
X33787D01*
X32094Y130913D02*
Y132606D01*
Y120794D02*
X33787D01*
X32094D02*
Y122487D01*
X42213Y120794D02*
X43905D01*
Y122487D01*
X27500Y48700D02*
Y128700D01*
X17500D02*
X27500D01*
X17500Y48700D02*
Y128700D01*
Y48700D02*
X27500D01*
D88*
X160500Y110200D02*
Y117700D01*
X169500Y110200D02*
Y117700D01*
Y122700D02*
Y130200D01*
X160500Y122700D02*
Y130200D01*
Y110200D02*
X169500D01*
X160500Y130200D02*
X169500D01*
X140500Y141700D02*
Y149200D01*
X131500Y141700D02*
Y149200D01*
Y129200D02*
Y136700D01*
X140500Y129200D02*
Y136700D01*
X131500Y149200D02*
X140500D01*
X131500Y129200D02*
X140500D01*
X136500Y89700D02*
X144000D01*
X136500Y98700D02*
X144000D01*
X124000D02*
X131500D01*
X124000Y89700D02*
X131500D01*
X144000D02*
Y98700D01*
X124000Y89700D02*
Y98700D01*
X136500D02*
X144000D01*
X136500Y107700D02*
X144000D01*
X124000D02*
X131500D01*
X124000Y98700D02*
X131500D01*
X144000D02*
Y107700D01*
X124000Y98700D02*
Y107700D01*
X127500Y45200D02*
Y52700D01*
X136500Y45200D02*
Y52700D01*
Y57700D02*
Y65200D01*
X127500Y57700D02*
Y65200D01*
Y45200D02*
X136500D01*
X127500Y65200D02*
X136500D01*
X191500Y62700D02*
Y70200D01*
X182500Y62700D02*
Y70200D01*
Y50200D02*
Y57700D01*
X191500Y50200D02*
Y57700D01*
X182500Y70200D02*
X191500D01*
X182500Y50200D02*
X191500D01*
X207500Y5700D02*
X217500D01*
X207500D02*
Y145700D01*
X217500D01*
Y138200D02*
Y145700D01*
Y5700D02*
Y138200D01*
X192000Y71200D02*
Y91200D01*
X182000D02*
X192000D01*
X182000Y71200D02*
Y91200D01*
Y71200D02*
X192000D01*
X151500Y98700D02*
X159000D01*
X151500Y89700D02*
X159000D01*
X164000D02*
X171500D01*
X164000Y98700D02*
X171500D01*
X151500Y89700D02*
Y98700D01*
X171500Y89700D02*
Y98700D01*
D89*
X71287Y44586D02*
X94614D01*
Y67913D01*
X71287D02*
X94614D01*
X71287Y44586D02*
Y67913D01*
X196666Y100783D02*
X196250Y101199D01*
X195416D01*
X195000Y100783D01*
Y100366D01*
X195416Y99950D01*
X196250D01*
X196666Y99533D01*
Y99116D01*
X196250Y98700D01*
X195416D01*
X195000Y99116D01*
X197499Y101199D02*
Y98700D01*
X198332Y99533D01*
X199165Y98700D01*
Y101199D01*
X199998D02*
Y98700D01*
X201248D01*
X201664Y99116D01*
Y100783D01*
X201248Y101199D01*
X199998D01*
X202498D02*
X203331D01*
X202914D01*
Y98700D01*
X202498D01*
X203331D01*
X205830Y101199D02*
X204997D01*
X204580Y100783D01*
Y99116D01*
X204997Y98700D01*
X205830D01*
X206246Y99116D01*
Y100783D01*
X205830Y101199D01*
X200666Y50983D02*
X200250Y51399D01*
X199416D01*
X199000Y50983D01*
Y50566D01*
X199416Y50150D01*
X200250D01*
X200666Y49733D01*
Y49316D01*
X200250Y48900D01*
X199416D01*
X199000Y49316D01*
X201499Y51399D02*
Y48900D01*
X202749D01*
X203165Y49316D01*
Y50983D01*
X202749Y51399D01*
X201499D01*
X203998Y48900D02*
Y50566D01*
X204831Y51399D01*
X205664Y50566D01*
Y48900D01*
Y50150D01*
X203998D01*
X200866Y31383D02*
X200450Y31799D01*
X199617D01*
X199200Y31383D01*
Y29717D01*
X199617Y29300D01*
X200450D01*
X200866Y29717D01*
Y30550D01*
X200033D01*
X201699Y29300D02*
Y31799D01*
X203365Y29300D01*
Y31799D01*
X204198D02*
Y29300D01*
X205448D01*
X205865Y29717D01*
Y31383D01*
X205448Y31799D01*
X204198D01*
X200466Y20602D02*
X200050Y21019D01*
X199216D01*
X198800Y20602D01*
Y18936D01*
X199216Y18519D01*
X200050D01*
X200466Y18936D01*
Y19769D01*
X199633D01*
X201299Y18519D02*
Y21019D01*
X202965Y18519D01*
Y21019D01*
X203798D02*
Y18519D01*
X205048D01*
X205465Y18936D01*
Y20602D01*
X205048Y21019D01*
X203798D01*
X199200Y121900D02*
Y124399D01*
X200450D01*
X200866Y123983D01*
Y123150D01*
X200450Y122733D01*
X199200D01*
X200033D02*
X200866Y121900D01*
X203365Y123983D02*
X202949Y124399D01*
X202116D01*
X201699Y123983D01*
Y123566D01*
X202116Y123150D01*
X202949D01*
X203365Y122733D01*
Y122317D01*
X202949Y121900D01*
X202116D01*
X201699Y122317D01*
X204198Y124399D02*
X205865D01*
X205031D01*
Y121900D01*
X198900Y118999D02*
X200566D01*
X199733D01*
Y116500D01*
X203065Y118583D02*
X202649Y118999D01*
X201816D01*
X201399Y118583D01*
Y116917D01*
X201816Y116500D01*
X202649D01*
X203065Y116917D01*
X203898Y118999D02*
Y116500D01*
Y117333D01*
X205564Y118999D01*
X204315Y117750D01*
X205564Y116500D01*
X198700Y111699D02*
X200366D01*
X199533D01*
Y109200D01*
X201199Y111699D02*
Y109200D01*
X202449D01*
X202865Y109616D01*
Y111283D01*
X202449Y111699D01*
X201199D01*
X204948D02*
X204115D01*
X203698Y111283D01*
Y109616D01*
X204115Y109200D01*
X204948D01*
X205364Y109616D01*
Y111283D01*
X204948Y111699D01*
X200400Y91899D02*
X202066D01*
X201233D01*
Y89400D01*
X202899Y91899D02*
Y89400D01*
X204149D01*
X204565Y89816D01*
Y91483D01*
X204149Y91899D01*
X202899D01*
X205398D02*
X206231D01*
X205815D01*
Y89400D01*
X205398D01*
X206231D01*
X201800Y81799D02*
X203466D01*
X202633D01*
Y79300D01*
X204299Y81799D02*
X205965Y79300D01*
Y81799D02*
X204299Y79300D01*
X201500Y68900D02*
Y71399D01*
X202750D01*
X203166Y70983D01*
Y70150D01*
X202750Y69733D01*
X201500D01*
X202333D02*
X203166Y68900D01*
X203999Y71399D02*
X205665Y68900D01*
Y71399D02*
X203999Y68900D01*
X200866Y61583D02*
X200450Y61999D01*
X199617D01*
X199200Y61583D01*
Y61166D01*
X199617Y60750D01*
X200450D01*
X200866Y60333D01*
Y59917D01*
X200450Y59500D01*
X199617D01*
X199200Y59917D01*
X203365Y61583D02*
X202949Y61999D01*
X202116D01*
X201699Y61583D01*
Y59917D01*
X202116Y59500D01*
X202949D01*
X203365Y59917D01*
X204198Y61999D02*
Y59500D01*
X205865D01*
X194400Y41599D02*
Y39100D01*
X195650D01*
X196066Y39516D01*
Y39933D01*
X195650Y40350D01*
X194400D01*
X195650D01*
X196066Y40766D01*
Y41183D01*
X195650Y41599D01*
X194400D01*
X198149D02*
X197316D01*
X196899Y41183D01*
Y39516D01*
X197316Y39100D01*
X198149D01*
X198565Y39516D01*
Y41183D01*
X198149Y41599D01*
X200648D02*
X199815D01*
X199398Y41183D01*
Y39516D01*
X199815Y39100D01*
X200648D01*
X201064Y39516D01*
Y41183D01*
X200648Y41599D01*
X201898D02*
X203564D01*
X202731D01*
Y39100D01*
X204397Y41183D02*
X204813Y41599D01*
X205646D01*
X206063Y41183D01*
Y39516D01*
X205646Y39100D01*
X204813D01*
X204397Y39516D01*
Y41183D01*
M02*
