G04 Layer_Color=16711935*
%FSLAX25Y25*%
%MOIN*%
G70*
G01*
G75*
%ADD121C,0.03300*%
G04:AMPARAMS|DCode=122|XSize=283.59mil|YSize=204.85mil|CornerRadius=53.21mil|HoleSize=0mil|Usage=FLASHONLY|Rotation=0.000|XOffset=0mil|YOffset=0mil|HoleType=Round|Shape=RoundedRectangle|*
%AMROUNDEDRECTD122*
21,1,0.28359,0.09843,0,0,0.0*
21,1,0.17716,0.20485,0,0,0.0*
1,1,0.10642,0.08858,-0.04921*
1,1,0.10642,-0.08858,-0.04921*
1,1,0.10642,-0.08858,0.04921*
1,1,0.10642,0.08858,0.04921*
%
%ADD122ROUNDEDRECTD122*%
%ADD123R,0.06706X0.06706*%
%ADD124C,0.06706*%
%ADD125C,0.05761*%
%ADD126R,0.05761X0.05761*%
%ADD127C,0.02800*%
%ADD128C,0.03800*%
%ADD129C,0.03162*%
D121*
X140480Y20129D02*
D03*
X125520D02*
D03*
D122*
X187500Y134700D02*
D03*
X177000Y20200D02*
D03*
D123*
X212500Y140700D02*
D03*
X187000Y86200D02*
D03*
D124*
X212500Y130700D02*
D03*
Y120700D02*
D03*
Y110700D02*
D03*
Y100700D02*
D03*
Y90700D02*
D03*
Y80700D02*
D03*
Y70700D02*
D03*
Y60700D02*
D03*
Y50700D02*
D03*
Y40700D02*
D03*
Y30700D02*
D03*
Y20700D02*
D03*
Y10700D02*
D03*
X187000Y76200D02*
D03*
D125*
X22500Y123700D02*
D03*
Y113700D02*
D03*
Y103700D02*
D03*
Y93700D02*
D03*
Y83700D02*
D03*
Y73700D02*
D03*
Y63700D02*
D03*
D126*
Y53700D02*
D03*
D127*
X105000Y81700D02*
D03*
X88000Y75200D02*
D03*
X91680Y74520D02*
D03*
X147000Y85350D02*
D03*
X135000Y74200D02*
D03*
Y77200D02*
D03*
X176000Y92200D02*
D03*
X176532Y76669D02*
D03*
X107108Y123092D02*
D03*
X94500Y120200D02*
D03*
X89000Y86200D02*
D03*
X85500D02*
D03*
X71000Y103700D02*
D03*
X78500Y106700D02*
D03*
X77076Y122276D02*
D03*
X78985Y124185D02*
D03*
X57500Y136200D02*
D03*
X56500Y133200D02*
D03*
X51500Y136200D02*
D03*
X58500Y91200D02*
D03*
X59000Y96700D02*
D03*
X78800Y79100D02*
D03*
X75900Y77200D02*
D03*
X83800Y76300D02*
D03*
X114200Y119300D02*
D03*
X93800Y116200D02*
D03*
X117100Y117100D02*
D03*
X93700Y113100D02*
D03*
X125182Y34682D02*
D03*
X102300Y56400D02*
D03*
X132300Y34635D02*
D03*
X63000Y62200D02*
D03*
X64000Y34200D02*
D03*
X45031Y116200D02*
D03*
X35000Y117200D02*
D03*
X97000Y81200D02*
D03*
X61500Y38700D02*
D03*
X72500Y32700D02*
D03*
X151000Y67700D02*
D03*
X63000Y66200D02*
D03*
X81000Y126700D02*
D03*
X111500Y34200D02*
D03*
X125700Y64200D02*
D03*
X127200Y73000D02*
D03*
X127500Y88700D02*
D03*
X107200Y68900D02*
D03*
X99700Y63200D02*
D03*
X102000Y60000D02*
D03*
X99200Y56800D02*
D03*
X128800Y34300D02*
D03*
X74138Y40800D02*
D03*
X67900Y36300D02*
D03*
X70000Y38700D02*
D03*
D128*
X101000Y37200D02*
D03*
X21000Y9200D02*
D03*
X29000Y53200D02*
D03*
X50500Y147700D02*
D03*
X57000Y77200D02*
D03*
X118000Y134200D02*
D03*
Y127200D02*
D03*
X109000Y109200D02*
D03*
X65000Y89200D02*
D03*
X163000Y75200D02*
D03*
X148000Y93200D02*
D03*
X185000Y121200D02*
D03*
X175000D02*
D03*
X148000Y30200D02*
D03*
X126000Y127200D02*
D03*
X131500Y68200D02*
D03*
X151000Y54200D02*
D03*
X11000Y137200D02*
D03*
X154000Y113200D02*
D03*
X173500Y82200D02*
D03*
X91000Y147700D02*
D03*
X85000Y89700D02*
D03*
X39000Y142700D02*
D03*
X41000Y96700D02*
D03*
X62000Y43700D02*
D03*
X120100Y102700D02*
D03*
X107300Y59200D02*
D03*
X40000Y114200D02*
D03*
X82000Y141200D02*
D03*
X57000Y129200D02*
D03*
X71000Y121200D02*
D03*
X40000Y85200D02*
D03*
X55000Y116200D02*
D03*
X39000Y101200D02*
D03*
X28800Y73700D02*
D03*
X28700Y63700D02*
D03*
X123000Y28200D02*
D03*
X194000Y65200D02*
D03*
Y76200D02*
D03*
X142000Y87200D02*
D03*
X172000Y91200D02*
D03*
X129000Y110200D02*
D03*
X120000Y140200D02*
D03*
X129000Y145200D02*
D03*
X166000Y133700D02*
D03*
X179300Y57600D02*
D03*
X107000Y130200D02*
D03*
X91000Y126200D02*
D03*
X70000Y141200D02*
D03*
X89000Y105200D02*
D03*
X31000Y142200D02*
D03*
X38000Y127200D02*
D03*
X98000Y90200D02*
D03*
X91000Y81700D02*
D03*
X10000Y107200D02*
D03*
X104000Y9200D02*
D03*
Y21200D02*
D03*
X200000Y25200D02*
D03*
X203000Y12200D02*
D03*
X88500Y23200D02*
D03*
X7000Y6200D02*
D03*
X18000Y145200D02*
D03*
X203000Y4200D02*
D03*
X156500Y15700D02*
D03*
X217500Y3900D02*
D03*
X40000Y73200D02*
D03*
X10000Y91200D02*
D03*
X8500Y23700D02*
D03*
X51500Y2700D02*
D03*
X10000Y75200D02*
D03*
X156000Y23200D02*
D03*
X192000Y35200D02*
D03*
X178000D02*
D03*
X196000Y49200D02*
D03*
X217000Y147200D02*
D03*
X10000Y61200D02*
D03*
X146000Y39200D02*
D03*
X152000Y43200D02*
D03*
X10000Y45200D02*
D03*
X36000Y43200D02*
D03*
X72000Y25700D02*
D03*
X144500Y141200D02*
D03*
X136500Y69200D02*
D03*
X144000Y75700D02*
D03*
X122500Y69200D02*
D03*
X137800Y84700D02*
D03*
X107000Y113700D02*
D03*
X83000Y56200D02*
D03*
X79000Y61700D02*
D03*
X88000D02*
D03*
X78500Y50700D02*
D03*
X140200Y109700D02*
D03*
X107200Y63000D02*
D03*
X28500Y83500D02*
D03*
X178000Y52000D02*
D03*
X178100Y47400D02*
D03*
D129*
X173900Y114600D02*
D03*
X88000Y50600D02*
D03*
M02*
