G04 Layer_Color=8388736*
%FSLAX25Y25*%
%MOIN*%
G70*
G01*
G75*
%ADD26R,0.05512X0.06693*%
%ADD90R,0.08280X0.08280*%
%ADD91R,0.01784X0.12611*%
G04:AMPARAMS|DCode=92|XSize=42.25mil|YSize=43.83mil|CornerRadius=12.73mil|HoleSize=0mil|Usage=FLASHONLY|Rotation=180.000|XOffset=0mil|YOffset=0mil|HoleType=Round|Shape=RoundedRectangle|*
%AMROUNDEDRECTD92*
21,1,0.04225,0.01836,0,0,180.0*
21,1,0.01678,0.04383,0,0,180.0*
1,1,0.02547,-0.00839,0.00918*
1,1,0.02547,0.00839,0.00918*
1,1,0.02547,0.00839,-0.00918*
1,1,0.02547,-0.00839,-0.00918*
%
%ADD92ROUNDEDRECTD92*%
%ADD93R,0.05800X0.06800*%
G04:AMPARAMS|DCode=94|XSize=28.08mil|YSize=31.62mil|CornerRadius=9.12mil|HoleSize=0mil|Usage=FLASHONLY|Rotation=180.000|XOffset=0mil|YOffset=0mil|HoleType=Round|Shape=RoundedRectangle|*
%AMROUNDEDRECTD94*
21,1,0.02808,0.01338,0,0,180.0*
21,1,0.00984,0.03162,0,0,180.0*
1,1,0.01824,-0.00492,0.00669*
1,1,0.01824,0.00492,0.00669*
1,1,0.01824,0.00492,-0.00669*
1,1,0.01824,-0.00492,-0.00669*
%
%ADD94ROUNDEDRECTD94*%
G04:AMPARAMS|DCode=95|XSize=28.08mil|YSize=31.62mil|CornerRadius=9.12mil|HoleSize=0mil|Usage=FLASHONLY|Rotation=90.000|XOffset=0mil|YOffset=0mil|HoleType=Round|Shape=RoundedRectangle|*
%AMROUNDEDRECTD95*
21,1,0.02808,0.01338,0,0,90.0*
21,1,0.00984,0.03162,0,0,90.0*
1,1,0.01824,0.00669,0.00492*
1,1,0.01824,0.00669,-0.00492*
1,1,0.01824,-0.00669,-0.00492*
1,1,0.01824,-0.00669,0.00492*
%
%ADD95ROUNDEDRECTD95*%
%ADD96R,0.06800X0.05800*%
G04:AMPARAMS|DCode=97|XSize=42.25mil|YSize=43.83mil|CornerRadius=12.73mil|HoleSize=0mil|Usage=FLASHONLY|Rotation=270.000|XOffset=0mil|YOffset=0mil|HoleType=Round|Shape=RoundedRectangle|*
%AMROUNDEDRECTD97*
21,1,0.04225,0.01836,0,0,270.0*
21,1,0.01678,0.04383,0,0,270.0*
1,1,0.02547,-0.00918,-0.00839*
1,1,0.02547,-0.00918,0.00839*
1,1,0.02547,0.00918,0.00839*
1,1,0.02547,0.00918,-0.00839*
%
%ADD97ROUNDEDRECTD97*%
G04:AMPARAMS|DCode=98|XSize=26.11mil|YSize=32.02mil|CornerRadius=8.71mil|HoleSize=0mil|Usage=FLASHONLY|Rotation=270.000|XOffset=0mil|YOffset=0mil|HoleType=Round|Shape=RoundedRectangle|*
%AMROUNDEDRECTD98*
21,1,0.02611,0.01460,0,0,270.0*
21,1,0.00869,0.03202,0,0,270.0*
1,1,0.01742,-0.00730,-0.00435*
1,1,0.01742,-0.00730,0.00435*
1,1,0.01742,0.00730,0.00435*
1,1,0.01742,0.00730,-0.00435*
%
%ADD98ROUNDEDRECTD98*%
G04:AMPARAMS|DCode=99|XSize=26.11mil|YSize=32.02mil|CornerRadius=8.71mil|HoleSize=0mil|Usage=FLASHONLY|Rotation=180.000|XOffset=0mil|YOffset=0mil|HoleType=Round|Shape=RoundedRectangle|*
%AMROUNDEDRECTD99*
21,1,0.02611,0.01460,0,0,180.0*
21,1,0.00869,0.03202,0,0,180.0*
1,1,0.01742,-0.00435,0.00730*
1,1,0.01742,0.00435,0.00730*
1,1,0.01742,0.00435,-0.00730*
1,1,0.01742,-0.00435,-0.00730*
%
%ADD99ROUNDEDRECTD99*%
G04:AMPARAMS|DCode=100|XSize=54.85mil|YSize=95.4mil|CornerRadius=13.84mil|HoleSize=0mil|Usage=FLASHONLY|Rotation=0.000|XOffset=0mil|YOffset=0mil|HoleType=Round|Shape=RoundedRectangle|*
%AMROUNDEDRECTD100*
21,1,0.05485,0.06772,0,0,0.0*
21,1,0.02717,0.09540,0,0,0.0*
1,1,0.02768,0.01359,-0.03386*
1,1,0.02768,-0.01359,-0.03386*
1,1,0.02768,-0.01359,0.03386*
1,1,0.02768,0.01359,0.03386*
%
%ADD100ROUNDEDRECTD100*%
G04:AMPARAMS|DCode=101|XSize=54.85mil|YSize=95.4mil|CornerRadius=13.84mil|HoleSize=0mil|Usage=FLASHONLY|Rotation=90.000|XOffset=0mil|YOffset=0mil|HoleType=Round|Shape=RoundedRectangle|*
%AMROUNDEDRECTD101*
21,1,0.05485,0.06772,0,0,90.0*
21,1,0.02717,0.09540,0,0,90.0*
1,1,0.02768,0.03386,0.01359*
1,1,0.02768,0.03386,-0.01359*
1,1,0.02768,-0.03386,-0.01359*
1,1,0.02768,-0.03386,0.01359*
%
%ADD101ROUNDEDRECTD101*%
%ADD102R,0.03950X0.07493*%
%ADD103R,0.01981X0.02965*%
%ADD104R,0.02965X0.01981*%
%ADD105R,0.22847X0.22847*%
G04:AMPARAMS|DCode=106|XSize=39.89mil|YSize=18.24mil|CornerRadius=6.76mil|HoleSize=0mil|Usage=FLASHONLY|Rotation=0.000|XOffset=0mil|YOffset=0mil|HoleType=Round|Shape=RoundedRectangle|*
%AMROUNDEDRECTD106*
21,1,0.03989,0.00471,0,0,0.0*
21,1,0.02636,0.01824,0,0,0.0*
1,1,0.01353,0.01318,-0.00235*
1,1,0.01353,-0.01318,-0.00235*
1,1,0.01353,-0.01318,0.00235*
1,1,0.01353,0.01318,0.00235*
%
%ADD106ROUNDEDRECTD106*%
%ADD107R,0.05918X0.04934*%
%ADD108R,0.04343X0.04737*%
%ADD109R,0.07296X0.07296*%
%ADD110R,0.01587X0.03556*%
%ADD111R,0.03556X0.01587*%
%ADD112R,0.03359X0.05131*%
%ADD113R,0.03359X0.03359*%
%ADD114R,0.05131X0.03359*%
%ADD115R,0.03359X0.03359*%
%ADD116R,0.04107X0.02769*%
%ADD117R,0.02769X0.04107*%
%ADD118C,0.01981*%
G04:AMPARAMS|DCode=119|XSize=41.86mil|YSize=19.02mil|CornerRadius=6.76mil|HoleSize=0mil|Usage=FLASHONLY|Rotation=90.000|XOffset=0mil|YOffset=0mil|HoleType=Round|Shape=RoundedRectangle|*
%AMROUNDEDRECTD119*
21,1,0.04186,0.00551,0,0,90.0*
21,1,0.02835,0.01902,0,0,90.0*
1,1,0.01351,0.00276,0.01417*
1,1,0.01351,0.00276,-0.01417*
1,1,0.01351,-0.00276,-0.01417*
1,1,0.01351,-0.00276,0.01417*
%
%ADD119ROUNDEDRECTD119*%
G04:AMPARAMS|DCode=120|XSize=41.86mil|YSize=19.02mil|CornerRadius=6.76mil|HoleSize=0mil|Usage=FLASHONLY|Rotation=180.000|XOffset=0mil|YOffset=0mil|HoleType=Round|Shape=RoundedRectangle|*
%AMROUNDEDRECTD120*
21,1,0.04186,0.00551,0,0,180.0*
21,1,0.02835,0.01902,0,0,180.0*
1,1,0.01351,-0.01417,0.00276*
1,1,0.01351,0.01417,0.00276*
1,1,0.01351,0.01417,-0.00276*
1,1,0.01351,-0.01417,-0.00276*
%
%ADD120ROUNDEDRECTD120*%
%ADD121C,0.03300*%
G04:AMPARAMS|DCode=122|XSize=283.59mil|YSize=204.85mil|CornerRadius=53.21mil|HoleSize=0mil|Usage=FLASHONLY|Rotation=0.000|XOffset=0mil|YOffset=0mil|HoleType=Round|Shape=RoundedRectangle|*
%AMROUNDEDRECTD122*
21,1,0.28359,0.09843,0,0,0.0*
21,1,0.17716,0.20485,0,0,0.0*
1,1,0.10642,0.08858,-0.04921*
1,1,0.10642,-0.08858,-0.04921*
1,1,0.10642,-0.08858,0.04921*
1,1,0.10642,0.08858,0.04921*
%
%ADD122ROUNDEDRECTD122*%
%ADD123R,0.06706X0.06706*%
%ADD124C,0.06706*%
%ADD125C,0.05761*%
%ADD126R,0.05761X0.05761*%
%ADD127C,0.02800*%
%ADD128C,0.03800*%
%ADD129C,0.03162*%
G36*
X153759Y131713D02*
X153940Y131670D01*
X154111Y131599D01*
X154269Y131502D01*
X154410Y131381D01*
X154530Y131241D01*
X154627Y131083D01*
X154698Y130911D01*
X154741Y130731D01*
X154756Y123854D01*
X154741Y123669D01*
X154698Y123489D01*
X154627Y123317D01*
X154530Y123159D01*
X154410Y123019D01*
X154269Y122898D01*
X154111Y122801D01*
X153940Y122730D01*
X153759Y122687D01*
X153575Y122672D01*
X150425D01*
X150241Y122687D01*
X150060Y122730D01*
X149889Y122801D01*
X149731Y122898D01*
X149590Y123019D01*
X149470Y123159D01*
X149373Y123317D01*
X149302Y123489D01*
X149259Y123669D01*
X149244Y130546D01*
X150425Y131728D01*
X153575D01*
X153759Y131713D01*
D02*
G37*
D26*
X152000Y127200D02*
D03*
D90*
X148551Y11665D02*
D03*
X117449D02*
D03*
D91*
X138118Y24885D02*
D03*
X135559D02*
D03*
X133000D02*
D03*
X130441D02*
D03*
X127882D02*
D03*
D92*
X45968Y45200D02*
D03*
X52031D02*
D03*
X51531Y68200D02*
D03*
X45469D02*
D03*
X51032Y85200D02*
D03*
X44969D02*
D03*
X167532Y52700D02*
D03*
X161469D02*
D03*
X186031Y109200D02*
D03*
X179969D02*
D03*
X47469Y96700D02*
D03*
X53531D02*
D03*
X155032Y104200D02*
D03*
X148969D02*
D03*
X166532D02*
D03*
X160468D02*
D03*
X145468Y59700D02*
D03*
X151532D02*
D03*
X170468Y71200D02*
D03*
X176532D02*
D03*
X161469Y47700D02*
D03*
X167532D02*
D03*
X176532Y64200D02*
D03*
X170468D02*
D03*
X167532Y57700D02*
D03*
X161469D02*
D03*
D93*
X165000Y115200D02*
D03*
Y125200D02*
D03*
X136000Y144200D02*
D03*
Y134200D02*
D03*
X132000Y50200D02*
D03*
Y60200D02*
D03*
X187000Y65200D02*
D03*
Y55200D02*
D03*
D94*
X88689Y89700D02*
D03*
X92311D02*
D03*
X90811Y141200D02*
D03*
X87189D02*
D03*
X54689Y147700D02*
D03*
X58311D02*
D03*
X44811Y35200D02*
D03*
X41189D02*
D03*
X47189Y91200D02*
D03*
X50811D02*
D03*
X38811Y137700D02*
D03*
X35189D02*
D03*
D95*
X108500Y103511D02*
D03*
Y99889D02*
D03*
X40000Y110511D02*
D03*
Y106889D02*
D03*
X62000Y74011D02*
D03*
Y70389D02*
D03*
X71900Y73689D02*
D03*
Y77311D02*
D03*
X94000Y37011D02*
D03*
Y33389D02*
D03*
X103400Y66911D02*
D03*
Y63289D02*
D03*
X63500Y47389D02*
D03*
Y51011D02*
D03*
X82000Y37011D02*
D03*
Y33389D02*
D03*
X85000Y78889D02*
D03*
Y82511D02*
D03*
D96*
X139000Y94200D02*
D03*
X129000D02*
D03*
X139000Y103200D02*
D03*
X129000D02*
D03*
X156500Y94200D02*
D03*
X166500D02*
D03*
D97*
X158000Y66168D02*
D03*
Y72232D02*
D03*
X67000Y70169D02*
D03*
Y76231D02*
D03*
X88000Y36231D02*
D03*
Y30169D02*
D03*
X126000Y134169D02*
D03*
Y140232D02*
D03*
X72000Y89231D02*
D03*
Y83169D02*
D03*
X120500Y83732D02*
D03*
Y77668D02*
D03*
X129000Y83732D02*
D03*
Y77668D02*
D03*
X120500Y92369D02*
D03*
Y98431D02*
D03*
X78000Y89231D02*
D03*
Y83169D02*
D03*
X59000Y20168D02*
D03*
Y26232D02*
D03*
X151000Y143231D02*
D03*
Y137169D02*
D03*
X158000D02*
D03*
Y143231D02*
D03*
X33500Y113232D02*
D03*
Y107168D02*
D03*
X51000Y128232D02*
D03*
Y122169D02*
D03*
X10500Y130231D02*
D03*
Y124169D02*
D03*
D98*
X67400Y21930D02*
D03*
Y25670D02*
D03*
D99*
X180430Y116900D02*
D03*
X184170D02*
D03*
D100*
X166390Y82200D02*
D03*
X157610D02*
D03*
D101*
X136000Y124590D02*
D03*
Y115810D02*
D03*
D102*
X45268Y26700D02*
D03*
X28732D02*
D03*
X72468Y8900D02*
D03*
X55932D02*
D03*
X45268Y9200D02*
D03*
X28732D02*
D03*
D103*
X72173Y69487D02*
D03*
X74142D02*
D03*
X76110D02*
D03*
X78079D02*
D03*
X80047D02*
D03*
X82016D02*
D03*
X83984D02*
D03*
X85953D02*
D03*
X87921D02*
D03*
X89890D02*
D03*
X91858D02*
D03*
X93827D02*
D03*
Y42913D02*
D03*
X91858D02*
D03*
X89890D02*
D03*
X87921D02*
D03*
X85953D02*
D03*
X83984D02*
D03*
X82016D02*
D03*
X80047D02*
D03*
X78079D02*
D03*
X76110D02*
D03*
X74142D02*
D03*
X72173D02*
D03*
D104*
X96287Y67027D02*
D03*
Y65058D02*
D03*
Y63090D02*
D03*
Y61121D02*
D03*
Y55216D02*
D03*
Y53247D02*
D03*
Y51279D02*
D03*
Y49310D02*
D03*
Y47342D02*
D03*
Y45373D02*
D03*
X69713D02*
D03*
Y47342D02*
D03*
Y49310D02*
D03*
Y51279D02*
D03*
Y53247D02*
D03*
Y55216D02*
D03*
Y57184D02*
D03*
Y59153D02*
D03*
Y61121D02*
D03*
Y63090D02*
D03*
Y65058D02*
D03*
Y67027D02*
D03*
X96287Y59153D02*
D03*
Y57184D02*
D03*
D105*
X83000Y56200D02*
D03*
D106*
X157689Y131137D02*
D03*
Y129168D02*
D03*
Y127200D02*
D03*
Y125232D02*
D03*
Y123263D02*
D03*
X146311D02*
D03*
Y125232D02*
D03*
Y127200D02*
D03*
Y129168D02*
D03*
Y131137D02*
D03*
D107*
X44500Y60700D02*
D03*
X53555D02*
D03*
X44500Y53023D02*
D03*
X53555D02*
D03*
D108*
X46000Y103220D02*
D03*
X54268D02*
D03*
Y110700D02*
D03*
X46000D02*
D03*
D109*
X144000Y75700D02*
D03*
D110*
X142425Y81212D02*
D03*
X140850D02*
D03*
X144000D02*
D03*
X145575D02*
D03*
X147150D02*
D03*
Y70188D02*
D03*
X145575D02*
D03*
X144000D02*
D03*
X142425D02*
D03*
X140850D02*
D03*
D111*
X149512Y78850D02*
D03*
Y77275D02*
D03*
Y75700D02*
D03*
Y74125D02*
D03*
Y72550D02*
D03*
X138488Y72550D02*
D03*
Y74125D02*
D03*
Y75700D02*
D03*
Y77275D02*
D03*
Y78850D02*
D03*
D112*
X62020Y131259D02*
D03*
Y101141D02*
D03*
X101980D02*
D03*
Y131259D02*
D03*
D113*
X62020Y126830D02*
D03*
Y123287D02*
D03*
Y119743D02*
D03*
Y116200D02*
D03*
Y112657D02*
D03*
Y109113D02*
D03*
Y105570D02*
D03*
X101980D02*
D03*
Y109113D02*
D03*
Y112657D02*
D03*
Y116200D02*
D03*
Y119743D02*
D03*
Y123287D02*
D03*
Y126830D02*
D03*
D114*
X97059Y96220D02*
D03*
X66941D02*
D03*
X97059Y136180D02*
D03*
X66941D02*
D03*
D115*
X92630Y96220D02*
D03*
X89087D02*
D03*
X85543D02*
D03*
X82000D02*
D03*
X78457D02*
D03*
X74913D02*
D03*
X71370D02*
D03*
X92630Y136180D02*
D03*
X89087D02*
D03*
X85543D02*
D03*
X82000D02*
D03*
X78457D02*
D03*
X74913D02*
D03*
X71370D02*
D03*
D116*
X65976Y128602D02*
D03*
Y125058D02*
D03*
Y121515D02*
D03*
Y117972D02*
D03*
Y114428D02*
D03*
Y110885D02*
D03*
Y107342D02*
D03*
Y103798D02*
D03*
X98024D02*
D03*
Y107342D02*
D03*
Y110885D02*
D03*
Y114428D02*
D03*
Y117972D02*
D03*
Y121515D02*
D03*
Y125058D02*
D03*
Y128602D02*
D03*
D117*
X69598Y100176D02*
D03*
X73142D02*
D03*
X76685D02*
D03*
X80228D02*
D03*
X83772D02*
D03*
X87315D02*
D03*
X90858D02*
D03*
X94402D02*
D03*
Y132224D02*
D03*
X90858D02*
D03*
X87315D02*
D03*
X83772D02*
D03*
X80228D02*
D03*
X76685D02*
D03*
X73142D02*
D03*
X69598D02*
D03*
D118*
X50532Y141700D02*
D03*
Y139732D02*
D03*
X52500D02*
D03*
X54469D02*
D03*
Y141700D02*
D03*
Y143668D02*
D03*
X52500D02*
D03*
X50532D02*
D03*
D119*
X40953Y132330D02*
D03*
X38984D02*
D03*
X37016D02*
D03*
X35047D02*
D03*
Y121070D02*
D03*
X37016D02*
D03*
X38984D02*
D03*
X40953D02*
D03*
D120*
X32370Y129653D02*
D03*
Y127684D02*
D03*
Y125716D02*
D03*
Y123747D02*
D03*
X43630D02*
D03*
Y125716D02*
D03*
Y127684D02*
D03*
Y129653D02*
D03*
D121*
X140480Y20129D02*
D03*
X125520D02*
D03*
D122*
X187500Y134700D02*
D03*
X177000Y20200D02*
D03*
D123*
X212500Y140700D02*
D03*
X187000Y86200D02*
D03*
D124*
X212500Y130700D02*
D03*
Y120700D02*
D03*
Y110700D02*
D03*
Y100700D02*
D03*
Y90700D02*
D03*
Y80700D02*
D03*
Y70700D02*
D03*
Y60700D02*
D03*
Y50700D02*
D03*
Y40700D02*
D03*
Y30700D02*
D03*
Y20700D02*
D03*
Y10700D02*
D03*
X187000Y76200D02*
D03*
D125*
X22500Y123700D02*
D03*
Y113700D02*
D03*
Y103700D02*
D03*
Y93700D02*
D03*
Y83700D02*
D03*
Y73700D02*
D03*
Y63700D02*
D03*
D126*
Y53700D02*
D03*
D127*
X105000Y81700D02*
D03*
X88000Y75200D02*
D03*
X91680Y74520D02*
D03*
X147000Y85350D02*
D03*
X135000Y74200D02*
D03*
Y77200D02*
D03*
X176000Y92200D02*
D03*
X176532Y76669D02*
D03*
X107108Y123092D02*
D03*
X94500Y120200D02*
D03*
X89000Y86200D02*
D03*
X85500D02*
D03*
X71000Y103700D02*
D03*
X78500Y106700D02*
D03*
X77076Y122276D02*
D03*
X78985Y124185D02*
D03*
X57500Y136200D02*
D03*
X56500Y133200D02*
D03*
X51500Y136200D02*
D03*
X58500Y91200D02*
D03*
X59000Y96700D02*
D03*
X78800Y79100D02*
D03*
X75900Y77200D02*
D03*
X83800Y76300D02*
D03*
X114200Y119300D02*
D03*
X93800Y116200D02*
D03*
X117100Y117100D02*
D03*
X93700Y113100D02*
D03*
X125182Y34682D02*
D03*
X102300Y56400D02*
D03*
X132300Y34635D02*
D03*
X63000Y62200D02*
D03*
X64000Y34200D02*
D03*
X45031Y116200D02*
D03*
X35000Y117200D02*
D03*
X97000Y81200D02*
D03*
X61500Y38700D02*
D03*
X72500Y32700D02*
D03*
X151000Y67700D02*
D03*
X63000Y66200D02*
D03*
X81000Y126700D02*
D03*
X111500Y34200D02*
D03*
X125700Y64200D02*
D03*
X127200Y73000D02*
D03*
X127500Y88700D02*
D03*
X107200Y68900D02*
D03*
X99700Y63200D02*
D03*
X102000Y60000D02*
D03*
X99200Y56800D02*
D03*
X128800Y34300D02*
D03*
X74138Y40800D02*
D03*
X67900Y36300D02*
D03*
X70000Y38700D02*
D03*
D128*
X101000Y37200D02*
D03*
X21000Y9200D02*
D03*
X29000Y53200D02*
D03*
X50500Y147700D02*
D03*
X57000Y77200D02*
D03*
X118000Y134200D02*
D03*
Y127200D02*
D03*
X109000Y109200D02*
D03*
X65000Y89200D02*
D03*
X163000Y75200D02*
D03*
X148000Y93200D02*
D03*
X185000Y121200D02*
D03*
X175000D02*
D03*
X148000Y30200D02*
D03*
X126000Y127200D02*
D03*
X131500Y68200D02*
D03*
X151000Y54200D02*
D03*
X11000Y137200D02*
D03*
X154000Y113200D02*
D03*
X173500Y82200D02*
D03*
X91000Y147700D02*
D03*
X85000Y89700D02*
D03*
X39000Y142700D02*
D03*
X41000Y96700D02*
D03*
X62000Y43700D02*
D03*
X120100Y102700D02*
D03*
X107300Y59200D02*
D03*
X40000Y114200D02*
D03*
X82000Y141200D02*
D03*
X57000Y129200D02*
D03*
X71000Y121200D02*
D03*
X40000Y85200D02*
D03*
X55000Y116200D02*
D03*
X39000Y101200D02*
D03*
X28800Y73700D02*
D03*
X28700Y63700D02*
D03*
X123000Y28200D02*
D03*
X194000Y65200D02*
D03*
Y76200D02*
D03*
X142000Y87200D02*
D03*
X172000Y91200D02*
D03*
X129000Y110200D02*
D03*
X120000Y140200D02*
D03*
X129000Y145200D02*
D03*
X166000Y133700D02*
D03*
X179300Y57600D02*
D03*
X107000Y130200D02*
D03*
X91000Y126200D02*
D03*
X70000Y141200D02*
D03*
X89000Y105200D02*
D03*
X31000Y142200D02*
D03*
X38000Y127200D02*
D03*
X98000Y90200D02*
D03*
X91000Y81700D02*
D03*
X10000Y107200D02*
D03*
X104000Y9200D02*
D03*
Y21200D02*
D03*
X200000Y25200D02*
D03*
X203000Y12200D02*
D03*
X88500Y23200D02*
D03*
X7000Y6200D02*
D03*
X18000Y145200D02*
D03*
X203000Y4200D02*
D03*
X156500Y15700D02*
D03*
X217500Y3900D02*
D03*
X40000Y73200D02*
D03*
X10000Y91200D02*
D03*
X8500Y23700D02*
D03*
X51500Y2700D02*
D03*
X10000Y75200D02*
D03*
X156000Y23200D02*
D03*
X192000Y35200D02*
D03*
X178000D02*
D03*
X196000Y49200D02*
D03*
X217000Y147200D02*
D03*
X10000Y61200D02*
D03*
X146000Y39200D02*
D03*
X152000Y43200D02*
D03*
X10000Y45200D02*
D03*
X36000Y43200D02*
D03*
X72000Y25700D02*
D03*
X144500Y141200D02*
D03*
X136500Y69200D02*
D03*
X144000Y75700D02*
D03*
X122500Y69200D02*
D03*
X137800Y84700D02*
D03*
X107000Y113700D02*
D03*
X83000Y56200D02*
D03*
X79000Y61700D02*
D03*
X88000D02*
D03*
X78500Y50700D02*
D03*
X140200Y109700D02*
D03*
X107200Y63000D02*
D03*
X28500Y83500D02*
D03*
X178000Y52000D02*
D03*
X178100Y47400D02*
D03*
D129*
X173900Y114600D02*
D03*
X88000Y50600D02*
D03*
M02*
