G04 Layer_Physical_Order=1*
G04 Layer_Color=255*
%FSLAX25Y25*%
%MOIN*%
G70*
G01*
G75*
%ADD10C,0.00500*%
%ADD11C,0.00800*%
G04:AMPARAMS|DCode=12|XSize=37.8mil|YSize=53.54mil|CornerRadius=9.45mil|HoleSize=0mil|Usage=FLASHONLY|Rotation=180.000|XOffset=0mil|YOffset=0mil|HoleType=Round|Shape=RoundedRectangle|*
%AMROUNDEDRECTD12*
21,1,0.03780,0.03465,0,0,180.0*
21,1,0.01890,0.05354,0,0,180.0*
1,1,0.01890,-0.00945,0.01732*
1,1,0.01890,0.00945,0.01732*
1,1,0.01890,0.00945,-0.01732*
1,1,0.01890,-0.00945,-0.01732*
%
%ADD12ROUNDEDRECTD12*%
%ADD13R,0.02559X0.04331*%
%ADD14R,0.02559X0.02559*%
%ADD15R,0.03307X0.01969*%
%ADD16R,0.02559X0.02559*%
%ADD17R,0.04331X0.02559*%
%ADD18R,0.01969X0.03307*%
G04:AMPARAMS|DCode=19|XSize=18.11mil|YSize=24.02mil|CornerRadius=4.71mil|HoleSize=0mil|Usage=FLASHONLY|Rotation=270.000|XOffset=0mil|YOffset=0mil|HoleType=Round|Shape=RoundedRectangle|*
%AMROUNDEDRECTD19*
21,1,0.01811,0.01460,0,0,270.0*
21,1,0.00869,0.02402,0,0,270.0*
1,1,0.00942,-0.00730,-0.00435*
1,1,0.00942,-0.00730,0.00435*
1,1,0.00942,0.00730,0.00435*
1,1,0.00942,0.00730,-0.00435*
%
%ADD19ROUNDEDRECTD19*%
G04:AMPARAMS|DCode=20|XSize=33.86mil|YSize=11.02mil|CornerRadius=2.76mil|HoleSize=0mil|Usage=FLASHONLY|Rotation=180.000|XOffset=0mil|YOffset=0mil|HoleType=Round|Shape=RoundedRectangle|*
%AMROUNDEDRECTD20*
21,1,0.03386,0.00551,0,0,180.0*
21,1,0.02835,0.01102,0,0,180.0*
1,1,0.00551,-0.01417,0.00276*
1,1,0.00551,0.01417,0.00276*
1,1,0.00551,0.01417,-0.00276*
1,1,0.00551,-0.01417,-0.00276*
%
%ADD20ROUNDEDRECTD20*%
G04:AMPARAMS|DCode=21|XSize=33.86mil|YSize=11.02mil|CornerRadius=2.76mil|HoleSize=0mil|Usage=FLASHONLY|Rotation=270.000|XOffset=0mil|YOffset=0mil|HoleType=Round|Shape=RoundedRectangle|*
%AMROUNDEDRECTD21*
21,1,0.03386,0.00551,0,0,270.0*
21,1,0.02835,0.01102,0,0,270.0*
1,1,0.00551,-0.00276,-0.01417*
1,1,0.00551,-0.00276,0.01417*
1,1,0.00551,0.00276,0.01417*
1,1,0.00551,0.00276,-0.01417*
%
%ADD21ROUNDEDRECTD21*%
G04:AMPARAMS|DCode=22|XSize=20.08mil|YSize=23.62mil|CornerRadius=5.12mil|HoleSize=0mil|Usage=FLASHONLY|Rotation=0.000|XOffset=0mil|YOffset=0mil|HoleType=Round|Shape=RoundedRectangle|*
%AMROUNDEDRECTD22*
21,1,0.02008,0.01338,0,0,0.0*
21,1,0.00984,0.02362,0,0,0.0*
1,1,0.01024,0.00492,-0.00669*
1,1,0.01024,-0.00492,-0.00669*
1,1,0.01024,-0.00492,0.00669*
1,1,0.01024,0.00492,0.00669*
%
%ADD22ROUNDEDRECTD22*%
G04:AMPARAMS|DCode=23|XSize=34.25mil|YSize=35.83mil|CornerRadius=8.73mil|HoleSize=0mil|Usage=FLASHONLY|Rotation=0.000|XOffset=0mil|YOffset=0mil|HoleType=Round|Shape=RoundedRectangle|*
%AMROUNDEDRECTD23*
21,1,0.03425,0.01836,0,0,0.0*
21,1,0.01678,0.03583,0,0,0.0*
1,1,0.01747,0.00839,-0.00918*
1,1,0.01747,-0.00839,-0.00918*
1,1,0.01747,-0.00839,0.00918*
1,1,0.01747,0.00839,0.00918*
%
%ADD23ROUNDEDRECTD23*%
G04:AMPARAMS|DCode=24|XSize=34.25mil|YSize=35.83mil|CornerRadius=8.73mil|HoleSize=0mil|Usage=FLASHONLY|Rotation=270.000|XOffset=0mil|YOffset=0mil|HoleType=Round|Shape=RoundedRectangle|*
%AMROUNDEDRECTD24*
21,1,0.03425,0.01836,0,0,270.0*
21,1,0.01678,0.03583,0,0,270.0*
1,1,0.01747,-0.00918,-0.00839*
1,1,0.01747,-0.00918,0.00839*
1,1,0.01747,0.00918,0.00839*
1,1,0.01747,0.00918,-0.00839*
%
%ADD24ROUNDEDRECTD24*%
%ADD25C,0.01181*%
%ADD26R,0.02756X0.00787*%
%ADD27R,0.00787X0.02756*%
%ADD28R,0.06496X0.06496*%
%ADD29R,0.02165X0.01181*%
%ADD30R,0.01181X0.02165*%
%ADD31R,0.22047X0.22047*%
%ADD32R,0.03150X0.06693*%
G04:AMPARAMS|DCode=33|XSize=20.08mil|YSize=23.62mil|CornerRadius=5.12mil|HoleSize=0mil|Usage=FLASHONLY|Rotation=270.000|XOffset=0mil|YOffset=0mil|HoleType=Round|Shape=RoundedRectangle|*
%AMROUNDEDRECTD33*
21,1,0.02008,0.01338,0,0,270.0*
21,1,0.00984,0.02362,0,0,270.0*
1,1,0.01024,-0.00669,-0.00492*
1,1,0.01024,-0.00669,0.00492*
1,1,0.01024,0.00669,0.00492*
1,1,0.01024,0.00669,-0.00492*
%
%ADD33ROUNDEDRECTD33*%
G04:AMPARAMS|DCode=34|XSize=46.85mil|YSize=87.4mil|CornerRadius=9.84mil|HoleSize=0mil|Usage=FLASHONLY|Rotation=270.000|XOffset=0mil|YOffset=0mil|HoleType=Round|Shape=RoundedRectangle|*
%AMROUNDEDRECTD34*
21,1,0.04685,0.06772,0,0,270.0*
21,1,0.02717,0.08740,0,0,270.0*
1,1,0.01968,-0.03386,-0.01359*
1,1,0.01968,-0.03386,0.01359*
1,1,0.01968,0.03386,0.01359*
1,1,0.01968,0.03386,-0.01359*
%
%ADD34ROUNDEDRECTD34*%
G04:AMPARAMS|DCode=35|XSize=18.11mil|YSize=24.02mil|CornerRadius=4.71mil|HoleSize=0mil|Usage=FLASHONLY|Rotation=0.000|XOffset=0mil|YOffset=0mil|HoleType=Round|Shape=RoundedRectangle|*
%AMROUNDEDRECTD35*
21,1,0.01811,0.01460,0,0,0.0*
21,1,0.00869,0.02402,0,0,0.0*
1,1,0.00942,0.00435,-0.00730*
1,1,0.00942,-0.00435,-0.00730*
1,1,0.00942,-0.00435,0.00730*
1,1,0.00942,0.00435,0.00730*
%
%ADD35ROUNDEDRECTD35*%
%ADD36R,0.07480X0.07480*%
%ADD37R,0.00984X0.11811*%
%ADD38R,0.04134X0.05118*%
G04:AMPARAMS|DCode=39|XSize=31.89mil|YSize=10.24mil|CornerRadius=2.76mil|HoleSize=0mil|Usage=FLASHONLY|Rotation=180.000|XOffset=0mil|YOffset=0mil|HoleType=Round|Shape=RoundedRectangle|*
%AMROUNDEDRECTD39*
21,1,0.03189,0.00471,0,0,180.0*
21,1,0.02636,0.01024,0,0,180.0*
1,1,0.00553,-0.01318,0.00235*
1,1,0.00553,0.01318,0.00235*
1,1,0.00553,0.01318,-0.00235*
1,1,0.00553,-0.01318,-0.00235*
%
%ADD39ROUNDEDRECTD39*%
%ADD40R,0.05512X0.06693*%
%ADD41C,0.01000*%
%ADD42C,0.00900*%
%ADD43C,0.02500*%
%ADD44C,0.00700*%
%ADD45C,0.02000*%
%ADD46C,0.01500*%
%ADD47R,0.02100X0.09600*%
%ADD48R,0.02500X0.13100*%
%ADD49R,0.01700X0.03500*%
%ADD50R,0.03300X0.10900*%
%ADD51R,0.07100X0.06900*%
%ADD52R,0.11000X0.06700*%
%ADD53R,0.03400X0.00900*%
%ADD54R,0.04600X0.01000*%
%ADD55R,0.03200X0.00900*%
%ADD56R,0.07600X0.08900*%
%ADD57R,0.02700X0.05600*%
%ADD58R,0.02900X0.02600*%
%ADD59R,0.08000X0.05000*%
%ADD60R,0.03000X0.00100*%
%ADD61R,0.03000X0.07600*%
%ADD62R,0.12100X0.12100*%
%ADD63R,0.13000X0.07000*%
%ADD64R,0.08512X0.01925*%
%ADD65R,0.10700X0.02900*%
%ADD66R,0.06100X0.04600*%
%ADD67R,0.03800X0.04800*%
%ADD68R,0.06000X0.04500*%
%ADD69R,0.03100X0.03100*%
%ADD70R,0.03000X0.02500*%
%ADD71R,0.04500X0.01689*%
%ADD72R,0.05906X0.05906*%
%ADD73C,0.05906*%
%ADD74R,0.04961X0.04961*%
%ADD75C,0.04961*%
%ADD76R,0.05906X0.05906*%
G04:AMPARAMS|DCode=77|XSize=275.59mil|YSize=196.85mil|CornerRadius=49.21mil|HoleSize=0mil|Usage=FLASHONLY|Rotation=180.000|XOffset=0mil|YOffset=0mil|HoleType=Round|Shape=RoundedRectangle|*
%AMROUNDEDRECTD77*
21,1,0.27559,0.09843,0,0,180.0*
21,1,0.17716,0.19685,0,0,180.0*
1,1,0.09843,-0.08858,0.04921*
1,1,0.09843,0.08858,0.04921*
1,1,0.09843,0.08858,-0.04921*
1,1,0.09843,-0.08858,-0.04921*
%
%ADD77ROUNDEDRECTD77*%
%ADD78C,0.02500*%
%ADD79C,0.03000*%
%ADD80C,0.02000*%
%ADD81C,0.02362*%
%ADD82C,0.04000*%
G36*
X25085Y118314D02*
X25108Y117951D01*
X25116Y117908D01*
X25126Y117874D01*
X25137Y117851D01*
X25150Y117837D01*
X24219D01*
X24231Y117851D01*
X24242Y117874D01*
X24252Y117908D01*
X24261Y117951D01*
X24268Y118004D01*
X24278Y118139D01*
X24284Y118416D01*
X25084D01*
X25085Y118314D01*
D02*
G37*
G36*
X21463Y118439D02*
X21416Y117834D01*
X21395Y117757D01*
X21370Y117711D01*
X21341Y117694D01*
X21308Y117707D01*
X21271Y117750D01*
X20314Y117845D01*
X20381Y117847D01*
X20440Y117866D01*
X20493Y117904D01*
X20538Y117959D01*
X20577Y118032D01*
X20608Y118123D01*
X20633Y118232D01*
X20651Y118358D01*
X20661Y118503D01*
X20665Y118665D01*
X21465D01*
X21463Y118439D01*
D02*
G37*
G36*
X27193Y116954D02*
X27218Y116886D01*
X27258Y116826D01*
X27315Y116774D01*
X27388Y116730D01*
X27477Y116694D01*
X27583Y116666D01*
X27705Y116646D01*
X27843Y116634D01*
X27997Y116630D01*
Y115830D01*
X27843Y115826D01*
X27705Y115814D01*
X27583Y115794D01*
X27477Y115766D01*
X27388Y115730D01*
X27315Y115686D01*
X27258Y115634D01*
X27218Y115574D01*
X27193Y115506D01*
X27185Y115430D01*
Y117030D01*
X27193Y116954D01*
D02*
G37*
G36*
X20215Y115430D02*
X20207Y115506D01*
X20182Y115574D01*
X20142Y115634D01*
X20085Y115686D01*
X20012Y115730D01*
X19923Y115766D01*
X19817Y115794D01*
X19695Y115814D01*
X19557Y115826D01*
X19403Y115830D01*
Y116630D01*
X19557Y116634D01*
X19695Y116646D01*
X19817Y116666D01*
X19923Y116694D01*
X20012Y116730D01*
X20085Y116774D01*
X20142Y116826D01*
X20182Y116886D01*
X20207Y116954D01*
X20215Y117030D01*
Y115430D01*
D02*
G37*
G36*
X25997Y113894D02*
X26377Y113818D01*
X26918D01*
Y113277D01*
X26994Y112897D01*
X27209Y112574D01*
Y112563D01*
X26994Y112241D01*
X26918Y111860D01*
Y111309D01*
X26994Y110928D01*
X27206Y110600D01*
X26994Y110272D01*
X26918Y109891D01*
Y109340D01*
X26994Y108959D01*
X27209Y108637D01*
Y108626D01*
X26994Y108303D01*
X26918Y107923D01*
Y107382D01*
X26377D01*
X25997Y107306D01*
X25916Y107253D01*
X25879Y107307D01*
X25458Y107589D01*
X25184Y107643D01*
Y104970D01*
X24184D01*
Y107643D01*
X23911Y107589D01*
X23489Y107307D01*
X23453Y107253D01*
X23372Y107306D01*
X22991Y107382D01*
X22440D01*
X22060Y107306D01*
X21979Y107253D01*
X21942Y107307D01*
X21520Y107589D01*
X21023Y107688D01*
X20482D01*
Y107923D01*
X20406Y108303D01*
X20191Y108626D01*
Y108637D01*
X20406Y108959D01*
X20482Y109340D01*
Y109891D01*
X20406Y110272D01*
X20191Y110595D01*
Y110605D01*
X20406Y110928D01*
X20482Y111309D01*
Y111860D01*
X20406Y112241D01*
X20191Y112563D01*
Y112574D01*
X20406Y112897D01*
X20482Y113277D01*
Y113818D01*
X21023D01*
X21404Y113894D01*
X21732Y114106D01*
X22060Y113894D01*
X22440Y113818D01*
X22991D01*
X23372Y113894D01*
X23695Y114109D01*
X23705D01*
X24028Y113894D01*
X24409Y113818D01*
X24960D01*
X25341Y113894D01*
X25663Y114109D01*
X25674D01*
X25997Y113894D01*
D02*
G37*
G36*
X63931Y112480D02*
X63923Y112556D01*
X63899Y112624D01*
X63858Y112684D01*
X63801Y112736D01*
X63728Y112780D01*
X63639Y112816D01*
X63533Y112844D01*
X63417Y112863D01*
X63303Y112844D01*
X63199Y112816D01*
X63111Y112780D01*
X63039Y112736D01*
X62983Y112684D01*
X62943Y112624D01*
X62919Y112556D01*
X62911Y112480D01*
Y114080D01*
X62919Y114004D01*
X62943Y113936D01*
X62983Y113876D01*
X63039Y113824D01*
X63111Y113780D01*
X63199Y113744D01*
X63303Y113716D01*
X63417Y113697D01*
X63533Y113716D01*
X63639Y113744D01*
X63728Y113780D01*
X63801Y113824D01*
X63858Y113876D01*
X63899Y113936D01*
X63923Y114004D01*
X63931Y114080D01*
Y112480D01*
D02*
G37*
G36*
X71018D02*
X71010Y112556D01*
X70985Y112624D01*
X70945Y112684D01*
X70888Y112736D01*
X70815Y112780D01*
X70725Y112816D01*
X70620Y112844D01*
X70504Y112863D01*
X70389Y112844D01*
X70285Y112816D01*
X70197Y112780D01*
X70126Y112736D01*
X70069Y112684D01*
X70029Y112624D01*
X70006Y112556D01*
X69998Y112480D01*
Y114080D01*
X70006Y114004D01*
X70029Y113936D01*
X70069Y113876D01*
X70126Y113824D01*
X70197Y113780D01*
X70285Y113744D01*
X70389Y113716D01*
X70504Y113697D01*
X70620Y113716D01*
X70725Y113744D01*
X70815Y113780D01*
X70888Y113824D01*
X70945Y113876D01*
X70985Y113936D01*
X71010Y114004D01*
X71018Y114080D01*
Y112480D01*
D02*
G37*
G36*
X46215D02*
X46206Y112556D01*
X46182Y112624D01*
X46141Y112684D01*
X46085Y112736D01*
X46012Y112780D01*
X45922Y112816D01*
X45817Y112844D01*
X45698Y112864D01*
X45580Y112844D01*
X45475Y112816D01*
X45385Y112780D01*
X45312Y112736D01*
X45255Y112684D01*
X45215Y112624D01*
X45190Y112556D01*
X45182Y112480D01*
Y114080D01*
X45190Y114004D01*
X45215Y113936D01*
X45255Y113876D01*
X45312Y113824D01*
X45385Y113780D01*
X45475Y113744D01*
X45580Y113716D01*
X45698Y113697D01*
X45817Y113716D01*
X45922Y113744D01*
X46012Y113780D01*
X46085Y113824D01*
X46141Y113876D01*
X46182Y113936D01*
X46206Y114004D01*
X46215Y114080D01*
Y112480D01*
D02*
G37*
G36*
X70906Y111611D02*
X70918Y111473D01*
X70938Y111351D01*
X70966Y111246D01*
X71002Y111156D01*
X71046Y111083D01*
X71098Y111026D01*
X71158Y110986D01*
X71226Y110961D01*
X71302Y110953D01*
X69702D01*
X69778Y110961D01*
X69846Y110986D01*
X69906Y111026D01*
X69958Y111083D01*
X70002Y111156D01*
X70038Y111246D01*
X70066Y111351D01*
X70086Y111473D01*
X70098Y111611D01*
X70102Y111765D01*
X70902D01*
X70906Y111611D01*
D02*
G37*
G36*
X63819D02*
X63831Y111473D01*
X63851Y111351D01*
X63879Y111246D01*
X63915Y111156D01*
X63959Y111083D01*
X64011Y111026D01*
X64071Y110986D01*
X64139Y110961D01*
X64215Y110953D01*
X62615D01*
X62691Y110961D01*
X62759Y110986D01*
X62819Y111026D01*
X62871Y111083D01*
X62915Y111156D01*
X62951Y111246D01*
X62979Y111351D01*
X62999Y111473D01*
X63011Y111611D01*
X63015Y111765D01*
X63815D01*
X63819Y111611D01*
D02*
G37*
G36*
X46102D02*
X46114Y111473D01*
X46134Y111351D01*
X46162Y111246D01*
X46198Y111156D01*
X46242Y111083D01*
X46294Y111026D01*
X46354Y110986D01*
X46422Y110961D01*
X46498Y110953D01*
X44898D01*
X44974Y110961D01*
X45042Y110986D01*
X45102Y111026D01*
X45154Y111083D01*
X45198Y111156D01*
X45234Y111246D01*
X45262Y111351D01*
X45282Y111473D01*
X45294Y111611D01*
X45298Y111765D01*
X46098D01*
X46102Y111611D01*
D02*
G37*
G36*
X159276Y19785D02*
X158776Y19606D01*
X158265Y20229D01*
X157364Y20968D01*
X156335Y21518D01*
X155219Y21857D01*
X154058Y21971D01*
X145700D01*
Y11100D01*
X144700D01*
Y21971D01*
X136342D01*
X135181Y21857D01*
X134065Y21518D01*
X133036Y20968D01*
X132134Y20229D01*
X131395Y19327D01*
X130845Y18298D01*
X130506Y17182D01*
X130400Y16105D01*
X129252D01*
X129248Y16115D01*
X129169Y16605D01*
X129305Y16695D01*
X129459Y16927D01*
X129514Y17200D01*
Y26100D01*
Y29300D01*
X129459Y29573D01*
X129305Y29805D01*
X129073Y29959D01*
X128800Y30014D01*
X117210D01*
Y31490D01*
X117199D01*
X116841Y31991D01*
X116928Y32429D01*
Y32768D01*
X114100D01*
X111272D01*
Y32429D01*
X111359Y31991D01*
X111001Y31490D01*
X109708Y31490D01*
X109208Y31490D01*
X107274D01*
Y31791D01*
X106282D01*
Y24885D01*
X105782D01*
Y24385D01*
X104290D01*
Y22449D01*
X103790Y22044D01*
X103420Y22117D01*
X102659Y21966D01*
X102014Y21535D01*
X101583Y20890D01*
X101432Y20129D01*
X101583Y19368D01*
X102014Y18723D01*
X102659Y18292D01*
X103420Y18141D01*
X103790Y18215D01*
X104290Y17979D01*
Y17979D01*
X107274D01*
Y18280D01*
X109208D01*
X109533Y18280D01*
X110033Y18280D01*
X112092D01*
X112092Y18280D01*
X112267D01*
Y18280D01*
X112592Y18280D01*
X114651D01*
Y18280D01*
X114826D01*
Y18280D01*
X117210D01*
X117210Y18280D01*
X117708Y18275D01*
X118380Y18141D01*
X119141Y18292D01*
X119786Y18723D01*
X119986Y19023D01*
X120486Y18871D01*
Y17200D01*
X120541Y16927D01*
X120695Y16695D01*
X120927Y16541D01*
X121200Y16486D01*
X121725D01*
X122011Y16105D01*
X122011Y15986D01*
Y7225D01*
X130392D01*
Y6179D01*
X130506Y5018D01*
X130845Y3902D01*
X131395Y2873D01*
X132134Y1971D01*
X132437Y1723D01*
X132258Y1223D01*
X91843D01*
Y4600D01*
X89268D01*
X86693D01*
Y1223D01*
X75007D01*
Y3937D01*
X75470Y3978D01*
X75899Y4064D01*
X76263Y4307D01*
X101293Y29337D01*
X101293Y29337D01*
X101536Y29701D01*
X101622Y30130D01*
Y40036D01*
X102828Y41243D01*
X103370Y41078D01*
X103399Y40937D01*
X103774Y40374D01*
X104337Y39999D01*
X105000Y39867D01*
X105663Y39999D01*
X106226Y40374D01*
X106295Y40478D01*
X111325D01*
X111578Y40171D01*
Y38492D01*
X111700Y37878D01*
X112048Y37358D01*
X112568Y37010D01*
X113182Y36888D01*
X115018D01*
X115632Y37010D01*
X116152Y37358D01*
X116500Y37878D01*
X116566Y38210D01*
X117525D01*
Y38082D01*
X117647Y37468D01*
X117995Y36948D01*
X118265Y36767D01*
X118280Y36176D01*
X118095Y36052D01*
X117747Y35532D01*
X117625Y34918D01*
Y33082D01*
X117747Y32468D01*
X118095Y31948D01*
X118615Y31600D01*
X119229Y31478D01*
X120908D01*
X121522Y31600D01*
X122042Y31948D01*
X122390Y32468D01*
X122512Y33082D01*
Y34918D01*
X122390Y35532D01*
X122042Y36052D01*
X121772Y36233D01*
X121757Y36824D01*
X121942Y36948D01*
X122290Y37468D01*
X122412Y38082D01*
Y39918D01*
X122290Y40532D01*
X121942Y41052D01*
X121823Y41132D01*
X122018Y41603D01*
X122200Y41567D01*
X122863Y41699D01*
X123426Y42074D01*
X123746Y42553D01*
X124027Y42595D01*
X124032Y42595D01*
X124293Y42548D01*
X124395Y42395D01*
X124627Y42241D01*
X124900Y42186D01*
X126102D01*
X126200Y42167D01*
X126298Y42186D01*
X127600D01*
X127873Y42241D01*
X128105Y42395D01*
X128200Y42538D01*
X128565Y42533D01*
X128720Y42485D01*
X128817Y41998D01*
X129231Y41379D01*
X129851Y40965D01*
X130582Y40819D01*
X131000D01*
Y43569D01*
Y46318D01*
X130582D01*
X129851Y46172D01*
X129231Y45758D01*
X128817Y45139D01*
X128814Y45120D01*
X128314Y45169D01*
Y48500D01*
X128384Y48586D01*
X129019D01*
X129100Y48178D01*
X129448Y47658D01*
X129968Y47310D01*
X130582Y47188D01*
X132418D01*
X133032Y47310D01*
X133146Y47386D01*
X135286D01*
Y45200D01*
X135341Y44927D01*
X135495Y44695D01*
X135727Y44541D01*
X136000Y44486D01*
X141828D01*
X142035Y43986D01*
X132882Y34833D01*
X128575D01*
Y34918D01*
X128453Y35532D01*
X128105Y36052D01*
X127765Y36280D01*
Y36787D01*
X128005Y36948D01*
X128353Y37468D01*
X128475Y38082D01*
Y39918D01*
X128353Y40532D01*
X128005Y41052D01*
X127485Y41400D01*
X126871Y41522D01*
X125192D01*
X124578Y41400D01*
X124058Y41052D01*
X123710Y40532D01*
X123588Y39918D01*
Y38082D01*
X123710Y37468D01*
X124058Y36948D01*
X124298Y36787D01*
Y36146D01*
X124158Y36052D01*
X123810Y35532D01*
X123688Y34918D01*
Y33082D01*
X123810Y32468D01*
X124158Y31948D01*
X124678Y31600D01*
X125292Y31478D01*
X125473D01*
X126031Y31367D01*
X133600D01*
X134263Y31499D01*
X134826Y31874D01*
X150726Y47774D01*
X151101Y48337D01*
X151233Y49000D01*
X151233Y49000D01*
Y57934D01*
X151572Y58442D01*
X151743Y59300D01*
X151572Y60158D01*
X151086Y60886D01*
X150358Y61372D01*
X149500Y61543D01*
X148642Y61372D01*
X147914Y60886D01*
X147428Y60158D01*
X147257Y59300D01*
X147428Y58442D01*
X147767Y57934D01*
Y49718D01*
X143314Y45265D01*
X142814Y45472D01*
Y51000D01*
X142759Y51273D01*
X142605Y51505D01*
X142373Y51659D01*
X142100Y51714D01*
X141353D01*
X141279Y51807D01*
X141132Y52214D01*
X141400Y52615D01*
X141522Y53229D01*
Y54908D01*
X141400Y55522D01*
X141052Y56042D01*
X140532Y56390D01*
X139918Y56512D01*
X138082D01*
X137638Y56423D01*
X137632Y56424D01*
X137625Y56421D01*
X137572Y56410D01*
X137312Y56745D01*
X137277Y56823D01*
X138143Y57688D01*
X139918D01*
X140532Y57810D01*
X141052Y58158D01*
X141400Y58678D01*
X141522Y59292D01*
Y60971D01*
X141400Y61585D01*
X141052Y62105D01*
X140532Y62453D01*
X139918Y62575D01*
X138082D01*
X137468Y62453D01*
X136948Y62105D01*
X136600Y61585D01*
X136478Y60971D01*
Y59292D01*
X136494Y59211D01*
X135634Y58351D01*
X135347D01*
X135325Y58353D01*
X135261Y58363D01*
X135212Y58375D01*
X135178Y58387D01*
X135157Y58396D01*
X135150Y58400D01*
X135127Y58430D01*
X135126Y58430D01*
X135074Y58509D01*
X134918Y58613D01*
X134917Y58614D01*
X134917Y58614D01*
X134687Y58767D01*
X134230Y58858D01*
Y59342D01*
X134687Y59433D01*
X135074Y59691D01*
X135333Y60079D01*
X135424Y60535D01*
Y61405D01*
X135333Y61862D01*
X135074Y62249D01*
X134687Y62508D01*
X134622Y62521D01*
Y65537D01*
X134886Y65714D01*
X135372Y66442D01*
X135543Y67300D01*
X135372Y68158D01*
X134886Y68886D01*
X134158Y69372D01*
X133300Y69543D01*
X132442Y69372D01*
X131714Y68886D01*
X131228Y68158D01*
X131057Y67300D01*
X131228Y66442D01*
X131714Y65714D01*
X132378Y65270D01*
Y62521D01*
X132313Y62508D01*
X131926Y62249D01*
X131667Y61862D01*
X131576Y61405D01*
Y60535D01*
X131667Y60079D01*
X131926Y59691D01*
X132313Y59433D01*
X132770Y59342D01*
Y58858D01*
X132313Y58767D01*
X131926Y58509D01*
X131667Y58121D01*
X131576Y57665D01*
Y56795D01*
X131601Y56671D01*
X131224Y56171D01*
X127919D01*
X127919Y56171D01*
X127590Y56441D01*
Y57043D01*
X127137D01*
X126929Y57543D01*
X129893Y60507D01*
X129893Y60507D01*
X130136Y60871D01*
X130222Y61300D01*
X130222Y61300D01*
Y69535D01*
X131793Y71107D01*
X131793Y71107D01*
X132036Y71471D01*
X132122Y71900D01*
X132122Y71900D01*
Y76105D01*
X132226Y76174D01*
X132601Y76737D01*
X132733Y77400D01*
X132627Y77932D01*
X132686Y78036D01*
X133221Y78270D01*
X133689Y78176D01*
X141890D01*
X143476Y76590D01*
Y75200D01*
X143570Y74732D01*
X143835Y74335D01*
X145588Y72582D01*
X145984Y72317D01*
X146453Y72224D01*
X153446D01*
X155377Y70293D01*
Y40507D01*
X146293Y31424D01*
X141428D01*
X141186Y31786D01*
X140458Y32272D01*
X139600Y32443D01*
X138742Y32272D01*
X138014Y31786D01*
X137528Y31058D01*
X137357Y30200D01*
X137528Y29342D01*
X138014Y28614D01*
X138742Y28128D01*
X139600Y27957D01*
X140458Y28128D01*
X141186Y28614D01*
X141428Y28977D01*
X146800D01*
X147268Y29070D01*
X147665Y29335D01*
X157465Y39135D01*
X157730Y39532D01*
X157824Y40000D01*
Y70800D01*
X157730Y71268D01*
X157465Y71665D01*
X154818Y74312D01*
X154421Y74578D01*
X153953Y74671D01*
X152865D01*
X152618Y75171D01*
X152953Y75607D01*
X153351Y76568D01*
X153421Y77100D01*
X149500D01*
Y77600D01*
X149000D01*
Y81521D01*
X148468Y81451D01*
X147507Y81053D01*
X146681Y80419D01*
X146047Y79593D01*
X145649Y78632D01*
X145635Y78526D01*
X145162Y78366D01*
X143262Y80265D01*
X142865Y80530D01*
X142397Y80624D01*
X136582D01*
X136254Y81124D01*
X136256Y81132D01*
X133689D01*
Y82131D01*
X136412D01*
X136690Y82477D01*
X139700D01*
X140168Y82570D01*
X140565Y82835D01*
X142744Y85013D01*
X142900Y84982D01*
X143634Y85128D01*
X144256Y85544D01*
X144672Y86166D01*
X144818Y86900D01*
X144672Y87634D01*
X144256Y88256D01*
X143634Y88672D01*
X142900Y88818D01*
X142490Y88736D01*
X142066Y89161D01*
X142133Y89500D01*
X142001Y90163D01*
X141626Y90726D01*
X141063Y91101D01*
X140400Y91233D01*
X139737Y91101D01*
X139174Y90726D01*
X138799Y90163D01*
X138669Y89513D01*
X138669Y89512D01*
X138647Y89482D01*
X138620Y89450D01*
X138193Y89024D01*
X133689D01*
X133221Y88930D01*
X132978Y88768D01*
X132371D01*
X131990Y88692D01*
X131667Y88476D01*
X131451Y88153D01*
X131410Y87946D01*
X130196D01*
X130269Y87902D01*
X130410Y87782D01*
X130530Y87641D01*
X130627Y87483D01*
X130698Y87311D01*
X130741Y87131D01*
X130756Y80253D01*
X130741Y80069D01*
X130698Y79889D01*
X130627Y79717D01*
X130530Y79559D01*
X130410Y79418D01*
X130269Y79298D01*
X130111Y79201D01*
X129940Y79130D01*
X129858Y79111D01*
X129966Y78754D01*
X129774Y78626D01*
X129399Y78063D01*
X129267Y77400D01*
X129399Y76737D01*
X129774Y76174D01*
X129878Y76105D01*
Y72365D01*
X128307Y70793D01*
X128064Y70429D01*
X127978Y70000D01*
X127978Y70000D01*
Y68058D01*
X127478Y67791D01*
X127163Y68001D01*
X126500Y68133D01*
X125837Y68001D01*
X125274Y67626D01*
X124899Y67063D01*
X124767Y66400D01*
X124899Y65737D01*
X125274Y65174D01*
X125378Y65105D01*
Y63480D01*
X125000Y63151D01*
X124497Y63270D01*
X124226Y63676D01*
X123663Y64051D01*
X123000Y64183D01*
X122814Y64146D01*
X122314Y64557D01*
Y66186D01*
X123300D01*
X123573Y66241D01*
X123805Y66395D01*
X123959Y66627D01*
X124014Y66900D01*
Y78510D01*
X124333Y78724D01*
X124549Y79047D01*
X124590Y79254D01*
X125804D01*
X125731Y79298D01*
X125590Y79418D01*
X125470Y79559D01*
X125373Y79717D01*
X125302Y79889D01*
X125259Y80069D01*
X125244Y86946D01*
X126244Y87946D01*
X124590D01*
X124549Y88153D01*
X124514Y88206D01*
Y92243D01*
X124743Y92586D01*
X127469D01*
X127495Y92548D01*
X128015Y92200D01*
X128629Y92078D01*
X130308D01*
X130922Y92200D01*
X131442Y92548D01*
X131790Y93068D01*
X131912Y93682D01*
Y95518D01*
X131790Y96132D01*
X131714Y96246D01*
Y101205D01*
X132072Y101742D01*
X132243Y102600D01*
X132072Y103458D01*
X131714Y103995D01*
Y105400D01*
X131659Y105673D01*
X131505Y105905D01*
X131273Y106059D01*
X131000Y106114D01*
X118900D01*
X118708Y106076D01*
X118422Y106217D01*
X118208Y106381D01*
Y109400D01*
X103900D01*
Y99029D01*
X112258D01*
X112978Y99100D01*
X113020Y99042D01*
X112898Y98359D01*
X112711Y98234D01*
X112281Y97591D01*
X112130Y96832D01*
Y95600D01*
X115058D01*
Y95100D01*
X115558D01*
Y91385D01*
X116003D01*
X116762Y91536D01*
X117405Y91966D01*
X117835Y92609D01*
X117854Y92705D01*
X118385Y92811D01*
X118395Y92795D01*
X118627Y92641D01*
X118900Y92586D01*
X119941D01*
X120086Y92368D01*
Y88558D01*
X119586Y88351D01*
X118982Y88955D01*
X118585Y89220D01*
X118117Y89313D01*
X111961D01*
X111903Y89318D01*
Y89448D01*
X111772Y90105D01*
X111400Y90662D01*
X110843Y91035D01*
X110186Y91165D01*
X103414D01*
X102757Y91035D01*
X102200Y90662D01*
X101828Y90105D01*
X101697Y89448D01*
Y86731D01*
X101828Y86074D01*
X102200Y85517D01*
X102757Y85145D01*
X103414Y85014D01*
X110186D01*
X110843Y85145D01*
X111400Y85517D01*
X111772Y86074D01*
X111903Y86731D01*
Y86861D01*
X111961Y86866D01*
X117610D01*
X118176Y86300D01*
X118060Y86072D01*
X117882Y85888D01*
X117100Y86043D01*
X116242Y85872D01*
X115514Y85386D01*
X115028Y84658D01*
X114857Y83800D01*
X115028Y82942D01*
X115514Y82214D01*
X116242Y81728D01*
X117100Y81557D01*
X117958Y81728D01*
X118686Y82214D01*
X119127Y82874D01*
X119438Y82936D01*
X119680Y82932D01*
X119816Y82713D01*
X119773Y82497D01*
X117810Y80534D01*
X111961D01*
X111903Y80539D01*
Y80669D01*
X111772Y81326D01*
X111400Y81883D01*
X110843Y82255D01*
X110186Y82386D01*
X103414D01*
X102757Y82255D01*
X102200Y81883D01*
X101828Y81326D01*
X101697Y80669D01*
Y77952D01*
X101828Y77295D01*
X102200Y76738D01*
X102757Y76365D01*
X103414Y76235D01*
X109559D01*
X109711Y75735D01*
X109411Y75534D01*
X108981Y74891D01*
X108830Y74132D01*
Y72900D01*
X111258D01*
Y76480D01*
X111217Y76615D01*
X111400Y76738D01*
X111772Y77295D01*
X111903Y77952D01*
Y78082D01*
X111961Y78087D01*
X118317D01*
X118785Y78180D01*
X119182Y78445D01*
X119586Y78849D01*
X120086Y78642D01*
Y75891D01*
X119987Y75809D01*
X118097D01*
X117455Y75682D01*
X116911Y75318D01*
X116547Y74774D01*
X116420Y74132D01*
Y70668D01*
X116547Y70026D01*
X116911Y69482D01*
X117455Y69118D01*
X117586Y69092D01*
Y64000D01*
Y61533D01*
X117086Y61326D01*
X113191Y65220D01*
X113272Y65342D01*
X113443Y66200D01*
X113272Y67058D01*
X112786Y67786D01*
X112189Y68185D01*
X112341Y68685D01*
X112703D01*
X113462Y68836D01*
X114105Y69266D01*
X114535Y69909D01*
X114686Y70668D01*
Y71900D01*
X111758D01*
X108830D01*
Y70668D01*
X108981Y69909D01*
X109411Y69266D01*
X110055Y68836D01*
X110333Y68780D01*
X110341Y68290D01*
X110337Y68270D01*
X109614Y67786D01*
X109128Y67058D01*
X108957Y66200D01*
X109128Y65342D01*
X109212Y65216D01*
Y64400D01*
X109363Y63639D01*
X109794Y62994D01*
X113753Y59035D01*
X113734Y58936D01*
X113275Y58689D01*
X113176Y58680D01*
X112806Y58753D01*
X112806Y58753D01*
X108466D01*
X108400Y59085D01*
X108052Y59605D01*
X107532Y59953D01*
X106918Y60075D01*
X105082D01*
X104468Y59953D01*
X103948Y59605D01*
X103801Y59385D01*
X103199D01*
X103052Y59605D01*
X102532Y59953D01*
X102238Y60011D01*
X102229Y60066D01*
X102224Y60128D01*
Y62100D01*
X102130Y62568D01*
X101865Y62965D01*
X99658Y65172D01*
X99743Y65600D01*
X99572Y66458D01*
X99086Y67186D01*
X98358Y67672D01*
X97500Y67843D01*
X96642Y67672D01*
X95914Y67186D01*
X95428Y66458D01*
X95257Y65600D01*
X95428Y64742D01*
X95914Y64014D01*
X96642Y63528D01*
X97500Y63357D01*
X97928Y63442D01*
X99777Y61593D01*
Y60128D01*
X99771Y60066D01*
X99762Y60011D01*
X99468Y59953D01*
X98948Y59605D01*
X98600Y59085D01*
X98478Y58471D01*
Y56792D01*
X98600Y56178D01*
X98948Y55658D01*
X99468Y55310D01*
X100082Y55188D01*
X101918D01*
X102532Y55310D01*
X103052Y55658D01*
X103430Y55557D01*
X103472Y55174D01*
X103472Y55174D01*
X102304Y54007D01*
X102244Y53954D01*
X102237Y53948D01*
X101918Y54012D01*
X100082D01*
X99468Y53890D01*
X98948Y53542D01*
X98600Y53022D01*
X98478Y52408D01*
Y50729D01*
X98491Y50665D01*
X98372Y50527D01*
X98207Y50362D01*
X98180Y50321D01*
X98179Y50321D01*
X98178Y50319D01*
X97964Y49998D01*
X97878Y49569D01*
X97878Y49569D01*
Y43016D01*
X97417Y42825D01*
X95148Y45093D01*
X95051Y45158D01*
X94522Y45688D01*
Y61284D01*
X94436Y61713D01*
X94193Y62077D01*
X94193Y62077D01*
X93622Y62649D01*
Y90435D01*
X93893Y90707D01*
X93893Y90707D01*
X94136Y91071D01*
X94222Y91500D01*
X94222Y91500D01*
Y92905D01*
X94326Y92974D01*
X94701Y93537D01*
X94833Y94200D01*
X94701Y94863D01*
X94326Y95426D01*
X93763Y95801D01*
X93100Y95933D01*
X92437Y95801D01*
X92287Y95828D01*
X91922Y96342D01*
X91933Y96400D01*
X91801Y97063D01*
X91426Y97626D01*
X90863Y98001D01*
X90200Y98133D01*
X89537Y98001D01*
X88974Y97626D01*
X88947Y97585D01*
X88450Y97536D01*
X87709Y98277D01*
X87733Y98400D01*
X87601Y99063D01*
X87226Y99626D01*
X86663Y100001D01*
X86000Y100133D01*
X85337Y100001D01*
X85029Y99796D01*
X84894Y99805D01*
X84440Y99957D01*
X84440Y99958D01*
X84392Y100029D01*
X84285Y100200D01*
X83599Y100930D01*
X83633Y101100D01*
X83501Y101763D01*
X83126Y102326D01*
X82563Y102701D01*
X81900Y102833D01*
X81237Y102701D01*
X80860Y102450D01*
X80408Y102645D01*
X80360Y102686D01*
Y103430D01*
X78080D01*
Y104430D01*
X80360D01*
Y105194D01*
Y107859D01*
X78080D01*
Y108359D01*
X77580D01*
Y111524D01*
X76324D01*
Y112780D01*
X73159D01*
Y113280D01*
X72659D01*
Y115560D01*
X71746D01*
X71684Y115644D01*
X71802Y116324D01*
X72086Y116514D01*
X72572Y117242D01*
X72743Y118100D01*
X72572Y118958D01*
X72360Y119276D01*
X72627Y119776D01*
X90458D01*
X90637Y119276D01*
X90334Y119028D01*
X89595Y118127D01*
X89045Y117098D01*
X88706Y115982D01*
X88592Y114821D01*
Y110400D01*
X118208D01*
Y114821D01*
X118094Y115982D01*
X117755Y117098D01*
X117205Y118127D01*
X116465Y119028D01*
X116163Y119276D01*
X116342Y119776D01*
X159276D01*
Y19785D01*
D02*
G37*
G36*
X68640Y119276D02*
X68428Y118958D01*
X68257Y118100D01*
X68428Y117242D01*
X68914Y116514D01*
X69198Y116324D01*
X69316Y115644D01*
X69254Y115560D01*
X69230D01*
Y113280D01*
X68230D01*
Y115560D01*
X65687D01*
Y113280D01*
X64687D01*
Y115560D01*
X62143D01*
Y113280D01*
X61143D01*
Y115560D01*
X58600D01*
Y113280D01*
X57600D01*
Y115560D01*
X55057D01*
Y113280D01*
X54057D01*
Y115560D01*
X51513D01*
Y113280D01*
X50513D01*
Y115560D01*
X47970D01*
Y113280D01*
X46970D01*
Y115560D01*
X43541D01*
Y113280D01*
X43041D01*
Y112780D01*
X39876D01*
Y111524D01*
X38620D01*
Y108359D01*
X38120D01*
Y107859D01*
X35840D01*
Y105194D01*
Y104430D01*
X38120D01*
Y103430D01*
X35840D01*
Y103291D01*
X35340Y103139D01*
X35193Y103359D01*
X34693Y103693D01*
X34111Y103809D01*
Y101600D01*
Y99391D01*
X34693Y99507D01*
X35193Y99841D01*
X35340Y100061D01*
X35840Y99909D01*
Y98107D01*
Y97343D01*
X38120D01*
Y96343D01*
X35840D01*
Y94564D01*
Y93800D01*
X38120D01*
Y92800D01*
X35840D01*
Y91021D01*
Y90257D01*
X38120D01*
Y89257D01*
X35840D01*
Y87477D01*
Y86713D01*
X38120D01*
Y85713D01*
X35840D01*
Y83934D01*
Y83170D01*
X38120D01*
Y82170D01*
X35840D01*
Y80391D01*
Y78741D01*
X38120D01*
Y77741D01*
X35840D01*
Y75170D01*
X35474Y74926D01*
X35405Y74822D01*
X31954D01*
X31853Y75332D01*
X31505Y75852D01*
X30985Y76200D01*
X30371Y76322D01*
X28692D01*
X28078Y76200D01*
X27558Y75852D01*
X27210Y75332D01*
X27088Y74718D01*
Y72882D01*
X27210Y72268D01*
X27558Y71748D01*
X28078Y71400D01*
X28692Y71278D01*
X30371D01*
X30985Y71400D01*
X31505Y71748D01*
X31853Y72268D01*
X31914Y72578D01*
X35405D01*
X35474Y72474D01*
X36037Y72099D01*
X36700Y71967D01*
X37363Y72099D01*
X37926Y72474D01*
X38301Y73037D01*
X38433Y73700D01*
X38301Y74363D01*
X38159Y74576D01*
X38427Y75076D01*
X39876D01*
Y73820D01*
X43041D01*
Y72820D01*
X39876D01*
Y71040D01*
X39397Y71011D01*
X38807Y70893D01*
X38307Y70559D01*
X37973Y70059D01*
X37855Y69469D01*
Y69300D01*
X39889D01*
Y68800D01*
X40389D01*
Y66591D01*
X40971Y66707D01*
X41471Y67041D01*
X42019Y67045D01*
X42287Y66810D01*
Y66111D01*
X42000Y65894D01*
Y64169D01*
X41000D01*
Y65691D01*
X40879Y65667D01*
X40516Y65424D01*
X40152Y65667D01*
X40031Y65691D01*
Y64169D01*
X39531D01*
Y63669D01*
X38009D01*
X38033Y63548D01*
X38276Y63184D01*
X38033Y62821D01*
X38009Y62700D01*
X39531D01*
Y61700D01*
X38009D01*
X38033Y61579D01*
X38276Y61216D01*
X38033Y60852D01*
X38009Y60732D01*
X39531D01*
Y60232D01*
X40031D01*
Y58709D01*
X40152Y58733D01*
X40678Y59085D01*
X40844Y59118D01*
X40996Y59016D01*
X41500Y58916D01*
X42004Y59016D01*
X42430Y59301D01*
X42538D01*
X42965Y59016D01*
X43468Y58916D01*
X43972Y59016D01*
X44113Y59110D01*
X46404D01*
X48570Y56944D01*
X48400Y56536D01*
Y54411D01*
X47400D01*
Y56445D01*
X47231D01*
X46641Y56327D01*
X46141Y55993D01*
X45848Y55554D01*
X45548Y55488D01*
X45295Y55482D01*
X45269Y55521D01*
X44649Y55935D01*
X43918Y56081D01*
X43500D01*
Y53332D01*
X43000D01*
Y52832D01*
X39930D01*
X39672Y52751D01*
X39259Y53027D01*
X38669Y53145D01*
X38500D01*
Y51111D01*
X37500D01*
Y53145D01*
X37331D01*
X36741Y53027D01*
X36241Y52693D01*
X35907Y52193D01*
X35789Y51603D01*
Y51072D01*
X35350Y50883D01*
X34988Y51175D01*
Y53316D01*
X35072Y53442D01*
X35243Y54300D01*
X35072Y55158D01*
X34586Y55886D01*
X33858Y56372D01*
X33000Y56543D01*
X32142Y56372D01*
X31414Y55886D01*
X30928Y55158D01*
X30757Y54300D01*
X30928Y53442D01*
X31012Y53316D01*
Y50300D01*
X31163Y49539D01*
X31594Y48894D01*
X31926Y48562D01*
X31735Y48100D01*
X28000D01*
X25500Y45600D01*
X11500D01*
X11000Y45100D01*
X10500D01*
Y41185D01*
X10026Y41024D01*
X9982Y41082D01*
X9255Y41640D01*
X8409Y41991D01*
X8000Y42044D01*
Y38600D01*
X7000D01*
Y42044D01*
X6592Y41991D01*
X5745Y41640D01*
X5122Y41162D01*
X4622Y41320D01*
Y44135D01*
X6187Y45701D01*
X6670Y45502D01*
X7500Y45392D01*
X8330Y45502D01*
X9104Y45822D01*
X9768Y46332D01*
X10278Y46996D01*
X10598Y47770D01*
X10708Y48600D01*
X10598Y49430D01*
X10278Y50204D01*
X9768Y50868D01*
X9104Y51378D01*
X8330Y51698D01*
X7500Y51808D01*
X6670Y51698D01*
X5896Y51378D01*
X5232Y50868D01*
X4722Y50204D01*
X4402Y49430D01*
X4292Y48600D01*
X4402Y47770D01*
X4601Y47287D01*
X3184Y45870D01*
X2722Y46061D01*
Y82235D01*
X6187Y85701D01*
X6670Y85501D01*
X7500Y85392D01*
X8330Y85501D01*
X9104Y85822D01*
X9768Y86332D01*
X10278Y86996D01*
X10598Y87770D01*
X10708Y88600D01*
X10598Y89430D01*
X10278Y90204D01*
X9768Y90868D01*
X9104Y91378D01*
X8330Y91698D01*
X7500Y91808D01*
X6670Y91698D01*
X5896Y91378D01*
X5232Y90868D01*
X4722Y90204D01*
X4402Y89430D01*
X4292Y88600D01*
X4402Y87770D01*
X4601Y87287D01*
X1685Y84372D01*
X1223Y84563D01*
Y119776D01*
X11617D01*
X11874Y119276D01*
X11528Y118758D01*
X11357Y117900D01*
X11528Y117042D01*
X12014Y116314D01*
X12742Y115828D01*
X13600Y115657D01*
X14458Y115828D01*
X15186Y116314D01*
X15496Y116778D01*
X16435D01*
X17777Y115437D01*
X17947Y115323D01*
X17796Y114823D01*
X16653D01*
X16272Y114747D01*
X15949Y114532D01*
X15734Y114209D01*
X15658Y113828D01*
Y113277D01*
X15734Y112897D01*
X15949Y112574D01*
Y112563D01*
X15734Y112241D01*
X15658Y111860D01*
Y111309D01*
X15734Y110928D01*
X15949Y110605D01*
Y110595D01*
X15734Y110272D01*
X15658Y109891D01*
Y109340D01*
X15672Y109269D01*
X15306Y108769D01*
X14817D01*
X12022Y111564D01*
Y112971D01*
X11900Y113585D01*
X11552Y114105D01*
X11032Y114453D01*
X10418Y114575D01*
X8582D01*
X7968Y114453D01*
X7686Y114264D01*
X7236Y114565D01*
X7243Y114600D01*
X7072Y115458D01*
X6586Y116186D01*
X5858Y116672D01*
X5000Y116843D01*
X4142Y116672D01*
X3414Y116186D01*
X2928Y115458D01*
X2757Y114600D01*
X2928Y113742D01*
X3414Y113014D01*
X4142Y112528D01*
X5000Y112357D01*
X5858Y112528D01*
X6478Y112942D01*
X6858Y112810D01*
X6978Y112720D01*
Y111292D01*
X7100Y110678D01*
X7448Y110158D01*
X7968Y109810D01*
X8582Y109688D01*
X10418D01*
X10675Y109739D01*
X13560Y106854D01*
X13560Y106854D01*
X13924Y106611D01*
X14353Y106526D01*
X14353Y106526D01*
X16163D01*
X16272Y106453D01*
X16653Y106377D01*
X19171D01*
Y105470D01*
X20747D01*
Y104970D01*
X21247D01*
Y102141D01*
X21594Y101856D01*
Y98663D01*
X21278Y98600D01*
X20758Y98252D01*
X20410Y97732D01*
X20288Y97118D01*
Y95282D01*
X20410Y94668D01*
X20758Y94148D01*
X21278Y93800D01*
X21892Y93678D01*
X23571D01*
X24185Y93800D01*
X24705Y94148D01*
X25053Y94668D01*
X25175Y95282D01*
Y97118D01*
X25053Y97732D01*
X24705Y98252D01*
X24185Y98600D01*
X23837Y98669D01*
Y99665D01*
X24337Y99932D01*
X24537Y99799D01*
X25200Y99667D01*
X25863Y99799D01*
X26426Y100174D01*
X26801Y100737D01*
X26933Y101400D01*
X26909Y101523D01*
X27446Y102060D01*
X27446Y102060D01*
X27606Y102300D01*
X28106Y102155D01*
Y98726D01*
X27928Y98458D01*
X27757Y97600D01*
X27928Y96742D01*
X28414Y96014D01*
X29142Y95528D01*
X30000Y95357D01*
X30858Y95528D01*
X31586Y96014D01*
X32072Y96742D01*
X32243Y97600D01*
X32072Y98458D01*
X31586Y99186D01*
X31571Y99196D01*
X31536Y99785D01*
X32029Y99841D01*
X32529Y99507D01*
X33111Y99391D01*
Y101600D01*
Y103809D01*
X32529Y103693D01*
X32029Y103359D01*
X31920Y103197D01*
X31355Y103143D01*
X30954Y103411D01*
X30557Y103490D01*
X30553Y103534D01*
Y106319D01*
X30558Y106377D01*
X30747D01*
X31128Y106453D01*
X31451Y106668D01*
X31666Y106991D01*
X31742Y107372D01*
Y107923D01*
X31666Y108303D01*
X31451Y108626D01*
Y108637D01*
X31666Y108959D01*
X31742Y109340D01*
Y109891D01*
X31666Y110272D01*
X31454Y110600D01*
X31666Y110928D01*
X31742Y111309D01*
Y111512D01*
X32199Y111963D01*
X32386Y111957D01*
X32574Y111674D01*
X33137Y111299D01*
X33800Y111167D01*
X34463Y111299D01*
X35026Y111674D01*
X35401Y112237D01*
X35533Y112900D01*
X35401Y113563D01*
X35026Y114126D01*
X34463Y114501D01*
X33800Y114633D01*
X33137Y114501D01*
X32921Y114357D01*
X31567D01*
X31451Y114532D01*
X31128Y114747D01*
X30747Y114823D01*
X29404D01*
X29253Y115323D01*
X29423Y115437D01*
X30215Y116228D01*
X31705D01*
X31774Y116124D01*
X32337Y115749D01*
X33000Y115617D01*
X33663Y115749D01*
X34226Y116124D01*
X34601Y116687D01*
X34733Y117350D01*
X34601Y118013D01*
X34226Y118576D01*
X33663Y118951D01*
X33000Y119083D01*
X32337Y118951D01*
X31774Y118576D01*
X31705Y118472D01*
X29750D01*
X29321Y118386D01*
X28957Y118143D01*
X28957Y118143D01*
X28423Y117609D01*
X28251Y117622D01*
X27895Y117788D01*
X27847Y118028D01*
X27632Y118351D01*
X27309Y118566D01*
X26928Y118642D01*
X26377D01*
X26275Y118622D01*
X25757Y118830D01*
X25657Y118940D01*
X25477Y119209D01*
X25477Y119209D01*
X25372Y119315D01*
X25563Y119776D01*
X68373D01*
X68640Y119276D01*
D02*
G37*
G36*
X63915Y106670D02*
X65225D01*
Y106131D01*
X65033Y105984D01*
X64600Y105420D01*
X64328Y104763D01*
X64235Y104058D01*
X64328Y103353D01*
X64600Y102697D01*
X65033Y102133D01*
X65597Y101700D01*
X66253Y101428D01*
X66958Y101335D01*
X67663Y101428D01*
X68320Y101700D01*
X68418Y101775D01*
X68863Y101487D01*
X68767Y101000D01*
X68899Y100337D01*
X69274Y99774D01*
X69837Y99399D01*
X70500Y99267D01*
X70623Y99291D01*
X71009Y98905D01*
X70690Y98517D01*
X70563Y98601D01*
X69900Y98733D01*
X69237Y98601D01*
X68674Y98226D01*
X68299Y97663D01*
X68167Y97000D01*
X68299Y96337D01*
X68674Y95774D01*
X69237Y95399D01*
X69584Y95329D01*
X69924Y94990D01*
X69758Y94449D01*
X69274Y94126D01*
X68899Y93563D01*
X68767Y92900D01*
X68899Y92237D01*
X69274Y91674D01*
X69768Y91344D01*
X69776Y91323D01*
X69808Y91026D01*
X69784Y90799D01*
X69374Y90526D01*
X68999Y89963D01*
X68867Y89300D01*
X68999Y88637D01*
X69374Y88074D01*
X69937Y87699D01*
X70600Y87567D01*
X70723Y87591D01*
X71122Y87192D01*
X71486Y86949D01*
X71601Y86926D01*
X71552Y86426D01*
X71470D01*
Y86231D01*
X70970Y85963D01*
X70561Y86237D01*
X69800Y86388D01*
X69039Y86237D01*
X68394Y85806D01*
X67963Y85161D01*
X67812Y84400D01*
Y83200D01*
X67963Y82439D01*
X68394Y81794D01*
X70058Y80130D01*
X70049Y80009D01*
X69893Y79630D01*
X68942D01*
Y79930D01*
X67458D01*
Y77276D01*
X66458D01*
Y79930D01*
X66049D01*
X65842Y80430D01*
X66406Y80994D01*
X66837Y81639D01*
X66988Y82400D01*
X66837Y83161D01*
X66406Y83806D01*
X65761Y84237D01*
X65000Y84388D01*
X64239Y84237D01*
X63594Y83806D01*
X62009Y82221D01*
X61578Y81576D01*
X61427Y80815D01*
Y79930D01*
X60372D01*
Y77276D01*
X59372D01*
Y79930D01*
X57887D01*
Y79630D01*
X57350D01*
Y81849D01*
X57890Y82210D01*
X58266Y82772D01*
X58398Y83436D01*
X58373Y83559D01*
X58893Y84079D01*
X58893Y84079D01*
X59136Y84442D01*
X59222Y84872D01*
X59222Y84872D01*
Y97321D01*
X59136Y97751D01*
X58893Y98114D01*
X58893Y98114D01*
X56506Y100501D01*
X56586Y100622D01*
X56718Y101285D01*
X56650Y101627D01*
X56997Y102063D01*
X57032Y102073D01*
X57663Y102199D01*
X58226Y102574D01*
X58601Y103137D01*
X58733Y103800D01*
X58601Y104463D01*
X58226Y105026D01*
X57663Y105401D01*
X57000Y105533D01*
X56337Y105401D01*
X55774Y105026D01*
X55705Y104922D01*
X54480D01*
X52893Y106508D01*
X53085Y106970D01*
X54469D01*
Y106970D01*
X54644D01*
Y106970D01*
X58013D01*
Y106970D01*
X58187D01*
Y106970D01*
X61431D01*
Y106670D01*
X62915D01*
Y109324D01*
X63915D01*
Y106670D01*
D02*
G37*
G36*
X30235Y107105D02*
X30150Y107074D01*
X30075Y107024D01*
X30010Y106953D01*
X29955Y106862D01*
X29910Y106751D01*
X29875Y106619D01*
X29850Y106467D01*
X29835Y106295D01*
X29830Y106103D01*
X28830D01*
X28825Y106295D01*
X28810Y106467D01*
X28785Y106619D01*
X28750Y106751D01*
X28705Y106862D01*
X28650Y106953D01*
X28585Y107024D01*
X28510Y107074D01*
X28425Y107105D01*
X28330Y107115D01*
X30330D01*
X30235Y107105D01*
D02*
G37*
G36*
X27073Y103345D02*
X27068Y103330D01*
X27065Y103305D01*
X27062Y103270D01*
X27054Y103032D01*
X27053Y102853D01*
X26253D01*
X26228Y103350D01*
X27077D01*
X27073Y103345D01*
D02*
G37*
G36*
X23216Y103407D02*
X23195Y103353D01*
X23176Y103288D01*
X23160Y103212D01*
X23147Y103124D01*
X23127Y102916D01*
X23117Y102662D01*
X23116Y102519D01*
X22316D01*
X22314Y102662D01*
X22285Y103124D01*
X22271Y103212D01*
X22255Y103288D01*
X22237Y103353D01*
X22215Y103407D01*
X22192Y103450D01*
X23240D01*
X23216Y103407D01*
D02*
G37*
G36*
X29835Y103566D02*
X29850Y103377D01*
X29875Y103214D01*
X29910Y103076D01*
X29955Y102962D01*
X30010Y102873D01*
X30075Y102809D01*
X30150Y102770D01*
X30235Y102756D01*
X30330Y102767D01*
X29026Y102464D01*
X28989Y102424D01*
X28956Y102421D01*
X28926Y102456D01*
X28901Y102528D01*
X28879Y102638D01*
X28861Y102785D01*
X28838Y103190D01*
X28830Y103746D01*
X29830Y103779D01*
X29835Y103566D01*
D02*
G37*
G36*
X38844Y102654D02*
X38776Y102630D01*
X38716Y102590D01*
X38664Y102534D01*
X38620Y102462D01*
X38584Y102374D01*
X38556Y102270D01*
X38537Y102156D01*
X38556Y102040D01*
X38584Y101935D01*
X38620Y101845D01*
X38664Y101772D01*
X38716Y101715D01*
X38776Y101675D01*
X38844Y101650D01*
X38920Y101642D01*
X37320D01*
X37396Y101650D01*
X37464Y101675D01*
X37524Y101715D01*
X37576Y101772D01*
X37620Y101845D01*
X37656Y101935D01*
X37684Y102040D01*
X37703Y102156D01*
X37684Y102270D01*
X37656Y102374D01*
X37620Y102462D01*
X37576Y102534D01*
X37524Y102590D01*
X37464Y102630D01*
X37396Y102654D01*
X37320Y102662D01*
X38920D01*
X38844Y102654D01*
D02*
G37*
G36*
X28989Y100776D02*
X29026Y100736D01*
X30330Y100433D01*
X30235Y100444D01*
X30150Y100430D01*
X30075Y100391D01*
X30010Y100327D01*
X29955Y100238D01*
X29910Y100125D01*
X29875Y99986D01*
X29850Y99823D01*
X29835Y99634D01*
X29830Y99421D01*
X28830Y99454D01*
X28832Y99751D01*
X28901Y100672D01*
X28926Y100744D01*
X28956Y100778D01*
X28989Y100776D01*
D02*
G37*
G36*
X55744Y100623D02*
X55721Y100566D01*
X55710Y100507D01*
X55710Y100445D01*
X55723Y100382D01*
X55747Y100315D01*
X55783Y100247D01*
X55830Y100176D01*
X55889Y100102D01*
X55961Y100026D01*
X55268Y99588D01*
X54468Y100429D01*
X55779Y100677D01*
X55744Y100623D01*
D02*
G37*
G36*
X54773Y99093D02*
X54334Y98400D01*
X54258Y98471D01*
X54185Y98531D01*
X54114Y98578D01*
X54045Y98614D01*
X53979Y98638D01*
X53915Y98650D01*
X53854Y98651D01*
X53795Y98640D01*
X53738Y98617D01*
X53684Y98582D01*
X53931Y99893D01*
X54773Y99093D01*
D02*
G37*
G36*
X78804Y99123D02*
X78736Y99099D01*
X78676Y99058D01*
X78624Y99001D01*
X78580Y98928D01*
X78544Y98839D01*
X78516Y98733D01*
X78497Y98617D01*
X78516Y98503D01*
X78544Y98399D01*
X78580Y98311D01*
X78624Y98239D01*
X78676Y98183D01*
X78736Y98143D01*
X78804Y98119D01*
X78880Y98111D01*
X77280D01*
X77356Y98119D01*
X77424Y98143D01*
X77484Y98183D01*
X77536Y98239D01*
X77580Y98311D01*
X77616Y98399D01*
X77644Y98503D01*
X77663Y98617D01*
X77644Y98733D01*
X77616Y98839D01*
X77580Y98928D01*
X77536Y99001D01*
X77484Y99058D01*
X77424Y99099D01*
X77356Y99123D01*
X77280Y99131D01*
X78880D01*
X78804Y99123D01*
D02*
G37*
G36*
X38844Y99111D02*
X38776Y99087D01*
X38716Y99047D01*
X38664Y98991D01*
X38620Y98919D01*
X38584Y98831D01*
X38556Y98727D01*
X38537Y98613D01*
X38556Y98497D01*
X38584Y98391D01*
X38620Y98302D01*
X38664Y98229D01*
X38716Y98172D01*
X38776Y98131D01*
X38844Y98107D01*
X38920Y98099D01*
X37320D01*
X37396Y98107D01*
X37464Y98131D01*
X37524Y98172D01*
X37576Y98229D01*
X37620Y98302D01*
X37656Y98391D01*
X37684Y98497D01*
X37703Y98613D01*
X37684Y98727D01*
X37656Y98831D01*
X37620Y98919D01*
X37576Y98991D01*
X37524Y99047D01*
X37464Y99087D01*
X37396Y99111D01*
X37320Y99119D01*
X38920D01*
X38844Y99111D01*
D02*
G37*
G36*
X23120Y98642D02*
X23132Y98504D01*
X23152Y98382D01*
X23180Y98277D01*
X23216Y98187D01*
X23260Y98114D01*
X23312Y98057D01*
X23372Y98017D01*
X23440Y97992D01*
X23516Y97984D01*
X21916D01*
X21992Y97992D01*
X22060Y98017D01*
X22120Y98057D01*
X22172Y98114D01*
X22216Y98187D01*
X22252Y98277D01*
X22280Y98382D01*
X22300Y98504D01*
X22312Y98642D01*
X22316Y98796D01*
X23116D01*
X23120Y98642D01*
D02*
G37*
G36*
X72482Y99587D02*
Y97887D01*
X72476Y98000D01*
X72460Y98113D01*
X72431Y98226D01*
X72392Y98339D01*
X72341Y98452D01*
X72278Y98565D01*
X72205Y98678D01*
X72120Y98792D01*
X72024Y98905D01*
X71916Y99018D01*
Y100149D01*
X72482Y99587D01*
D02*
G37*
G36*
X91060Y95881D02*
X91055Y95848D01*
X91058Y95813D01*
X91068Y95775D01*
X91086Y95734D01*
X91110Y95690D01*
X91142Y95643D01*
X91182Y95592D01*
X91229Y95539D01*
X91283Y95483D01*
X90658Y94976D01*
X90577Y95056D01*
X90228Y95361D01*
X90192Y95383D01*
X90162Y95397D01*
X90139Y95402D01*
X91071Y95910D01*
X91060Y95881D01*
D02*
G37*
G36*
X72482Y94300D02*
X72474Y94376D01*
X72450Y94444D01*
X72410Y94504D01*
X72354Y94556D01*
X72282Y94600D01*
X72194Y94636D01*
X72090Y94664D01*
X71970Y94684D01*
X71834Y94696D01*
X71682Y94700D01*
Y95500D01*
X71834Y95504D01*
X71970Y95516D01*
X72090Y95536D01*
X72194Y95564D01*
X72282Y95600D01*
X72354Y95644D01*
X72410Y95696D01*
X72450Y95756D01*
X72474Y95824D01*
X72482Y95900D01*
Y94300D01*
D02*
G37*
G36*
X71462Y92599D02*
X71457Y92520D01*
X71462Y92443D01*
X71476Y92365D01*
X71499Y92289D01*
X71531Y92212D01*
X71573Y92137D01*
X71623Y92062D01*
X71683Y91988D01*
X71737Y91930D01*
X71834Y91932D01*
X71970Y91944D01*
X72090Y91964D01*
X72194Y91992D01*
X72282Y92028D01*
X72354Y92072D01*
X72410Y92124D01*
X72450Y92184D01*
X72474Y92252D01*
X72482Y92328D01*
Y90728D01*
X72474Y90804D01*
X72450Y90872D01*
X72410Y90932D01*
X72354Y90984D01*
X72282Y91028D01*
X72194Y91064D01*
X72090Y91092D01*
X71970Y91112D01*
X71834Y91124D01*
X71682Y91128D01*
Y91871D01*
X71051Y91484D01*
X70979Y91552D01*
X70834Y91672D01*
X70760Y91724D01*
X70685Y91770D01*
X70609Y91811D01*
X70533Y91847D01*
X70455Y91877D01*
X70377Y91901D01*
X70298Y91921D01*
X71475Y92678D01*
X71462Y92599D01*
D02*
G37*
G36*
X81237Y99499D02*
X81900Y99367D01*
X81976Y99382D01*
X82346Y98988D01*
Y97332D01*
X82346Y97332D01*
X82432Y96903D01*
X82675Y96539D01*
X86578Y92635D01*
Y88422D01*
X86137Y88186D01*
X85858Y88372D01*
X85000Y88543D01*
X84142Y88372D01*
X83414Y87886D01*
X82928Y87158D01*
X82757Y86300D01*
X82928Y85442D01*
X83414Y84714D01*
X84142Y84228D01*
X85000Y84057D01*
X85858Y84228D01*
X86137Y84414D01*
X86578Y84178D01*
Y60961D01*
X86116Y60770D01*
X82322Y64564D01*
X81958Y64807D01*
X81529Y64892D01*
X81529Y64892D01*
X66515D01*
X66226Y65326D01*
X65891Y65549D01*
X65725Y65926D01*
X65791Y66171D01*
X66172Y66742D01*
X66343Y67600D01*
X66172Y68458D01*
X65686Y69186D01*
X64958Y69672D01*
X64100Y69843D01*
X63242Y69672D01*
X62514Y69186D01*
X62028Y68458D01*
X61857Y67600D01*
X62028Y66742D01*
X62514Y66014D01*
X63242Y65528D01*
X63300Y65516D01*
X63530Y64960D01*
X63399Y64763D01*
X63267Y64100D01*
X63367Y63596D01*
X62906Y63350D01*
X56253Y70003D01*
X56201Y70263D01*
X56016Y70540D01*
X56284Y71040D01*
X57600D01*
Y73320D01*
X58600D01*
Y71040D01*
X61143D01*
Y73320D01*
X62143D01*
Y71040D01*
X64687D01*
Y73320D01*
X65687D01*
Y71040D01*
X68230D01*
Y73320D01*
X69230D01*
Y71040D01*
X72659D01*
Y73320D01*
X73159D01*
Y73820D01*
X76324D01*
Y75076D01*
X77580D01*
Y78241D01*
X78080D01*
Y78741D01*
X80360D01*
Y80391D01*
Y82170D01*
X78080D01*
Y83170D01*
X80360D01*
Y83934D01*
Y85713D01*
X78080D01*
Y86713D01*
X80360D01*
Y87477D01*
Y89257D01*
X78080D01*
Y90257D01*
X80360D01*
Y91021D01*
Y92800D01*
X78080D01*
Y93800D01*
X80360D01*
Y94564D01*
Y96343D01*
X78080D01*
Y97343D01*
X80360D01*
Y99514D01*
X80860Y99750D01*
X81237Y99499D01*
D02*
G37*
G36*
X140390Y88500D02*
X140333Y88497D01*
X140273Y88485D01*
X140212Y88466D01*
X140148Y88439D01*
X140082Y88404D01*
X140013Y88361D01*
X139943Y88310D01*
X139870Y88251D01*
X139717Y88110D01*
X139010Y88817D01*
X139084Y88894D01*
X139210Y89043D01*
X139261Y89113D01*
X139304Y89182D01*
X139339Y89248D01*
X139366Y89312D01*
X139385Y89373D01*
X139397Y89433D01*
X139400Y89490D01*
X140390Y88500D01*
D02*
G37*
G36*
X72482Y87418D02*
X72476Y87450D01*
X72459Y87478D01*
X72431Y87503D01*
X72391Y87525D01*
X72340Y87543D01*
X72278Y87558D01*
X72204Y87570D01*
X72119Y87578D01*
X71915Y87585D01*
Y88385D01*
X72023Y88387D01*
X72204Y88400D01*
X72278Y88412D01*
X72340Y88427D01*
X72391Y88445D01*
X72431Y88467D01*
X72459Y88492D01*
X72476Y88520D01*
X72482Y88552D01*
Y87418D01*
D02*
G37*
G36*
X40447Y87185D02*
X40439Y87261D01*
X40414Y87329D01*
X40374Y87389D01*
X40317Y87441D01*
X40244Y87485D01*
X40154Y87521D01*
X40049Y87549D01*
X39927Y87569D01*
X39789Y87581D01*
X39635Y87585D01*
Y88385D01*
X39789Y88389D01*
X39927Y88401D01*
X40049Y88421D01*
X40154Y88449D01*
X40244Y88485D01*
X40317Y88529D01*
X40374Y88581D01*
X40414Y88641D01*
X40439Y88709D01*
X40447Y88785D01*
Y87185D01*
D02*
G37*
G36*
X111175Y88995D02*
X111206Y88910D01*
X111256Y88835D01*
X111327Y88770D01*
X111418Y88715D01*
X111529Y88670D01*
X111661Y88635D01*
X111813Y88610D01*
X111985Y88595D01*
X112177Y88590D01*
Y87590D01*
X111985Y87585D01*
X111813Y87570D01*
X111661Y87545D01*
X111529Y87510D01*
X111418Y87465D01*
X111327Y87410D01*
X111256Y87345D01*
X111206Y87270D01*
X111175Y87185D01*
X111165Y87090D01*
Y89090D01*
X111175Y88995D01*
D02*
G37*
G36*
X38528Y89033D02*
X38552Y88897D01*
X38592Y88777D01*
X38648Y88673D01*
X38720Y88585D01*
X38808Y88513D01*
X38852Y88489D01*
X38920D01*
X38863Y88483D01*
X38912Y88457D01*
X39032Y88417D01*
X39168Y88393D01*
X39320Y88385D01*
Y87585D01*
X39168Y87577D01*
X39032Y87553D01*
X38912Y87513D01*
X38845Y87477D01*
X38920Y87469D01*
X38830D01*
X38808Y87457D01*
X38720Y87385D01*
X38648Y87297D01*
X38592Y87193D01*
X38552Y87073D01*
X38528Y86937D01*
X38520Y86785D01*
X38292Y87469D01*
X37320D01*
X37396Y87477D01*
X37464Y87501D01*
X37524Y87542D01*
X37576Y87599D01*
X37620Y87672D01*
X37656Y87761D01*
X37684Y87867D01*
X37703Y87983D01*
X37684Y88097D01*
X37656Y88201D01*
X37620Y88289D01*
X37576Y88361D01*
X37524Y88417D01*
X37464Y88457D01*
X37396Y88481D01*
X37320Y88489D01*
X38288D01*
X38520Y89185D01*
X38528Y89033D01*
D02*
G37*
G36*
X46198Y106670D02*
X47683D01*
Y106970D01*
X49259D01*
X53222Y103007D01*
X53222Y103007D01*
X53439Y102862D01*
X53448Y102852D01*
X53587Y102369D01*
X53588Y102254D01*
X53384Y101948D01*
X53309Y101573D01*
X53076Y101109D01*
X52412Y100977D01*
X51850Y100601D01*
X51474Y100039D01*
X51342Y99376D01*
X51474Y98712D01*
X51850Y98150D01*
X52412Y97774D01*
X53076Y97642D01*
X53739Y97774D01*
X53859Y97855D01*
X55478Y96235D01*
Y86806D01*
X54398Y85726D01*
X53856Y85890D01*
X53801Y86163D01*
X53426Y86726D01*
X52863Y87101D01*
X52200Y87233D01*
X51537Y87101D01*
X50974Y86726D01*
X50599Y86163D01*
X50467Y85500D01*
X50491Y85377D01*
X49407Y84293D01*
X49164Y83929D01*
X49078Y83500D01*
X49078Y83500D01*
Y82592D01*
X48578Y82324D01*
X48463Y82401D01*
X47800Y82533D01*
X47137Y82401D01*
X46574Y82026D01*
X46199Y81463D01*
X46067Y80800D01*
X46199Y80137D01*
X46248Y80062D01*
X46150Y79858D01*
X46121Y79815D01*
X46116Y79787D01*
X46040Y79630D01*
X44730D01*
Y80398D01*
X42076D01*
Y81398D01*
X44730D01*
Y82883D01*
X44430D01*
Y83377D01*
X44571Y83406D01*
X44935Y83649D01*
X46393Y85107D01*
X46393Y85107D01*
X46636Y85471D01*
X46722Y85900D01*
X46722Y85900D01*
Y87172D01*
X46726Y87174D01*
X47101Y87737D01*
X47233Y88400D01*
X47101Y89063D01*
X46726Y89626D01*
X46163Y90001D01*
X45500Y90133D01*
X44930Y90020D01*
X44547Y90223D01*
X44430Y90312D01*
Y93213D01*
X44430D01*
Y93387D01*
X44430D01*
Y96631D01*
X44730D01*
Y98115D01*
X42076D01*
Y99115D01*
X44730D01*
Y100599D01*
X44430D01*
Y103842D01*
X44430D01*
Y104017D01*
X44430D01*
Y106670D01*
X45198D01*
Y109324D01*
X46198D01*
Y106670D01*
D02*
G37*
G36*
X43722Y84861D02*
X43735Y84857D01*
X43756Y84853D01*
X43786Y84850D01*
X43926Y84844D01*
X44142Y84842D01*
Y84042D01*
X44061Y84042D01*
X43722Y84022D01*
X43718Y84018D01*
Y84866D01*
X43722Y84861D01*
D02*
G37*
G36*
X75761Y85166D02*
X75786Y85098D01*
X75826Y85038D01*
X75883Y84986D01*
X75956Y84942D01*
X76046Y84906D01*
X76151Y84878D01*
X76273Y84858D01*
X76411Y84846D01*
X76565Y84842D01*
Y84042D01*
X76411Y84038D01*
X76273Y84026D01*
X76151Y84006D01*
X76046Y83978D01*
X75956Y83942D01*
X75883Y83898D01*
X75826Y83846D01*
X75786Y83786D01*
X75761Y83718D01*
X75753Y83642D01*
Y85242D01*
X75761Y85166D01*
D02*
G37*
G36*
X77908Y84958D02*
X78880D01*
X78804Y84950D01*
X78736Y84925D01*
X78676Y84885D01*
X78624Y84828D01*
X78580Y84755D01*
X78544Y84666D01*
X78516Y84560D01*
X78497Y84444D01*
X78516Y84330D01*
X78544Y84226D01*
X78580Y84138D01*
X78624Y84066D01*
X78676Y84010D01*
X78736Y83970D01*
X78804Y83946D01*
X78880Y83938D01*
X77912D01*
X77680Y83242D01*
X77672Y83394D01*
X77648Y83530D01*
X77608Y83650D01*
X77552Y83754D01*
X77480Y83842D01*
X77392Y83914D01*
X77348Y83938D01*
X77280D01*
X77337Y83944D01*
X77288Y83970D01*
X77168Y84010D01*
X77032Y84034D01*
X76880Y84042D01*
Y84842D01*
X77032Y84850D01*
X77168Y84874D01*
X77288Y84914D01*
X77355Y84950D01*
X77280Y84958D01*
X77370D01*
X77392Y84970D01*
X77480Y85042D01*
X77552Y85130D01*
X77608Y85234D01*
X77648Y85354D01*
X77672Y85490D01*
X77680Y85642D01*
X77908Y84958D01*
D02*
G37*
G36*
X54001Y83177D02*
X53933Y83104D01*
X53872Y83030D01*
X53820Y82955D01*
X53776Y82879D01*
X53740Y82801D01*
X53711Y82723D01*
X53692Y82644D01*
X53680Y82563D01*
X53676Y82482D01*
X53680Y82399D01*
X52605Y83297D01*
X52688Y83307D01*
X52770Y83323D01*
X52851Y83346D01*
X52930Y83375D01*
X53008Y83411D01*
X53085Y83453D01*
X53160Y83502D01*
X53235Y83557D01*
X53308Y83619D01*
X53380Y83687D01*
X54001Y83177D01*
D02*
G37*
G36*
X56983Y82488D02*
X56916Y82460D01*
X56855Y82424D01*
X56802Y82379D01*
X56756Y82327D01*
X56717Y82266D01*
X56685Y82196D01*
X56660Y82119D01*
X56643Y82033D01*
X56632Y81939D01*
X56628Y81836D01*
X55828Y81936D01*
X55827Y82106D01*
X55780Y82868D01*
X55765Y82952D01*
X55748Y83023D01*
X55729Y83081D01*
X56983Y82488D01*
D02*
G37*
G36*
X53328Y81525D02*
X53277Y81460D01*
X53232Y81390D01*
X53193Y81316D01*
X53160Y81238D01*
X53133Y81156D01*
X53112Y81069D01*
X53097Y80978D01*
X53088Y80883D01*
X53085Y80783D01*
X52285D01*
X52282Y80883D01*
X52273Y80978D01*
X52258Y81069D01*
X52237Y81156D01*
X52210Y81238D01*
X52177Y81316D01*
X52138Y81390D01*
X52093Y81460D01*
X52042Y81525D01*
X51985Y81586D01*
X53385D01*
X53328Y81525D01*
D02*
G37*
G36*
X40435Y79926D02*
X40429Y79952D01*
X40412Y79963D01*
X40384Y79959D01*
X40344Y79941D01*
X40293Y79908D01*
X40231Y79861D01*
X40073Y79722D01*
X39921Y79575D01*
X39845Y79495D01*
X39749Y79382D01*
X39664Y79269D01*
X39591Y79156D01*
X39529Y79043D01*
X39478Y78930D01*
X39438Y78816D01*
X39410Y78703D01*
X39393Y78590D01*
X39387Y78477D01*
Y80394D01*
X39393Y80358D01*
X39410Y80338D01*
X39438Y80333D01*
X39478Y80344D01*
X39529Y80371D01*
X39591Y80413D01*
X39664Y80471D01*
X39772Y80569D01*
X40024Y80861D01*
X40135Y81011D01*
X40230Y81155D01*
X40307Y81294D01*
X40368Y81426D01*
X40411Y81553D01*
X40438Y81673D01*
X40447Y81788D01*
X40435Y79926D01*
D02*
G37*
G36*
X56632Y79564D02*
X56644Y79426D01*
X56664Y79304D01*
X56692Y79198D01*
X56728Y79109D01*
X56772Y79036D01*
X56824Y78979D01*
X56884Y78938D01*
X56952Y78914D01*
X57028Y78906D01*
X55428D01*
X55504Y78914D01*
X55572Y78938D01*
X55632Y78979D01*
X55684Y79036D01*
X55728Y79109D01*
X55764Y79198D01*
X55792Y79304D01*
X55812Y79426D01*
X55824Y79564D01*
X55828Y79718D01*
X56628D01*
X56632Y79564D01*
D02*
G37*
G36*
X53089D02*
X53101Y79426D01*
X53121Y79304D01*
X53149Y79198D01*
X53185Y79109D01*
X53229Y79036D01*
X53281Y78979D01*
X53341Y78938D01*
X53409Y78914D01*
X53485Y78906D01*
X51885D01*
X51961Y78914D01*
X52029Y78938D01*
X52089Y78979D01*
X52141Y79036D01*
X52185Y79109D01*
X52221Y79198D01*
X52249Y79304D01*
X52269Y79426D01*
X52281Y79564D01*
X52285Y79718D01*
X53085D01*
X53089Y79564D01*
D02*
G37*
G36*
X50214Y78918D02*
X49400Y78906D01*
X49476Y78915D01*
X49544Y78940D01*
X49604Y78982D01*
X49656Y79039D01*
X49700Y79112D01*
X49736Y79201D01*
X49764Y79306D01*
X49784Y79427D01*
X49796Y79565D01*
X49800Y79718D01*
X50600D01*
X50214Y78918D01*
D02*
G37*
G36*
X111175Y80215D02*
X111206Y80130D01*
X111256Y80055D01*
X111327Y79990D01*
X111418Y79935D01*
X111529Y79890D01*
X111661Y79855D01*
X111813Y79830D01*
X111985Y79815D01*
X112177Y79810D01*
Y78810D01*
X111985Y78805D01*
X111813Y78790D01*
X111661Y78765D01*
X111529Y78730D01*
X111418Y78685D01*
X111327Y78630D01*
X111256Y78565D01*
X111206Y78490D01*
X111175Y78405D01*
X111165Y78310D01*
Y80310D01*
X111175Y80215D01*
D02*
G37*
G36*
X47236Y78349D02*
X47127Y78236D01*
X46943Y78020D01*
X46868Y77917D01*
X46805Y77818D01*
X46753Y77722D01*
X46712Y77630D01*
X46683Y77542D01*
X46665Y77457D01*
X46659Y77375D01*
X46671Y78918D01*
X46673Y78919D01*
X46679Y78925D01*
X46875Y79118D01*
X47236Y78349D01*
D02*
G37*
G36*
X53289Y72520D02*
X53281Y72596D01*
X53257Y72664D01*
X53217Y72724D01*
X53161Y72776D01*
X53089Y72820D01*
X53001Y72856D01*
X52897Y72884D01*
X52783Y72903D01*
X52667Y72884D01*
X52561Y72856D01*
X52472Y72820D01*
X52399Y72776D01*
X52342Y72724D01*
X52301Y72664D01*
X52277Y72596D01*
X52269Y72520D01*
Y74120D01*
X52277Y74044D01*
X52301Y73976D01*
X52342Y73916D01*
X52399Y73864D01*
X52472Y73820D01*
X52561Y73784D01*
X52667Y73756D01*
X52783Y73737D01*
X52897Y73756D01*
X53001Y73784D01*
X53089Y73820D01*
X53161Y73864D01*
X53217Y73916D01*
X53257Y73976D01*
X53281Y74044D01*
X53289Y74120D01*
Y72520D01*
D02*
G37*
G36*
X56832D02*
X56824Y72596D01*
X56801Y72664D01*
X56761Y72724D01*
X56704Y72776D01*
X56633Y72820D01*
X56545Y72856D01*
X56441Y72884D01*
X56326Y72903D01*
X56210Y72884D01*
X56104Y72856D01*
X56015Y72820D01*
X55942Y72776D01*
X55885Y72724D01*
X55845Y72664D01*
X55820Y72596D01*
X55812Y72520D01*
Y74120D01*
X55820Y74044D01*
X55845Y73976D01*
X55885Y73916D01*
X55942Y73864D01*
X56015Y73820D01*
X56104Y73784D01*
X56210Y73756D01*
X56326Y73737D01*
X56441Y73756D01*
X56545Y73784D01*
X56633Y73820D01*
X56704Y73864D01*
X56761Y73916D01*
X56801Y73976D01*
X56824Y74044D01*
X56832Y74120D01*
Y72520D01*
D02*
G37*
G36*
X49746D02*
X49738Y72596D01*
X49714Y72664D01*
X49674Y72724D01*
X49618Y72776D01*
X49546Y72820D01*
X49458Y72856D01*
X49354Y72884D01*
X49240Y72903D01*
X49123Y72884D01*
X49018Y72856D01*
X48929Y72820D01*
X48856Y72776D01*
X48799Y72724D01*
X48758Y72664D01*
X48734Y72596D01*
X48726Y72520D01*
Y74120D01*
X48734Y74044D01*
X48758Y73976D01*
X48799Y73916D01*
X48856Y73864D01*
X48929Y73820D01*
X49018Y73784D01*
X49123Y73756D01*
X49240Y73737D01*
X49354Y73756D01*
X49458Y73784D01*
X49546Y73820D01*
X49618Y73864D01*
X49674Y73916D01*
X49714Y73976D01*
X49738Y74044D01*
X49746Y74120D01*
Y72520D01*
D02*
G37*
G36*
X31245Y74424D02*
X31269Y74356D01*
X31310Y74296D01*
X31367Y74244D01*
X31440Y74200D01*
X31529Y74164D01*
X31635Y74136D01*
X31757Y74116D01*
X31895Y74104D01*
X32049Y74100D01*
Y73300D01*
X31895Y73296D01*
X31757Y73284D01*
X31635Y73264D01*
X31529Y73236D01*
X31440Y73200D01*
X31367Y73156D01*
X31310Y73104D01*
X31269Y73044D01*
X31245Y72976D01*
X31237Y72900D01*
Y74500D01*
X31245Y74424D01*
D02*
G37*
G36*
X53184Y70540D02*
X52999Y70263D01*
X52867Y69600D01*
X52999Y68937D01*
X53374Y68374D01*
X53937Y67999D01*
X54600Y67867D01*
X55115Y67969D01*
X61958Y61126D01*
X61958Y61126D01*
X62322Y60882D01*
X62751Y60797D01*
X80654D01*
X82236Y59215D01*
X82045Y58753D01*
X75847D01*
Y51447D01*
X83153D01*
Y57645D01*
X83615Y57837D01*
X84178Y57273D01*
Y46726D01*
X83678Y46459D01*
X83358Y46672D01*
X82500Y46843D01*
X82373Y46818D01*
X81734Y47456D01*
X81255Y47777D01*
X80689Y47889D01*
X78374D01*
X78142Y48045D01*
X77669Y48139D01*
X76331D01*
X75858Y48045D01*
X75626Y47889D01*
X74459D01*
X73893Y47777D01*
X73413Y47456D01*
X71617Y45660D01*
X71117Y45868D01*
Y47649D01*
X71119Y47658D01*
X71117Y47667D01*
Y48370D01*
X71050D01*
Y51788D01*
X71342Y51909D01*
X72105Y52495D01*
X72691Y53258D01*
X73059Y54146D01*
X73184Y55100D01*
X73059Y56054D01*
X72691Y56942D01*
X72105Y57705D01*
X71342Y58291D01*
X70454Y58659D01*
X69500Y58784D01*
X68546Y58659D01*
X67658Y58291D01*
X66895Y57705D01*
X66309Y56942D01*
X65941Y56054D01*
X65816Y55100D01*
X65941Y54146D01*
X66309Y53258D01*
X66895Y52495D01*
X67658Y51909D01*
X68546Y51541D01*
X68603Y51534D01*
Y48370D01*
X57871D01*
X57719Y48870D01*
X57726Y48874D01*
X58101Y49437D01*
X58233Y50100D01*
X58101Y50763D01*
X58012Y50897D01*
X58344Y51301D01*
X58468Y51249D01*
X59000Y51179D01*
Y55100D01*
Y59021D01*
X58468Y58951D01*
X57507Y58553D01*
X56681Y57919D01*
X56047Y57093D01*
X55922Y56792D01*
X55320Y56644D01*
X55020Y56845D01*
X54357Y56977D01*
X54234Y56952D01*
X48193Y62993D01*
X47829Y63236D01*
X47400Y63322D01*
X47400Y63322D01*
X45010D01*
X44715Y63822D01*
X44784Y64169D01*
X44734Y64419D01*
Y67162D01*
X44877Y67257D01*
X45090Y67576D01*
X48568D01*
X48642Y67528D01*
X49500Y67357D01*
X50358Y67528D01*
X51086Y68014D01*
X51572Y68742D01*
X51743Y69600D01*
X51572Y70458D01*
X51478Y70599D01*
X51714Y71040D01*
X52916D01*
X53184Y70540D01*
D02*
G37*
G36*
X121066Y66809D02*
X120944Y66788D01*
X120835Y66753D01*
X120739Y66704D01*
X120656Y66642D01*
X120585Y66566D01*
X120527Y66475D01*
X120483Y66372D01*
X120450Y66254D01*
X120431Y66123D01*
X120425Y65977D01*
X119525Y66219D01*
X119439Y67960D01*
X121066Y66809D01*
D02*
G37*
G36*
X65942Y64459D02*
X65986Y64398D01*
X66037Y64345D01*
X66096Y64299D01*
X66162Y64260D01*
X66234Y64228D01*
X66314Y64203D01*
X66402Y64185D01*
X66496Y64174D01*
X66597Y64171D01*
X66284Y63371D01*
X66185Y63369D01*
X65997Y63356D01*
X65908Y63344D01*
X65740Y63311D01*
X65661Y63289D01*
X65513Y63236D01*
X65444Y63204D01*
X65905Y64526D01*
X65942Y64459D01*
D02*
G37*
G36*
X133904Y62516D02*
X133916Y62375D01*
X133936Y62252D01*
X133964Y62144D01*
X133999Y62053D01*
X134043Y61979D01*
X134095Y61921D01*
X134154Y61880D01*
X134222Y61855D01*
X134298Y61847D01*
X132702D01*
X132778Y61855D01*
X132845Y61880D01*
X132905Y61921D01*
X132957Y61979D01*
X133001Y62053D01*
X133036Y62144D01*
X133064Y62252D01*
X133084Y62375D01*
X133096Y62516D01*
X133100Y62673D01*
X133900D01*
X133904Y62516D01*
D02*
G37*
G36*
X43865Y62645D02*
X43900Y62636D01*
X43950Y62627D01*
X44014Y62620D01*
X44293Y62605D01*
X44703Y62600D01*
Y61800D01*
X44552Y61800D01*
X43865Y61755D01*
X43844Y61744D01*
Y62656D01*
X43865Y62645D01*
D02*
G37*
G36*
X122990Y61450D02*
X122920Y61447D01*
X122849Y61436D01*
X122777Y61418D01*
X122706Y61392D01*
X122633Y61358D01*
X122560Y61317D01*
X122486Y61268D01*
X122412Y61212D01*
X122338Y61148D01*
X122263Y61076D01*
X121626Y61712D01*
X121698Y61788D01*
X121818Y61936D01*
X121867Y62010D01*
X121908Y62083D01*
X121942Y62156D01*
X121968Y62227D01*
X121986Y62299D01*
X121997Y62370D01*
X122000Y62440D01*
X122990Y61450D01*
D02*
G37*
G36*
X101505Y60154D02*
X101520Y59979D01*
X101545Y59825D01*
X101580Y59691D01*
X101624Y59578D01*
X101679Y59485D01*
X101744Y59413D01*
X101819Y59362D01*
X101903Y59331D01*
X101998Y59321D01*
X100002D01*
X100097Y59331D01*
X100181Y59362D01*
X100256Y59413D01*
X100321Y59485D01*
X100376Y59578D01*
X100420Y59691D01*
X100455Y59825D01*
X100480Y59979D01*
X100495Y60154D01*
X100500Y60349D01*
X101500D01*
X101505Y60154D01*
D02*
G37*
G36*
X107792Y58355D02*
X107817Y58288D01*
X107857Y58227D01*
X107914Y58175D01*
X107987Y58131D01*
X108077Y58096D01*
X108182Y58068D01*
X108304Y58047D01*
X108442Y58035D01*
X108596Y58031D01*
Y57231D01*
X108442Y57227D01*
X108304Y57215D01*
X108182Y57196D01*
X108077Y57168D01*
X107987Y57131D01*
X107914Y57087D01*
X107857Y57035D01*
X107817Y56976D01*
X107792Y56907D01*
X107784Y56832D01*
Y58432D01*
X107792Y58355D01*
D02*
G37*
G36*
X134614Y57926D02*
X134676Y57864D01*
X134748Y57809D01*
X134828Y57762D01*
X134917Y57721D01*
X135015Y57688D01*
X135123Y57663D01*
X135239Y57644D01*
X135364Y57634D01*
X135498Y57630D01*
Y56830D01*
X135364Y56826D01*
X135239Y56815D01*
X135123Y56797D01*
X135015Y56771D01*
X134917Y56739D01*
X134828Y56698D01*
X134748Y56651D01*
X134676Y56596D01*
X134614Y56534D01*
X134561Y56464D01*
Y57995D01*
X134614Y57926D01*
D02*
G37*
G36*
X125916Y56979D02*
X125928Y56843D01*
X125948Y56723D01*
X125976Y56619D01*
X126012Y56531D01*
X126056Y56459D01*
X126108Y56403D01*
X126168Y56363D01*
X126236Y56339D01*
X126312Y56331D01*
X124712D01*
X124788Y56339D01*
X124856Y56363D01*
X124916Y56403D01*
X124968Y56459D01*
X125012Y56531D01*
X125048Y56619D01*
X125076Y56723D01*
X125096Y56843D01*
X125108Y56979D01*
X125112Y57131D01*
X125912D01*
X125916Y56979D01*
D02*
G37*
G36*
X114221Y56788D02*
X114336Y56690D01*
X114450Y56604D01*
X114563Y56529D01*
X114677Y56465D01*
X114790Y56413D01*
X114902Y56373D01*
X115014Y56343D01*
X115126Y56326D01*
X115238Y56319D01*
X113122Y56331D01*
X113196Y56337D01*
X113250Y56354D01*
X113285Y56382D01*
X113300Y56422D01*
X113295Y56473D01*
X113270Y56535D01*
X113226Y56608D01*
X113162Y56693D01*
X113078Y56789D01*
X112975Y56897D01*
X114107D01*
X114221Y56788D01*
D02*
G37*
G36*
X137216Y54400D02*
X137234Y54466D01*
X137232Y54526D01*
X137211Y54579D01*
X137169Y54624D01*
X137108Y54663D01*
X137027Y54694D01*
X136926Y54719D01*
X136805Y54736D01*
X136664Y54747D01*
X136504Y54750D01*
X136708Y55450D01*
X136833Y55453D01*
X137068Y55474D01*
X137179Y55493D01*
X137285Y55517D01*
X137387Y55547D01*
X137483Y55582D01*
X137576Y55622D01*
X137663Y55668D01*
X137746Y55719D01*
X137216Y54400D01*
D02*
G37*
G36*
X55000Y54468D02*
X54949Y54403D01*
X54904Y54333D01*
X54865Y54260D01*
X54832Y54181D01*
X54805Y54099D01*
X54784Y54013D01*
X54769Y53922D01*
X54760Y53826D01*
X54757Y53727D01*
X53957D01*
X53954Y53826D01*
X53945Y53922D01*
X53930Y54013D01*
X53909Y54099D01*
X53882Y54181D01*
X53849Y54260D01*
X53810Y54333D01*
X53765Y54403D01*
X53714Y54468D01*
X53657Y54529D01*
X55057D01*
X55000Y54468D01*
D02*
G37*
G36*
X52303Y54217D02*
X52312Y54122D01*
X52327Y54031D01*
X52348Y53944D01*
X52375Y53862D01*
X52408Y53784D01*
X52447Y53710D01*
X52492Y53640D01*
X52543Y53575D01*
X52600Y53514D01*
X51200D01*
X51257Y53575D01*
X51308Y53640D01*
X51353Y53710D01*
X51392Y53784D01*
X51425Y53862D01*
X51452Y53944D01*
X51473Y54031D01*
X51488Y54122D01*
X51497Y54217D01*
X51500Y54317D01*
X52300D01*
X52303Y54217D01*
D02*
G37*
G36*
X128022Y52141D02*
X127944Y52200D01*
X127863Y52252D01*
X127781Y52299D01*
X127698Y52339D01*
X127613Y52373D01*
X127526Y52401D01*
X127438Y52422D01*
X127348Y52438D01*
X127334Y52439D01*
X126878Y52418D01*
Y53182D01*
X126885Y53176D01*
X126906Y53170D01*
X126941Y53166D01*
X127053Y53158D01*
X127182Y53156D01*
X127256Y53165D01*
X127344Y53184D01*
X127428Y53211D01*
X127508Y53245D01*
X127584Y53287D01*
X127655Y53336D01*
X127723Y53393D01*
X127787Y53458D01*
X127847Y53530D01*
X128022Y52141D01*
D02*
G37*
G36*
X103362Y52913D02*
X103218Y52763D01*
X102988Y52488D01*
X102901Y52363D01*
X102834Y52246D01*
X102786Y52137D01*
X102757Y52036D01*
X102747Y51943D01*
X102756Y51858D01*
X102784Y51781D01*
X102016Y53254D01*
X102060Y53193D01*
X102116Y53154D01*
X102184Y53138D01*
X102263Y53145D01*
X102355Y53176D01*
X102458Y53229D01*
X102573Y53305D01*
X102700Y53404D01*
X102839Y53526D01*
X102989Y53671D01*
X103362Y52913D01*
D02*
G37*
G36*
X52543Y52025D02*
X52492Y51960D01*
X52447Y51890D01*
X52408Y51816D01*
X52375Y51738D01*
X52348Y51656D01*
X52327Y51569D01*
X52312Y51478D01*
X52303Y51383D01*
X52300Y51284D01*
X51500D01*
X51497Y51383D01*
X51488Y51478D01*
X51473Y51569D01*
X51452Y51656D01*
X51425Y51738D01*
X51392Y51816D01*
X51353Y51890D01*
X51308Y51960D01*
X51257Y52025D01*
X51200Y52086D01*
X52600D01*
X52543Y52025D01*
D02*
G37*
G36*
X100299Y49863D02*
X100247Y49894D01*
X100184Y49906D01*
X100112Y49899D01*
X100029Y49874D01*
X99936Y49829D01*
X99834Y49766D01*
X99721Y49684D01*
X99598Y49583D01*
X99321Y49324D01*
X98717Y49851D01*
X98855Y49993D01*
X99071Y50244D01*
X99150Y50354D01*
X99209Y50453D01*
X99250Y50542D01*
X99270Y50620D01*
X99272Y50687D01*
X99253Y50743D01*
X99216Y50789D01*
X100299Y49863D01*
D02*
G37*
G36*
X106903Y49869D02*
X106818Y49838D01*
X106744Y49787D01*
X106679Y49715D01*
X106624Y49622D01*
X106580Y49509D01*
X106545Y49375D01*
X106520Y49221D01*
X106505Y49046D01*
X106500Y48851D01*
X105500D01*
X105495Y49046D01*
X105480Y49221D01*
X105455Y49375D01*
X105420Y49509D01*
X105376Y49622D01*
X105321Y49715D01*
X105256Y49787D01*
X105182Y49838D01*
X105097Y49869D01*
X105002Y49879D01*
X106998D01*
X106903Y49869D01*
D02*
G37*
G36*
X48095Y49954D02*
X49040Y50102D01*
X48970Y49990D01*
X48908Y49874D01*
X48853Y49755D01*
X48805Y49631D01*
X48765Y49504D01*
X48732Y49373D01*
X48706Y49237D01*
X48688Y49098D01*
X48677Y48955D01*
X48673Y48808D01*
X47673Y48787D01*
X47668Y48996D01*
X47653Y49180D01*
X47628Y49342D01*
X47594Y49479D01*
X47549Y49594D01*
X47521Y49639D01*
X47433Y49577D01*
X47259Y49438D01*
X46873Y49080D01*
X46014Y49635D01*
X46220Y49848D01*
X46543Y50226D01*
X46659Y50392D01*
X46746Y50541D01*
X46803Y50674D01*
X46830Y50792D01*
X46828Y50894D01*
X46795Y50980D01*
X46733Y51050D01*
X48095Y49954D01*
D02*
G37*
G36*
X45693Y48108D02*
X45484Y48103D01*
X45301Y48088D01*
X45145Y48063D01*
X45014Y48028D01*
X44910Y47982D01*
X44833Y47927D01*
X44781Y47862D01*
X44756Y47787D01*
X44757Y47702D01*
X44780Y47624D01*
X44784Y47628D01*
X44781Y47619D01*
X44784Y47607D01*
X44780Y47617D01*
X44766Y47575D01*
X44789Y47488D01*
X44853Y47368D01*
X44958Y47214D01*
X45104Y47026D01*
X45520Y46550D01*
X46454Y45583D01*
X44686Y43815D01*
X44317Y44180D01*
X42835Y45482D01*
X42709Y45551D01*
X42618Y45578D01*
X42562Y45563D01*
X44225Y47109D01*
X42827Y48507D01*
X42986Y48532D01*
X43275Y48595D01*
X43405Y48634D01*
X43525Y48677D01*
X43637Y48725D01*
X43738Y48777D01*
X43830Y48834D01*
X43912Y48895D01*
X43985Y48961D01*
X44408Y48537D01*
X44254Y48919D01*
X44217Y48955D01*
X44219Y48987D01*
X44259Y49015D01*
X44338Y49039D01*
X44455Y49060D01*
X44611Y49077D01*
X45038Y49100D01*
X45620Y49107D01*
X45693Y48108D01*
D02*
G37*
G36*
X56801Y49146D02*
X56734Y49120D01*
X56674Y49085D01*
X56621Y49041D01*
X56574Y48990D01*
X56536Y48929D01*
X56504Y48861D01*
X56479Y48783D01*
X56461Y48698D01*
X56451Y48604D01*
X56447Y48501D01*
X55647Y48978D01*
X55646Y49083D01*
X55616Y49518D01*
X55605Y49587D01*
X55577Y49706D01*
X55561Y49757D01*
X56801Y49146D01*
D02*
G37*
G36*
X105490Y47383D02*
X104209Y46213D01*
X104071Y48150D01*
X104149Y48082D01*
X104231Y48032D01*
X104317Y48002D01*
X104406Y47991D01*
X104499Y47999D01*
X104595Y48026D01*
X104695Y48072D01*
X104798Y48136D01*
X104906Y48221D01*
X105017Y48324D01*
X105490Y47383D01*
D02*
G37*
G36*
X70328Y48468D02*
X70377Y47698D01*
X70390Y47668D01*
X70405Y47658D01*
X69248D01*
X69263Y47668D01*
X69276Y47698D01*
X69288Y47748D01*
X69298Y47818D01*
X69314Y48018D01*
X69327Y48658D01*
X70327D01*
X70328Y48468D01*
D02*
G37*
G36*
X56449Y48306D02*
X56476Y47946D01*
X56492Y47858D01*
X56511Y47786D01*
X56535Y47730D01*
X56561Y47690D01*
X56592Y47666D01*
X56626Y47658D01*
X55469D01*
X55503Y47666D01*
X55533Y47690D01*
X55560Y47730D01*
X55583Y47786D01*
X55603Y47858D01*
X55619Y47946D01*
X55631Y48050D01*
X55646Y48306D01*
X55647Y48458D01*
X56447D01*
X56449Y48306D01*
D02*
G37*
G36*
X52304D02*
X52315Y48170D01*
X52335Y48050D01*
X52362Y47946D01*
X52397Y47858D01*
X52440Y47786D01*
X52491Y47730D01*
X52549Y47690D01*
X52615Y47666D01*
X52689Y47658D01*
X51532D01*
X51526Y47666D01*
X51520Y47690D01*
X51516Y47730D01*
X51508Y47858D01*
X51500Y48458D01*
X52300D01*
X52304Y48306D01*
D02*
G37*
G36*
X48674Y48468D02*
X48724Y47698D01*
X48737Y47668D01*
X48752Y47658D01*
X47595D01*
X47610Y47668D01*
X47623Y47698D01*
X47635Y47748D01*
X47645Y47818D01*
X47661Y48018D01*
X47673Y48658D01*
X48673D01*
X48674Y48468D01*
D02*
G37*
G36*
X54657Y47658D02*
X53557Y47646D01*
X53633Y47655D01*
X53701Y47680D01*
X53761Y47721D01*
X53813Y47778D01*
X53857Y47851D01*
X53893Y47940D01*
X53921Y48046D01*
X53941Y48167D01*
X53953Y48305D01*
X53957Y48458D01*
X54757D01*
X54657Y47658D01*
D02*
G37*
G36*
X32616Y46700D02*
X32136Y45700D01*
X31100Y46080D01*
X30064Y45700D01*
X29583Y46700D01*
X30159Y46762D01*
X31043Y46102D01*
X31100Y46080D01*
X31157Y46102D01*
X32041Y46762D01*
X32616Y46700D01*
D02*
G37*
G36*
X29272Y45365D02*
X28265Y44756D01*
X28284Y46021D01*
X28308Y46000D01*
X28337Y45991D01*
X28373Y45993D01*
X28415Y46005D01*
X28464Y46028D01*
X28519Y46062D01*
X28580Y46107D01*
X28647Y46163D01*
X28800Y46307D01*
X29272Y45365D01*
D02*
G37*
G36*
X41746Y45618D02*
X41549Y45736D01*
X41328Y45842D01*
X41085Y45935D01*
X40819Y46015D01*
X40530Y46084D01*
X40218Y46140D01*
X39526Y46214D01*
X39145Y46233D01*
X38742Y46239D01*
X38976Y48739D01*
X39454Y48741D01*
X41670Y48885D01*
X41746Y48919D01*
Y45618D01*
D02*
G37*
G36*
X50686Y45509D02*
X50656Y45485D01*
X50629Y45445D01*
X50606Y45389D01*
X50586Y45317D01*
X50570Y45229D01*
X50558Y45125D01*
X50547Y44938D01*
X50558Y44819D01*
X50578Y44697D01*
X50606Y44592D01*
X50642Y44503D01*
X50686Y44429D01*
X50738Y44373D01*
X50798Y44332D01*
X50866Y44308D01*
X50942Y44300D01*
X49342D01*
X49418Y44308D01*
X49486Y44332D01*
X49546Y44373D01*
X49598Y44429D01*
X49642Y44503D01*
X49678Y44592D01*
X49706Y44697D01*
X49726Y44819D01*
X49735Y44930D01*
X49713Y45229D01*
X49697Y45317D01*
X49677Y45389D01*
X49654Y45445D01*
X49628Y45485D01*
X49597Y45509D01*
X49563Y45517D01*
X50720D01*
X50686Y45509D01*
D02*
G37*
G36*
X118122Y43356D02*
X118053Y43285D01*
X117873Y43073D01*
X117823Y43003D01*
X117735Y42863D01*
X117699Y42794D01*
X117639Y42656D01*
X117063Y43932D01*
X117135Y43909D01*
X117208Y43896D01*
X117281Y43893D01*
X117354Y43901D01*
X117428Y43919D01*
X117501Y43947D01*
X117575Y43986D01*
X117649Y44035D01*
X117723Y44094D01*
X117798Y44164D01*
X118122Y43356D01*
D02*
G37*
G36*
X23457Y45062D02*
X23507Y45028D01*
X23564Y44998D01*
X23629Y44972D01*
X23700Y44950D01*
X23779Y44932D01*
X23865Y44918D01*
X23958Y44908D01*
X24166Y44900D01*
Y43900D01*
X24058Y43898D01*
X23865Y43882D01*
X23779Y43868D01*
X23700Y43850D01*
X23629Y43828D01*
X23564Y43802D01*
X23507Y43772D01*
X23457Y43738D01*
X23414Y43700D01*
X22700Y44400D01*
X23414Y45100D01*
X23457Y45062D01*
D02*
G37*
G36*
X22700Y44400D02*
X21986Y43700D01*
X21943Y43738D01*
X21893Y43772D01*
X21836Y43802D01*
X21771Y43828D01*
X21700Y43850D01*
X21621Y43868D01*
X21535Y43882D01*
X21342Y43898D01*
X21234Y43900D01*
Y44900D01*
X21442Y44908D01*
X21535Y44918D01*
X21621Y44932D01*
X21700Y44950D01*
X21771Y44972D01*
X21836Y44998D01*
X21893Y45028D01*
X21943Y45062D01*
X21986Y45100D01*
X22700Y44400D01*
D02*
G37*
G36*
X18657Y45062D02*
X18707Y45028D01*
X18764Y44998D01*
X18828Y44972D01*
X18900Y44950D01*
X18979Y44932D01*
X19065Y44918D01*
X19158Y44908D01*
X19366Y44900D01*
Y43900D01*
X19258Y43898D01*
X19065Y43882D01*
X18979Y43868D01*
X18900Y43850D01*
X18828Y43828D01*
X18764Y43802D01*
X18707Y43772D01*
X18657Y43738D01*
X18614Y43700D01*
X17900Y44400D01*
X18614Y45100D01*
X18657Y45062D01*
D02*
G37*
G36*
X17900Y44400D02*
X17186Y43700D01*
X17143Y43738D01*
X17093Y43772D01*
X17036Y43802D01*
X16972Y43828D01*
X16900Y43850D01*
X16821Y43868D01*
X16735Y43882D01*
X16542Y43898D01*
X16434Y43900D01*
Y44900D01*
X16642Y44908D01*
X16735Y44918D01*
X16821Y44932D01*
X16900Y44950D01*
X16972Y44972D01*
X17036Y44998D01*
X17093Y45028D01*
X17143Y45062D01*
X17186Y45100D01*
X17900Y44400D01*
D02*
G37*
G36*
X14057Y45062D02*
X14107Y45028D01*
X14164Y44998D01*
X14229Y44972D01*
X14300Y44950D01*
X14379Y44932D01*
X14465Y44918D01*
X14558Y44908D01*
X14766Y44900D01*
Y43900D01*
X14658Y43898D01*
X14465Y43882D01*
X14379Y43868D01*
X14300Y43850D01*
X14229Y43828D01*
X14164Y43802D01*
X14107Y43772D01*
X14057Y43738D01*
X14014Y43700D01*
Y45100D01*
X14057Y45062D01*
D02*
G37*
G36*
X122204Y44798D02*
X122214Y44704D01*
X122232Y44618D01*
X122257Y44539D01*
X122289Y44469D01*
X122328Y44406D01*
X122374Y44351D01*
X122428Y44304D01*
X122488Y44266D01*
X122556Y44234D01*
X121274Y43677D01*
X121298Y43741D01*
X121319Y43809D01*
X121355Y43957D01*
X121369Y44038D01*
X121389Y44210D01*
X121399Y44399D01*
X121400Y44500D01*
X122200Y44900D01*
X122204Y44798D01*
D02*
G37*
G36*
X13290Y43400D02*
X13233Y43397D01*
X13173Y43385D01*
X13112Y43366D01*
X13048Y43339D01*
X12982Y43304D01*
X12913Y43261D01*
X12843Y43210D01*
X12770Y43151D01*
X12617Y43010D01*
X11910Y43717D01*
X11985Y43794D01*
X12110Y43943D01*
X12161Y44013D01*
X12204Y44082D01*
X12239Y44148D01*
X12266Y44212D01*
X12285Y44273D01*
X12297Y44333D01*
X12300Y44390D01*
X13290Y43400D01*
D02*
G37*
G36*
X112110Y50019D02*
Y48257D01*
X113988D01*
Y49650D01*
X114988D01*
Y48257D01*
X115757D01*
Y47428D01*
X115729Y47288D01*
Y47238D01*
X111212Y42722D01*
X106295D01*
X106226Y42826D01*
X105663Y43201D01*
X105522Y43229D01*
X105357Y43772D01*
X111610Y50025D01*
X112110Y50019D01*
D02*
G37*
G36*
X34943Y43160D02*
X34897Y43125D01*
X34855Y43081D01*
X34819Y43030D01*
X34787Y42971D01*
X34761Y42903D01*
X34739Y42828D01*
X34722Y42744D01*
X34710Y42653D01*
X34702Y42553D01*
X34700Y42446D01*
X33700Y42686D01*
X33699Y42795D01*
X33679Y43077D01*
X33668Y43156D01*
X33637Y43292D01*
X33618Y43349D01*
X33596Y43398D01*
X33571Y43440D01*
X34943Y43160D01*
D02*
G37*
G36*
X42503Y43507D02*
X42513Y43424D01*
X42530Y43343D01*
X42555Y43264D01*
X42587Y43185D01*
X42626Y43108D01*
X42672Y43032D01*
X42726Y42957D01*
X42787Y42883D01*
X42855Y42810D01*
X42290Y42245D01*
X42217Y42313D01*
X42143Y42374D01*
X42068Y42428D01*
X41992Y42474D01*
X41915Y42513D01*
X41836Y42545D01*
X41757Y42570D01*
X41676Y42587D01*
X41593Y42597D01*
X41510Y42600D01*
X42500Y43590D01*
X42503Y43507D01*
D02*
G37*
G36*
X70010Y43063D02*
X70040Y42978D01*
X70091Y42903D01*
X70161Y42838D01*
X70253Y42783D01*
X70364Y42738D01*
X70495Y42703D01*
X70647Y42678D01*
X70672Y42676D01*
X71177Y42709D01*
X71207Y42722D01*
X71217Y42737D01*
Y41580D01*
X71207Y41595D01*
X71177Y41608D01*
X71127Y41620D01*
X71057Y41630D01*
X70857Y41646D01*
X70755Y41648D01*
X70647Y41638D01*
X70495Y41613D01*
X70364Y41578D01*
X70253Y41533D01*
X70161Y41478D01*
X70091Y41413D01*
X70040Y41338D01*
X70010Y41253D01*
X70000Y41158D01*
Y43158D01*
X70010Y43063D01*
D02*
G37*
G36*
X44642Y41580D02*
X44634Y41614D01*
X44610Y41644D01*
X44570Y41671D01*
X44514Y41694D01*
X44442Y41714D01*
X44354Y41730D01*
X44250Y41742D01*
X43994Y41756D01*
X43842Y41758D01*
Y42558D01*
X43994Y42560D01*
X44354Y42587D01*
X44442Y42603D01*
X44514Y42623D01*
X44570Y42646D01*
X44610Y42673D01*
X44634Y42703D01*
X44642Y42737D01*
Y41580D01*
D02*
G37*
G36*
X120341Y41442D02*
X120353Y41304D01*
X120373Y41182D01*
X120401Y41076D01*
X120437Y40987D01*
X120481Y40914D01*
X120533Y40857D01*
X120593Y40817D01*
X120661Y40792D01*
X120737Y40784D01*
X119137D01*
X119213Y40792D01*
X119281Y40817D01*
X119341Y40857D01*
X119393Y40914D01*
X119437Y40987D01*
X119473Y41076D01*
X119501Y41182D01*
X119521Y41304D01*
X119533Y41442D01*
X119537Y41596D01*
X120337D01*
X120341Y41442D01*
D02*
G37*
G36*
X73355Y40636D02*
X73380Y40568D01*
X73421Y40508D01*
X73478Y40456D01*
X73551Y40412D01*
X73641Y40376D01*
X73746Y40348D01*
X73867Y40328D01*
X74005Y40316D01*
X74158Y40312D01*
Y39512D01*
X73358Y39611D01*
X73346Y40712D01*
X73355Y40636D01*
D02*
G37*
G36*
X42003Y40507D02*
X42013Y40424D01*
X42030Y40343D01*
X42055Y40264D01*
X42087Y40185D01*
X42126Y40108D01*
X42172Y40032D01*
X42226Y39957D01*
X42287Y39883D01*
X42355Y39810D01*
X41789Y39245D01*
X41717Y39313D01*
X41643Y39374D01*
X41568Y39428D01*
X41492Y39474D01*
X41415Y39513D01*
X41336Y39545D01*
X41257Y39570D01*
X41176Y39587D01*
X41093Y39597D01*
X41010Y39600D01*
X42000Y40590D01*
X42003Y40507D01*
D02*
G37*
G36*
X12502Y41758D02*
X12518Y41565D01*
X12532Y41479D01*
X12550Y41400D01*
X12572Y41328D01*
X12598Y41264D01*
X12628Y41207D01*
X12662Y41157D01*
X12700Y41114D01*
X12000Y40400D01*
X12700Y39686D01*
X12662Y39643D01*
X12628Y39593D01*
X12598Y39536D01*
X12572Y39472D01*
X12550Y39400D01*
X12532Y39321D01*
X12518Y39235D01*
X12502Y39042D01*
X12500Y38934D01*
X11500D01*
X11492Y39142D01*
X11482Y39235D01*
X11468Y39321D01*
X11450Y39400D01*
X11428Y39472D01*
X11402Y39536D01*
X11372Y39593D01*
X11338Y39643D01*
X11300Y39686D01*
X12000Y40400D01*
X11300Y41114D01*
X11338Y41157D01*
X11372Y41207D01*
X11402Y41264D01*
X11428Y41328D01*
X11450Y41400D01*
X11468Y41479D01*
X11482Y41565D01*
X11492Y41658D01*
X11500Y41866D01*
X12500D01*
X12502Y41758D01*
D02*
G37*
G36*
X35194Y40016D02*
X35343Y39890D01*
X35413Y39839D01*
X35482Y39796D01*
X35548Y39761D01*
X35612Y39734D01*
X35673Y39715D01*
X35733Y39703D01*
X35790Y39700D01*
X34800Y38710D01*
X34797Y38767D01*
X34785Y38827D01*
X34766Y38888D01*
X34739Y38952D01*
X34704Y39018D01*
X34661Y39087D01*
X34610Y39157D01*
X34551Y39230D01*
X34410Y39383D01*
X35117Y40090D01*
X35194Y40016D01*
D02*
G37*
G36*
X118263Y38532D02*
X118257Y38607D01*
X118234Y38675D01*
X118194Y38735D01*
X118138Y38787D01*
X118065Y38831D01*
X117976Y38868D01*
X117870Y38895D01*
X117747Y38916D01*
X117607Y38928D01*
X117451Y38932D01*
Y39731D01*
X117611Y39735D01*
X117755Y39747D01*
X117882Y39767D01*
X117993Y39795D01*
X118086Y39831D01*
X118164Y39875D01*
X118224Y39926D01*
X118268Y39986D01*
X118295Y40054D01*
X118305Y40129D01*
X118263Y38532D01*
D02*
G37*
G36*
X115892Y40056D02*
X115917Y39987D01*
X115957Y39928D01*
X116014Y39876D01*
X116087Y39832D01*
X116176Y39796D01*
X116282Y39768D01*
X116404Y39748D01*
X116542Y39735D01*
X116696Y39731D01*
Y38932D01*
X116542Y38928D01*
X116404Y38916D01*
X116282Y38895D01*
X116176Y38868D01*
X116087Y38831D01*
X116014Y38787D01*
X115957Y38735D01*
X115917Y38675D01*
X115892Y38607D01*
X115884Y38532D01*
Y40132D01*
X115892Y40056D01*
D02*
G37*
G36*
X77286Y38400D02*
X77225Y38457D01*
X77160Y38508D01*
X77090Y38553D01*
X77016Y38592D01*
X76938Y38625D01*
X76856Y38652D01*
X76769Y38673D01*
X76678Y38688D01*
X76583Y38697D01*
X76484Y38700D01*
Y39500D01*
X76583Y39503D01*
X76678Y39512D01*
X76769Y39527D01*
X76856Y39548D01*
X76938Y39575D01*
X77016Y39608D01*
X77090Y39647D01*
X77160Y39692D01*
X77225Y39743D01*
X77286Y39800D01*
Y38400D01*
D02*
G37*
G36*
X44642Y37643D02*
X44634Y37677D01*
X44610Y37707D01*
X44570Y37734D01*
X44514Y37757D01*
X44442Y37777D01*
X44354Y37793D01*
X44250Y37805D01*
X43994Y37819D01*
X43842Y37821D01*
Y38621D01*
X43994Y38623D01*
X44354Y38650D01*
X44442Y38666D01*
X44514Y38686D01*
X44570Y38709D01*
X44610Y38735D01*
X44634Y38766D01*
X44642Y38800D01*
Y37643D01*
D02*
G37*
G36*
X18932Y38861D02*
X18922Y38752D01*
X18936Y38635D01*
X18972Y38508D01*
X19033Y38371D01*
X19116Y38225D01*
X19223Y38069D01*
X19354Y37904D01*
X19508Y37729D01*
X19685Y37545D01*
X19470Y36346D01*
X19242Y36567D01*
X18843Y36910D01*
X18673Y37031D01*
X18522Y37120D01*
X18390Y37175D01*
X18278Y37197D01*
X18184Y37186D01*
X18110Y37142D01*
X18056Y37065D01*
X18966Y38959D01*
X18932Y38861D01*
D02*
G37*
G36*
X32661Y37158D02*
X32666Y37073D01*
X32698Y36998D01*
X32757Y36933D01*
X32845Y36878D01*
X32960Y36833D01*
X33103Y36798D01*
X33273Y36773D01*
X33471Y36758D01*
X33696Y36753D01*
X32827Y35753D01*
X32681Y35753D01*
X32174Y35785D01*
X32150Y35794D01*
X32143Y35805D01*
X32154Y35818D01*
X32684Y37253D01*
X32661Y37158D01*
D02*
G37*
G36*
X29646Y35818D02*
X29657Y35805D01*
X29650Y35794D01*
X29626Y35785D01*
X29585Y35776D01*
X29527Y35769D01*
X29357Y35759D01*
X28973Y35753D01*
X28104Y36753D01*
X28329Y36758D01*
X28527Y36773D01*
X28697Y36798D01*
X28840Y36833D01*
X28955Y36878D01*
X29043Y36933D01*
X29102Y36998D01*
X29134Y37073D01*
X29139Y37158D01*
X29116Y37253D01*
X29646Y35818D01*
D02*
G37*
G36*
X120991Y37257D02*
X120923Y37229D01*
X120863Y37184D01*
X120812Y37123D01*
X120768Y37045D01*
X120732Y36950D01*
X120704Y36839D01*
X120684Y36711D01*
X120673Y36566D01*
X120671Y36501D01*
X120673Y36437D01*
X120684Y36295D01*
X120704Y36169D01*
X120732Y36060D01*
X120768Y35967D01*
X120812Y35891D01*
X120863Y35832D01*
X120923Y35789D01*
X120991Y35762D01*
X121066Y35752D01*
X119468Y35784D01*
X119544Y35791D01*
X119613Y35814D01*
X119673Y35854D01*
X119725Y35910D01*
X119769Y35983D01*
X119805Y36073D01*
X119833Y36179D01*
X119852Y36301D01*
X119864Y36441D01*
X119866Y36500D01*
X119864Y36560D01*
X119852Y36700D01*
X119833Y36823D01*
X119805Y36930D01*
X119769Y37019D01*
X119725Y37092D01*
X119673Y37148D01*
X119613Y37187D01*
X119544Y37210D01*
X119468Y37216D01*
X121066Y37267D01*
X120991Y37257D01*
D02*
G37*
G36*
X73366Y36797D02*
X73390Y36767D01*
X73430Y36740D01*
X73486Y36717D01*
X73558Y36697D01*
X73646Y36681D01*
X73750Y36669D01*
X74006Y36654D01*
X74158Y36653D01*
Y35853D01*
X74006Y35851D01*
X73646Y35824D01*
X73558Y35808D01*
X73486Y35789D01*
X73430Y35765D01*
X73390Y35739D01*
X73366Y35708D01*
X73358Y35674D01*
Y36831D01*
X73366Y36797D01*
D02*
G37*
G36*
X44642Y35674D02*
X44632Y35689D01*
X44602Y35702D01*
X44552Y35714D01*
X44482Y35724D01*
X44282Y35740D01*
X43642Y35753D01*
Y36753D01*
X43832Y36753D01*
X44602Y36803D01*
X44632Y36816D01*
X44642Y36831D01*
Y35674D01*
D02*
G37*
G36*
X12502Y37858D02*
X12518Y37665D01*
X12532Y37579D01*
X12550Y37500D01*
X12572Y37429D01*
X12598Y37364D01*
X12628Y37307D01*
X12662Y37257D01*
X12700Y37214D01*
X12000Y36500D01*
X12700Y35786D01*
X12662Y35743D01*
X12628Y35693D01*
X12598Y35636D01*
X12572Y35572D01*
X12550Y35500D01*
X12532Y35421D01*
X12518Y35335D01*
X12502Y35142D01*
X12500Y35034D01*
X11500D01*
X11492Y35242D01*
X11482Y35335D01*
X11468Y35421D01*
X11450Y35500D01*
X11428Y35572D01*
X11402Y35636D01*
X11372Y35693D01*
X11338Y35743D01*
X11300Y35786D01*
X12000Y36500D01*
X11300Y37214D01*
X11338Y37257D01*
X11372Y37307D01*
X11402Y37364D01*
X11428Y37429D01*
X11450Y37500D01*
X11468Y37579D01*
X11482Y37665D01*
X11492Y37758D01*
X11500Y37966D01*
X12500D01*
X12502Y37858D01*
D02*
G37*
G36*
X80257Y44600D02*
X80428Y43742D01*
X80914Y43014D01*
X81642Y42528D01*
X82500Y42357D01*
X83358Y42528D01*
X83678Y42742D01*
X84178Y42474D01*
Y41868D01*
X84178Y41868D01*
X84264Y41439D01*
X84507Y41075D01*
X84507Y41075D01*
X87516Y38066D01*
Y36202D01*
X84473Y33159D01*
X74070D01*
Y35131D01*
X75552D01*
X75622Y35027D01*
X76184Y34651D01*
X76847Y34519D01*
X77511Y34651D01*
X78073Y35027D01*
X78449Y35589D01*
X78581Y36253D01*
X78449Y36916D01*
X78380Y37018D01*
X78572Y37480D01*
X78663Y37499D01*
X79226Y37874D01*
X79601Y38437D01*
X79733Y39100D01*
X79601Y39763D01*
X79226Y40326D01*
X78783Y40621D01*
X78717Y41039D01*
X78742Y41195D01*
X78759Y41207D01*
X79093Y41707D01*
X79209Y42289D01*
X77000D01*
Y43289D01*
X79209D01*
X79093Y43871D01*
X78759Y44371D01*
X78667Y44433D01*
X78819Y44933D01*
X79864D01*
X80257Y44600D01*
D02*
G37*
G36*
X33462Y33886D02*
X33270Y33688D01*
X32969Y33333D01*
X32860Y33178D01*
X32778Y33036D01*
X32724Y32909D01*
X32698Y32797D01*
X32699Y32698D01*
X32728Y32614D01*
X32784Y32544D01*
X31334Y33837D01*
X31411Y33788D01*
X31501Y33765D01*
X31605Y33769D01*
X31722Y33799D01*
X31852Y33856D01*
X31995Y33940D01*
X32152Y34050D01*
X32322Y34187D01*
X32702Y34541D01*
X33462Y33886D01*
D02*
G37*
G36*
X44642Y33706D02*
X44632Y33727D01*
X44602Y33745D01*
X44552Y33761D01*
X44482Y33776D01*
X44392Y33788D01*
X44152Y33805D01*
X43642Y33815D01*
Y34815D01*
X44642Y34863D01*
Y33706D01*
D02*
G37*
G36*
Y31737D02*
X44632Y31752D01*
X44602Y31765D01*
X44552Y31777D01*
X44482Y31787D01*
X44282Y31803D01*
X43642Y31816D01*
Y32816D01*
X43832Y32816D01*
X44602Y32866D01*
X44632Y32879D01*
X44642Y32894D01*
Y31737D01*
D02*
G37*
G36*
X73355Y32762D02*
X73380Y32694D01*
X73421Y32634D01*
X73478Y32582D01*
X73551Y32538D01*
X73641Y32502D01*
X73746Y32474D01*
X73867Y32454D01*
X74005Y32442D01*
X74158Y32438D01*
Y31638D01*
X73358Y31737D01*
X73346Y32838D01*
X73355Y32762D01*
D02*
G37*
G36*
X12502Y32158D02*
X12518Y31965D01*
X12532Y31879D01*
X12550Y31800D01*
X12572Y31729D01*
X12598Y31664D01*
X12628Y31607D01*
X12662Y31557D01*
X12700Y31514D01*
X11300D01*
X11338Y31557D01*
X11372Y31607D01*
X11402Y31664D01*
X11428Y31729D01*
X11450Y31800D01*
X11468Y31879D01*
X11482Y31965D01*
X11492Y32058D01*
X11500Y32266D01*
X12500D01*
X12502Y32158D01*
D02*
G37*
G36*
X29247Y31134D02*
X29237Y31228D01*
X29206Y31313D01*
X29154Y31388D01*
X29081Y31452D01*
X28987Y31507D01*
X28872Y31552D01*
X28736Y31587D01*
X28580Y31612D01*
X28402Y31626D01*
X28204Y31631D01*
Y32631D01*
X28402Y32636D01*
X28580Y32651D01*
X28736Y32676D01*
X28872Y32711D01*
X28987Y32756D01*
X29081Y32811D01*
X29154Y32875D01*
X29206Y32950D01*
X29237Y33035D01*
X29247Y33129D01*
Y31134D01*
D02*
G37*
G36*
X26665Y33005D02*
X26695Y32926D01*
X26745Y32857D01*
X26815Y32797D01*
X26905Y32747D01*
X27015Y32705D01*
X27145Y32673D01*
X27295Y32650D01*
X27465Y32636D01*
X27655Y32631D01*
Y31631D01*
X27463Y31626D01*
X27292Y31611D01*
X27140Y31587D01*
X27009Y31552D01*
X26897Y31506D01*
X26806Y31451D01*
X26735Y31387D01*
X26684Y31312D01*
X26654Y31227D01*
X26643Y31132D01*
X26655Y33092D01*
X26665Y33005D01*
D02*
G37*
G36*
X48000Y29547D02*
X47992Y29623D01*
X47968Y29691D01*
X47927Y29751D01*
X47870Y29803D01*
X47797Y29847D01*
X47708Y29883D01*
X47602Y29911D01*
X47481Y29931D01*
X47370Y29941D01*
X47071Y29919D01*
X46983Y29903D01*
X46911Y29883D01*
X46855Y29860D01*
X46815Y29833D01*
X46791Y29803D01*
X46783Y29769D01*
Y30926D01*
X46791Y30892D01*
X46815Y30861D01*
X46855Y30835D01*
X46911Y30812D01*
X46983Y30792D01*
X47071Y30776D01*
X47175Y30763D01*
X47362Y30753D01*
X47481Y30763D01*
X47602Y30783D01*
X47708Y30811D01*
X47797Y30847D01*
X47870Y30891D01*
X47927Y30943D01*
X47968Y31003D01*
X47992Y31071D01*
X48000Y31147D01*
Y29547D01*
D02*
G37*
G36*
X73366Y30858D02*
X73390Y30797D01*
X73430Y30744D01*
X73486Y30698D01*
X73558Y30658D01*
X73646Y30626D01*
X73750Y30601D01*
X73870Y30584D01*
X74006Y30573D01*
X74158Y30569D01*
Y29769D01*
X73358D01*
Y30926D01*
X73366Y30858D01*
D02*
G37*
G36*
X44642Y29769D02*
X44634Y29803D01*
X44610Y29833D01*
X44570Y29860D01*
X44514Y29883D01*
X44442Y29903D01*
X44354Y29919D01*
X44250Y29931D01*
X43994Y29945D01*
X43842Y29947D01*
Y30747D01*
X43994Y30749D01*
X44354Y30776D01*
X44442Y30792D01*
X44514Y30812D01*
X44570Y30835D01*
X44610Y30861D01*
X44634Y30892D01*
X44642Y30926D01*
Y29769D01*
D02*
G37*
G36*
X41671Y29716D02*
X41508Y29548D01*
X41258Y29254D01*
X41171Y29127D01*
X41108Y29015D01*
X41070Y28916D01*
X41057Y28831D01*
X41069Y28760D01*
X41105Y28702D01*
X41167Y28659D01*
X39670Y29401D01*
X39748Y29373D01*
X39834Y29365D01*
X39928Y29376D01*
X40029Y29405D01*
X40138Y29453D01*
X40255Y29521D01*
X40380Y29607D01*
X40513Y29712D01*
X40653Y29836D01*
X40802Y29978D01*
X41671Y29716D01*
D02*
G37*
G36*
X12662Y30043D02*
X12628Y29993D01*
X12598Y29936D01*
X12572Y29871D01*
X12550Y29800D01*
X12532Y29721D01*
X12518Y29635D01*
X12508Y29542D01*
X12500Y29334D01*
X11500D01*
X11498Y29442D01*
X11482Y29635D01*
X11468Y29721D01*
X11450Y29800D01*
X11428Y29871D01*
X11402Y29936D01*
X11372Y29993D01*
X11338Y30043D01*
X11300Y30086D01*
X12700D01*
X12662Y30043D01*
D02*
G37*
G36*
X35162Y30943D02*
X35128Y30893D01*
X35098Y30836D01*
X35072Y30771D01*
X35050Y30700D01*
X35032Y30621D01*
X35018Y30535D01*
X35008Y30442D01*
X35007Y30406D01*
X35022Y30256D01*
X35039Y30172D01*
X35061Y30097D01*
X35087Y30029D01*
X35119Y29970D01*
X35155Y29919D01*
X35197Y29875D01*
X35243Y29840D01*
X34420Y29000D01*
X33871Y29560D01*
X33896Y29601D01*
X33918Y29651D01*
X33937Y29708D01*
X33954Y29772D01*
X33968Y29844D01*
X33988Y30009D01*
X33995Y30103D01*
X33999Y30279D01*
X33998Y30342D01*
X33982Y30535D01*
X33968Y30621D01*
X33950Y30700D01*
X33928Y30771D01*
X33902Y30836D01*
X33872Y30893D01*
X33838Y30943D01*
X33800Y30986D01*
X35200D01*
X35162Y30943D01*
D02*
G37*
G36*
X63805Y29211D02*
X63969Y29072D01*
X64048Y29012D01*
X64201Y28911D01*
X64273Y28870D01*
X64344Y28835D01*
X64413Y28806D01*
X64420Y28120D01*
X62902Y28135D01*
X62928Y28215D01*
X62941Y28296D01*
X62942Y28378D01*
X62931Y28462D01*
X62908Y28546D01*
X62873Y28631D01*
X62826Y28717D01*
X62767Y28804D01*
X62695Y28892D01*
X62612Y28981D01*
X63633Y29375D01*
X63805Y29211D01*
D02*
G37*
G36*
X73366Y28890D02*
X73390Y28829D01*
X73430Y28776D01*
X73486Y28729D01*
X73558Y28690D01*
X73646Y28658D01*
X73750Y28633D01*
X73870Y28615D01*
X74006Y28604D01*
X74158Y28601D01*
Y27800D01*
X73358D01*
Y28957D01*
X73366Y28890D01*
D02*
G37*
G36*
X44642Y27800D02*
X44632Y27815D01*
X44602Y27828D01*
X44552Y27840D01*
X44482Y27850D01*
X44282Y27866D01*
X43642Y27879D01*
Y28879D01*
X43832Y28879D01*
X44602Y28929D01*
X44632Y28942D01*
X44642Y28957D01*
Y27800D01*
D02*
G37*
G36*
X35243Y28160D02*
X35197Y28125D01*
X35155Y28081D01*
X35119Y28030D01*
X35087Y27971D01*
X35061Y27903D01*
X35039Y27828D01*
X35022Y27744D01*
X35002Y27553D01*
X35001Y27500D01*
X35002Y27458D01*
X35018Y27265D01*
X35032Y27179D01*
X35050Y27100D01*
X35072Y27029D01*
X35098Y26964D01*
X35128Y26907D01*
X35162Y26857D01*
X35200Y26814D01*
X33800D01*
X33838Y26857D01*
X33872Y26907D01*
X33902Y26964D01*
X33928Y27029D01*
X33950Y27100D01*
X33968Y27179D01*
X33982Y27265D01*
X33992Y27358D01*
X34000Y27566D01*
X34500D01*
X34000Y27686D01*
X33995Y27896D01*
X33988Y27991D01*
X33968Y28156D01*
X33954Y28228D01*
X33937Y28292D01*
X33918Y28349D01*
X33896Y28398D01*
X33871Y28440D01*
X34420Y29000D01*
X35243Y28160D01*
D02*
G37*
G36*
X65106Y28113D02*
X65135Y28044D01*
X65170Y27973D01*
X65211Y27900D01*
X65312Y27748D01*
X65372Y27669D01*
X65511Y27505D01*
X65675Y27332D01*
X65281Y26312D01*
X65192Y26395D01*
X65104Y26467D01*
X65017Y26526D01*
X64931Y26573D01*
X64846Y26608D01*
X64762Y26631D01*
X64679Y26642D01*
X64596Y26641D01*
X64515Y26627D01*
X64435Y26602D01*
X64420Y28120D01*
X65106Y28113D01*
D02*
G37*
G36*
X73366Y26921D02*
X73390Y26860D01*
X73430Y26807D01*
X73486Y26761D01*
X73558Y26721D01*
X73646Y26689D01*
X73750Y26664D01*
X73870Y26647D01*
X74006Y26636D01*
X74158Y26632D01*
Y25832D01*
X73358D01*
Y26989D01*
X73366Y26921D01*
D02*
G37*
G36*
X41886Y25968D02*
X41679Y25754D01*
X41355Y25374D01*
X41238Y25209D01*
X41151Y25059D01*
X41121Y24989D01*
X41167Y25024D01*
X41109Y24962D01*
X41094Y24926D01*
X41069Y24815D01*
X41068Y24789D01*
X41069Y24763D01*
X41094Y24652D01*
X41109Y24616D01*
X41167Y24554D01*
X41121Y24589D01*
X41151Y24519D01*
X41238Y24369D01*
X41355Y24204D01*
X41502Y24022D01*
X41886Y23610D01*
X41002Y23080D01*
X40804Y23271D01*
X40445Y23574D01*
X40284Y23686D01*
X40137Y23771D01*
X40002Y23830D01*
X39879Y23862D01*
X39769Y23868D01*
X39672Y23847D01*
X39588Y23799D01*
X40863Y24789D01*
X39588Y25779D01*
X39672Y25731D01*
X39769Y25710D01*
X39879Y25716D01*
X40002Y25748D01*
X40137Y25807D01*
X40284Y25892D01*
X40445Y26004D01*
X40618Y26142D01*
X41002Y26498D01*
X41886Y25968D01*
D02*
G37*
G36*
X25986Y25100D02*
X25943Y25138D01*
X25893Y25172D01*
X25836Y25202D01*
X25771Y25228D01*
X25700Y25250D01*
X25621Y25268D01*
X25535Y25282D01*
X25442Y25292D01*
X25234Y25300D01*
Y26300D01*
X25342Y26302D01*
X25535Y26318D01*
X25621Y26332D01*
X25700Y26350D01*
X25771Y26372D01*
X25836Y26398D01*
X25893Y26428D01*
X25943Y26462D01*
X25986Y26500D01*
Y25100D01*
D02*
G37*
G36*
X22657Y26462D02*
X22707Y26428D01*
X22764Y26398D01*
X22828Y26372D01*
X22900Y26350D01*
X22979Y26332D01*
X23065Y26318D01*
X23158Y26308D01*
X23366Y26300D01*
Y25300D01*
X23258Y25298D01*
X23065Y25282D01*
X22979Y25268D01*
X22900Y25250D01*
X22828Y25228D01*
X22764Y25202D01*
X22707Y25172D01*
X22657Y25138D01*
X22614Y25100D01*
X21900Y25800D01*
X22614Y26500D01*
X22657Y26462D01*
D02*
G37*
G36*
X21900Y25800D02*
X21186Y25100D01*
X21143Y25138D01*
X21093Y25172D01*
X21036Y25202D01*
X20971Y25228D01*
X20900Y25250D01*
X20821Y25268D01*
X20735Y25282D01*
X20542Y25298D01*
X20434Y25300D01*
Y26300D01*
X20642Y26308D01*
X20735Y26318D01*
X20821Y26332D01*
X20900Y26350D01*
X20971Y26372D01*
X21036Y26398D01*
X21093Y26428D01*
X21143Y26462D01*
X21186Y26500D01*
X21900Y25800D01*
D02*
G37*
G36*
X17157Y26462D02*
X17207Y26428D01*
X17264Y26398D01*
X17328Y26372D01*
X17400Y26350D01*
X17479Y26332D01*
X17565Y26318D01*
X17658Y26308D01*
X17866Y26300D01*
Y25300D01*
X17758Y25298D01*
X17565Y25282D01*
X17479Y25268D01*
X17400Y25250D01*
X17328Y25228D01*
X17264Y25202D01*
X17207Y25172D01*
X17157Y25138D01*
X17114Y25100D01*
X16400Y25800D01*
X17114Y26500D01*
X17157Y26462D01*
D02*
G37*
G36*
X16400Y25800D02*
X15686Y25100D01*
X15643Y25138D01*
X15593Y25172D01*
X15536Y25202D01*
X15472Y25228D01*
X15400Y25250D01*
X15321Y25268D01*
X15235Y25282D01*
X15042Y25298D01*
X14934Y25300D01*
Y26300D01*
X15142Y26308D01*
X15235Y26318D01*
X15321Y26332D01*
X15400Y26350D01*
X15472Y26372D01*
X15536Y26398D01*
X15593Y26428D01*
X15643Y26462D01*
X15686Y26500D01*
X16400Y25800D01*
D02*
G37*
G36*
X28461Y25546D02*
X27876Y24717D01*
X27798Y24792D01*
X27652Y24910D01*
X27586Y24953D01*
X27524Y24985D01*
X27466Y25006D01*
X27412Y25016D01*
X27362Y25015D01*
X27316Y25003D01*
X27274Y24981D01*
X27569Y26294D01*
X28461Y25546D01*
D02*
G37*
G36*
X34653Y25112D02*
X34604Y25101D01*
X34551Y25082D01*
X34495Y25057D01*
X34436Y25024D01*
X34373Y24985D01*
X34308Y24938D01*
X34168Y24822D01*
X34093Y24753D01*
X34016Y24678D01*
X33172Y25248D01*
X33246Y25326D01*
X33368Y25474D01*
X33416Y25545D01*
X33454Y25615D01*
X33484Y25681D01*
X33505Y25746D01*
X33517Y25808D01*
X33521Y25869D01*
X33515Y25927D01*
X34653Y25112D01*
D02*
G37*
G36*
X32724Y25197D02*
X32683Y25135D01*
X32661Y25080D01*
X32657Y25032D01*
X32672Y24992D01*
X32706Y24959D01*
X32759Y24933D01*
X32831Y24915D01*
X32922Y24904D01*
X33031Y24900D01*
Y23900D01*
X32411Y23904D01*
X31062Y24013D01*
X31008Y24062D01*
X31066Y24121D01*
X31237Y24189D01*
X31521Y24265D01*
X31918Y24351D01*
X32784Y25267D01*
X32724Y25197D01*
D02*
G37*
G36*
X30082Y24351D02*
X30478Y24265D01*
X30760Y24189D01*
X30928Y24121D01*
X30981Y24062D01*
X30920Y24013D01*
X30745Y23972D01*
X30455Y23941D01*
X30051Y23918D01*
X28900Y23900D01*
Y24900D01*
X29029Y24904D01*
X29136Y24917D01*
X29222Y24939D01*
X29286Y24970D01*
X29329Y25009D01*
X29349Y25057D01*
X29348Y25114D01*
X29326Y25179D01*
X29282Y25253D01*
X29216Y25336D01*
X30082Y24351D01*
D02*
G37*
G36*
X73355Y24888D02*
X73380Y24820D01*
X73421Y24760D01*
X73478Y24708D01*
X73551Y24664D01*
X73641Y24628D01*
X73746Y24600D01*
X73867Y24580D01*
X74005Y24568D01*
X74158Y24564D01*
Y23764D01*
X73358Y23863D01*
X73346Y24964D01*
X73355Y24888D01*
D02*
G37*
G36*
X2414Y24156D02*
X2488Y24096D01*
X2563Y24043D01*
X2639Y23999D01*
X2716Y23962D01*
X2795Y23933D01*
X2874Y23912D01*
X2955Y23899D01*
X3036Y23894D01*
X3119Y23897D01*
X2202Y22839D01*
X2193Y22922D01*
X2178Y23004D01*
X2157Y23085D01*
X2128Y23164D01*
X2093Y23243D01*
X2052Y23320D01*
X2004Y23395D01*
X1949Y23470D01*
X1887Y23543D01*
X1819Y23615D01*
X2341Y24225D01*
X2414Y24156D01*
D02*
G37*
G36*
X73366Y23018D02*
X73390Y22987D01*
X73430Y22961D01*
X73486Y22938D01*
X73558Y22918D01*
X73646Y22902D01*
X73750Y22889D01*
X74006Y22875D01*
X74158Y22873D01*
Y22073D01*
X74006Y22071D01*
X73646Y22045D01*
X73558Y22029D01*
X73486Y22009D01*
X73430Y21986D01*
X73390Y21959D01*
X73366Y21929D01*
X73358Y21895D01*
Y23052D01*
X73366Y23018D01*
D02*
G37*
G36*
X86825Y20890D02*
X84224Y18289D01*
X84000Y18333D01*
X83337Y18201D01*
X82774Y17826D01*
X82399Y17263D01*
X82267Y16600D01*
X82399Y15937D01*
X82774Y15374D01*
X83180Y15103D01*
X83316Y14532D01*
X75469Y6685D01*
X75007Y6877D01*
Y9146D01*
X70458D01*
Y6627D01*
X69958Y6476D01*
X69769Y6758D01*
X69149Y7172D01*
X68418Y7318D01*
X68000D01*
Y4569D01*
Y1819D01*
X68418D01*
X69149Y1965D01*
X69769Y2379D01*
X69958Y2661D01*
X70458Y2510D01*
Y1223D01*
X59337D01*
X58969Y1723D01*
X58999Y1870D01*
Y3330D01*
X58908Y3787D01*
X58649Y4174D01*
X58492Y4279D01*
Y5990D01*
X58695Y6030D01*
X59257Y6406D01*
X59633Y6968D01*
X59765Y7632D01*
X59633Y8295D01*
X59257Y8857D01*
X58695Y9233D01*
X58031Y9365D01*
X57368Y9233D01*
X56806Y8857D01*
X56430Y8295D01*
X56298Y7632D01*
X56335Y7447D01*
X56330Y7382D01*
X56248Y6970D01*
X56248Y6970D01*
Y4279D01*
X56091Y4174D01*
X55832Y3787D01*
X55742Y3330D01*
X55258D01*
X55168Y3787D01*
X54909Y4174D01*
X54521Y4433D01*
X54179Y4501D01*
X53883Y4959D01*
X54072Y5242D01*
X54243Y6100D01*
X54072Y6958D01*
X53586Y7686D01*
X52858Y8172D01*
X52000Y8343D01*
X51142Y8172D01*
X50842Y7972D01*
X50343Y8240D01*
Y9946D01*
X48268D01*
Y5600D01*
X47768D01*
Y5100D01*
X45193D01*
Y1254D01*
X44705Y1223D01*
X33870D01*
X33507Y1554D01*
Y9646D01*
X33459D01*
X33192Y10147D01*
X33311Y10324D01*
X33405Y10797D01*
Y11463D01*
X34865Y12924D01*
X34943Y13040D01*
X35198Y13298D01*
X35584Y13168D01*
X35837Y12999D01*
X36500Y12867D01*
X37163Y12999D01*
X37726Y13374D01*
X37795Y13478D01*
X40275D01*
X40542Y12979D01*
X40399Y12763D01*
X40267Y12100D01*
X40399Y11437D01*
X40774Y10874D01*
X41337Y10499D01*
X42000Y10367D01*
X42663Y10499D01*
X43226Y10874D01*
X43295Y10978D01*
X53900D01*
X53900Y10978D01*
X54329Y11064D01*
X54693Y11307D01*
X56512Y13126D01*
X56512Y13126D01*
X57110Y13121D01*
X57274Y12874D01*
X57837Y12499D01*
X58500Y12367D01*
X59163Y12499D01*
X59726Y12874D01*
X60101Y13437D01*
X60233Y14100D01*
X60101Y14763D01*
X59726Y15326D01*
X59511Y15469D01*
X59515Y15661D01*
X60020Y16058D01*
X60116Y16039D01*
X60779Y16171D01*
X61341Y16547D01*
X61378Y16602D01*
X61878Y16450D01*
Y10139D01*
X61831D01*
X61358Y10045D01*
X60957Y9777D01*
X60689Y9376D01*
X60595Y8903D01*
Y7919D01*
X60689Y7446D01*
X60957Y7045D01*
X60904Y6480D01*
X60741Y6371D01*
X60407Y5871D01*
X60291Y5289D01*
X62500D01*
Y4789D01*
X63000D01*
Y2755D01*
X63169D01*
X63759Y2873D01*
X64259Y3207D01*
X64265Y3215D01*
X64795Y3109D01*
X64817Y2998D01*
X65231Y2379D01*
X65851Y1965D01*
X66582Y1819D01*
X67000D01*
Y4569D01*
Y7318D01*
X66582D01*
X65851Y7172D01*
X65231Y6758D01*
X64965Y6360D01*
X64445Y6282D01*
X64089Y6557D01*
X64043Y7045D01*
X64311Y7446D01*
X64405Y7919D01*
Y8903D01*
X64311Y9376D01*
X64122Y9659D01*
Y17436D01*
X64556Y17783D01*
X64610Y17792D01*
X64768Y17736D01*
Y15221D01*
X64768Y15221D01*
X64854Y14792D01*
X65097Y14428D01*
X66047Y13478D01*
X65993Y13121D01*
X65906Y12912D01*
X65448Y12605D01*
X65100Y12085D01*
X64978Y11471D01*
Y9792D01*
X65100Y9178D01*
X65448Y8658D01*
X65968Y8310D01*
X66582Y8188D01*
X68418D01*
X69032Y8310D01*
X69552Y8658D01*
X69900Y9178D01*
X70022Y9792D01*
Y11471D01*
X69900Y12085D01*
X69552Y12605D01*
X69032Y12953D01*
X68622Y13034D01*
Y13611D01*
X68622Y13611D01*
X68536Y14040D01*
X68293Y14404D01*
X68293Y14404D01*
X67011Y15686D01*
Y17930D01*
X67358D01*
Y20013D01*
X68358D01*
Y17930D01*
X69449D01*
Y18230D01*
X71068D01*
X71761Y17537D01*
Y17231D01*
X71855Y16758D01*
X72122Y16360D01*
Y15458D01*
X72014Y15386D01*
X71528Y14658D01*
X71357Y13800D01*
X71528Y12942D01*
X72014Y12214D01*
X72742Y11728D01*
X73600Y11557D01*
X74458Y11728D01*
X75186Y12214D01*
X75672Y12942D01*
X75843Y13800D01*
X75672Y14658D01*
X75186Y15386D01*
X75086Y15453D01*
X75098Y15925D01*
X75350Y16051D01*
X75578Y16108D01*
X76029Y15807D01*
X76611Y15691D01*
Y17900D01*
Y20109D01*
X76029Y19993D01*
X75529Y19659D01*
X75420Y19497D01*
X74855Y19443D01*
X74454Y19711D01*
X73981Y19805D01*
X73675D01*
X72797Y20683D01*
X73004Y21183D01*
X73349D01*
X73358Y21181D01*
X73367Y21183D01*
X74070D01*
Y21352D01*
X86634D01*
X86825Y20890D01*
D02*
G37*
G36*
X68763Y22278D02*
X68678Y22248D01*
X68603Y22198D01*
X68538Y22128D01*
X68483Y22038D01*
X68438Y21928D01*
X68403Y21798D01*
X68378Y21648D01*
X68376Y21626D01*
X68409Y21123D01*
X68422Y21093D01*
X68437Y21083D01*
X67280D01*
X67295Y21093D01*
X67308Y21123D01*
X67320Y21173D01*
X67330Y21243D01*
X67346Y21443D01*
X67348Y21542D01*
X67338Y21648D01*
X67313Y21798D01*
X67278Y21928D01*
X67233Y22038D01*
X67178Y22128D01*
X67113Y22198D01*
X67038Y22248D01*
X66953Y22278D01*
X66858Y22288D01*
X68858D01*
X68763Y22278D01*
D02*
G37*
G36*
X70403Y20942D02*
X70433Y20904D01*
X70482Y20871D01*
X70551Y20842D01*
X70639Y20818D01*
X70747Y20798D01*
X70875Y20783D01*
X71190Y20765D01*
X71376Y20763D01*
Y19263D01*
X71190Y19260D01*
X70747Y19227D01*
X70639Y19207D01*
X70551Y19183D01*
X70482Y19154D01*
X70433Y19121D01*
X70403Y19083D01*
X70393Y19041D01*
Y20984D01*
X70403Y20942D01*
D02*
G37*
G36*
X66434Y18934D02*
X66404Y18910D01*
X66377Y18870D01*
X66354Y18814D01*
X66334Y18742D01*
X66318Y18654D01*
X66306Y18550D01*
X66292Y18294D01*
X66290Y18142D01*
X65490D01*
X65488Y18294D01*
X65461Y18654D01*
X65445Y18742D01*
X65425Y18814D01*
X65402Y18870D01*
X65376Y18910D01*
X65345Y18934D01*
X65311Y18942D01*
X66468D01*
X66434Y18934D01*
D02*
G37*
G36*
X60519Y19189D02*
X60528Y19094D01*
X60543Y19003D01*
X60558Y18942D01*
X60563D01*
X60558Y18938D01*
X60564Y18916D01*
X60591Y18834D01*
X60624Y18756D01*
X60663Y18682D01*
X60708Y18613D01*
X60759Y18547D01*
X60816Y18486D01*
X60519D01*
X60516Y18142D01*
X59716D01*
X59713Y18294D01*
X59694Y18486D01*
X59416D01*
X59473Y18547D01*
X59524Y18613D01*
X59569Y18682D01*
X59608Y18756D01*
X59619Y18783D01*
X59604Y18814D01*
X59564Y18870D01*
X59517Y18910D01*
X59465Y18934D01*
X59406Y18942D01*
X59674D01*
X59689Y19003D01*
X59704Y19094D01*
X59713Y19189D01*
X59716Y19289D01*
X60516D01*
X60519Y19189D01*
D02*
G37*
G36*
X58560Y18934D02*
X58530Y18910D01*
X58503Y18870D01*
X58480Y18814D01*
X58460Y18742D01*
X58444Y18654D01*
X58432Y18550D01*
X58417Y18294D01*
X58416Y18142D01*
X57616D01*
X57614Y18294D01*
X57587Y18654D01*
X57571Y18742D01*
X57551Y18814D01*
X57528Y18870D01*
X57502Y18910D01*
X57471Y18934D01*
X57437Y18942D01*
X58594D01*
X58560Y18934D01*
D02*
G37*
G36*
X56592D02*
X56561Y18910D01*
X56535Y18870D01*
X56511Y18814D01*
X56492Y18742D01*
X56476Y18654D01*
X56463Y18550D01*
X56449Y18294D01*
X56447Y18142D01*
X55647D01*
X55646Y18294D01*
X55619Y18654D01*
X55603Y18742D01*
X55583Y18814D01*
X55560Y18870D01*
X55533Y18910D01*
X55503Y18934D01*
X55469Y18942D01*
X56626D01*
X56592Y18934D01*
D02*
G37*
G36*
X54623D02*
X54593Y18910D01*
X54566Y18870D01*
X54543Y18814D01*
X54523Y18742D01*
X54507Y18654D01*
X54495Y18550D01*
X54480Y18294D01*
X54479Y18142D01*
X53679D01*
X53677Y18294D01*
X53650Y18654D01*
X53634Y18742D01*
X53614Y18814D01*
X53591Y18870D01*
X53565Y18910D01*
X53534Y18934D01*
X53500Y18942D01*
X54657D01*
X54623Y18934D01*
D02*
G37*
G36*
X52679D02*
X52671Y18910D01*
X52663Y18870D01*
X52656Y18814D01*
X52646Y18654D01*
X52638Y18142D01*
X51838D01*
X51835Y18294D01*
X51810Y18550D01*
X51789Y18654D01*
X51761Y18742D01*
X51728Y18814D01*
X51688Y18870D01*
X51642Y18910D01*
X51590Y18934D01*
X51532Y18942D01*
X52689D01*
X52679Y18934D01*
D02*
G37*
G36*
X50686D02*
X50656Y18910D01*
X50629Y18870D01*
X50606Y18814D01*
X50586Y18742D01*
X50570Y18654D01*
X50558Y18550D01*
X50543Y18294D01*
X50542Y18142D01*
X49742D01*
X49740Y18294D01*
X49713Y18654D01*
X49697Y18742D01*
X49677Y18814D01*
X49654Y18870D01*
X49628Y18910D01*
X49597Y18934D01*
X49563Y18942D01*
X50720D01*
X50686Y18934D01*
D02*
G37*
G36*
X48675Y17846D02*
X48747Y17803D01*
X48821Y17765D01*
X48899Y17733D01*
X48981Y17705D01*
X49066Y17682D01*
X49154Y17664D01*
X49246Y17652D01*
X49342Y17644D01*
X49441Y17642D01*
X49566Y16842D01*
X49466Y16838D01*
X49371Y16828D01*
X49281Y16812D01*
X49197Y16788D01*
X49119Y16758D01*
X49045Y16722D01*
X48977Y16678D01*
X48915Y16628D01*
X48858Y16572D01*
X48806Y16508D01*
X48608Y17894D01*
X48675Y17846D01*
D02*
G37*
G36*
X31007Y16623D02*
X31092Y16336D01*
X31144Y16202D01*
X31203Y16073D01*
X31244Y15996D01*
X31323Y15948D01*
X31450Y15889D01*
X31564Y15854D01*
X31665Y15845D01*
X31754Y15860D01*
X31830Y15901D01*
X31488Y15640D01*
X31505Y15620D01*
X31597Y15521D01*
X31039Y14665D01*
X30933Y14762D01*
X30824Y14845D01*
X30711Y14915D01*
X30605Y14966D01*
X30333Y14759D01*
X30388Y14820D01*
X30415Y14897D01*
X30414Y14990D01*
X30403Y15031D01*
X30347Y15044D01*
X30218Y15061D01*
X30084Y15065D01*
X29947Y15055D01*
X29805Y15031D01*
X30131Y15517D01*
X30127Y15522D01*
X29984Y15696D01*
X29614Y16090D01*
X30498Y16620D01*
X30689Y16435D01*
X30725Y16404D01*
X30974Y16776D01*
X31007Y16623D01*
D02*
G37*
G36*
X54479Y16929D02*
X54479Y16751D01*
X54531Y15898D01*
X54544Y15832D01*
X54560Y15780D01*
X53326Y16397D01*
X53393Y16423D01*
X53453Y16458D01*
X53506Y16501D01*
X53552Y16552D01*
X53591Y16612D01*
X53622Y16680D01*
X53647Y16757D01*
X53665Y16843D01*
X53675Y16937D01*
X53679Y17039D01*
X54479Y16929D01*
D02*
G37*
G36*
X58419Y15594D02*
X58430Y15500D01*
X58447Y15415D01*
X58472Y15338D01*
X58504Y15270D01*
X58542Y15212D01*
X58588Y15161D01*
X58640Y15120D01*
X58700Y15088D01*
X58767Y15064D01*
X57553Y14422D01*
X57565Y14467D01*
X57576Y14527D01*
X57593Y14695D01*
X57610Y15064D01*
X57616Y15575D01*
X58416Y15696D01*
X58419Y15594D01*
D02*
G37*
G36*
X67904Y12995D02*
X67916Y12857D01*
X67936Y12735D01*
X67964Y12629D01*
X68000Y12540D01*
X68044Y12467D01*
X68096Y12410D01*
X68156Y12370D01*
X68224Y12345D01*
X68300Y12337D01*
X66700D01*
X66776Y12345D01*
X66844Y12370D01*
X66904Y12410D01*
X66956Y12467D01*
X67000Y12540D01*
X67036Y12629D01*
X67064Y12735D01*
X67084Y12857D01*
X67096Y12995D01*
X67100Y13149D01*
X67900D01*
X67904Y12995D01*
D02*
G37*
G36*
X32400Y10415D02*
X32316Y10381D01*
X32242Y10324D01*
X32178Y10244D01*
X32123Y10142D01*
X32079Y10017D01*
X32044Y9868D01*
X32020Y9697D01*
X32015Y9633D01*
X32020Y9574D01*
X32045Y9425D01*
X32080Y9295D01*
X32125Y9184D01*
X32180Y9094D01*
X32245Y9025D01*
X32320Y8975D01*
X32405Y8945D01*
X32500Y8934D01*
X30500D01*
X30595Y8945D01*
X30680Y8975D01*
X30755Y9025D01*
X30820Y9094D01*
X30875Y9184D01*
X30920Y9295D01*
X30955Y9425D01*
X30980Y9574D01*
X30985Y9633D01*
X30980Y9697D01*
X30956Y9868D01*
X30921Y10017D01*
X30877Y10142D01*
X30822Y10244D01*
X30758Y10324D01*
X30684Y10381D01*
X30600Y10415D01*
X30507Y10427D01*
X32493D01*
X32400Y10415D01*
D02*
G37*
G36*
X58084Y6633D02*
X58025Y6624D01*
X57971Y6605D01*
X57924Y6575D01*
X57883Y6534D01*
X57849Y6483D01*
X57820Y6421D01*
X57798Y6348D01*
X57783Y6265D01*
X57773Y6171D01*
X57770Y6066D01*
X56970Y6282D01*
X57050Y7441D01*
X58084Y6633D01*
D02*
G37*
G36*
X74291Y5824D02*
X74316Y5756D01*
X74356Y5696D01*
X74413Y5644D01*
X74486Y5600D01*
X74575Y5564D01*
X74681Y5536D01*
X74803Y5516D01*
X74941Y5504D01*
X75095Y5500D01*
Y4700D01*
X74941Y4696D01*
X74803Y4684D01*
X74681Y4664D01*
X74575Y4636D01*
X74486Y4600D01*
X74413Y4556D01*
X74356Y4504D01*
X74316Y4444D01*
X74291Y4376D01*
X74283Y4300D01*
Y5900D01*
X74291Y5824D01*
D02*
G37*
G36*
X52659Y4285D02*
X53043Y3957D01*
X53209Y3839D01*
X53358Y3753D01*
X53490Y3697D01*
X53605Y3673D01*
X53702Y3680D01*
X53783Y3717D01*
X53846Y3786D01*
X52739Y2088D01*
X52782Y2178D01*
X52798Y2279D01*
X52790Y2392D01*
X52756Y2517D01*
X52697Y2652D01*
X52612Y2799D01*
X52502Y2958D01*
X52367Y3128D01*
X52206Y3309D01*
X52020Y3503D01*
X52441Y4496D01*
X52659Y4285D01*
D02*
G37*
%LPC*%
G36*
X76324Y115560D02*
X73659D01*
Y113780D01*
X76324D01*
Y115560D01*
D02*
G37*
G36*
X80360Y111524D02*
X78580D01*
Y108859D01*
X80360D01*
Y111524D01*
D02*
G37*
G36*
X102900Y109400D02*
X88592D01*
Y104979D01*
X88706Y103818D01*
X89045Y102702D01*
X89595Y101673D01*
X90334Y100771D01*
X91236Y100032D01*
X92265Y99482D01*
X93381Y99143D01*
X94542Y99029D01*
X102900D01*
Y109400D01*
D02*
G37*
G36*
X136371Y97428D02*
X136031D01*
Y95100D01*
X138281D01*
Y95518D01*
X138135Y96249D01*
X137721Y96869D01*
X137102Y97283D01*
X136371Y97428D01*
D02*
G37*
G36*
X135031D02*
X134692D01*
X133961Y97283D01*
X133342Y96869D01*
X132928Y96249D01*
X132782Y95518D01*
Y95100D01*
X135031D01*
Y97428D01*
D02*
G37*
G36*
X138281Y94100D02*
X136031D01*
Y91772D01*
X136371D01*
X137102Y91917D01*
X137721Y92331D01*
X138135Y92951D01*
X138281Y93682D01*
Y94100D01*
D02*
G37*
G36*
X135031D02*
X132782D01*
Y93682D01*
X132928Y92951D01*
X133342Y92331D01*
X133961Y91917D01*
X134692Y91772D01*
X135031D01*
Y94100D01*
D02*
G37*
G36*
X114558Y94600D02*
X112130D01*
Y93368D01*
X112281Y92609D01*
X112711Y91966D01*
X113355Y91536D01*
X114113Y91385D01*
X114558D01*
Y94600D01*
D02*
G37*
G36*
X150000Y81521D02*
Y78100D01*
X153421D01*
X153351Y78632D01*
X152953Y79593D01*
X152319Y80419D01*
X151493Y81053D01*
X150532Y81451D01*
X150000Y81521D01*
D02*
G37*
G36*
X112703Y76115D02*
X112258D01*
Y72900D01*
X114686D01*
Y74132D01*
X114535Y74891D01*
X114105Y75534D01*
X113462Y75964D01*
X112703Y76115D01*
D02*
G37*
G36*
X153153Y71253D02*
X145847D01*
Y63947D01*
X153153D01*
Y71253D01*
D02*
G37*
G36*
X132418Y46318D02*
X132000D01*
Y44069D01*
X134328D01*
Y44408D01*
X134183Y45139D01*
X133769Y45758D01*
X133149Y46172D01*
X132418Y46318D01*
D02*
G37*
G36*
X134328Y43069D02*
X132000D01*
Y40819D01*
X132418D01*
X133149Y40965D01*
X133769Y41379D01*
X134183Y41998D01*
X134328Y42729D01*
Y43069D01*
D02*
G37*
G36*
X115018Y36018D02*
X114600D01*
Y33768D01*
X116928D01*
Y34108D01*
X116783Y34839D01*
X116369Y35458D01*
X115749Y35872D01*
X115018Y36018D01*
D02*
G37*
G36*
X113600D02*
X113182D01*
X112451Y35872D01*
X111831Y35458D01*
X111417Y34839D01*
X111272Y34108D01*
Y33768D01*
X113600D01*
Y36018D01*
D02*
G37*
G36*
X105282Y31791D02*
X104290D01*
Y25385D01*
X105282D01*
Y31791D01*
D02*
G37*
G36*
X99789Y16105D02*
X90909D01*
Y9447D01*
X89768D01*
Y5600D01*
X91843D01*
Y7225D01*
X99789D01*
Y16105D01*
D02*
G37*
G36*
X88768Y9447D02*
X86693D01*
Y5600D01*
X88768D01*
Y9447D01*
D02*
G37*
G36*
X42541Y115560D02*
X39876D01*
Y113780D01*
X42541D01*
Y115560D01*
D02*
G37*
G36*
X37620Y111524D02*
X35840D01*
Y108859D01*
X37620D01*
Y111524D01*
D02*
G37*
G36*
X20247Y104470D02*
X19171D01*
Y103553D01*
X19270Y103055D01*
X19552Y102633D01*
X19974Y102351D01*
X20247Y102297D01*
Y104470D01*
D02*
G37*
G36*
X10418Y108512D02*
X8582D01*
X7968Y108390D01*
X7448Y108042D01*
X7100Y107522D01*
X6978Y106908D01*
Y105229D01*
X7100Y104615D01*
X7448Y104095D01*
X7968Y103747D01*
X8582Y103625D01*
X10357D01*
X14175Y99807D01*
X14175Y99807D01*
X14539Y99564D01*
X14968Y99478D01*
X14968Y99478D01*
X15531D01*
X15580Y98978D01*
X15098Y98883D01*
X14479Y98469D01*
X14065Y97849D01*
X13919Y97118D01*
Y96700D01*
X16669D01*
X19418D01*
Y97118D01*
X19272Y97849D01*
X18858Y98469D01*
X18414Y98765D01*
X18363Y99288D01*
X18380Y99344D01*
X18426Y99374D01*
X18801Y99937D01*
X18933Y100600D01*
X18801Y101263D01*
X18426Y101826D01*
X17863Y102201D01*
X17200Y102333D01*
X16537Y102201D01*
X15974Y101826D01*
X15905Y101722D01*
X15433D01*
X12006Y105148D01*
X12022Y105229D01*
Y106908D01*
X11900Y107522D01*
X11552Y108042D01*
X11032Y108390D01*
X10418Y108512D01*
D02*
G37*
G36*
X7500Y101808D02*
X6670Y101699D01*
X5896Y101378D01*
X5232Y100868D01*
X4722Y100204D01*
X4402Y99430D01*
X4292Y98600D01*
X4402Y97770D01*
X4722Y96996D01*
X5232Y96332D01*
X5896Y95822D01*
X6670Y95502D01*
X7500Y95392D01*
X8330Y95502D01*
X9104Y95822D01*
X9768Y96332D01*
X10278Y96996D01*
X10598Y97770D01*
X10708Y98600D01*
X10598Y99430D01*
X10278Y100204D01*
X9768Y100868D01*
X9104Y101378D01*
X8330Y101699D01*
X7500Y101808D01*
D02*
G37*
G36*
X19418Y95700D02*
X16669D01*
X13919D01*
Y95282D01*
X14065Y94551D01*
X14479Y93931D01*
X14778Y93731D01*
Y93130D01*
X14414Y92886D01*
X13928Y92158D01*
X13757Y91300D01*
X13928Y90442D01*
X14414Y89714D01*
X15142Y89228D01*
X16000Y89057D01*
X16858Y89228D01*
X17586Y89714D01*
X18072Y90442D01*
X18243Y91300D01*
X18072Y92158D01*
X17586Y92886D01*
X17701Y93410D01*
X18239Y93517D01*
X18858Y93931D01*
X19272Y94551D01*
X19418Y95282D01*
Y95700D01*
D02*
G37*
G36*
X24308Y76322D02*
X22629D01*
X22015Y76200D01*
X21495Y75852D01*
X21452Y75788D01*
X17984D01*
X17858Y75872D01*
X17000Y76043D01*
X16142Y75872D01*
X15414Y75386D01*
X14928Y74658D01*
X14757Y73800D01*
X14928Y72942D01*
X15414Y72214D01*
X16142Y71728D01*
X17000Y71557D01*
X17858Y71728D01*
X17984Y71812D01*
X21452D01*
X21480Y71770D01*
Y69253D01*
X21352Y69061D01*
X21201Y68300D01*
X21352Y67539D01*
X21534Y67268D01*
X21555Y67158D01*
X21823Y66757D01*
X22224Y66489D01*
X22697Y66395D01*
X22770D01*
X23189Y66312D01*
X23608Y66395D01*
X23681D01*
X24154Y66489D01*
X24555Y66757D01*
X24722Y67008D01*
X24793Y67031D01*
X24845Y67037D01*
X25229Y66990D01*
X25321Y66943D01*
X25445Y66757D01*
X25846Y66489D01*
X25910Y66477D01*
Y64766D01*
X25578Y64700D01*
X25058Y64352D01*
X24710Y63832D01*
X24588Y63218D01*
Y61382D01*
X24710Y60768D01*
X25058Y60248D01*
X25578Y59900D01*
X26192Y59778D01*
X27871D01*
X28485Y59900D01*
X29005Y60248D01*
X29353Y60768D01*
X29475Y61382D01*
Y63218D01*
X29353Y63832D01*
X29005Y64352D01*
X28485Y64700D01*
X28153Y64766D01*
Y66741D01*
X28177Y66757D01*
X28445Y67158D01*
X28449Y67178D01*
X33205D01*
X33274Y67074D01*
X33837Y66699D01*
X34500Y66567D01*
X35163Y66699D01*
X35726Y67074D01*
X36101Y67637D01*
X36233Y68300D01*
X36101Y68963D01*
X35726Y69526D01*
X35163Y69901D01*
X34500Y70033D01*
X33837Y69901D01*
X33274Y69526D01*
X33205Y69422D01*
X28449D01*
X28445Y69442D01*
X28177Y69843D01*
X27776Y70111D01*
X27303Y70205D01*
X26319D01*
X25957Y70133D01*
X25457Y70406D01*
Y71770D01*
X25790Y72268D01*
X25912Y72882D01*
Y74718D01*
X25790Y75332D01*
X25442Y75852D01*
X24922Y76200D01*
X24308Y76322D01*
D02*
G37*
G36*
X7500Y81808D02*
X6670Y81699D01*
X5896Y81378D01*
X5232Y80868D01*
X4722Y80204D01*
X4402Y79430D01*
X4292Y78600D01*
X4402Y77770D01*
X4722Y76996D01*
X5232Y76332D01*
X5896Y75822D01*
X6670Y75502D01*
X7500Y75392D01*
X8330Y75502D01*
X9104Y75822D01*
X9768Y76332D01*
X10278Y76996D01*
X10598Y77770D01*
X10708Y78600D01*
X10598Y79430D01*
X10278Y80204D01*
X9768Y80868D01*
X9104Y81378D01*
X8330Y81699D01*
X7500Y81808D01*
D02*
G37*
G36*
X39389Y68300D02*
X37855D01*
Y68131D01*
X37973Y67541D01*
X38307Y67041D01*
X38807Y66707D01*
X39389Y66591D01*
Y68300D01*
D02*
G37*
G36*
X7500Y71808D02*
X6670Y71698D01*
X5896Y71378D01*
X5232Y70868D01*
X4722Y70204D01*
X4402Y69430D01*
X4292Y68600D01*
X4402Y67770D01*
X4722Y66996D01*
X5232Y66332D01*
X5896Y65822D01*
X6670Y65501D01*
X7500Y65392D01*
X8330Y65501D01*
X9104Y65822D01*
X9768Y66332D01*
X10278Y66996D01*
X10598Y67770D01*
X10708Y68600D01*
X10598Y69430D01*
X10278Y70204D01*
X9768Y70868D01*
X9104Y71378D01*
X8330Y71698D01*
X7500Y71808D01*
D02*
G37*
G36*
X39031Y65691D02*
X38911Y65667D01*
X38385Y65315D01*
X38033Y64789D01*
X38009Y64669D01*
X39031D01*
Y65691D01*
D02*
G37*
G36*
X21808Y65128D02*
X21468D01*
Y62800D01*
X23718D01*
Y63218D01*
X23572Y63949D01*
X23158Y64569D01*
X22539Y64983D01*
X21808Y65128D01*
D02*
G37*
G36*
X20469D02*
X20129D01*
X19398Y64983D01*
X18779Y64569D01*
X18365Y63949D01*
X18219Y63218D01*
Y62800D01*
X20469D01*
Y65128D01*
D02*
G37*
G36*
X23718Y61800D02*
X21468D01*
Y59472D01*
X21808D01*
X22539Y59617D01*
X23158Y60031D01*
X23572Y60651D01*
X23718Y61382D01*
Y61800D01*
D02*
G37*
G36*
X20469D02*
X18219D01*
Y61382D01*
X18365Y60651D01*
X18779Y60031D01*
X19398Y59617D01*
X20129Y59472D01*
X20469D01*
Y61800D01*
D02*
G37*
G36*
X39031Y59732D02*
X38009D01*
X38033Y59611D01*
X38385Y59085D01*
X38911Y58733D01*
X39031Y58709D01*
Y59732D01*
D02*
G37*
G36*
X7500Y61808D02*
X6670Y61699D01*
X5896Y61378D01*
X5232Y60868D01*
X4722Y60204D01*
X4402Y59430D01*
X4292Y58600D01*
X4402Y57770D01*
X4722Y56996D01*
X5232Y56332D01*
X5896Y55822D01*
X6670Y55502D01*
X7500Y55392D01*
X8330Y55502D01*
X9104Y55822D01*
X9768Y56332D01*
X10278Y56996D01*
X10598Y57770D01*
X10708Y58600D01*
X10598Y59430D01*
X10278Y60204D01*
X9768Y60868D01*
X9104Y61378D01*
X8330Y61699D01*
X7500Y61808D01*
D02*
G37*
G36*
X42500Y56081D02*
X42082D01*
X41351Y55935D01*
X40731Y55521D01*
X40317Y54902D01*
X40172Y54171D01*
Y53831D01*
X42500D01*
Y56081D01*
D02*
G37*
%LPD*%
G36*
X27783Y69022D02*
X27808Y68954D01*
X27850Y68895D01*
X27909Y68843D01*
X27984Y68799D01*
X28076Y68764D01*
X28185Y68736D01*
X28311Y68716D01*
X28454Y68704D01*
X28613Y68700D01*
Y67900D01*
X28454Y67896D01*
X28311Y67884D01*
X28185Y67864D01*
X28076Y67836D01*
X27984Y67801D01*
X27909Y67757D01*
X27850Y67705D01*
X27808Y67646D01*
X27783Y67578D01*
X27775Y67502D01*
Y69098D01*
X27783Y69022D01*
D02*
G37*
G36*
X27435Y64742D02*
X27448Y64604D01*
X27468Y64482D01*
X27496Y64376D01*
X27531Y64287D01*
X27575Y64214D01*
X27628Y64157D01*
X27687Y64117D01*
X27755Y64092D01*
X27832Y64084D01*
X26232D01*
X26307Y64092D01*
X26375Y64117D01*
X26436Y64157D01*
X26487Y64214D01*
X26531Y64287D01*
X26568Y64376D01*
X26596Y64482D01*
X26616Y64604D01*
X26627Y64742D01*
X26632Y64896D01*
X27431D01*
X27435Y64742D01*
D02*
G37*
%LPC*%
G36*
X80360Y77741D02*
X78580D01*
Y75076D01*
X80360D01*
Y77741D01*
D02*
G37*
G36*
X76324Y72820D02*
X73659D01*
Y71040D01*
X76324D01*
Y72820D01*
D02*
G37*
G36*
X60000Y59021D02*
Y55600D01*
X63421D01*
X63351Y56132D01*
X62953Y57093D01*
X62319Y57919D01*
X61493Y58553D01*
X60532Y58951D01*
X60000Y59021D01*
D02*
G37*
G36*
X63421Y54600D02*
X60000D01*
Y51179D01*
X60532Y51249D01*
X61493Y51647D01*
X62319Y52281D01*
X62953Y53107D01*
X63351Y54068D01*
X63421Y54600D01*
D02*
G37*
G36*
X44578Y48116D02*
X44565Y48098D01*
X44508Y48006D01*
X44456Y47905D01*
X44409Y47794D01*
X44365Y47673D01*
X44327Y47543D01*
X44263Y47255D01*
X44243Y47125D01*
X44778Y47622D01*
X44578Y48116D01*
D02*
G37*
G36*
X77611Y20109D02*
Y18400D01*
X79145D01*
Y18569D01*
X79027Y19159D01*
X78693Y19659D01*
X78193Y19993D01*
X77611Y20109D01*
D02*
G37*
G36*
X79145Y17400D02*
X77611D01*
Y15691D01*
X78193Y15807D01*
X78693Y16141D01*
X79027Y16641D01*
X79145Y17231D01*
Y17400D01*
D02*
G37*
G36*
X47268Y9946D02*
X45193D01*
Y6100D01*
X47268D01*
Y9946D01*
D02*
G37*
G36*
X62000Y4289D02*
X60291D01*
X60407Y3707D01*
X60741Y3207D01*
X61241Y2873D01*
X61831Y2755D01*
X62000D01*
Y4289D01*
D02*
G37*
%LPD*%
D10*
X119700Y60200D02*
G03*
X120100Y60000I300J100D01*
G01*
D11*
X119000Y61300D02*
G03*
X119900Y60500I850J50D01*
G01*
X100500Y30130D02*
Y40501D01*
X75470Y5100D02*
X100500Y30130D01*
X34600Y22500D02*
X35500Y21600D01*
X6570Y22500D02*
X34600D01*
X56228Y77276D02*
Y82800D01*
X56664Y83236D01*
Y83436D01*
X3500Y25570D02*
X6570Y22500D01*
X3500Y25570D02*
Y44600D01*
X1600Y24400D02*
X3200Y22800D01*
X1600Y24400D02*
Y82700D01*
X3200Y22800D02*
Y22900D01*
X92500Y62184D02*
X93400Y61284D01*
X106000Y57631D02*
X112806D01*
X114488Y55950D01*
X121575Y58312D02*
Y60206D01*
X131000Y71900D02*
Y77400D01*
X38120Y100387D02*
Y103930D01*
Y96843D02*
Y100387D01*
X51013Y73320D02*
X54557D01*
X47470D02*
X51013D01*
X133500Y60970D02*
Y67100D01*
X133300Y67300D02*
X133500Y67100D01*
X129100Y70000D02*
X131000Y71900D01*
X129100Y61300D02*
Y70000D01*
X125512Y57712D02*
X129100Y61300D01*
X125512Y55950D02*
Y57712D01*
X120268Y33500D02*
Y39000D01*
X119937Y39331D02*
Y47225D01*
X114100Y39331D02*
X119937D01*
X9500Y106069D02*
X14968Y100600D01*
X17200D01*
X26653Y102853D02*
Y104970D01*
X25200Y101400D02*
X26653Y102853D01*
X14353Y107647D02*
X18070D01*
X9868Y112132D02*
X14353Y107647D01*
X9500Y112132D02*
X9868D01*
X22716Y96216D02*
X22731Y96200D01*
X22716Y96216D02*
Y104970D01*
X29330Y113553D02*
X29647Y113235D01*
X33465D01*
X33800Y112900D01*
X29750Y117350D02*
X33000D01*
X28630Y116230D02*
X29750Y117350D01*
X26653Y116230D02*
X28630D01*
X18570D02*
X20747D01*
X16900Y117900D02*
X18570Y116230D01*
X13600Y117900D02*
X16900D01*
X51900Y52800D02*
Y55200D01*
X46869Y60232D02*
X51900Y55200D01*
Y46798D02*
Y52800D01*
Y46798D02*
X52110Y46587D01*
X62751Y61919D02*
X81119D01*
X54600Y70070D02*
X62751Y61919D01*
X54600Y69600D02*
Y70070D01*
X122200Y43200D02*
Y43300D01*
X121800Y42800D02*
X122200Y43200D01*
X123320Y59800D02*
X126500Y62980D01*
Y66400D01*
X47400Y62200D02*
X54357Y55243D01*
X43468Y62200D02*
X47400D01*
X43468Y60232D02*
X46869D01*
X123175Y59800D02*
X123320D01*
X123175Y58337D02*
Y59800D01*
X69900Y96600D02*
X71400Y95100D01*
X69900Y96600D02*
Y97000D01*
X71400Y95100D02*
X73995D01*
X72885Y98615D02*
X74124D01*
X70500Y101000D02*
X72885Y98615D01*
X61643Y113280D02*
X65187D01*
X63415Y109324D02*
Y113195D01*
X43041Y113280D02*
X47470D01*
X45698Y109324D02*
Y112979D01*
Y109324D02*
X46000Y109625D01*
X38120Y86213D02*
Y89757D01*
X38120Y87985D02*
X42076D01*
X54557Y73320D02*
X58100D01*
X78080Y82670D02*
Y86213D01*
X74124Y84442D02*
X78080D01*
X42076D02*
X44142D01*
X45600Y85900D01*
Y88300D01*
X45500Y88400D02*
X45600Y88300D01*
X29632Y73700D02*
X36700D01*
X29531Y73800D02*
X29632Y73700D01*
X47800Y80028D02*
Y80800D01*
X47157Y79386D02*
X47800Y80028D01*
X47157Y78835D02*
Y79386D01*
X45598Y77276D02*
X47157Y78835D01*
X50200Y78335D02*
Y83500D01*
X49142Y77276D02*
X50200Y78335D01*
Y83500D02*
X52200Y85500D01*
X58100Y84872D02*
Y97321D01*
X56664Y83436D02*
X58100Y84872D01*
X56600Y86342D02*
Y96700D01*
X52685Y82427D02*
X56600Y86342D01*
X52685Y82085D02*
Y82427D01*
Y77276D02*
Y81709D01*
X89289Y94200D02*
X89400D01*
X88000Y95489D02*
X89289Y94200D01*
X88000Y95489D02*
Y96400D01*
X86000Y98400D02*
X88000Y96400D01*
X94323Y44300D02*
X94355D01*
X93400Y45223D02*
X94323Y44300D01*
X93702Y42800D02*
X93734D01*
X91900Y44602D02*
X93702Y42800D01*
X93039Y41200D02*
X93071D01*
X38020Y78241D02*
X40677Y80898D01*
X41976D01*
X45713Y30347D02*
X56047D01*
X50142Y42158D02*
Y46587D01*
X49142Y108674D02*
Y109324D01*
Y108674D02*
X54015Y103800D01*
X57000D01*
X26811Y68300D02*
X27031Y68080D01*
Y62300D02*
Y68080D01*
X72287Y30347D02*
X72465Y30169D01*
X91900Y44602D02*
Y60663D01*
X93400Y45223D02*
Y61284D01*
X72287Y28379D02*
X72465Y28201D01*
X72287Y26410D02*
X72465Y26232D01*
X72287Y24442D02*
X72565Y24164D01*
X92500Y90900D02*
X93100Y91500D01*
X71915Y87985D02*
X74024D01*
X93100Y91500D02*
Y94200D01*
X71572Y91528D02*
X74024D01*
X90200Y96000D02*
Y96400D01*
Y96000D02*
X91000Y95200D01*
X51832Y46865D02*
X52110Y46587D01*
X54079D02*
X54357Y46865D01*
X65890Y15221D02*
Y20013D01*
X26811Y68300D02*
X34500D01*
X54985Y100436D02*
Y101285D01*
Y100436D02*
X58100Y97321D01*
X56228Y77276D02*
X56836D01*
X52685D02*
X53293Y76669D01*
X53076Y99376D02*
X53924D01*
X56600Y96700D01*
X56047Y46587D02*
Y49647D01*
X112655Y52881D02*
X114407D01*
X114488Y52800D01*
X115110Y51150D02*
X115116Y51144D01*
X115500D01*
Y51225D01*
X114488D02*
X115500D01*
X123150Y58312D02*
X123175Y58337D01*
X92500Y62184D02*
Y90900D01*
X91000Y61563D02*
Y95200D01*
X70500Y92600D02*
X71572Y91528D01*
X70500Y92600D02*
Y92900D01*
X73995Y95100D02*
X74024Y95072D01*
X70600Y89300D02*
X71915Y87985D01*
X70502Y109324D02*
Y112837D01*
X68730Y113280D02*
X73159D01*
X78080Y96843D02*
Y100387D01*
X81900Y101100D02*
X83468Y99432D01*
Y97332D02*
Y99432D01*
Y97332D02*
X87700Y93100D01*
X90300Y43939D02*
X93039Y41200D01*
X87700Y60100D02*
Y93100D01*
X90300Y43939D02*
Y60000D01*
X89400Y60900D02*
X90300Y60000D01*
X89400Y60900D02*
Y94200D01*
X91000Y61563D02*
X91900Y60663D01*
X72287Y32316D02*
X72565Y32038D01*
X85300Y41868D02*
X88638Y38530D01*
Y35738D02*
Y38530D01*
X84938Y32038D02*
X88638Y35738D01*
X72565Y32038D02*
X84938D01*
X93071Y41200D02*
X94000Y40271D01*
X93734Y42800D02*
X96000Y40534D01*
X94355Y44300D02*
X97500Y41155D01*
Y32100D02*
Y41155D01*
X87873Y22473D02*
X97500Y32100D01*
X50142Y46587D02*
X50181Y46627D01*
X54357Y46865D02*
Y55243D01*
X56047Y49647D02*
X56500Y50100D01*
X87700Y60100D02*
X88568Y59232D01*
X81119Y61919D02*
X85300Y57737D01*
X88568Y43267D02*
X92000Y39835D01*
X88568Y43267D02*
Y59232D01*
X86900Y42531D02*
Y58400D01*
Y42531D02*
X90303Y39127D01*
X85300Y41868D02*
Y57737D01*
X75000Y39100D02*
X78000D01*
X74188Y39912D02*
X75000Y39100D01*
X72565Y39912D02*
X74188D01*
X72287Y40190D02*
X72565Y39912D01*
X65000Y63771D02*
Y64100D01*
Y63771D02*
X81529D01*
X86900Y58400D01*
X122311Y79663D02*
X122400Y79574D01*
X118425Y44225D02*
Y47288D01*
X117200Y43000D02*
X118425Y44225D01*
X116700Y43000D02*
X117200D01*
X121800Y42800D02*
Y45311D01*
X121569Y45542D02*
X121800Y45311D01*
X121569Y45542D02*
Y47288D01*
X133500Y57230D02*
X136098D01*
X139000Y60132D01*
X54079Y16000D02*
Y20013D01*
X101452Y51569D02*
X104265Y54381D01*
X111155D01*
X112655Y52881D01*
X99000Y49569D02*
X101000Y51569D01*
X99000Y31479D02*
Y49569D01*
X84121Y16600D02*
X99000Y31479D01*
X84000Y16600D02*
X84121D01*
X100500Y40501D02*
X111150Y51150D01*
X115110D01*
X90303Y35025D02*
Y39127D01*
X85448Y30169D02*
X90303Y35025D01*
X72465Y30169D02*
X85448D01*
X92000Y34600D02*
Y39835D01*
X85601Y28201D02*
X92000Y34600D01*
X72465Y28201D02*
X85601D01*
X94000Y34300D02*
Y40271D01*
X85932Y26232D02*
X94000Y34300D01*
X72465Y26232D02*
X85932D01*
X96000Y33100D02*
Y40534D01*
X87064Y24164D02*
X96000Y33100D01*
X21065Y116547D02*
Y118665D01*
X21423Y119023D01*
X24077D01*
X24684Y118416D01*
Y116230D02*
Y118416D01*
X41500Y43600D02*
X42942Y42158D01*
X45713D01*
X40000Y28611D02*
X41736Y30347D01*
X45713D01*
X41000Y40600D02*
X43379Y38221D01*
X45713D01*
X72287Y36253D02*
X76847D01*
X116850Y46773D02*
Y47288D01*
X111677Y41600D02*
X116850Y46773D01*
X105000Y41600D02*
X111677D01*
X53619Y15540D02*
X54079Y16000D01*
X53619Y15441D02*
Y15540D01*
X58016Y14584D02*
X58500Y14100D01*
X58016Y14584D02*
Y20013D01*
X62231Y18474D02*
Y19735D01*
X61953Y20013D02*
X62231Y19735D01*
X63000Y8911D02*
Y17705D01*
X62231Y18474D02*
X63000Y17705D01*
X59984Y20013D02*
X60116Y19881D01*
Y17772D02*
Y19881D01*
X72565Y24164D02*
X87064D01*
X72287Y22473D02*
X87873D01*
X72732Y5100D02*
X75470D01*
X65890Y15221D02*
X67500Y13611D01*
Y10632D02*
Y13611D01*
X62500Y8411D02*
X63000Y8911D01*
X57370Y6970D02*
X58031Y7632D01*
X57370Y2600D02*
Y6970D01*
X42000Y12100D02*
X53900D01*
X55719Y13919D01*
Y15271D01*
X56047Y15599D01*
Y20013D01*
X36500Y14600D02*
X49808D01*
X52238Y17030D01*
Y19885D01*
X52110Y20013D02*
X52238Y19885D01*
X50142Y17242D02*
Y20013D01*
X48142Y17242D02*
X50142D01*
X48000Y17100D02*
X48142Y17242D01*
X7500Y48100D02*
Y48600D01*
X1600Y82700D02*
X7500Y88600D01*
X3500Y44600D02*
X7500Y48600D01*
D12*
X115058Y95100D02*
D03*
X122342D02*
D03*
X111758Y72400D02*
D03*
X119042D02*
D03*
D13*
X38120Y78241D02*
D03*
Y108359D02*
D03*
X78080Y78241D02*
D03*
Y108359D02*
D03*
D14*
X38120Y82670D02*
D03*
Y86213D02*
D03*
Y89757D02*
D03*
Y93300D02*
D03*
Y96843D02*
D03*
Y100387D02*
D03*
Y103930D02*
D03*
X78080Y82670D02*
D03*
Y86213D02*
D03*
Y89757D02*
D03*
Y93300D02*
D03*
Y96843D02*
D03*
Y100387D02*
D03*
Y103930D02*
D03*
D15*
X42076Y80898D02*
D03*
Y84442D02*
D03*
Y87985D02*
D03*
Y91528D02*
D03*
Y98615D02*
D03*
Y102158D02*
D03*
Y105702D02*
D03*
Y95072D02*
D03*
X74124Y80898D02*
D03*
Y84442D02*
D03*
Y87985D02*
D03*
Y91528D02*
D03*
Y95072D02*
D03*
Y98615D02*
D03*
Y102158D02*
D03*
Y105702D02*
D03*
D16*
X47470Y73320D02*
D03*
X54557D02*
D03*
X51013D02*
D03*
X47470Y113280D02*
D03*
X51013D02*
D03*
X54557D02*
D03*
X61643Y73320D02*
D03*
X58100D02*
D03*
X68730D02*
D03*
X65187D02*
D03*
X61643Y113280D02*
D03*
X58100D02*
D03*
X65187D02*
D03*
X68730D02*
D03*
D17*
X43041Y73320D02*
D03*
Y113280D02*
D03*
X73159Y73320D02*
D03*
Y113280D02*
D03*
D18*
X45698Y77276D02*
D03*
X56328D02*
D03*
X49242D02*
D03*
X52785D02*
D03*
X45698Y109324D02*
D03*
X52785D02*
D03*
X49242D02*
D03*
X56328D02*
D03*
X63415Y77276D02*
D03*
X59872D02*
D03*
X70502D02*
D03*
X66958D02*
D03*
X63415Y109324D02*
D03*
X59872D02*
D03*
X70502D02*
D03*
X66958D02*
D03*
D19*
X133500Y57230D02*
D03*
Y60970D02*
D03*
D20*
X18070Y109616D02*
D03*
Y107647D02*
D03*
Y111584D02*
D03*
Y113553D02*
D03*
X29330Y107647D02*
D03*
Y109616D02*
D03*
Y111584D02*
D03*
Y113553D02*
D03*
D21*
X20747Y104970D02*
D03*
X22716D02*
D03*
X20747Y116230D02*
D03*
X22716D02*
D03*
X24684Y104970D02*
D03*
X26653D02*
D03*
X24684Y116230D02*
D03*
X26653D02*
D03*
D22*
X33611Y101600D02*
D03*
X29989D02*
D03*
X23189Y68300D02*
D03*
X26811D02*
D03*
X77111Y17900D02*
D03*
X73489D02*
D03*
X43511Y68800D02*
D03*
X39889D02*
D03*
D23*
X22731Y96200D02*
D03*
X16669D02*
D03*
X120069Y34000D02*
D03*
X126131D02*
D03*
X23469Y73800D02*
D03*
X29531D02*
D03*
X129469Y94600D02*
D03*
X135531D02*
D03*
X119968Y39000D02*
D03*
X126031D02*
D03*
X20968Y62300D02*
D03*
X27031D02*
D03*
D24*
X9500Y106069D02*
D03*
Y112132D02*
D03*
X114100Y39331D02*
D03*
Y33268D02*
D03*
X106000Y51569D02*
D03*
Y57631D02*
D03*
X139000Y60132D02*
D03*
Y54068D02*
D03*
X67500Y4569D02*
D03*
Y10632D02*
D03*
X43000Y47269D02*
D03*
Y53332D02*
D03*
X131500Y43569D02*
D03*
Y49632D02*
D03*
X30900Y43532D02*
D03*
Y37468D02*
D03*
X31000Y26068D02*
D03*
Y32131D02*
D03*
X101000Y51569D02*
D03*
Y57631D02*
D03*
D25*
X39531Y64169D02*
D03*
Y60232D02*
D03*
X41500D02*
D03*
X43468D02*
D03*
X39531Y62200D02*
D03*
X41500Y64169D02*
D03*
X43468Y62200D02*
D03*
Y64169D02*
D03*
D26*
X114488Y49650D02*
D03*
Y51225D02*
D03*
Y55950D02*
D03*
Y54375D02*
D03*
Y52800D02*
D03*
X125512Y51225D02*
D03*
Y49650D02*
D03*
Y54375D02*
D03*
Y52800D02*
D03*
Y55950D02*
D03*
D27*
X116850Y47288D02*
D03*
Y58312D02*
D03*
X118425D02*
D03*
X121575Y47288D02*
D03*
X123150D02*
D03*
X118425D02*
D03*
X120000D02*
D03*
X123150Y58312D02*
D03*
X120000D02*
D03*
X121575D02*
D03*
D28*
X120000Y52800D02*
D03*
D29*
X45713Y22473D02*
D03*
Y24442D02*
D03*
Y26410D02*
D03*
Y28379D02*
D03*
Y30347D02*
D03*
Y32316D02*
D03*
Y36253D02*
D03*
Y40190D02*
D03*
Y42158D02*
D03*
Y44127D02*
D03*
Y34284D02*
D03*
Y38221D02*
D03*
X72287Y22473D02*
D03*
Y24442D02*
D03*
Y26410D02*
D03*
Y28379D02*
D03*
Y30347D02*
D03*
Y32316D02*
D03*
Y34284D02*
D03*
Y36253D02*
D03*
Y38221D02*
D03*
Y40190D02*
D03*
Y42158D02*
D03*
Y44127D02*
D03*
D30*
X52110Y20013D02*
D03*
X56047D02*
D03*
X50142D02*
D03*
X48173D02*
D03*
X58016D02*
D03*
X54079D02*
D03*
X48173Y46587D02*
D03*
X52110D02*
D03*
X50142D02*
D03*
X54079D02*
D03*
X58016D02*
D03*
X56047D02*
D03*
X59984Y20013D02*
D03*
X63921D02*
D03*
X61953D02*
D03*
X65890D02*
D03*
X69827D02*
D03*
X67858D02*
D03*
X59984Y46587D02*
D03*
X63921D02*
D03*
X61953D02*
D03*
X65890D02*
D03*
X67858D02*
D03*
X69827D02*
D03*
D31*
X59000Y33300D02*
D03*
D32*
X89268Y5100D02*
D03*
X72732D02*
D03*
X47768Y5600D02*
D03*
X31232D02*
D03*
D33*
X62500Y4789D02*
D03*
Y8411D02*
D03*
X40000Y24789D02*
D03*
Y28411D02*
D03*
X31500Y14911D02*
D03*
Y11289D02*
D03*
X77000Y42789D02*
D03*
Y46411D02*
D03*
X47900Y50789D02*
D03*
Y54411D02*
D03*
X38000Y47489D02*
D03*
Y51111D02*
D03*
D34*
X106800Y79310D02*
D03*
Y88090D02*
D03*
D35*
X57370Y2600D02*
D03*
X53630D02*
D03*
D36*
X95349Y11665D02*
D03*
X126451D02*
D03*
D37*
X105782Y24885D02*
D03*
X108341D02*
D03*
X113459D02*
D03*
X110900D02*
D03*
X116018D02*
D03*
D38*
X24600Y39600D02*
D03*
Y30545D02*
D03*
X16923Y39600D02*
D03*
Y30545D02*
D03*
D39*
X122311Y87537D02*
D03*
Y85568D02*
D03*
Y83600D02*
D03*
Y81631D02*
D03*
Y79663D02*
D03*
X133689D02*
D03*
Y81631D02*
D03*
Y83600D02*
D03*
Y85568D02*
D03*
Y87537D02*
D03*
D40*
X128000Y83600D02*
D03*
D41*
X29911Y16500D02*
X31500Y14911D01*
X29500Y16500D02*
X29911D01*
X27500Y25800D02*
X28900Y24400D01*
X33031D01*
X34500Y25869D02*
Y26100D01*
X33031Y24400D02*
X34500Y25869D01*
X133789Y83700D02*
X139700D01*
X142900Y86900D01*
X118317Y79310D02*
X118950Y79943D01*
X106800Y79310D02*
X118317D01*
X106800Y88090D02*
X118117D01*
X120381Y85825D01*
X122054D01*
X122311Y85568D01*
X118950Y79943D02*
X120638Y81631D01*
X133689Y79400D02*
X142397D01*
X153953Y73447D02*
X156600Y70800D01*
Y40000D02*
Y70800D01*
X146800Y30200D02*
X156600Y40000D01*
X48700Y68800D02*
X49500Y69600D01*
X43511Y68800D02*
X48700D01*
X43511Y64211D02*
Y68800D01*
X29330Y98270D02*
X30000Y97600D01*
X29330Y98270D02*
Y107647D01*
X139600Y30200D02*
X146800D01*
X146453Y73447D02*
X153953D01*
X144700Y75200D02*
X146453Y73447D01*
X144700Y75200D02*
Y77097D01*
X142397Y79400D02*
X144700Y77097D01*
X133689Y79400D02*
Y79663D01*
X72287Y44127D02*
X72361Y44200D01*
X48173Y46587D02*
Y50516D01*
X45693Y48607D02*
X47873Y50787D01*
X44339Y48607D02*
X45693D01*
X43000Y47269D02*
X44339Y48607D01*
X59000Y33300D02*
X67858Y24442D01*
Y20013D02*
Y24442D01*
Y42158D02*
X72287D01*
X16000Y91300D02*
Y91800D01*
X72287Y42158D02*
X72419Y42290D01*
X43390Y28379D02*
X45713D01*
Y34284D02*
Y34315D01*
X59000Y33300D02*
Y38300D01*
X69827Y46587D02*
Y54773D01*
X69500Y55100D02*
X69827Y54773D01*
X120638Y81631D02*
X122311D01*
X133689Y87537D02*
Y87800D01*
X138700D02*
X140400Y89500D01*
X133689Y87800D02*
X138700D01*
X97500Y65600D02*
X101000Y62100D01*
Y57631D02*
Y62100D01*
X103000Y47100D02*
X104500D01*
X106000Y48600D01*
Y51569D01*
X43390Y28179D02*
Y28379D01*
X40000Y24789D02*
X43390Y28179D01*
X27164Y35841D02*
X27576Y36253D01*
X20682Y35841D02*
X27164D01*
X16923Y39600D02*
X20682Y35841D01*
X26187Y32131D02*
X31000D01*
X24600Y30545D02*
X26187Y32131D01*
X12000Y27000D02*
X13200Y25800D01*
X27500D01*
X34500Y26100D02*
Y31700D01*
X12000Y43100D02*
X13300Y44400D01*
X27600D01*
X29400Y46200D01*
X33000D01*
X34200Y45000D01*
Y40300D02*
Y45000D01*
X12000Y27000D02*
Y30800D01*
Y43100D01*
X34200Y40300D02*
X35800Y38700D01*
X31000Y32131D02*
X33184Y34315D01*
X45713D01*
X27576Y36253D02*
X45713D01*
X52000Y4230D02*
Y6100D01*
Y4230D02*
X53630Y2600D01*
X34000Y13789D02*
Y16100D01*
X31500Y11289D02*
X34000Y13789D01*
X31500Y5868D02*
Y11289D01*
X31232Y5600D02*
X31500Y5868D01*
X40000Y24789D02*
X42000Y22789D01*
Y21100D02*
Y22789D01*
X34000Y16100D02*
X39000Y21100D01*
Y22207D01*
X37619Y23588D02*
X39000Y22207D01*
X37619Y23588D02*
Y29612D01*
X40323Y32316D02*
X45713D01*
X37619Y29612D02*
X40323Y32316D01*
D42*
X119975Y58337D02*
Y67375D01*
Y58337D02*
X120000Y58312D01*
X121575Y61025D02*
X123000Y62450D01*
X121575Y60206D02*
Y61025D01*
D43*
X111200Y64400D02*
Y66200D01*
Y64400D02*
X116082Y59518D01*
Y58312D02*
Y59518D01*
X69800Y83200D02*
X71492Y81507D01*
X69800Y83200D02*
Y84400D01*
X71492Y81507D02*
X73515D01*
X73922Y81100D01*
X63415Y77276D02*
Y80815D01*
X65000Y82400D01*
X23189Y68300D02*
X23469Y68580D01*
Y73800D01*
X17000D02*
X23469D01*
X43000Y47269D02*
X45570Y44699D01*
X38000Y47489D02*
X42779D01*
X35811D02*
X38000D01*
X42779D02*
X43000Y47269D01*
X33000Y50300D02*
X35811Y47489D01*
X33000Y50300D02*
Y54300D01*
D44*
X127194Y54375D02*
X127919Y55100D01*
X125512Y54375D02*
X127194D01*
X125512Y52800D02*
X128518D01*
X127919Y55100D02*
X137969D01*
X128518Y52800D02*
X128643Y52925D01*
X137969Y55100D02*
X139000Y54068D01*
D45*
X126031Y33100D02*
X133600D01*
X126031Y34100D02*
Y39000D01*
X66958Y104058D02*
Y109324D01*
X133600Y33100D02*
X149500Y49000D01*
Y59300D01*
D46*
X73489Y17900D02*
X73600Y17789D01*
X71376Y20013D02*
X73489Y17900D01*
X69899Y20013D02*
X71376D01*
X73600Y13800D02*
Y17789D01*
X77000Y46411D02*
X80689D01*
X74459D02*
X77000D01*
X72287Y44240D02*
X74459Y46411D01*
X80689D02*
X82500Y44600D01*
D47*
X104750Y27400D02*
D03*
D48*
X122050Y73450D02*
D03*
D49*
X119150Y62250D02*
D03*
D50*
X119950Y69450D02*
D03*
D51*
X153250Y14150D02*
D03*
D52*
X107200Y110350D02*
D03*
D53*
X131500Y81650D02*
D03*
D54*
X124900Y83600D02*
D03*
D55*
X131200Y85650D02*
D03*
D56*
X125000Y21650D02*
D03*
D57*
X126250Y45700D02*
D03*
D58*
X124650Y47200D02*
D03*
D59*
X76500Y105600D02*
D03*
D60*
X122300Y87550D02*
D03*
D61*
Y91400D02*
D03*
D62*
X124950Y99350D02*
D03*
D63*
X122300Y25800D02*
D03*
D64*
X128456Y50263D02*
D03*
D65*
X136750Y49550D02*
D03*
D66*
X139050Y47500D02*
D03*
D67*
X24600Y42000D02*
D03*
D68*
X15000Y30350D02*
D03*
D69*
X30950Y44650D02*
D03*
D70*
X31000Y24850D02*
D03*
D71*
X64750Y3945D02*
D03*
D72*
X149500Y67600D02*
D03*
D73*
Y77600D02*
D03*
X59500Y55100D02*
D03*
X69500D02*
D03*
D74*
X7500Y28600D02*
D03*
D75*
Y38600D02*
D03*
Y48600D02*
D03*
Y58600D02*
D03*
Y68600D02*
D03*
Y78600D02*
D03*
Y88600D02*
D03*
Y98600D02*
D03*
D76*
X79500Y55100D02*
D03*
D77*
X145200Y11100D02*
D03*
X103400Y109900D02*
D03*
X15100Y11200D02*
D03*
D78*
X103420Y20129D02*
D03*
X118380D02*
D03*
X69800Y84400D02*
D03*
D79*
X102000Y27800D02*
D03*
X82100Y5700D02*
D03*
X92600Y18300D02*
D03*
X96800Y51900D02*
D03*
X133300Y24900D02*
D03*
X140700Y68800D02*
D03*
X126600Y85600D02*
D03*
X107900Y95000D02*
D03*
X84500Y116800D02*
D03*
X109200Y12400D02*
D03*
X88600Y12600D02*
D03*
X34800Y87900D02*
D03*
X26200Y83800D02*
D03*
X29500Y16500D02*
D03*
X154000Y89100D02*
D03*
Y115100D02*
D03*
Y97100D02*
D03*
X140000Y113100D02*
D03*
X138000Y73100D02*
D03*
X98000D02*
D03*
X96000Y57100D02*
D03*
Y5100D02*
D03*
X98000Y23100D02*
D03*
X97100Y80800D02*
D03*
X97800Y88700D02*
D03*
X117100Y83800D02*
D03*
X111200Y66200D02*
D03*
X120900Y68300D02*
D03*
X23700Y110600D02*
D03*
X133300Y67300D02*
D03*
X154200Y14400D02*
D03*
X5000Y114600D02*
D03*
X149700Y40200D02*
D03*
X151900Y107500D02*
D03*
X100700Y95600D02*
D03*
X54500Y27800D02*
D03*
X64000Y38800D02*
D03*
X55000D02*
D03*
X83000Y90800D02*
D03*
X120000Y52800D02*
D03*
X111000Y44600D02*
D03*
X130000Y102600D02*
D03*
X103900Y34400D02*
D03*
X23200Y53000D02*
D03*
X16000Y48600D02*
D03*
X81400Y19800D02*
D03*
X151100Y26200D02*
D03*
X81800Y69400D02*
D03*
X15600Y104600D02*
D03*
X9500Y117600D02*
D03*
X61800Y92600D02*
D03*
X46000Y117100D02*
D03*
X83000Y107300D02*
D03*
X32600Y59700D02*
D03*
X16000Y78700D02*
D03*
X32700Y93100D02*
D03*
X19000Y68600D02*
D03*
X48400Y96200D02*
D03*
X58500Y117100D02*
D03*
X16000Y91300D02*
D03*
X97500Y65600D02*
D03*
X17000Y73800D02*
D03*
X30000Y97600D02*
D03*
X149500Y59300D02*
D03*
X13600Y117900D02*
D03*
X124000Y19100D02*
D03*
X138500Y47600D02*
D03*
X49500Y69600D02*
D03*
X85000Y86300D02*
D03*
X121500Y102600D02*
D03*
X33000Y54300D02*
D03*
X73600Y13800D02*
D03*
X82500Y39600D02*
D03*
X64100Y67600D02*
D03*
X82500Y44600D02*
D03*
X139600Y30200D02*
D03*
X70500Y118100D02*
D03*
X103000Y47100D02*
D03*
X64500Y3100D02*
D03*
X52000Y6100D02*
D03*
X39200Y7000D02*
D03*
X42000Y21100D02*
D03*
D80*
X3200Y22900D02*
D03*
X131000Y77400D02*
D03*
X128643Y52925D02*
D03*
X17200Y100600D02*
D03*
X25200Y101400D02*
D03*
X33800Y112900D02*
D03*
X51900Y52800D02*
D03*
X54600Y69600D02*
D03*
X122200Y43300D02*
D03*
X126200Y43900D02*
D03*
X126500Y66400D02*
D03*
X69900Y97000D02*
D03*
X45500Y88400D02*
D03*
X36700Y73700D02*
D03*
X47800Y80800D02*
D03*
X52685Y82300D02*
D03*
X56664Y83436D02*
D03*
X52200Y85500D02*
D03*
X65000Y82400D02*
D03*
X70500Y101000D02*
D03*
X81900Y101100D02*
D03*
X86000Y98400D02*
D03*
X57000Y103800D02*
D03*
X93100Y94200D02*
D03*
X90200Y96400D02*
D03*
X34500Y68300D02*
D03*
X54985Y101285D02*
D03*
X53076Y99376D02*
D03*
X123000Y62450D02*
D03*
X70500Y92900D02*
D03*
X70600Y89300D02*
D03*
X54357Y55243D02*
D03*
X56500Y50100D02*
D03*
X78000Y39100D02*
D03*
X65000Y64100D02*
D03*
X33000Y117350D02*
D03*
X116700Y43000D02*
D03*
X140400Y89500D02*
D03*
X84000Y16600D02*
D03*
X34500Y26100D02*
D03*
X12000Y30800D02*
D03*
X16400Y25800D02*
D03*
X21900D02*
D03*
X26700D02*
D03*
X34700Y29000D02*
D03*
X12000Y36500D02*
D03*
Y40400D02*
D03*
X13300Y44400D02*
D03*
X17900D02*
D03*
X22700D02*
D03*
X27500Y45400D02*
D03*
X31100Y47100D02*
D03*
X34400Y44000D02*
D03*
X35800Y38700D02*
D03*
X51300Y35000D02*
D03*
X34500Y31700D02*
D03*
X41500Y43600D02*
D03*
X41000Y40600D02*
D03*
X76847Y36253D02*
D03*
X105000Y41600D02*
D03*
X36500Y14600D02*
D03*
X53619Y15441D02*
D03*
X58500Y14100D02*
D03*
X60116Y17772D02*
D03*
X58031Y7632D02*
D03*
X42000Y12100D02*
D03*
X48000Y17100D02*
D03*
X35500Y21600D02*
D03*
D81*
X142900Y86900D02*
D03*
X64000Y27700D02*
D03*
X136900Y101100D02*
D03*
D82*
X66958Y104058D02*
D03*
M02*
