G04 Layer_Physical_Order=2*
G04 Layer_Color=32768*
%FSLAX25Y25*%
%MOIN*%
G70*
G01*
G75*
%ADD83C,0.04000*%
%ADD84C,0.00600*%
%ADD85C,0.07543*%
G04:AMPARAMS|DCode=86|XSize=95.433mil|YSize=95.433mil|CornerRadius=0mil|HoleSize=0mil|Usage=FLASHONLY|Rotation=0.000|XOffset=0mil|YOffset=0mil|HoleType=Round|Shape=Relief|Width=10mil|Gap=10mil|Entries=4|*
%AMTHD86*
7,0,0,0.09543,0.07543,0.01000,45*
%
%ADD86THD86*%
%ADD87C,0.07307*%
G04:AMPARAMS|DCode=88|XSize=93.071mil|YSize=93.071mil|CornerRadius=0mil|HoleSize=0mil|Usage=FLASHONLY|Rotation=0.000|XOffset=0mil|YOffset=0mil|HoleType=Round|Shape=Relief|Width=10mil|Gap=10mil|Entries=4|*
%AMTHD88*
7,0,0,0.09307,0.07307,0.01000,45*
%
%ADD88THD88*%
G04:AMPARAMS|DCode=89|XSize=185.984mil|YSize=185.984mil|CornerRadius=0mil|HoleSize=0mil|Usage=FLASHONLY|Rotation=0.000|XOffset=0mil|YOffset=0mil|HoleType=Round|Shape=Relief|Width=10mil|Gap=10mil|Entries=4|*
%AMTHD89*
7,0,0,0.18598,0.16598,0.01000,45*
%
%ADD89THD89*%
%ADD90C,0.05800*%
%ADD91C,0.05181*%
%ADD92C,0.05575*%
%ADD93C,0.06000*%
D83*
X160500Y0D02*
Y121000D01*
X0Y0D02*
Y121000D01*
X160500D01*
X0Y0D02*
X160500D01*
D84*
X35800Y40300D02*
X36600Y39500D01*
X35800Y40300D02*
Y45100D01*
Y45700D01*
X33500Y48000D02*
X35800Y45700D01*
X28200Y48000D02*
X33500D01*
X25600Y45400D02*
X28200Y48000D01*
X11400Y45400D02*
X25600D01*
X10800Y44800D02*
X11400Y45400D01*
X10800Y25400D02*
Y44800D01*
Y25400D02*
X12400Y23800D01*
X26700D01*
X28800Y21700D01*
X33600D01*
X36100Y24200D01*
Y33200D01*
X36300Y33400D01*
X48500D01*
X49100Y32800D01*
Y31800D02*
Y32800D01*
Y31800D02*
X49800Y31100D01*
X52800D01*
X54200Y32500D01*
Y36800D01*
X52900Y38100D02*
X54200Y36800D01*
X49600Y38100D02*
X52900D01*
X48900Y37400D02*
X49600Y38100D01*
X38700Y37400D02*
X48900D01*
X36600Y39500D02*
X38700Y37400D01*
D85*
X149500Y67600D02*
D03*
X69500Y55100D02*
D03*
X79500D02*
D03*
D86*
X149500Y77600D02*
D03*
X59500Y55100D02*
D03*
D87*
X7500Y28600D02*
D03*
Y48600D02*
D03*
Y58600D02*
D03*
Y68600D02*
D03*
Y78600D02*
D03*
Y88600D02*
D03*
Y98600D02*
D03*
D88*
Y38600D02*
D03*
D89*
X145200Y11100D02*
D03*
X103400Y109900D02*
D03*
X15100Y11200D02*
D03*
D90*
X103420Y20129D02*
D03*
X118380D02*
D03*
D91*
X3200Y22900D02*
D03*
X142900Y86900D02*
D03*
X131000Y77400D02*
D03*
X128643Y52925D02*
D03*
X17200Y100600D02*
D03*
X25200Y101400D02*
D03*
X33800Y112900D02*
D03*
X51900Y52800D02*
D03*
X54600Y69600D02*
D03*
X122200Y43300D02*
D03*
X126200Y43900D02*
D03*
X126500Y66400D02*
D03*
X69900Y97000D02*
D03*
X45500Y88400D02*
D03*
X36700Y73700D02*
D03*
X47800Y80800D02*
D03*
X52685Y82300D02*
D03*
X56664Y83436D02*
D03*
X52200Y85500D02*
D03*
X69800Y84400D02*
D03*
X65000Y82400D02*
D03*
X70500Y101000D02*
D03*
X81900Y101100D02*
D03*
X86000Y98400D02*
D03*
X57000Y103800D02*
D03*
X93100Y94200D02*
D03*
X90200Y96400D02*
D03*
X34500Y68300D02*
D03*
X54985Y101285D02*
D03*
X53076Y99376D02*
D03*
X123000Y62450D02*
D03*
X70500Y92900D02*
D03*
X70600Y89300D02*
D03*
X54357Y55243D02*
D03*
X56500Y50100D02*
D03*
X78000Y39100D02*
D03*
X65000Y64100D02*
D03*
X33000Y117350D02*
D03*
X116700Y43000D02*
D03*
X140400Y89500D02*
D03*
X84000Y16600D02*
D03*
X41500Y43600D02*
D03*
X41000Y40600D02*
D03*
X76847Y36253D02*
D03*
X105000Y41600D02*
D03*
X36500Y14600D02*
D03*
X53619Y15441D02*
D03*
X58500Y14100D02*
D03*
X60116Y17772D02*
D03*
X58031Y7632D02*
D03*
X42000Y12100D02*
D03*
X48000Y17100D02*
D03*
X35500Y21600D02*
D03*
D92*
X117100Y83800D02*
D03*
X111200Y66200D02*
D03*
X120900Y68300D02*
D03*
X133300Y67300D02*
D03*
X5000Y114600D02*
D03*
X130000Y102600D02*
D03*
X16000Y91300D02*
D03*
X97500Y65600D02*
D03*
X17000Y73800D02*
D03*
X30000Y97600D02*
D03*
X149500Y59300D02*
D03*
X13600Y117900D02*
D03*
X124000Y19100D02*
D03*
X138500Y47600D02*
D03*
X49500Y69600D02*
D03*
X85000Y86300D02*
D03*
X121500Y102600D02*
D03*
X33000Y54300D02*
D03*
X73600Y13800D02*
D03*
X64100Y67600D02*
D03*
X82500Y44600D02*
D03*
X139600Y30200D02*
D03*
X70500Y118100D02*
D03*
X103000Y47100D02*
D03*
X52000Y6100D02*
D03*
X42000Y21100D02*
D03*
D93*
X66958Y104058D02*
D03*
M02*
