G04 Layer_Color=128*
%FSLAX25Y25*%
%MOIN*%
G70*
G01*
G75*
%ADD10C,0.00200*%
D10*
X147728Y67600D02*
X151272D01*
X149500Y65828D02*
Y69372D01*
X147728Y77600D02*
X151272D01*
X149500Y75828D02*
Y79372D01*
X5847Y28600D02*
X9154D01*
X7500Y26946D02*
Y30253D01*
X5847Y38600D02*
X9154D01*
X7500Y36946D02*
Y40253D01*
X5847Y48600D02*
X9154D01*
X7500Y46946D02*
Y50253D01*
X5847Y58600D02*
X9154D01*
X7500Y56946D02*
Y60254D01*
X5847Y68600D02*
X9154D01*
X7500Y66947D02*
Y70253D01*
X5847Y78600D02*
X9154D01*
X7500Y76947D02*
Y80253D01*
X5847Y88600D02*
X9154D01*
X7500Y86946D02*
Y90254D01*
X5847Y98600D02*
X9154D01*
X7500Y96947D02*
Y100253D01*
X57728Y55100D02*
X61272D01*
X59500Y53328D02*
Y56872D01*
X67728Y55100D02*
X71272D01*
X69500Y53328D02*
Y56872D01*
X77728Y55100D02*
X81272D01*
X79500Y53328D02*
Y56872D01*
X138901Y11100D02*
X151499D01*
X145200Y4801D02*
Y17399D01*
X97101Y109900D02*
X109699D01*
X103400Y103601D02*
Y116199D01*
X102520Y20129D02*
X104320D01*
X103420Y19229D02*
Y21029D01*
X117480Y20129D02*
X119280D01*
X118380Y19229D02*
Y21029D01*
X8801Y11200D02*
X21399D01*
X15100Y4901D02*
Y17499D01*
X101213Y27800D02*
X102787D01*
X102000Y27013D02*
Y28587D01*
X81313Y5700D02*
X82887D01*
X82100Y4913D02*
Y6487D01*
X91813Y18300D02*
X93387D01*
X92600Y17513D02*
Y19087D01*
X96013Y51900D02*
X97587D01*
X96800Y51113D02*
Y52687D01*
X132513Y24900D02*
X134087D01*
X133300Y24113D02*
Y25687D01*
X139913Y68800D02*
X141487D01*
X140700Y68013D02*
Y69587D01*
X125813Y85600D02*
X127387D01*
X126600Y84813D02*
Y86387D01*
X107113Y95000D02*
X108687D01*
X107900Y94213D02*
Y95787D01*
X83713Y116800D02*
X85287D01*
X84500Y116013D02*
Y117587D01*
X108413Y12400D02*
X109987D01*
X109200Y11613D02*
Y13187D01*
X87813Y12600D02*
X89387D01*
X88600Y11813D02*
Y13387D01*
X34013Y87900D02*
X35587D01*
X34800Y87113D02*
Y88687D01*
X25413Y83800D02*
X26987D01*
X26200Y83013D02*
Y84587D01*
X28713Y16500D02*
X30287D01*
X29500Y15713D02*
Y17287D01*
X2609Y22900D02*
X3791D01*
X3200Y22309D02*
Y23491D01*
X153213Y89100D02*
X154787D01*
X154000Y88313D02*
Y89887D01*
X153213Y115100D02*
X154787D01*
X154000Y114313D02*
Y115887D01*
X153213Y97100D02*
X154787D01*
X154000Y96313D02*
Y97887D01*
X139213Y113100D02*
X140787D01*
X140000Y112313D02*
Y113887D01*
X137213Y73100D02*
X138787D01*
X138000Y72313D02*
Y73887D01*
X97213Y73100D02*
X98787D01*
X98000Y72313D02*
Y73887D01*
X95213Y57100D02*
X96787D01*
X96000Y56313D02*
Y57887D01*
X95213Y5100D02*
X96787D01*
X96000Y4313D02*
Y5887D01*
X97213Y23100D02*
X98787D01*
X98000Y22313D02*
Y23887D01*
X96313Y80800D02*
X97887D01*
X97100Y80013D02*
Y81587D01*
X97013Y88700D02*
X98587D01*
X97800Y87913D02*
Y89487D01*
X142309Y86900D02*
X143491D01*
X142900Y86309D02*
Y87490D01*
X116313Y83800D02*
X117887D01*
X117100Y83013D02*
Y84587D01*
X110413Y66200D02*
X111987D01*
X111200Y65413D02*
Y66987D01*
X120113Y68300D02*
X121687D01*
X120900Y67513D02*
Y69087D01*
X22913Y110600D02*
X24487D01*
X23700Y109813D02*
Y111387D01*
X130409Y77400D02*
X131591D01*
X131000Y76810D02*
Y77991D01*
X132513Y67300D02*
X134087D01*
X133300Y66513D02*
Y68087D01*
X128052Y52925D02*
X129234D01*
X128643Y52335D02*
Y53516D01*
X153413Y14400D02*
X154987D01*
X154200Y13613D02*
Y15187D01*
X4213Y114600D02*
X5787D01*
X5000Y113813D02*
Y115387D01*
X16610Y100600D02*
X17790D01*
X17200Y100010D02*
Y101190D01*
X24610Y101400D02*
X25791D01*
X25200Y100810D02*
Y101990D01*
X33209Y112900D02*
X34391D01*
X33800Y112309D02*
Y113491D01*
X51310Y52800D02*
X52491D01*
X51900Y52210D02*
Y53391D01*
X54009Y69600D02*
X55190D01*
X54600Y69010D02*
Y70191D01*
X121609Y43300D02*
X122791D01*
X122200Y42709D02*
Y43891D01*
X125609Y43900D02*
X126791D01*
X126200Y43309D02*
Y44491D01*
X125909Y66400D02*
X127091D01*
X126500Y65810D02*
Y66991D01*
X148913Y40200D02*
X150487D01*
X149700Y39413D02*
Y40987D01*
X151113Y107500D02*
X152687D01*
X151900Y106713D02*
Y108287D01*
X99913Y95600D02*
X101487D01*
X100700Y94813D02*
Y96387D01*
X69310Y97000D02*
X70490D01*
X69900Y96409D02*
Y97591D01*
X44909Y88400D02*
X46091D01*
X45500Y87809D02*
Y88990D01*
X36109Y73700D02*
X37291D01*
X36700Y73110D02*
Y74291D01*
X47209Y80800D02*
X48391D01*
X47800Y80209D02*
Y81391D01*
X52095Y82300D02*
X53276D01*
X52685Y81709D02*
Y82890D01*
X56074Y83436D02*
X57255D01*
X56664Y82845D02*
Y84026D01*
X51609Y85500D02*
X52790D01*
X52200Y84909D02*
Y86090D01*
X69209Y84400D02*
X70390D01*
X69800Y83810D02*
Y84991D01*
X64410Y82400D02*
X65591D01*
X65000Y81810D02*
Y82990D01*
X69910Y101000D02*
X71091D01*
X70500Y100409D02*
Y101591D01*
X81309Y101100D02*
X82490D01*
X81900Y100510D02*
Y101690D01*
X85409Y98400D02*
X86590D01*
X86000Y97809D02*
Y98990D01*
X65958Y104058D02*
X67958D01*
X66958Y103058D02*
Y105058D01*
X63410Y27700D02*
X64591D01*
X64000Y27109D02*
Y28291D01*
X136309Y101100D02*
X137491D01*
X136900Y100510D02*
Y101690D01*
X53713Y27800D02*
X55287D01*
X54500Y27013D02*
Y28587D01*
X63213Y38800D02*
X64787D01*
X64000Y38013D02*
Y39587D01*
X54213Y38800D02*
X55787D01*
X55000Y38013D02*
Y39587D01*
X82213Y90800D02*
X83787D01*
X83000Y90013D02*
Y91587D01*
X56410Y103800D02*
X57591D01*
X57000Y103209D02*
Y104391D01*
X119213Y52800D02*
X120787D01*
X120000Y52013D02*
Y53587D01*
X110213Y44600D02*
X111787D01*
X111000Y43813D02*
Y45387D01*
X129213Y102600D02*
X130787D01*
X130000Y101813D02*
Y103387D01*
X103113Y34400D02*
X104687D01*
X103900Y33613D02*
Y35187D01*
X22413Y53000D02*
X23987D01*
X23200Y52213D02*
Y53787D01*
X15213Y48600D02*
X16787D01*
X16000Y47813D02*
Y49387D01*
X80613Y19800D02*
X82187D01*
X81400Y19013D02*
Y20587D01*
X150313Y26200D02*
X151887D01*
X151100Y25413D02*
Y26987D01*
X81013Y69400D02*
X82587D01*
X81800Y68613D02*
Y70187D01*
X14813Y104600D02*
X16387D01*
X15600Y103813D02*
Y105387D01*
X8713Y117600D02*
X10287D01*
X9500Y116813D02*
Y118387D01*
X61013Y92600D02*
X62587D01*
X61800Y91813D02*
Y93387D01*
X45213Y117100D02*
X46787D01*
X46000Y116313D02*
Y117887D01*
X82213Y107300D02*
X83787D01*
X83000Y106513D02*
Y108087D01*
X31813Y59700D02*
X33387D01*
X32600Y58913D02*
Y60487D01*
X15213Y78700D02*
X16787D01*
X16000Y77913D02*
Y79487D01*
X31913Y93100D02*
X33487D01*
X32700Y92313D02*
Y93887D01*
X18213Y68600D02*
X19787D01*
X19000Y67813D02*
Y69387D01*
X47613Y96200D02*
X49187D01*
X48400Y95413D02*
Y96987D01*
X57713Y117100D02*
X59287D01*
X58500Y116313D02*
Y117887D01*
X15213Y91300D02*
X16787D01*
X16000Y90513D02*
Y92087D01*
X92510Y94200D02*
X93691D01*
X93100Y93609D02*
Y94791D01*
X89609Y96400D02*
X90790D01*
X90200Y95810D02*
Y96991D01*
X96713Y65600D02*
X98287D01*
X97500Y64813D02*
Y66387D01*
X33909Y68300D02*
X35091D01*
X34500Y67709D02*
Y68891D01*
X16213Y73800D02*
X17787D01*
X17000Y73013D02*
Y74587D01*
X29213Y97600D02*
X30787D01*
X30000Y96813D02*
Y98387D01*
X54394Y101285D02*
X55576D01*
X54985Y100694D02*
Y101875D01*
X52485Y99376D02*
X53666D01*
X53076Y98785D02*
Y99966D01*
X122409Y62450D02*
X123591D01*
X123000Y61860D02*
Y63041D01*
X148713Y59300D02*
X150287D01*
X149500Y58513D02*
Y60087D01*
X12813Y117900D02*
X14387D01*
X13600Y117113D02*
Y118687D01*
X123213Y19100D02*
X124787D01*
X124000Y18313D02*
Y19887D01*
X137713Y47600D02*
X139287D01*
X138500Y46813D02*
Y48387D01*
X48713Y69600D02*
X50287D01*
X49500Y68813D02*
Y70387D01*
X84213Y86300D02*
X85787D01*
X85000Y85513D02*
Y87087D01*
X120713Y102600D02*
X122287D01*
X121500Y101813D02*
Y103387D01*
X32213Y54300D02*
X33787D01*
X33000Y53513D02*
Y55087D01*
X72813Y13800D02*
X74387D01*
X73600Y13013D02*
Y14587D01*
X69910Y92900D02*
X71091D01*
X70500Y92309D02*
Y93490D01*
X70009Y89300D02*
X71191D01*
X70600Y88709D02*
Y89890D01*
X81713Y39600D02*
X83287D01*
X82500Y38813D02*
Y40387D01*
X53766Y55243D02*
X54947D01*
X54357Y54653D02*
Y55834D01*
X63313Y67600D02*
X64887D01*
X64100Y66813D02*
Y68387D01*
X55910Y50100D02*
X57091D01*
X56500Y49509D02*
Y50691D01*
X81713Y44600D02*
X83287D01*
X82500Y43813D02*
Y45387D01*
X77409Y39100D02*
X78591D01*
X78000Y38509D02*
Y39691D01*
X64410Y64100D02*
X65591D01*
X65000Y63510D02*
Y64691D01*
X32409Y117350D02*
X33591D01*
X33000Y116759D02*
Y117941D01*
X138813Y30200D02*
X140387D01*
X139600Y29413D02*
Y30987D01*
X116109Y43000D02*
X117291D01*
X116700Y42409D02*
Y43591D01*
X139809Y89500D02*
X140991D01*
X140400Y88910D02*
Y90091D01*
X69713Y118100D02*
X71287D01*
X70500Y117313D02*
Y118887D01*
X83410Y16600D02*
X84591D01*
X84000Y16010D02*
Y17190D01*
X102213Y47100D02*
X103787D01*
X103000Y46313D02*
Y47887D01*
X33909Y26100D02*
X35091D01*
X34500Y25510D02*
Y26691D01*
X11409Y30800D02*
X12591D01*
X12000Y30209D02*
Y31391D01*
X15810Y25800D02*
X16991D01*
X16400Y25210D02*
Y26391D01*
X21309Y25800D02*
X22490D01*
X21900Y25210D02*
Y26391D01*
X26109Y25800D02*
X27291D01*
X26700Y25210D02*
Y26391D01*
X34109Y29000D02*
X35291D01*
X34700Y28409D02*
Y29591D01*
X11409Y36500D02*
X12591D01*
X12000Y35909D02*
Y37091D01*
X11409Y40400D02*
X12591D01*
X12000Y39809D02*
Y40991D01*
X12709Y44400D02*
X13891D01*
X13300Y43809D02*
Y44991D01*
X17310Y44400D02*
X18490D01*
X17900Y43809D02*
Y44991D01*
X22109Y44400D02*
X23291D01*
X22700Y43809D02*
Y44991D01*
X26909Y45400D02*
X28091D01*
X27500Y44809D02*
Y45991D01*
X30509Y47100D02*
X31691D01*
X31100Y46509D02*
Y47691D01*
X33809Y44000D02*
X34991D01*
X34400Y43409D02*
Y44591D01*
X35209Y38700D02*
X36391D01*
X35800Y38109D02*
Y39291D01*
X50709Y35000D02*
X51890D01*
X51300Y34409D02*
Y35591D01*
X33909Y31700D02*
X35091D01*
X34500Y31109D02*
Y32291D01*
X40909Y43600D02*
X42091D01*
X41500Y43009D02*
Y44191D01*
X40409Y40600D02*
X41591D01*
X41000Y40009D02*
Y41191D01*
X76257Y36253D02*
X77438D01*
X76847Y35662D02*
Y36843D01*
X104409Y41600D02*
X105591D01*
X105000Y41009D02*
Y42191D01*
X35909Y14600D02*
X37091D01*
X36500Y14009D02*
Y15191D01*
X53028Y15441D02*
X54210D01*
X53619Y14851D02*
Y16032D01*
X57910Y14100D02*
X59091D01*
X58500Y13510D02*
Y14691D01*
X59525Y17772D02*
X60706D01*
X60116Y17182D02*
Y18363D01*
X63713Y3100D02*
X65287D01*
X64500Y2313D02*
Y3887D01*
X57441Y7632D02*
X58622D01*
X58031Y7041D02*
Y8222D01*
X51213Y6100D02*
X52787D01*
X52000Y5313D02*
Y6887D01*
X38413Y7000D02*
X39987D01*
X39200Y6213D02*
Y7787D01*
X41409Y12100D02*
X42591D01*
X42000Y11509D02*
Y12691D01*
X47409Y17100D02*
X48591D01*
X48000Y16510D02*
Y17691D01*
X41213Y21100D02*
X42787D01*
X42000Y20313D02*
Y21887D01*
X34909Y21600D02*
X36091D01*
X35500Y21010D02*
Y22190D01*
M02*
