G04 Layer_Color=32896*
%FSLAX25Y25*%
%MOIN*%
G70*
G01*
G75*
%ADD10C,0.00500*%
%ADD11C,0.00800*%
%ADD41C,0.01000*%
%ADD104C,0.00472*%
%ADD105C,0.00787*%
D10*
X12300Y112900D02*
Y114899D01*
X11300D01*
X10967Y114566D01*
Y113900D01*
X11300Y113567D01*
X12300D01*
X11633D02*
X10967Y112900D01*
X8968D02*
X10301D01*
X8968Y114233D01*
Y114566D01*
X9301Y114899D01*
X9967D01*
X10301Y114566D01*
X6968Y114899D02*
X7635Y114566D01*
X8301Y113900D01*
Y113233D01*
X7968Y112900D01*
X7302D01*
X6968Y113233D01*
Y113567D01*
X7302Y113900D01*
X8301D01*
X25000Y93899D02*
Y93566D01*
X24333Y92900D01*
X23667Y93566D01*
Y93899D01*
X24333Y92900D02*
Y91900D01*
X23001D02*
X22334D01*
X22667D01*
Y93899D01*
X23001Y93566D01*
X127800Y88700D02*
Y90699D01*
X126800D01*
X126467Y90366D01*
Y89700D01*
X126800Y89366D01*
X127800D01*
X127134D02*
X126467Y88700D01*
X124468D02*
X125801D01*
X124468Y90033D01*
Y90366D01*
X124801Y90699D01*
X125467D01*
X125801Y90366D01*
X122468Y90699D02*
X123801D01*
Y89700D01*
X123135Y90033D01*
X122802D01*
X122468Y89700D01*
Y89033D01*
X122802Y88700D01*
X123468D01*
X123801Y89033D01*
X127800Y96600D02*
Y98599D01*
X126800D01*
X126467Y98266D01*
Y97600D01*
X126800Y97266D01*
X127800D01*
X127134D02*
X126467Y96600D01*
X124468D02*
X125801D01*
X124468Y97933D01*
Y98266D01*
X124801Y98599D01*
X125467D01*
X125801Y98266D01*
X122802Y96600D02*
Y98599D01*
X123801Y97600D01*
X122468D01*
X50100Y13000D02*
Y14999D01*
X49100D01*
X48767Y14666D01*
Y14000D01*
X49100Y13667D01*
X50100D01*
X49434D02*
X48767Y13000D01*
X46768D02*
X48101D01*
X46768Y14333D01*
Y14666D01*
X47101Y14999D01*
X47767D01*
X48101Y14666D01*
X46101Y13000D02*
X45435D01*
X45768D01*
Y14999D01*
X46101Y14666D01*
X61600Y61600D02*
Y63599D01*
X60600D01*
X60267Y63266D01*
Y62600D01*
X60600Y62266D01*
X61600D01*
X60934D02*
X60267Y61600D01*
X59601D02*
X58934D01*
X59267D01*
Y63599D01*
X59601Y63266D01*
X57934Y61933D02*
X57601Y61600D01*
X56935D01*
X56602Y61933D01*
Y63266D01*
X56935Y63599D01*
X57601D01*
X57934Y63266D01*
Y62933D01*
X57601Y62600D01*
X56602D01*
X108100Y38100D02*
Y40099D01*
X107100D01*
X106767Y39766D01*
Y39100D01*
X107100Y38766D01*
X108100D01*
X107433D02*
X106767Y38100D01*
X106101D02*
X105434D01*
X105767D01*
Y40099D01*
X106101Y39766D01*
X104435Y40099D02*
X103102D01*
Y39766D01*
X104435Y38433D01*
Y38100D01*
X124400Y28100D02*
Y30099D01*
X123400D01*
X123067Y29766D01*
Y29100D01*
X123400Y28766D01*
X124400D01*
X123733D02*
X123067Y28100D01*
X122401D02*
X121734D01*
X122067D01*
Y30099D01*
X122401Y29766D01*
X119735Y28100D02*
Y30099D01*
X120735Y29100D01*
X119402D01*
X122200Y43300D02*
Y45299D01*
X121200D01*
X120867Y44966D01*
Y44300D01*
X121200Y43966D01*
X122200D01*
X121534D02*
X120867Y43300D01*
X120201D02*
X119534D01*
X119867D01*
Y45299D01*
X120201Y44966D01*
X118535D02*
X118201Y45299D01*
X117535D01*
X117202Y44966D01*
Y44633D01*
X117535Y44300D01*
X117868D01*
X117535D01*
X117202Y43966D01*
Y43633D01*
X117535Y43300D01*
X118201D01*
X118535Y43633D01*
X144200Y84709D02*
Y86709D01*
X143200D01*
X142867Y86375D01*
Y85709D01*
X143200Y85376D01*
X144200D01*
X143534D02*
X142867Y84709D01*
X142201D02*
X141534D01*
X141867D01*
Y86709D01*
X142201Y86375D01*
X140534D02*
X140201Y86709D01*
X139535D01*
X139202Y86375D01*
Y85042D01*
X139535Y84709D01*
X140201D01*
X140534Y85042D01*
Y86375D01*
X134000Y71400D02*
Y73399D01*
X133000D01*
X132667Y73066D01*
Y72400D01*
X133000Y72066D01*
X134000D01*
X133334D02*
X132667Y71400D01*
X132001Y71733D02*
X131667Y71400D01*
X131001D01*
X130668Y71733D01*
Y73066D01*
X131001Y73399D01*
X131667D01*
X132001Y73066D01*
Y72733D01*
X131667Y72400D01*
X130668D01*
X70100Y47600D02*
Y49599D01*
X69100D01*
X68767Y49266D01*
Y48600D01*
X69100Y48266D01*
X70100D01*
X69434D02*
X68767Y47600D01*
X68101Y49266D02*
X67767Y49599D01*
X67101D01*
X66768Y49266D01*
Y48933D01*
X67101Y48600D01*
X66768Y48266D01*
Y47933D01*
X67101Y47600D01*
X67767D01*
X68101Y47933D01*
Y48266D01*
X67767Y48600D01*
X68101Y48933D01*
Y49266D01*
X67767Y48600D02*
X67101D01*
X122900Y83200D02*
Y85199D01*
X121900D01*
X121567Y84866D01*
Y84200D01*
X121900Y83866D01*
X122900D01*
X122233D02*
X121567Y83200D01*
X120901Y85199D02*
X119568D01*
Y84866D01*
X120901Y83533D01*
Y83200D01*
X45200Y61900D02*
Y63899D01*
X44200D01*
X43867Y63566D01*
Y62900D01*
X44200Y62566D01*
X45200D01*
X44534D02*
X43867Y61900D01*
X41868D02*
X43201D01*
X41868Y63233D01*
Y63566D01*
X42201Y63899D01*
X42867D01*
X43201Y63566D01*
X152067Y85699D02*
X152734D01*
X152400D01*
Y84033D01*
X152734Y83700D01*
X153067D01*
X153400Y84033D01*
X151401Y83700D02*
X150734D01*
X151067D01*
Y85699D01*
X151401Y85366D01*
X149734D02*
X149401Y85699D01*
X148735D01*
X148402Y85366D01*
Y84033D01*
X148735Y83700D01*
X149401D01*
X149734Y84033D01*
Y85366D01*
X139000Y62131D02*
Y60132D01*
X137667D01*
X137001D02*
X136334D01*
X136667D01*
Y62131D01*
X137001Y61798D01*
X153167Y42566D02*
X153500Y42899D01*
X154167D01*
X154500Y42566D01*
Y41233D01*
X154167Y40900D01*
X153500D01*
X153167Y41233D01*
X151168Y40900D02*
X152501D01*
X151168Y42233D01*
Y42566D01*
X151501Y42899D01*
X152167D01*
X152501Y42566D01*
X150501Y41233D02*
X150168Y40900D01*
X149502D01*
X149168Y41233D01*
Y42566D01*
X149502Y42899D01*
X150168D01*
X150501Y42566D01*
Y42233D01*
X150168Y41900D01*
X149168D01*
X135467Y31066D02*
X135800Y31399D01*
X136467D01*
X136800Y31066D01*
Y29733D01*
X136467Y29400D01*
X135800D01*
X135467Y29733D01*
X133468Y29400D02*
X134801D01*
X133468Y30733D01*
Y31066D01*
X133801Y31399D01*
X134467D01*
X134801Y31066D01*
X132801Y31399D02*
X131468D01*
Y31066D01*
X132801Y29733D01*
Y29400D01*
X109667Y59166D02*
X110000Y59499D01*
X110667D01*
X111000Y59166D01*
Y57833D01*
X110667Y57500D01*
X110000D01*
X109667Y57833D01*
X107668Y57500D02*
X109001D01*
X107668Y58833D01*
Y59166D01*
X108001Y59499D01*
X108667D01*
X109001Y59166D01*
X106002Y57500D02*
Y59499D01*
X107001Y58500D01*
X105668D01*
X110367Y77866D02*
X110700Y78199D01*
X111367D01*
X111700Y77866D01*
Y76533D01*
X111367Y76200D01*
X110700D01*
X110367Y76533D01*
X109701Y76200D02*
X109034D01*
X109367D01*
Y78199D01*
X109701Y77866D01*
X108035D02*
X107701Y78199D01*
X107035D01*
X106702Y77866D01*
Y76533D01*
X107035Y76200D01*
X107701D01*
X108035Y76533D01*
Y77866D01*
X16367Y82266D02*
X16700Y82599D01*
X17367D01*
X17700Y82266D01*
Y80933D01*
X17367Y80600D01*
X16700D01*
X16367Y80933D01*
X15701Y82266D02*
X15367Y82599D01*
X14701D01*
X14368Y82266D01*
Y81933D01*
X14701Y81600D01*
X14368Y81266D01*
Y80933D01*
X14701Y80600D01*
X15367D01*
X15701Y80933D01*
Y81266D01*
X15367Y81600D01*
X15701Y81933D01*
Y82266D01*
X15367Y81600D02*
X14701D01*
X82067Y118266D02*
X82400Y118599D01*
X83067D01*
X83400Y118266D01*
Y116933D01*
X83067Y116600D01*
X82400D01*
X82067Y116933D01*
X81401Y118599D02*
X80068D01*
Y118266D01*
X81401Y116933D01*
Y116600D01*
X89167Y79966D02*
X89500Y80299D01*
X90167D01*
X90500Y79966D01*
Y78633D01*
X90167Y78300D01*
X89500D01*
X89167Y78633D01*
X87168Y80299D02*
X87834Y79966D01*
X88501Y79300D01*
Y78633D01*
X88167Y78300D01*
X87501D01*
X87168Y78633D01*
Y78966D01*
X87501Y79300D01*
X88501D01*
X71467Y71766D02*
X71800Y72099D01*
X72467D01*
X72800Y71766D01*
Y70433D01*
X72467Y70100D01*
X71800D01*
X71467Y70433D01*
X69468Y72099D02*
X70801D01*
Y71100D01*
X70134Y71433D01*
X69801D01*
X69468Y71100D01*
Y70433D01*
X69801Y70100D01*
X70467D01*
X70801Y70433D01*
X96900Y36200D02*
Y38199D01*
X95900D01*
X95567Y37866D01*
Y37200D01*
X95900Y36866D01*
X96900D01*
X96234D02*
X95567Y36200D01*
X93568D02*
X94901D01*
X93568Y37533D01*
Y37866D01*
X93901Y38199D01*
X94567D01*
X94901Y37866D01*
X92901Y38199D02*
X91568D01*
Y37866D01*
X92901Y36533D01*
Y36200D01*
X89100Y36000D02*
Y37999D01*
X88100D01*
X87767Y37666D01*
Y37000D01*
X88100Y36666D01*
X89100D01*
X88434D02*
X87767Y36000D01*
X85768D02*
X87101D01*
X85768Y37333D01*
Y37666D01*
X86101Y37999D01*
X86767D01*
X87101Y37666D01*
X85101D02*
X84768Y37999D01*
X84102D01*
X83768Y37666D01*
Y37333D01*
X84102Y37000D01*
X83768Y36666D01*
Y36333D01*
X84102Y36000D01*
X84768D01*
X85101Y36333D01*
Y36666D01*
X84768Y37000D01*
X85101Y37333D01*
Y37666D01*
X84768Y37000D02*
X84102D01*
X156000Y78100D02*
X157333D01*
X156000Y68100D02*
X157333D01*
X156667Y68766D02*
Y67433D01*
X14667Y77866D02*
X15000Y78199D01*
X15667D01*
X16000Y77866D01*
Y77533D01*
X15667Y77200D01*
X15000D01*
X14667Y76866D01*
Y76533D01*
X15000Y76200D01*
X15667D01*
X16000Y76533D01*
X14001Y78199D02*
Y76200D01*
X13001D01*
X12668Y76533D01*
Y77866D01*
X13001Y78199D01*
X14001D01*
X12001Y76200D02*
Y77533D01*
X11335Y78199D01*
X10668Y77533D01*
Y76200D01*
Y77200D01*
X12001D01*
X14600Y66200D02*
Y67533D01*
X13934Y68199D01*
X13267Y67533D01*
Y66200D01*
Y67200D01*
X14600D01*
X12601Y67866D02*
X12267Y68199D01*
X11601D01*
X11268Y67866D01*
Y66533D01*
X11601Y66200D01*
X12267D01*
X12601Y66533D01*
Y67866D01*
X16300Y99599D02*
Y97600D01*
X14967D01*
X12968Y99599D02*
X14301D01*
Y97600D01*
X12968D01*
X14301Y98600D02*
X13634D01*
X12301Y99599D02*
Y97600D01*
X11302D01*
X10968Y97933D01*
Y99266D01*
X11302Y99599D01*
X12301D01*
X14567Y89666D02*
X14900Y89999D01*
X15567D01*
X15900Y89666D01*
Y89333D01*
X15567Y89000D01*
X14900D01*
X14567Y88666D01*
Y88333D01*
X14900Y88000D01*
X15567D01*
X15900Y88333D01*
X12568Y89666D02*
X12901Y89999D01*
X13567D01*
X13901Y89666D01*
Y88333D01*
X13567Y88000D01*
X12901D01*
X12568Y88333D01*
X11901Y89999D02*
Y88000D01*
Y88666D01*
X10568Y89999D01*
X11568Y89000D01*
X10568Y88000D01*
X12967Y47366D02*
X13300Y47699D01*
X13967D01*
X14300Y47366D01*
Y46033D01*
X13967Y45700D01*
X13300D01*
X12967Y46033D01*
X10968Y47366D02*
X11301Y47699D01*
X11967D01*
X12301Y47366D01*
Y47033D01*
X11967Y46700D01*
X11301D01*
X10968Y46366D01*
Y46033D01*
X11301Y45700D01*
X11967D01*
X12301Y46033D01*
X15167Y39266D02*
X15500Y39599D01*
X16167D01*
X16500Y39266D01*
Y37933D01*
X16167Y37600D01*
X15500D01*
X15167Y37933D01*
Y38600D01*
X15834D01*
X14501Y37600D02*
Y39599D01*
X13168Y37600D01*
Y39599D01*
X12501D02*
Y37600D01*
X11502D01*
X11168Y37933D01*
Y39266D01*
X11502Y39599D01*
X12501D01*
X20000Y55500D02*
Y57499D01*
X19000D01*
X18667Y57166D01*
Y56500D01*
X19000Y56166D01*
X20000D01*
X19333D02*
X18667Y55500D01*
X16668Y57499D02*
X18001D01*
Y55500D01*
X16668D01*
X18001Y56500D02*
X17334D01*
X14668Y57166D02*
X15002Y57499D01*
X15668D01*
X16001Y57166D01*
Y56833D01*
X15668Y56500D01*
X15002D01*
X14668Y56166D01*
Y55833D01*
X15002Y55500D01*
X15668D01*
X16001Y55833D01*
X12669Y57499D02*
X14002D01*
Y55500D01*
X12669D01*
X14002Y56500D02*
X13336D01*
X12003Y57499D02*
X10670D01*
X11336D01*
Y55500D01*
X16100Y28999D02*
Y27666D01*
X15434Y27000D01*
X14767Y27666D01*
Y28999D01*
X12768Y28666D02*
X13101Y28999D01*
X13767D01*
X14101Y28666D01*
Y27333D01*
X13767Y27000D01*
X13101D01*
X12768Y27333D01*
X10768Y28666D02*
X11102Y28999D01*
X11768D01*
X12101Y28666D01*
Y27333D01*
X11768Y27000D01*
X11102D01*
X10768Y27333D01*
D11*
X86700Y108654D02*
Y112653D01*
X85367Y111320D01*
X84034Y112653D01*
Y108654D01*
X82035Y111320D02*
X80702D01*
X80036Y110653D01*
Y108654D01*
X82035D01*
X82701Y109320D01*
X82035Y109987D01*
X80036D01*
X76037Y112653D02*
Y108654D01*
X78036D01*
X78703Y109320D01*
Y110653D01*
X78036Y111320D01*
X76037D01*
X72038Y112653D02*
Y108654D01*
X74037D01*
X74704Y109320D01*
Y110653D01*
X74037Y111320D01*
X72038D01*
X70039Y108654D02*
X68706D01*
X68039Y109320D01*
Y110653D01*
X68706Y111320D01*
X70039D01*
X70705Y110653D01*
Y109320D01*
X70039Y108654D01*
X65374Y107321D02*
X64707D01*
X64041Y107988D01*
Y111320D01*
X66040D01*
X66706Y110653D01*
Y109320D01*
X66040Y108654D01*
X64041D01*
X58709Y112653D02*
Y108654D01*
X57376Y109987D01*
X56043Y108654D01*
Y112653D01*
X54044Y108654D02*
X52711D01*
X52044Y109320D01*
Y110653D01*
X52711Y111320D01*
X54044D01*
X54710Y110653D01*
Y109320D01*
X54044Y108654D01*
X50712Y111320D02*
Y108654D01*
Y109987D01*
X50045Y110653D01*
X49379Y111320D01*
X48712D01*
X46713Y108654D02*
Y112653D01*
Y109987D02*
X44714Y111320D01*
X46713Y109987D02*
X44714Y108654D01*
X42714D02*
X40715D01*
X40048Y109320D01*
X40715Y109987D01*
X42048D01*
X42714Y110653D01*
X42048Y111320D01*
X40048D01*
X38715Y112653D02*
Y108654D01*
Y110653D01*
X38049Y111320D01*
X36716D01*
X36050Y110653D01*
Y108654D01*
X34050D02*
X32717D01*
X32051Y109320D01*
Y110653D01*
X32717Y111320D01*
X34050D01*
X34717Y110653D01*
Y109320D01*
X34050Y108654D01*
X30718Y107321D02*
Y111320D01*
X28719D01*
X28052Y110653D01*
Y109320D01*
X28719Y108654D01*
X30718D01*
X84034Y104601D02*
X86700D01*
Y102602D01*
X85367D01*
X86700D01*
Y100603D01*
X82701D02*
X81368D01*
X82035D01*
Y104601D01*
X82701D01*
X79369Y100603D02*
X78036D01*
X78703D01*
Y103269D01*
X79369D01*
X76037D02*
Y100603D01*
Y101936D01*
X75370Y102602D01*
X74704Y103269D01*
X74037D01*
X65374Y103935D02*
X66040Y104601D01*
X67373D01*
X68039Y103935D01*
Y101269D01*
X67373Y100603D01*
X66040D01*
X65374Y101269D01*
X63374Y103269D02*
X62041D01*
X61375Y102602D01*
Y100603D01*
X63374D01*
X64041Y101269D01*
X63374Y101936D01*
X61375D01*
X60042Y100603D02*
Y103269D01*
X59376D01*
X58709Y102602D01*
Y100603D01*
Y102602D01*
X58043Y103269D01*
X57376Y102602D01*
Y100603D01*
X54044D02*
X55377D01*
X56043Y101269D01*
Y102602D01*
X55377Y103269D01*
X54044D01*
X53377Y102602D01*
Y101936D01*
X56043D01*
X52044Y103269D02*
Y100603D01*
Y101936D01*
X51378Y102602D01*
X50712Y103269D01*
X50045D01*
X47379D02*
X46046D01*
X45380Y102602D01*
Y100603D01*
X47379D01*
X48046Y101269D01*
X47379Y101936D01*
X45380D01*
X40048Y100603D02*
Y104601D01*
X38049D01*
X37383Y103935D01*
Y102602D01*
X38049Y101936D01*
X40048D01*
X36050Y103269D02*
Y100603D01*
Y101936D01*
X35383Y102602D01*
X34717Y103269D01*
X34050D01*
X31385Y100603D02*
X30052D01*
X29385Y101269D01*
Y102602D01*
X30052Y103269D01*
X31385D01*
X32051Y102602D01*
Y101269D01*
X31385Y100603D01*
X28052Y99270D02*
X27386D01*
X26719Y99936D01*
Y103269D01*
X22054Y100603D02*
X23387D01*
X24054Y101269D01*
Y102602D01*
X23387Y103269D01*
X22054D01*
X21388Y102602D01*
Y101936D01*
X24054D01*
X17389Y103269D02*
X19388D01*
X20055Y102602D01*
Y101269D01*
X19388Y100603D01*
X17389D01*
X15390Y103935D02*
Y103269D01*
X16056D01*
X14723D01*
X15390D01*
Y101269D01*
X14723Y100603D01*
X86700Y92551D02*
Y96550D01*
X84701D01*
X84034Y95884D01*
Y94551D01*
X84701Y93884D01*
X86700D01*
X82701Y95217D02*
Y92551D01*
Y93884D01*
X82035Y94551D01*
X81368Y95217D01*
X80702D01*
X78036Y92551D02*
X76703D01*
X76037Y93218D01*
Y94551D01*
X76703Y95217D01*
X78036D01*
X78703Y94551D01*
Y93218D01*
X78036Y92551D01*
X74037Y95884D02*
Y95217D01*
X74704D01*
X73371D01*
X74037D01*
Y93218D01*
X73371Y92551D01*
X70705D02*
X69372D01*
X68706Y93218D01*
Y94551D01*
X69372Y95217D01*
X70705D01*
X71372Y94551D01*
Y93218D01*
X70705Y92551D01*
X66706Y95884D02*
Y95217D01*
X67373D01*
X66040D01*
X66706D01*
Y93218D01*
X66040Y92551D01*
X64041Y95217D02*
Y93218D01*
X63374Y92551D01*
X61375D01*
Y91885D01*
X62041Y91218D01*
X62708D01*
X61375Y92551D02*
Y95217D01*
X60042Y91218D02*
Y95217D01*
X58043D01*
X57376Y94551D01*
Y93218D01*
X58043Y92551D01*
X60042D01*
X54044D02*
X55377D01*
X56043Y93218D01*
Y94551D01*
X55377Y95217D01*
X54044D01*
X53377Y94551D01*
Y93884D01*
X56043D01*
X48046Y95217D02*
X46713Y92551D01*
X45380Y95217D01*
X42048Y92551D02*
X43381D01*
X44047Y93218D01*
Y94551D01*
X43381Y95217D01*
X42048D01*
X41381Y94551D01*
Y93884D01*
X44047D01*
X40048Y95217D02*
Y92551D01*
Y93884D01*
X39382Y94551D01*
X38715Y95217D01*
X38049D01*
X36050Y92551D02*
Y93218D01*
X35383D01*
Y92551D01*
X36050D01*
X30052D02*
X32717D01*
X30052Y95217D01*
Y95884D01*
X30718Y96550D01*
X32051D01*
X32717Y95884D01*
X86700Y87166D02*
Y85166D01*
X86034Y84500D01*
X85367Y85166D01*
X84701Y84500D01*
X84034Y85166D01*
Y87166D01*
X80036Y84500D02*
X82701D01*
X80036Y87166D01*
Y87832D01*
X80702Y88499D01*
X82035D01*
X82701Y87832D01*
X78703D02*
X78036Y88499D01*
X76703D01*
X76037Y87832D01*
Y87166D01*
X76703Y86499D01*
X77370D01*
X76703D01*
X76037Y85833D01*
Y85166D01*
X76703Y84500D01*
X78036D01*
X78703Y85166D01*
D41*
X20316Y91342D02*
G03*
X20316Y91342I-278J0D01*
G01*
X20727Y76873D02*
X31455D01*
X20727Y90161D02*
X31455D01*
X20727Y76873D02*
Y90161D01*
X31455Y76873D02*
Y90161D01*
D104*
X85500Y26950D02*
Y33250D01*
X90500Y26950D02*
Y33250D01*
X96000Y26950D02*
Y33250D01*
X91000Y26950D02*
Y33250D01*
X129686Y67863D02*
Y75737D01*
X122914Y67863D02*
Y75737D01*
X154186Y45963D02*
Y53837D01*
X147414Y45963D02*
Y53837D01*
X134463Y39386D02*
X142337D01*
X134463Y32614D02*
X142337D01*
X104863Y67186D02*
X112737D01*
X104863Y60414D02*
X112737D01*
X104763Y75086D02*
X112637D01*
X104763Y68314D02*
X112637D01*
X69332Y65510D02*
X73269D01*
X69332Y69290D02*
X73269D01*
X82610Y76832D02*
Y80769D01*
X86390Y76832D02*
Y80769D01*
X74532Y119490D02*
X78469D01*
X74532Y115710D02*
X78469D01*
X14210Y83832D02*
Y87769D01*
X17990Y83832D02*
Y87769D01*
X132879Y59453D02*
X142721D01*
X132879Y49296D02*
X142721D01*
X51000Y58950D02*
Y65250D01*
X46000Y58950D02*
Y65250D01*
X124850Y83600D02*
X131150D01*
X124850Y78600D02*
X131150D01*
X62110Y46632D02*
Y50568D01*
X65890Y46632D02*
Y50568D01*
X136350Y83600D02*
X142650D01*
X136350Y78600D02*
X142650D01*
X118350Y41600D02*
X124650D01*
X118350Y36600D02*
X124650D01*
X118350Y36100D02*
X124650D01*
X118350Y31100D02*
X124650D01*
X109100Y33150D02*
Y39450D01*
X114100Y33150D02*
Y39450D01*
X56000Y58950D02*
Y65250D01*
X51000Y58950D02*
Y65250D01*
X130350Y96100D02*
X136650D01*
X130350Y91100D02*
X136650D01*
X130539Y90037D02*
X136839D01*
X130539Y85037D02*
X136839D01*
X10000Y103950D02*
Y110250D01*
X5000Y103950D02*
Y110250D01*
X51850Y8100D02*
X58150D01*
X51850Y13100D02*
X58150D01*
D105*
X144500Y62600D02*
Y82600D01*
Y62600D02*
X154500D01*
X144500Y82600D02*
X154500D01*
Y62600D02*
Y82600D01*
M02*
