G04 Layer_Color=32768*
%FSLAX25Y25*%
%MOIN*%
G70*
G01*
G75*
%ADD149C,0.00197*%
D149*
X88984Y30100D02*
G03*
X88984Y30100I-984J0D01*
G01*
X94484D02*
G03*
X94484Y30100I-984J0D01*
G01*
X127284Y71800D02*
G03*
X127284Y71800I-984J0D01*
G01*
X151784Y49900D02*
G03*
X151784Y49900I-984J0D01*
G01*
X139384Y36000D02*
G03*
X139384Y36000I-984J0D01*
G01*
X109784Y63800D02*
G03*
X109784Y63800I-984J0D01*
G01*
X109684Y71700D02*
G03*
X109684Y71700I-984J0D01*
G01*
X119684Y95100D02*
G03*
X119684Y95100I-984J0D01*
G01*
X116384Y72400D02*
G03*
X116384Y72400I-984J0D01*
G01*
X72097Y67400D02*
G03*
X72097Y67400I-797J0D01*
G01*
X85297Y78800D02*
G03*
X85297Y78800I-797J0D01*
G01*
X77297Y117600D02*
G03*
X77297Y117600I-797J0D01*
G01*
X16897Y85800D02*
G03*
X16897Y85800I-797J0D01*
G01*
X138784Y54375D02*
G03*
X138784Y54375I-984J0D01*
G01*
X49484Y62100D02*
G03*
X49484Y62100I-984J0D01*
G01*
X128984Y81100D02*
G03*
X128984Y81100I-984J0D01*
G01*
X64797Y48600D02*
G03*
X64797Y48600I-797J0D01*
G01*
X140484Y81100D02*
G03*
X140484Y81100I-984J0D01*
G01*
X122484Y39100D02*
G03*
X122484Y39100I-984J0D01*
G01*
Y33600D02*
G03*
X122484Y33600I-984J0D01*
G01*
X112584Y36300D02*
G03*
X112584Y36300I-984J0D01*
G01*
X54484Y62100D02*
G03*
X54484Y62100I-984J0D01*
G01*
X134484Y93600D02*
G03*
X134484Y93600I-984J0D01*
G01*
X134673Y87537D02*
G03*
X134673Y87537I-984J0D01*
G01*
X8484Y107100D02*
G03*
X8484Y107100I-984J0D01*
G01*
Y28600D02*
G03*
X8484Y28600I-984J0D01*
G01*
X134305Y59100D02*
G03*
X134305Y59100I-805J0D01*
G01*
X24684Y110600D02*
G03*
X24684Y110600I-984J0D01*
G01*
X32597Y101600D02*
G03*
X32597Y101600I-797J0D01*
G01*
X20684Y96200D02*
G03*
X20684Y96200I-984J0D01*
G01*
X10484Y109100D02*
G03*
X10484Y109100I-984J0D01*
G01*
X25797Y68300D02*
G03*
X25797Y68300I-797J0D01*
G01*
X115084Y36300D02*
G03*
X115084Y36300I-984J0D01*
G01*
X124084Y34000D02*
G03*
X124084Y34000I-984J0D01*
G01*
X106984Y54600D02*
G03*
X106984Y54600I-984J0D01*
G01*
X63297Y6600D02*
G03*
X63297Y6600I-797J0D01*
G01*
X27484Y73800D02*
G03*
X27484Y73800I-984J0D01*
G01*
X139984Y57100D02*
G03*
X139984Y57100I-984J0D01*
G01*
X107784Y83700D02*
G03*
X107784Y83700I-984J0D01*
G01*
X56305Y2600D02*
G03*
X56305Y2600I-805J0D01*
G01*
X133484Y94600D02*
G03*
X133484Y94600I-984J0D01*
G01*
X68484Y7600D02*
G03*
X68484Y7600I-984J0D01*
G01*
X40797Y26600D02*
G03*
X40797Y26600I-797J0D01*
G01*
X43984Y50300D02*
G03*
X43984Y50300I-984J0D01*
G01*
X123984Y39000D02*
G03*
X123984Y39000I-984J0D01*
G01*
X32297Y13100D02*
G03*
X32297Y13100I-797J0D01*
G01*
X132484Y46600D02*
G03*
X132484Y46600I-984J0D01*
G01*
X77797Y44600D02*
G03*
X77797Y44600I-797J0D01*
G01*
X76097Y17900D02*
G03*
X76097Y17900I-797J0D01*
G01*
X48697Y52600D02*
G03*
X48697Y52600I-797J0D01*
G01*
X38797Y49300D02*
G03*
X38797Y49300I-797J0D01*
G01*
X24984Y62300D02*
G03*
X24984Y62300I-984J0D01*
G01*
X42497Y68800D02*
G03*
X42497Y68800I-797J0D01*
G01*
X31884Y40500D02*
G03*
X31884Y40500I-984J0D01*
G01*
X31984Y29100D02*
G03*
X31984Y29100I-984J0D01*
G01*
X101984Y54600D02*
G03*
X101984Y54600I-984J0D01*
G01*
X55984Y10600D02*
G03*
X55984Y10600I-984J0D01*
G01*
X128984Y83600D02*
G03*
X128984Y83600I-984J0D01*
G01*
X85205Y24352D02*
Y35848D01*
X90795D01*
X85205Y24352D02*
X90795D01*
Y35848D01*
X86622Y30100D02*
X89378D01*
X88000Y28722D02*
Y31478D01*
X96295Y24352D02*
Y35848D01*
X90705Y24352D02*
X96295D01*
X90705Y35848D02*
X96295D01*
X90705Y24352D02*
Y35848D01*
X92122Y30100D02*
X94878D01*
X93500Y28722D02*
Y31478D01*
X122639Y65265D02*
X129961D01*
Y78335D01*
X122639D02*
X129961D01*
X122639Y65265D02*
Y78335D01*
X126300Y70422D02*
Y73178D01*
X124922Y71800D02*
X127678D01*
X147139Y43365D02*
X154461D01*
Y56435D01*
X147139D02*
X154461D01*
X147139Y43365D02*
Y56435D01*
X150800Y48522D02*
Y51278D01*
X149422Y49900D02*
X152178D01*
X144935Y32339D02*
Y39661D01*
X131865D02*
X144935D01*
X131865Y32339D02*
Y39661D01*
Y32339D02*
X144935D01*
X137022Y36000D02*
X139778D01*
X138400Y34622D02*
Y37378D01*
X115335Y60139D02*
Y67461D01*
X102265D02*
X115335D01*
X102265Y60139D02*
Y67461D01*
Y60139D02*
X115335D01*
X107422Y63800D02*
X110178D01*
X108800Y62422D02*
Y65178D01*
X115235Y68039D02*
Y75361D01*
X102165D02*
X115235D01*
X102165Y68039D02*
Y75361D01*
Y68039D02*
X115235D01*
X107322Y71700D02*
X110078D01*
X108700Y70322D02*
Y73078D01*
X112165Y91439D02*
Y98761D01*
X125235D01*
Y91439D02*
Y98761D01*
X112165Y91439D02*
X125235D01*
X117322Y95100D02*
X120078D01*
X118700Y93722D02*
Y96478D01*
X108865Y68739D02*
Y76061D01*
X121935D01*
Y68739D02*
Y76061D01*
X108865Y68739D02*
X121935D01*
X114022Y72400D02*
X116778D01*
X115400Y71022D02*
Y73778D01*
X67875Y65274D02*
Y69526D01*
Y65274D02*
X74725D01*
X67875Y69526D02*
X74725D01*
X71300Y66337D02*
Y68463D01*
X74725Y65274D02*
Y69526D01*
X70237Y67400D02*
X72363D01*
X82374Y75375D02*
Y82225D01*
Y75375D02*
X86626D01*
X83437Y78800D02*
X85563D01*
X82374Y82225D02*
X86626D01*
Y75375D02*
Y82225D01*
X84500Y77737D02*
Y79863D01*
X79925Y115474D02*
Y119726D01*
X73075D02*
X79925D01*
X73075Y115474D02*
X79925D01*
X76500Y116537D02*
Y118663D01*
X73075Y115474D02*
Y119726D01*
X75437Y117600D02*
X77563D01*
X13974Y82375D02*
Y89225D01*
Y82375D02*
X18226D01*
X15037Y85800D02*
X17163D01*
X13974Y89225D02*
X18226D01*
Y82375D02*
Y89225D01*
X16100Y84737D02*
Y86863D01*
X130084Y49020D02*
Y59729D01*
X145517D01*
X130084Y49020D02*
X145517D01*
Y59729D01*
X136422Y54375D02*
X139178D01*
X137800Y52997D02*
Y55753D01*
X51295Y56352D02*
Y67848D01*
X45705Y56352D02*
X51295D01*
X45705Y67848D02*
X51295D01*
X45705Y56352D02*
Y67848D01*
X47122Y62100D02*
X49878D01*
X48500Y60722D02*
Y63478D01*
X122252Y78305D02*
Y83895D01*
X133748D01*
X122252Y78305D02*
X133748D01*
Y83895D01*
X126622Y81100D02*
X129378D01*
X128000Y79722D02*
Y82478D01*
X61874Y45175D02*
Y52025D01*
X66126D01*
X62937Y48600D02*
X65063D01*
X61874Y45175D02*
X66126D01*
Y52025D01*
X64000Y47537D02*
Y49663D01*
X133752Y78305D02*
Y83895D01*
X145248D01*
X133752Y78305D02*
X145248D01*
Y83895D01*
X138122Y81100D02*
X140878D01*
X139500Y79722D02*
Y82478D01*
X115752Y36305D02*
Y41895D01*
X127248D01*
X115752Y36305D02*
X127248D01*
Y41895D01*
X120122Y39100D02*
X122878D01*
X121500Y37722D02*
Y40478D01*
X115752Y30805D02*
Y36395D01*
X127248D01*
X115752Y30805D02*
X127248D01*
Y36395D01*
X120122Y33600D02*
X122878D01*
X121500Y32222D02*
Y34978D01*
X108805Y30552D02*
X114395D01*
X108805D02*
Y42048D01*
X114395Y30552D02*
Y42048D01*
X108805D02*
X114395D01*
X111600Y34922D02*
Y37678D01*
X110222Y36300D02*
X112978D01*
X56295Y56352D02*
Y67848D01*
X50705Y56352D02*
X56295D01*
X50705Y67848D02*
X56295D01*
X50705Y56352D02*
Y67848D01*
X52122Y62100D02*
X54878D01*
X53500Y60722D02*
Y63478D01*
X127752Y96395D02*
X139248D01*
Y90805D02*
Y96395D01*
X127752Y90805D02*
Y96395D01*
Y90805D02*
X139248D01*
X133500Y92222D02*
Y94978D01*
X132122Y93600D02*
X134878D01*
X127941Y90332D02*
X139437D01*
Y84742D02*
Y90332D01*
X127941Y84742D02*
Y90332D01*
Y84742D02*
X139437D01*
X133689Y86159D02*
Y88915D01*
X132311Y87537D02*
X135067D01*
X10295Y101352D02*
Y112848D01*
X4705Y101352D02*
X10295D01*
X4705Y112848D02*
X10295D01*
X4705Y101352D02*
Y112848D01*
X6122Y107100D02*
X8878D01*
X7500Y105722D02*
Y108478D01*
X1516Y22616D02*
X13484D01*
X1516D02*
Y104584D01*
X13484D01*
Y22616D02*
Y104584D01*
X7500Y27222D02*
Y29978D01*
X6122Y28600D02*
X8878D01*
X131354Y55714D02*
X135646D01*
Y62486D01*
X131354Y55714D02*
Y62486D01*
X132427Y59100D02*
X134573D01*
X131354Y62486D02*
X135646D01*
X133500Y58027D02*
Y60173D01*
X16810Y103710D02*
X19212D01*
X15393Y106112D02*
X16810D01*
Y103710D02*
Y106112D01*
X19212Y102293D02*
Y103710D01*
X15393Y106112D02*
Y115088D01*
X19212Y102293D02*
X28188D01*
X15393Y115088D02*
X16810D01*
Y117490D01*
X19212D01*
Y118907D01*
X28188Y102293D02*
Y103710D01*
X23700Y109222D02*
Y111978D01*
X30590Y103710D02*
Y106112D01*
X28188Y103710D02*
X30590D01*
Y106112D02*
X32007D01*
Y115088D01*
X22322Y110600D02*
X25078D01*
X28188Y117490D02*
Y118907D01*
Y117490D02*
X30590D01*
Y115088D02*
X32007D01*
X30590D02*
Y117490D01*
X19212Y118907D02*
X28188D01*
X35225Y99474D02*
Y103726D01*
X28375D02*
X35225D01*
X28375Y99474D02*
X35225D01*
X31800Y100537D02*
Y102663D01*
X28375Y99474D02*
Y103726D01*
X30737Y101600D02*
X32863D01*
X13952Y93405D02*
X25448D01*
Y98995D01*
X13952Y93405D02*
Y98995D01*
X25448D01*
X19700Y94822D02*
Y97578D01*
X18322Y96200D02*
X21078D01*
X6705Y103352D02*
Y114848D01*
Y103352D02*
X12295D01*
X6705Y114848D02*
X12295D01*
Y103352D02*
Y114848D01*
X8122Y109100D02*
X10878D01*
X9500Y107722D02*
Y110478D01*
X21575Y66174D02*
Y70426D01*
Y66174D02*
X28425D01*
X21575Y70426D02*
X28425D01*
X25000Y67237D02*
Y69363D01*
X28425Y66174D02*
Y70426D01*
X23937Y68300D02*
X26063D01*
X111305Y42048D02*
X116895D01*
X111305Y30552D02*
Y42048D01*
X116895Y30552D02*
Y42048D01*
X111305Y30552D02*
X116895D01*
X114100Y34922D02*
Y37678D01*
X112722Y36300D02*
X115478D01*
X117352Y31205D02*
Y36795D01*
Y31205D02*
X128848D01*
X117352Y36795D02*
X128848D01*
Y31205D02*
Y36795D01*
X121722Y34000D02*
X124478D01*
X123100Y32622D02*
Y35378D01*
X103205Y48852D02*
Y60348D01*
Y48852D02*
X108795D01*
X103205Y60348D02*
X108795D01*
Y48852D02*
Y60348D01*
X104622Y54600D02*
X107378D01*
X106000Y53222D02*
Y55978D01*
X60374Y3175D02*
Y10025D01*
Y3175D02*
X64626D01*
X61437Y6600D02*
X63563D01*
X60374Y10025D02*
X64626D01*
Y3175D02*
Y10025D01*
X62500Y5537D02*
Y7663D01*
X20752Y71005D02*
Y76595D01*
Y71005D02*
X32248D01*
X20752Y76595D02*
X32248D01*
Y71005D02*
Y76595D01*
X25122Y73800D02*
X27878D01*
X26500Y72422D02*
Y75178D01*
X136205Y62848D02*
X141795D01*
X136205Y51352D02*
Y62848D01*
X141795Y51352D02*
Y62848D01*
X136205Y51352D02*
X141795D01*
X139000Y55722D02*
Y58478D01*
X137622Y57100D02*
X140378D01*
X101446Y75984D02*
Y91417D01*
Y75984D02*
X112154D01*
X101446Y91417D02*
X112154D01*
Y75984D02*
Y91417D01*
X105422Y83700D02*
X108178D01*
X106800Y82322D02*
Y85078D01*
X52114Y454D02*
X58886D01*
Y4746D01*
X55500Y1527D02*
Y3673D01*
X52114Y454D02*
Y4746D01*
X58886D01*
X54427Y2600D02*
X56573D01*
X126752Y97395D02*
X138248D01*
X126752Y91805D02*
Y97395D01*
X138248Y91805D02*
Y97395D01*
X126752Y91805D02*
X138248D01*
X132500Y93222D02*
Y95978D01*
X131122Y94600D02*
X133878D01*
X64705Y1852D02*
Y13348D01*
Y1852D02*
X70295D01*
X64705Y13348D02*
X70295D01*
Y1852D02*
Y13348D01*
X66122Y7600D02*
X68878D01*
X67500Y6222D02*
Y8978D01*
X37874Y23175D02*
Y30025D01*
Y23175D02*
X42126D01*
X38937Y26600D02*
X41063D01*
X37874Y30025D02*
X42126D01*
Y23175D02*
Y30025D01*
X40000Y25537D02*
Y27663D01*
X40205Y44552D02*
Y56048D01*
Y44552D02*
X45795D01*
X40205Y56048D02*
X45795D01*
Y44552D02*
Y56048D01*
X41622Y50300D02*
X44378D01*
X43000Y48922D02*
Y51678D01*
X117252Y36205D02*
Y41795D01*
Y36205D02*
X128748D01*
X117252Y41795D02*
X128748D01*
Y36205D02*
Y41795D01*
X121622Y39000D02*
X124378D01*
X123000Y37622D02*
Y40378D01*
X29374Y16525D02*
X33626D01*
X29374Y9675D02*
Y16525D01*
X33626Y9675D02*
Y16525D01*
X30437Y13100D02*
X32563D01*
X29374Y9675D02*
X33626D01*
X31500Y12037D02*
Y14163D01*
X128705Y40852D02*
Y52348D01*
Y40852D02*
X134295D01*
X128705Y52348D02*
X134295D01*
Y40852D02*
Y52348D01*
X130122Y46600D02*
X132878D01*
X131500Y45222D02*
Y47978D01*
X74874Y41175D02*
Y48025D01*
Y41175D02*
X79126D01*
X75937Y44600D02*
X78063D01*
X74874Y48025D02*
X79126D01*
Y41175D02*
Y48025D01*
X77000Y43537D02*
Y45663D01*
X71875Y15774D02*
X78725D01*
Y20026D01*
X75300Y16837D02*
Y18963D01*
X71875Y15774D02*
Y20026D01*
X78725D01*
X74237Y17900D02*
X76363D01*
X45774Y49175D02*
Y56025D01*
Y49175D02*
X50026D01*
X46837Y52600D02*
X48963D01*
X45774Y56025D02*
X50026D01*
Y49175D02*
Y56025D01*
X47900Y51537D02*
Y53663D01*
X35874Y45875D02*
Y52725D01*
Y45875D02*
X40126D01*
X36937Y49300D02*
X39063D01*
X35874Y52725D02*
X40126D01*
Y45875D02*
Y52725D01*
X38000Y48237D02*
Y50363D01*
X18252Y59505D02*
Y65095D01*
Y59505D02*
X29748D01*
X18252Y65095D02*
X29748D01*
Y59505D02*
Y65095D01*
X22622Y62300D02*
X25378D01*
X24000Y60922D02*
Y63678D01*
X45125Y66674D02*
Y70926D01*
X38275D02*
X45125D01*
X38275Y66674D02*
X45125D01*
X41700Y67737D02*
Y69863D01*
X38275Y66674D02*
Y70926D01*
X40637Y68800D02*
X42763D01*
X28105Y46248D02*
X33695D01*
X28105Y34752D02*
Y46248D01*
X33695Y34752D02*
Y46248D01*
X28105Y34752D02*
X33695D01*
X30900Y39122D02*
Y41878D01*
X29522Y40500D02*
X32278D01*
X28205Y23352D02*
X33795D01*
Y34848D01*
X28205Y23352D02*
Y34848D01*
X33795D01*
X31000Y27722D02*
Y30478D01*
X29622Y29100D02*
X32378D01*
X98205Y48852D02*
Y60348D01*
Y48852D02*
X103795D01*
X98205Y60348D02*
X103795D01*
Y48852D02*
Y60348D01*
X99622Y54600D02*
X102378D01*
X101000Y53222D02*
Y55978D01*
X60748Y7805D02*
Y13395D01*
X49252Y7805D02*
X60748D01*
X49252Y13395D02*
X60748D01*
X49252Y7805D02*
Y13395D01*
X53622Y10600D02*
X56378D01*
X55000Y9222D02*
Y11978D01*
X126622Y83600D02*
X129378D01*
X128000Y82222D02*
Y84978D01*
X120992Y89033D02*
Y90608D01*
X119732Y89033D02*
X120992D01*
X119732Y78167D02*
Y89033D01*
Y78167D02*
X120992D01*
Y76592D02*
Y78167D01*
Y76592D02*
X135008D01*
Y78167D01*
X136268D01*
Y89033D01*
X135008D02*
X136268D01*
X135008D02*
Y90608D01*
X120992D02*
X135008D01*
M02*
