G04 Layer_Color=32768*
%FSLAX25Y25*%
%MOIN*%
G70*
G01*
G75*
%ADD104C,0.00472*%
D104*
X86425Y26950D02*
Y33250D01*
X89575D01*
X86425Y26950D02*
X89575D01*
Y33250D01*
X95075Y26950D02*
Y33250D01*
X91925Y26950D02*
X95075D01*
X91925Y33250D02*
X95075D01*
X91925Y26950D02*
Y33250D01*
X123820Y67863D02*
X128780D01*
Y75737D01*
X123820D02*
X128780D01*
X123820Y67863D02*
Y75737D01*
X148320Y45963D02*
X153280D01*
Y53837D01*
X148320D02*
X153280D01*
X148320Y45963D02*
Y53837D01*
X142337Y33520D02*
Y38480D01*
X134463D02*
X142337D01*
X134463Y33520D02*
Y38480D01*
Y33520D02*
X142337D01*
X112737Y61320D02*
Y66280D01*
X104863D02*
X112737D01*
X104863Y61320D02*
Y66280D01*
Y61320D02*
X112737D01*
X112637Y69220D02*
Y74180D01*
X104763D02*
X112637D01*
X104763Y69220D02*
Y74180D01*
Y69220D02*
X112637D01*
X114763Y92620D02*
Y97580D01*
X122637D01*
Y92620D02*
Y97580D01*
X114763Y92620D02*
X122637D01*
X111463Y69920D02*
Y74880D01*
X119337D01*
Y69920D02*
Y74880D01*
X111463Y69920D02*
X119337D01*
X69135Y66298D02*
Y68502D01*
Y66298D02*
X73465D01*
X69135Y68502D02*
X73465D01*
Y66298D02*
Y68502D01*
X83398Y76635D02*
Y80965D01*
Y76635D02*
X85602D01*
X83398Y80965D02*
X85602D01*
Y76635D02*
Y80965D01*
X78665Y116498D02*
Y118702D01*
X74335D02*
X78665D01*
X74335Y116498D02*
X78665D01*
X74335D02*
Y118702D01*
X14998Y83635D02*
Y87965D01*
Y83635D02*
X17202D01*
X14998Y87965D02*
X17202D01*
Y83635D02*
Y87965D01*
X132485Y50044D02*
Y58706D01*
X143115D01*
X132485Y50044D02*
X143115D01*
Y58706D01*
X46925Y58950D02*
X50075D01*
Y65250D01*
X46925D02*
X50075D01*
X46925Y58950D02*
Y65250D01*
X124850Y79525D02*
Y82675D01*
X131150D01*
X124850Y79525D02*
X131150D01*
Y82675D01*
X62898Y46435D02*
Y50765D01*
X65102D01*
X62898Y46435D02*
X65102D01*
Y50765D01*
X136350Y79525D02*
Y82675D01*
X142650D01*
X136350Y79525D02*
X142650D01*
Y82675D01*
X118350Y37525D02*
Y40675D01*
X124650D01*
X118350Y37525D02*
X124650D01*
Y40675D01*
X118350Y32025D02*
Y35175D01*
X124650D01*
X118350Y32025D02*
X124650D01*
Y35175D01*
X110025Y33150D02*
X113175D01*
X110025D02*
Y39450D01*
X113175Y33150D02*
Y39450D01*
X110025D02*
X113175D01*
X51925Y58950D02*
X55075D01*
Y65250D01*
X51925D02*
X55075D01*
X51925Y58950D02*
Y65250D01*
X136650Y92025D02*
Y95175D01*
X130350D02*
X136650D01*
X130350Y92025D02*
Y95175D01*
Y92025D02*
X136650D01*
X130539Y89112D02*
X136839D01*
Y85962D02*
Y89112D01*
X130539Y85962D02*
Y89112D01*
Y85962D02*
X136839D01*
X5925Y103950D02*
X9075D01*
Y110250D01*
X5925D02*
X9075D01*
X5925Y103950D02*
Y110250D01*
X2500Y23600D02*
X12500D01*
X2500D02*
Y103600D01*
X12500D01*
Y23600D02*
Y103600D01*
X132516Y57131D02*
X134484D01*
Y61068D01*
X132516Y57131D02*
Y61068D01*
X134484D01*
X17795Y104694D02*
Y116506D01*
Y104694D02*
X29605D01*
X17795Y116506D02*
X29605D01*
Y104694D02*
Y116506D01*
X33965Y100498D02*
Y102702D01*
X29635D02*
X33965D01*
X29635Y100498D02*
X33965D01*
X29635D02*
Y102702D01*
X16550Y94625D02*
X22850D01*
Y97775D01*
X16550Y94625D02*
Y97775D01*
X22850D01*
X7925Y105950D02*
Y112250D01*
Y105950D02*
X11075D01*
X7925Y112250D02*
X11075D01*
Y105950D02*
Y112250D01*
X22835Y67198D02*
Y69402D01*
Y67198D02*
X27165D01*
X22835Y69402D02*
X27165D01*
Y67198D02*
Y69402D01*
X112525Y39450D02*
X115675D01*
X112525Y33150D02*
Y39450D01*
X115675Y33150D02*
Y39450D01*
X112525Y33150D02*
X115675D01*
X119950Y32425D02*
Y35575D01*
Y32425D02*
X126250D01*
X119950Y35575D02*
X126250D01*
Y32425D02*
Y35575D01*
X104425Y51450D02*
X107575D01*
X104425D02*
Y57750D01*
X107575D01*
Y51450D02*
Y57750D01*
X61398Y4435D02*
Y8765D01*
Y4435D02*
X63602D01*
X61398Y8765D02*
X63602D01*
Y4435D02*
Y8765D01*
X23350Y72225D02*
Y75375D01*
Y72225D02*
X29650D01*
X23350Y75375D02*
X29650D01*
Y72225D02*
Y75375D01*
X137425Y60250D02*
X140575D01*
X137425Y53950D02*
Y60250D01*
X140575Y53950D02*
Y60250D01*
X137425Y53950D02*
X140575D01*
X102469Y78385D02*
Y89015D01*
Y78385D02*
X111131D01*
X102469Y89015D02*
X111131D01*
Y78385D02*
Y89015D01*
X53531Y1616D02*
X57468D01*
Y3584D01*
X53531Y1616D02*
Y3584D01*
X57468D01*
X129350Y93025D02*
Y96175D01*
X135650D01*
Y93025D02*
Y96175D01*
X129350Y93025D02*
X135650D01*
X65925Y4450D02*
Y10750D01*
Y4450D02*
X69075D01*
X65925Y10750D02*
X69075D01*
Y4450D02*
Y10750D01*
X38898Y24435D02*
Y28765D01*
Y24435D02*
X41102D01*
X38898Y28765D02*
X41102D01*
Y24435D02*
Y28765D01*
X41425Y47150D02*
X44575D01*
X41425D02*
Y53450D01*
X44575D01*
Y47150D02*
Y53450D01*
X119850Y37425D02*
Y40575D01*
Y37425D02*
X126150D01*
X119850Y40575D02*
X126150D01*
Y37425D02*
Y40575D01*
X30398Y15265D02*
X32602D01*
X30398Y10935D02*
Y15265D01*
X32602Y10935D02*
Y15265D01*
X30398Y10935D02*
X32602D01*
X129925Y43450D02*
X133075D01*
X129925D02*
Y49750D01*
X133075D01*
Y43450D02*
Y49750D01*
X75898Y42435D02*
Y46765D01*
Y42435D02*
X78102D01*
X75898Y46765D02*
X78102D01*
Y42435D02*
Y46765D01*
X73135Y16798D02*
X77465D01*
Y19002D01*
X73135Y16798D02*
Y19002D01*
X77465D01*
X46798Y50435D02*
Y54765D01*
Y50435D02*
X49002D01*
X46798Y54765D02*
X49002D01*
Y50435D02*
Y54765D01*
X36898Y47135D02*
Y51465D01*
Y47135D02*
X39102D01*
X36898Y51465D02*
X39102D01*
Y47135D02*
Y51465D01*
X20850Y60725D02*
Y63875D01*
Y60725D02*
X27150D01*
X20850Y63875D02*
X27150D01*
Y60725D02*
Y63875D01*
X43865Y67698D02*
Y69902D01*
X39535D02*
X43865D01*
X39535Y67698D02*
X43865D01*
X39535D02*
Y69902D01*
X29325Y43650D02*
X32475D01*
X29325Y37350D02*
Y43650D01*
X32475Y37350D02*
Y43650D01*
X29325Y37350D02*
X32475D01*
X29425Y25950D02*
X32575D01*
Y32250D01*
X29425Y25950D02*
Y32250D01*
X32575D01*
X99425Y51450D02*
Y57750D01*
Y51450D02*
X102575D01*
X99425Y57750D02*
X102575D01*
Y51450D02*
Y57750D01*
X58150Y9025D02*
Y12175D01*
X51850Y9025D02*
X58150D01*
X51850Y12175D02*
X58150D01*
X51850Y9025D02*
Y12175D01*
X121976Y89624D02*
X134024D01*
Y77576D02*
Y89624D01*
X121976Y77576D02*
X134024D01*
X121976D02*
Y89624D01*
M02*
