M48
;Layer_Color=9474304
;FILE_FORMAT=2:5
INCH,LZ
;TYPE=PLATED
T1F00S00C0.01181
T2F00S00C0.01575
T3F00S00C0.02000
T4F00S00C0.03307
T5F00S00C0.03543
T6F00S00C0.12598
;TYPE=NON_PLATED
T7F00S00C0.01800
%
T01
X00032Y00229
X00164Y00258
X00219
X00267
X0012Y00308
Y00365
Y00404
X00133Y00444
X00179
X00227
X00275Y00454
X00311Y00471
X00344Y0044
X00252Y01014
X00172Y01006
X00338Y01129
X0033Y011735
X0057Y01038
X0054985Y0101285
X0053076Y0099376
X00522Y00855
X0052685Y00823
X0056664Y0083436
X0065Y00824
X00698Y00844
X00706Y00893
X00705Y00929
X00699Y0097
X00705Y0101
X00819Y01011
X0086Y00984
X00902Y00964
X00931Y00942
X01369Y01011
X01404Y00895
X01429Y00869
X0131Y00774
X01265Y00664
X0123Y006245
X0128643Y0052925
X01262Y00439
X01222Y00433
X01167Y0043
X0105Y00416
X0078Y00391
X0076847Y0036253
X0064Y00277
X0060116Y0017772
X00585Y00141
X0053619Y0015441
X0048Y00171
X0042Y00121
X00365Y00146
X00355Y00216
X00345Y00261
X00347Y0029
X00345Y00317
X00358Y00387
X0041Y00406
X00415Y00436
X00513Y0035
X00519Y00528
X0054357Y0055243
X00565Y00501
X00546Y00696
X0065Y00641
X00478Y00808
X00455Y00884
X00367Y00737
X00345Y00683
X0058031Y0007632
X0084Y00166
T02
X00295Y00165
X0033Y00543
X00326Y00597
X00232Y0053
X0016Y00486
X0019Y00686
X0017Y00738
X0016Y00787
Y00913
X00156Y01046
X00237Y01106
X00136Y01179
X00095Y01176
X0005Y01146
X003Y00976
X00327Y00931
X00262Y00838
X00348Y00879
X00484Y00962
X00618Y00926
X0083Y00908
X0085Y00863
X00978Y00887
X00971Y00808
X0098Y00731
X00975Y00656
X0096Y00571
X00968Y00519
X0103Y00471
X0111Y00446
X012Y00528
X01209Y00683
X01112Y00662
X01333Y00673
X01407Y00688
X0138Y00731
X01266Y00856
X01171Y00838
X01079Y0095
X01007Y00956
X01215Y01026
X013
X014Y01131
X0154Y01151
X01519Y01075
X0154Y00971
Y00891
X01495Y00593
X01497Y00402
X01511Y00262
X01542Y00144
X01396Y00302
X01333Y00249
X0124Y00191
X01092Y00124
X0096Y00051
X00821Y00057
X00886Y00126
X00926Y00183
X0098Y00231
X0102Y00278
X01039Y00344
X00825Y00396
Y00446
X0064Y00388
X0055
X00545Y00278
X0042Y00211
X00392Y0007
X0052Y00061
X00645Y00031
X00736Y00138
X00814Y00198
X00818Y00694
X00641Y00676
X00495Y00696
X0046Y01171
X00585
X00705Y01181
X00845Y01168
X0083Y01073
X01385Y00476
T03
X0066958Y0104058
T04
X00075Y00286
Y00386
Y00486
Y00586
Y00686
Y00786
Y00886
Y00986
T05
X00595Y00551
X00695
X00795
X01495Y00676
Y00776
T06
X00151Y00112
X01452Y00111
X01034Y01099
T07
X010342Y0020129
X011838
M30
